<svg xmlns="http://www.w3.org/2000/svg" height="1024" preserveAspectRatio="none" style="display: block;" version="1.1" viewBox="0 0 2048 2048" width="1024">
<path d="M 0 0 L 2048 0 L 2048 2048 L 0 2048 L 0 0 z" fill="rgb(20,22,26)" transform="translate(0,0)"></path>
<path d="M 681.735 672.15 C 717.824 670.616 764.965 672.018 801.859 672.012 L 1042.47 671.975 L 1249.51 671.951 C 1284.86 671.953 1320.23 671.726 1355.57 672.292 C 1372.33 672.56 1374 676.44 1373.96 692.885 C 1373.83 742.877 1373.97 792.867 1373.98 842.859 L 1373.89 1146.26 L 1373.85 1291.65 C 1373.89 1314.96 1374.14 1339.45 1373.67 1362.83 C 1373.58 1367.41 1369.27 1370.45 1365.94 1373.12 C 1363.36 1373.28 1360.78 1373.36 1358.2 1373.36 L 914.641 1373.47 L 770.988 1373.29 C 745.097 1373.27 719.185 1373.4 693.3 1373 C 679.586 1372.78 674.042 1371.37 674.05 1356.19 C 674.072 1316.48 674.563 1276.75 674.448 1237.04 L 674.416 917.966 L 674.188 760.658 C 674.108 735.015 673.841 708.663 674.258 682.972 C 674.344 677.715 677.938 675.268 681.735 672.15 z" fill="rgb(235,235,226)" transform="translate(0,0)"></path>
<path d="M 1253.63 943.367 C 1257.11 942.866 1255.65 942.413 1258.32 943.924 C 1260.16 949.953 1259.27 961.522 1259.07 968.159 C 1231.12 988.784 1190.5 1006.66 1158.49 1021.31 C 1144.74 1029.69 1108.18 1036.18 1097.48 1046.5 C 1055.64 1086.9 1091.71 1129.95 1116.59 1157.06 C 1132.25 1157.26 1148.15 1157.13 1163.84 1157.15 L 1163.79 1212.09 L 939.5 1211.96 L 895.458 1212.03 C 895.759 1193.93 895.551 1175.23 895.582 1157.08 L 943.278 1157.07 C 965.422 1135.54 989.411 1107.26 981.719 1073.4 C 978.866 1060.84 969.4 1048.94 958.351 1042.4 C 951.265 1041.91 943.299 1042.34 936.126 1042.56 C 936.845 1014.19 936.558 984.638 936.656 956.186 L 1073.02 956.124 C 1105.92 956.263 1138.46 957.549 1171.22 954.384 C 1199.02 951.699 1226.05 947.575 1253.63 943.367 z" fill="rgb(20,22,26)" transform="translate(0,0)"></path>
<path d="M 772.074 961.791 C 820.011 971.877 872.009 977.34 920.452 966.483 L 920.859 1038.25 L 920.709 1041.03 L 919.089 1041.91 C 871.359 1039.17 785.576 1015.36 772.074 961.791 z" fill="rgb(20,22,26)" transform="translate(0,0)"></path>
<path d="M 1024.51 811.555 C 1042.58 810.082 1058.4 823.586 1059.78 841.66 C 1061.16 859.734 1047.57 875.482 1029.49 876.768 C 1011.54 878.045 995.935 864.581 994.565 846.638 C 993.195 828.695 1006.58 813.017 1024.51 811.555 z" fill="rgb(20,22,26)" transform="translate(0,0)"></path>
<path d="M 1021.45 814.479 C 1037.74 811.362 1053.51 821.933 1056.82 838.19 C 1060.13 854.446 1049.75 870.34 1033.53 873.841 C 1022.87 876.142 1011.79 872.534 1004.53 864.394 C 997.273 856.254 994.95 844.839 998.451 834.508 C 1001.95 824.178 1010.74 816.528 1021.45 814.479 z" fill="rgb(235,104,46)" transform="translate(0,0)"></path>
<path d="M 559.97 952.474 C 586.521 952.473 617.415 951.081 643.218 954.319 C 647.354 954.838 647.642 995.717 644.287 999.84 C 641.782 1002.92 633.513 1002.18 630.25 1002.17 C 616.553 1002.06 554.745 1003.29 546.164 1000.9 C 539.665 995.195 540.745 962.566 544.974 954.819 C 546.492 952.04 556.952 952.502 559.97 952.474 z" fill="rgb(235,104,46)" transform="translate(0,0)"></path>
<path d="M 549.048 695.399 C 569.047 695.64 589.047 695.693 609.047 695.558 C 619.429 695.548 630.481 695.116 640.671 696.427 C 647.53 697.309 646.623 707.67 646.104 713.022 C 645.127 723.111 651.048 740.057 640.046 745.004 C 609.274 745.086 577.206 746.176 546.717 743.721 C 540.37 743.21 541.897 719.744 542.086 715.232 C 542.467 706.177 539.058 698.673 549.048 695.399 z" fill="rgb(235,104,46)" transform="translate(0,0)"></path>
<path d="M 1408.45 1296.19 C 1419.62 1295.66 1500.74 1294.48 1504.13 1298.23 C 1508.16 1302.71 1507.81 1330.98 1507.09 1338.01 C 1506.7 1341.8 1505.73 1342.72 1502.79 1345.09 C 1489.75 1345.29 1410.93 1346.55 1405.3 1343.17 C 1401.15 1336.17 1403.22 1312.08 1402.91 1302.67 C 1402.8 1299.26 1405.93 1297.8 1408.45 1296.19 z" fill="rgb(235,104,46)" transform="translate(0,0)"></path>
<path d="M 545.39 1296.08 C 557.436 1295.37 637.923 1294.68 643.606 1298.35 C 647.431 1304.69 646.115 1312.62 646.011 1319.91 C 645.882 1328.95 648.474 1337.41 642.661 1344.95 C 611.607 1345.81 576.323 1345.58 545.615 1343.51 C 540.711 1343.18 539.606 1302.79 545.39 1296.08 z" fill="rgb(235,104,46)" transform="translate(0,0)"></path>
<path d="M 547.566 781.023 C 566.352 780.835 585.138 780.755 603.925 780.785 C 613.341 780.777 637.75 779.332 644.479 784.248 C 648.467 792.931 645.201 809.137 646.394 819.008 C 647.02 824.188 645.662 827.184 641.208 829.848 L 562.347 830.037 C 544.698 829.941 540.699 830.406 542.405 809.882 C 543.255 799.656 538.815 788.54 547.566 781.023 z" fill="rgb(235,104,46)" transform="translate(0,0)"></path>
<path d="M 547.389 1038.12 C 561.145 1037.79 635.895 1036.79 643.499 1040.11 C 647.175 1045.77 646.125 1053.47 645.852 1060.06 C 645.442 1069.98 649.403 1079.61 641.434 1086.88 C 631.582 1087.65 549.237 1088.29 544.85 1085.19 C 541.677 1079.38 542.325 1073.4 542.802 1066.98 C 543.579 1056.49 539.047 1046.03 547.389 1038.12 z" fill="rgb(235,104,46)" transform="translate(0,0)"></path>
<path d="M 1487.42 695.486 C 1493.11 695.353 1498.1 694.713 1503.07 697.279 C 1507.1 702.099 1506.38 713.555 1506.42 719.626 C 1506.45 724.532 1507.29 739.902 1502.96 743.159 C 1497.93 746.94 1436.35 744.957 1425.25 744.898 C 1420.95 744.998 1408.78 745.735 1406.38 743.17 C 1399.91 736.248 1402.11 704.572 1406.5 697.549 C 1410.71 694.422 1477.17 695.551 1487.42 695.486 z" fill="rgb(235,104,46)" transform="translate(0,0)"></path>
<path d="M 963.188 1405.07 C 968.181 1405 975.436 1404.43 980.139 1404.85 C 987.256 1405.49 1007.98 1401.72 1008.38 1411.69 C 1009.6 1441.75 1008.73 1471.98 1008.13 1502.06 C 1008.06 1505.34 1007.37 1505.65 1005.61 1508.01 C 995.37 1508.14 969.137 1510.14 961.864 1505.8 C 960.547 1503.36 959.968 1500.62 959.931 1497.82 C 959.545 1468.77 959.201 1439.49 960.221 1410.46 C 960.294 1408.38 961.91 1406.56 963.188 1405.07 z" fill="rgb(235,104,46)" transform="translate(0,0)"></path>
<path d="M 1407.31 781.034 C 1419.96 780.806 1498.4 779.454 1503.53 783.003 C 1506.98 789.204 1507.61 824.619 1502.45 829.966 C 1490.25 830.263 1409.87 831.289 1405.47 827.987 C 1401.52 821.732 1403.3 813.084 1403.12 805.776 C 1402.88 796.363 1400.94 788.501 1407.31 781.034 z" fill="rgb(235,104,46)" transform="translate(0,0)"></path>
<path d="M 547.683 867.121 C 560.74 866.682 638.969 865.164 644.33 869.126 C 647.494 875.552 646.6 883.518 646.312 890.592 C 645.936 899.818 649.735 908.943 641.916 915.283 C 630.132 915.917 549.388 916.562 544.482 912.995 C 539.71 904.434 543.452 889.411 541.892 879.383 C 540.984 873.541 543.29 870.459 547.683 867.121 z" fill="rgb(235,104,46)" transform="translate(0,0)"></path>
<path d="M 559.114 1124.48 C 571.385 1124.45 634.624 1123.57 642.102 1125.63 C 648.924 1131.82 648.838 1165.86 643.569 1171.64 C 639.549 1173.47 636.089 1173.05 631.6 1173.08 C 617.817 1172.99 553.475 1175.46 545.552 1170.91 C 543.655 1169.82 542.903 1167.2 542.581 1165.15 C 541.669 1159.33 541.416 1131.06 544.756 1127.39 C 548.074 1123.75 554.627 1124.54 559.114 1124.48 z" fill="rgb(235,104,46)" transform="translate(0,0)"></path>
<path d="M 551.201 1210.48 C 566.154 1210.57 634.614 1208.25 643.231 1212.81 C 644.549 1213.5 644.767 1214.48 645.199 1215.82 C 646.717 1220.51 647.047 1252.61 644.468 1256.25 C 642.747 1258.69 640.948 1258.69 638.25 1259.27 C 624.572 1259.31 551.309 1260.76 544.508 1257.53 C 541.482 1252.18 541.344 1218.87 544.231 1213.14 C 546.688 1210.7 547.747 1210.9 551.201 1210.48 z" fill="rgb(235,104,46)" transform="translate(0,0)"></path>
<path d="M 709.079 1405.09 C 718.036 1404.9 747.176 1403.01 753.406 1407.17 C 756.853 1415.55 756.745 1499.67 754 1508.03 C 744.726 1508.51 717.687 1509.38 709.767 1506.63 C 704.281 1501 707.742 1422.78 707.14 1409.85 C 707.068 1408.3 708.211 1406.39 709.079 1405.09 z" fill="rgb(235,104,46)" transform="translate(0,0)"></path>
<path d="M 1407.48 953.06 C 1419.4 952.547 1498.82 951.782 1503.56 954.984 C 1507.16 961.21 1505.95 968.964 1505.82 976.024 C 1505.66 984.544 1508.36 995.488 1502.01 1001.92 C 1489.99 1002.3 1413.4 1003.29 1405.46 999.917 C 1401.83 994.432 1403.28 985.063 1403.37 978.474 C 1403.5 969.179 1400.57 960.165 1407.48 953.06 z" fill="rgb(235,104,46)" transform="translate(0,0)"></path>
<path d="M 1217.3 1405.05 C 1226.86 1404.9 1252.6 1403.17 1259.39 1407.55 C 1262.52 1419.72 1261.14 1487.96 1260.31 1504.37 C 1260.2 1506.58 1257.98 1507.4 1256.24 1508.25 C 1248.41 1508.34 1216.47 1510.19 1215.17 1506.17 C 1209.36 1488.22 1213.29 1439.18 1212.47 1417.65 C 1212.2 1410.54 1214.18 1407.84 1217.3 1405.05 z" fill="rgb(235,104,46)" transform="translate(0,0)"></path>
<path d="M 710.033 538.969 C 721.709 538.274 740.086 538.062 751.689 540.098 C 755.465 540.761 756.182 554.592 755.772 558.174 C 754.283 571.176 758.928 632.123 753.029 641.368 C 746.993 642.486 707.859 644.869 707.824 636.704 C 707.756 620.866 703.701 549.507 710.033 538.969 z" fill="rgb(235,104,46)" transform="translate(0,0)"></path>
<path d="M 1417.42 1038.49 C 1431.24 1038.42 1492.88 1037.2 1502.22 1039.67 C 1507.95 1045.34 1508.13 1079.01 1504.64 1085.41 C 1501.18 1087.52 1498.13 1087.01 1493.95 1087.01 C 1482.61 1086.94 1410.49 1088.88 1405.53 1084.66 C 1402.15 1077.81 1400.91 1044.95 1405.67 1039.85 C 1409.47 1038.17 1413.17 1038.54 1417.42 1038.49 z" fill="rgb(235,104,46)" transform="translate(0,0)"></path>
<path d="M 1445.07 1124.5 C 1454.95 1124.49 1494.21 1122.79 1503.33 1126.12 C 1508.37 1127.96 1508.38 1165.58 1503.71 1171.11 C 1496.15 1174.49 1474.72 1173.1 1465.5 1172.96 C 1459.08 1172.96 1405.71 1174.58 1404.95 1169.87 C 1396.09 1114.99 1408.1 1124.65 1445.07 1124.5 z" fill="rgb(235,104,46)" transform="translate(0,0)"></path>
<path d="M 1299.39 1405.06 C 1307.35 1404.91 1337.4 1403 1342.21 1407.2 C 1345.92 1420.27 1344.42 1487 1343.22 1504.25 C 1343.07 1506.39 1340.81 1507.59 1339.1 1508.43 C 1329.41 1508.56 1306.12 1509.93 1298.48 1506.57 C 1294.76 1501.06 1295.76 1477.42 1295.78 1470.01 C 1295.85 1450.54 1295.41 1430.72 1296.33 1411.27 C 1296.44 1409.02 1298.13 1406.8 1299.39 1405.06 z" fill="rgb(235,104,46)" transform="translate(0,0)"></path>
<path d="M 1406.43 1211.11 C 1421.17 1210.3 1494.78 1208.52 1503.41 1213.36 C 1505.28 1214.42 1506.13 1215.96 1506.57 1218.08 C 1507.48 1222.38 1507.05 1249.64 1506 1253.83 C 1505.52 1255.73 1504.4 1257.22 1503.29 1258.79 C 1491.81 1259.66 1410.93 1260.99 1405.8 1257.34 C 1403.8 1255.91 1403.02 1251.65 1402.85 1249.37 C 1402.42 1243.6 1402.03 1218.86 1403.74 1214.42 C 1404.1 1213.49 1405.74 1211.95 1406.43 1211.11 z" fill="rgb(235,104,46)" transform="translate(0,0)"></path>
<path d="M 1215.37 539.075 C 1224.59 538.596 1252.27 537.498 1258.87 540.993 C 1260.14 544.253 1261.09 552.115 1260.75 555.397 C 1259.26 570.195 1264.2 632.922 1257.87 641.871 C 1248.12 642.033 1224.59 643.245 1216.11 640.702 C 1208.5 632.951 1213.51 566.491 1212.42 551.988 C 1212.1 547.715 1212.77 542.674 1215.37 539.075 z" fill="rgb(235,104,46)" transform="translate(0,0)"></path>
<path d="M 1407.49 867.161 C 1421.65 866.561 1496.05 864.508 1503.93 869.594 C 1507.86 876.96 1506.02 902.249 1505.32 911.583 C 1505.12 914.185 1503.43 914.611 1501.75 915.486 C 1489.71 915.983 1409.82 916.828 1405.01 912.776 C 1401.59 906.697 1403.14 897.609 1403.04 890.579 C 1402.9 881.609 1400.52 873.733 1407.49 867.161 z" fill="rgb(235,104,46)" transform="translate(0,0)"></path>
<path d="M 1047.11 1405.11 C 1055.98 1404.96 1087.87 1403.61 1089.51 1406.87 C 1094.71 1417.22 1091.59 1487.22 1091.52 1503.06 C 1091.51 1505.41 1089.5 1507.71 1088.75 1508.55 C 1076.99 1509.27 1059.36 1510.09 1047.82 1507.12 C 1045.54 1506.54 1044.59 1500.41 1044.52 1498.45 C 1043.51 1469.33 1043.69 1439.85 1044.42 1410.71 C 1044.47 1408.52 1045.84 1406.75 1047.11 1405.11 z" fill="rgb(235,104,46)" transform="translate(0,0)"></path>
<path d="M 962.61 539.098 C 970.837 538.73 1001.09 537.684 1006.41 541.031 C 1008.03 545.619 1008.32 550.978 1008.28 555.839 C 1008.08 582.944 1009.07 610.244 1007.75 637.3 C 1007.68 638.745 1006.22 640.561 1005.37 641.623 C 997.1 642.529 970.958 642.661 963.335 640.035 C 957.831 634.801 958.119 546.964 962.61 539.098 z" fill="rgb(235,104,46)" transform="translate(0,0)"></path>
<path d="M 879.397 538.923 C 888.743 538.844 913.482 537.741 921.354 540.533 C 925.569 546.593 923.393 587.668 923.882 598.399 C 924.389 609.517 923.799 624.612 923.415 635.945 C 923.306 639.159 921.803 640.193 919.603 641.992 C 911.109 642.107 882.998 643.991 877.645 639.24 C 871.85 623.427 877.238 579.245 875.413 560.681 C 874.799 554.443 874.869 543.611 879.397 538.923 z" fill="rgb(235,104,46)" transform="translate(0,0)"></path>
<path d="M 879.392 1405.01 C 887.264 1404.85 916.833 1402.64 921.833 1407.98 C 925.479 1422.27 922.604 1483.1 923.008 1501.24 C 923.097 1505.25 921.711 1506.45 919.117 1508.7 C 909.062 1508.79 885.432 1510.36 878.08 1506.5 C 875.713 1502.97 875.503 1495.35 875.548 1490.99 C 875.828 1464.2 874.134 1436.99 876.08 1410.31 C 876.223 1408.35 878.148 1406.34 879.392 1405.01 z" fill="rgb(235,104,46)" transform="translate(0,0)"></path>
<path d="M 1299.91 539.105 C 1309.61 538.966 1335.15 537.428 1342.09 540.884 C 1343.69 544.287 1344.6 553.579 1344.22 557.193 C 1342.64 572.038 1348.07 632.29 1341.41 641.981 C 1332.83 642.078 1324 642.302 1315.42 642.192 C 1298.99 641.981 1295.95 643.041 1296.04 625.207 C 1296.19 598.236 1295.43 571.271 1296.75 544.366 C 1296.89 541.557 1298.14 540.934 1299.91 539.105 z" fill="rgb(235,104,46)" transform="translate(0,0)"></path>
<path d="M 794.338 539.166 C 803.67 538.845 830.126 537.815 837.686 540.984 C 840.376 544.178 840.006 554.773 839.974 559.111 C 839.785 584.788 840.593 610.581 839.642 636.226 C 839.569 638.198 837.856 639.991 836.64 641.372 C 829.933 642.655 802.172 642.591 795.592 640.815 C 791.685 637.495 791.163 625.313 791.692 620.584 C 793.116 607.862 789.148 546.731 794.338 539.166 z" fill="rgb(235,104,46)" transform="translate(0,0)"></path>
<path d="M 795.24 1405.08 C 803.429 1404.73 835.02 1403.6 837.144 1406.92 C 842.52 1415.33 838.76 1487.94 839.262 1501.71 C 839.363 1504.49 837.253 1506.94 836.515 1507.81 C 828.525 1508.26 799.817 1509.3 794.004 1506.18 C 788.518 1494.86 793.008 1427.2 792.066 1410.79 C 791.933 1408.48 793.831 1406.72 795.24 1405.08 z" fill="rgb(235,104,46)" transform="translate(0,0)"></path>
<path d="M 1047 539.098 C 1056.78 538.838 1083.29 537.126 1090.35 540.891 C 1091.74 544.637 1092 549.687 1091.97 553.697 C 1091.74 581.019 1092.39 608.469 1091.28 635.754 C 1091.19 637.923 1089.83 639.756 1088.59 641.407 C 1079.9 642.219 1052.62 643.233 1045.88 639.222 C 1040.67 627.972 1045.5 560.686 1044.06 544.376 C 1043.86 542.139 1045.62 540.613 1047 539.098 z" fill="rgb(235,104,46)" transform="translate(0,0)"></path>
<path d="M 1133.39 1405.04 C 1143.03 1404.87 1163.9 1403.73 1172.39 1406.23 C 1175.51 1409 1176.01 1414.57 1176.03 1418.73 C 1176.18 1446.69 1176.6 1474.79 1175.71 1502.73 C 1175.62 1505.64 1174.56 1506.15 1172.79 1508.14 C 1164.77 1508.24 1135.36 1509.47 1130.43 1506.65 C 1126.41 1491.33 1129.53 1438.12 1128.69 1419.42 C 1128.37 1412.15 1128.72 1409.48 1133.39 1405.04 z" fill="rgb(235,104,46)" transform="translate(0,0)"></path>
<path d="M 1132.42 539.052 C 1141.68 538.918 1168.24 537.404 1174.46 540.996 C 1180.01 556.289 1174.1 617.069 1175.6 636.288 C 1175.74 638.062 1173.98 640.533 1172.92 641.924 C 1163.18 642.112 1137.36 644.116 1130.32 638.827 C 1124.63 621.799 1130.69 565.676 1129.15 545.141 C 1128.94 542.447 1130.79 540.916 1132.42 539.052 z" fill="rgb(235,104,46)" transform="translate(0,0)"></path>
<path d="M 1061.28 449.353 C 1066.07 449.129 1070.28 449.067 1075.07 449.04 L 1075.03 533.081 L 1061.11 532.954 C 1060.91 509.311 1059.96 472.121 1061.28 449.353 z" fill="rgb(235,104,46)" transform="translate(0,0)"></path>
<path d="M 1061.21 1514.12 L 1074.75 1514.17 C 1075.1 1538.48 1075.67 1576.22 1074.03 1599.92 C 1069.76 1600.02 1065.49 1600.04 1061.22 1599.96 C 1060.91 1572.08 1060.88 1542 1061.21 1514.12 z" fill="rgb(235,104,46)" transform="translate(0,0)"></path>
<path d="M 809.005 449.065 C 813.478 449.028 817.952 449.028 822.426 449.064 C 822.539 477.299 822.505 505.534 822.324 533.768 C 817.895 533.826 813.466 533.853 809.037 533.848 C 808.857 505.875 808.688 476.986 809.005 449.065 z" fill="rgb(235,104,46)" transform="translate(0,0)"></path>
<path d="M 808.826 1514.12 C 813.556 1514.24 817.758 1514.42 822.476 1514.73 C 823.049 1541.87 822.571 1572.13 822.185 1599.39 L 808.926 1599.57 L 808.826 1514.12 z" fill="rgb(235,104,46)" transform="translate(0,0)"></path>
<path d="M 1229.93 1514.38 C 1234.29 1514.32 1238.65 1514.37 1243.01 1514.52 C 1243.13 1542.52 1243.42 1571.28 1243.13 1599.23 C 1238.78 1599.23 1234.42 1599.2 1230.07 1599.13 C 1229.87 1573.4 1229.04 1539.73 1229.93 1514.38 z" fill="rgb(235,104,46)" transform="translate(0,0)"></path>
<path d="M 893.131 448.869 C 897.568 448.803 902.005 448.813 906.441 448.899 L 906.668 532.929 C 902.128 533.046 897.679 532.97 893.14 532.911 L 893.131 448.869 z" fill="rgb(235,104,46)" transform="translate(0,0)"></path>
<path d="M 1313.45 1514.04 C 1317.76 1514.04 1322.07 1514.06 1326.38 1514.1 C 1325.94 1540.6 1327.45 1574.46 1325.98 1599.6 C 1321.73 1599.78 1317.47 1599.86 1313.22 1599.84 C 1313.1 1571.24 1313.18 1542.64 1313.45 1514.04 z" fill="rgb(235,104,46)" transform="translate(0,0)"></path>
<path d="M 724.444 1514.89 C 728.87 1514.85 733.296 1514.86 737.722 1514.92 C 738.034 1541.85 738.36 1572.24 737.797 1599.1 L 724.808 1599.5 C 724.686 1572.09 725.486 1542.01 724.444 1514.89 z" fill="rgb(235,104,46)" transform="translate(0,0)"></path>
<path d="M 893.269 1514.63 C 897.544 1514.65 901.82 1514.7 906.094 1514.79 C 906.557 1541.42 906.901 1573.33 906.246 1599.78 C 902.123 1599.87 897.998 1599.89 893.874 1599.84 C 893.141 1572.41 893.187 1542.15 893.269 1514.63 z" fill="rgb(235,104,46)" transform="translate(0,0)"></path>
<path d="M 1146.05 1514.17 L 1159.06 1514.14 L 1159.01 1599.28 C 1154.71 1599.36 1150.41 1599.42 1146.11 1599.44 C 1145.81 1571.6 1145.76 1542.02 1146.05 1514.17 z" fill="rgb(235,104,46)" transform="translate(0,0)"></path>
<path d="M 459.347 1313.46 L 537.27 1313.03 C 537.304 1316.64 538.926 1326.14 535.037 1326.86 C 509.858 1326.98 482.324 1327.37 457.207 1326.74 C 457.197 1322.97 455.705 1314.99 459.347 1313.46 z" fill="rgb(235,104,46)" transform="translate(0,0)"></path>
<path d="M 1512.14 1056.01 C 1538.43 1056.1 1566.3 1055.73 1592.44 1056.34 C 1592.41 1061.02 1592.36 1064.85 1591.92 1069.55 C 1567.23 1070.15 1537.09 1070.04 1512.27 1069.56 C 1512.06 1064.85 1512.07 1060.71 1512.14 1056.01 z" fill="rgb(235,104,46)" transform="translate(0,0)"></path>
<path d="M 724.571 448.994 C 729.008 449.004 733.445 449.054 737.881 449.145 C 737.025 477.292 737.85 504.828 737.476 532.75 C 733.435 533.38 728.899 533.07 724.739 532.997 C 724.391 506.811 723.917 475.064 724.571 448.994 z" fill="rgb(235,104,46)" transform="translate(0,0)"></path>
<path d="M 1512.84 1313.29 C 1539.15 1313.04 1565.46 1312.95 1591.78 1313.02 C 1591.73 1317.5 1591.75 1322.24 1591.5 1326.7 C 1582.94 1326.76 1514.08 1327.73 1512.31 1325.82 C 1510.59 1323.96 1512.29 1315.64 1512.84 1313.29 z" fill="rgb(235,104,46)" transform="translate(0,0)"></path>
<path d="M 1230.17 449.355 C 1234.39 449.219 1238.61 449.201 1242.83 449.301 C 1242.88 476.902 1243.23 505.602 1242.75 533.12 L 1230.02 533.082 C 1229.93 507.895 1229.09 473.935 1230.17 449.355 z" fill="rgb(235,104,46)" transform="translate(0,0)"></path>
<path d="M 457.828 713.124 L 537.011 713.048 C 536.963 717.541 537.016 722.061 536.79 726.541 C 512.413 727.038 481.681 727.25 457.514 726.418 C 457.485 721.675 457.594 717.875 457.828 713.124 z" fill="rgb(235,104,46)" transform="translate(0,0)"></path>
<path d="M 1313.7 449.01 C 1318 448.954 1322.3 448.945 1326.6 448.985 C 1325.64 475.448 1326.16 505.259 1326.17 531.898 C 1322.25 532.618 1317.57 532.362 1313.59 532.097 C 1313.67 504.869 1313.02 476.046 1313.7 449.01 z" fill="rgb(235,104,46)" transform="translate(0,0)"></path>
<path d="M 1511.67 799.92 C 1538.05 799.506 1566.04 799.544 1592.45 799.769 L 1592.08 812.88 C 1566.12 812.876 1537.46 813.453 1511.72 812.649 C 1511.52 807.93 1511.5 804.658 1511.67 799.92 z" fill="rgb(235,104,46)" transform="translate(0,0)"></path>
<path d="M 457.994 1056.31 C 483.736 1055.89 512.194 1055.84 537.936 1056.1 C 537.985 1060.42 537.953 1064.75 537.842 1069.07 C 511.171 1069.26 484.498 1069.32 457.826 1069.24 C 457.742 1064.51 457.717 1061.08 457.994 1056.31 z" fill="rgb(235,104,46)" transform="translate(0,0)"></path>
<path d="M 458.029 799.854 C 483.32 799.515 508.722 800.11 534.017 799.886 C 540.593 799.828 537.955 806.85 537.275 812.501 C 530.137 813.311 515.941 812.934 508.242 812.938 L 458.084 812.871 C 458.004 808.533 457.986 804.193 458.029 799.854 z" fill="rgb(235,104,46)" transform="translate(0,0)"></path>
<path d="M 977.57 1514.4 L 990.083 1514.67 C 990.261 1543.1 990.276 1571.52 990.125 1599.95 C 986.091 1599.95 982.058 1599.93 978.024 1599.88 C 977.802 1571.7 978.522 1542.48 977.57 1514.4 z" fill="rgb(235,104,46)" transform="translate(0,0)"></path>
<path d="M 978.008 449.063 C 980.63 449.064 989.847 448.29 989.902 450.491 C 990.515 474.648 990.594 509.016 990.556 532.364 C 986.171 532.341 982.364 532.225 977.983 531.966 C 977.838 505.066 977.553 475.883 978.008 449.063 z" fill="rgb(235,104,46)" transform="translate(0,0)"></path>
<path d="M 1512.73 885.007 C 1538.52 884.688 1565.51 884.802 1591.35 884.945 L 1591.16 898.024 C 1568.64 898.083 1546.1 898.017 1523.59 898.106 C 1511.24 898.156 1511.51 898.692 1512.73 885.007 z" fill="rgb(235,104,46)" transform="translate(0,0)"></path>
<path d="M 1513.36 713.428 C 1538.84 713.48 1566.53 712.968 1591.78 713.54 C 1591.75 717.743 1591.61 721.945 1591.37 726.142 C 1564.91 726.35 1538.44 726.399 1511.98 726.289 C 1511.96 723.085 1510.81 715.443 1513.36 713.428 z" fill="rgb(235,104,46)" transform="translate(0,0)"></path>
<path d="M 1146.8 448.981 C 1150.93 448.959 1155.06 448.962 1159.19 448.991 L 1159.13 532.61 C 1154.7 532.647 1151.14 532.581 1146.72 532.396 C 1146.65 504.851 1146.48 476.461 1146.8 448.981 z" fill="rgb(235,104,46)" transform="translate(0,0)"></path>
<path d="M 1512.15 1142.01 C 1537.64 1141.57 1566.47 1141.52 1591.92 1141.99 C 1591.98 1146.22 1592.15 1150.27 1591.75 1154.49 C 1583.3 1154.65 1515.08 1155.89 1512.72 1153.36 C 1510.9 1151.41 1512.06 1144.5 1512.15 1142.01 z" fill="rgb(235,104,46)" transform="translate(0,0)"></path>
<path d="M 1511.18 1227.85 C 1537.1 1227.43 1566.24 1227.49 1592.17 1227.84 L 1591.95 1240.14 C 1565.44 1240.2 1537.57 1240.61 1511.16 1240.06 C 1511.08 1235.99 1511.08 1231.92 1511.18 1227.85 z" fill="rgb(235,104,46)" transform="translate(0,0)"></path>
<path d="M 457.821 1227.93 C 483.387 1227.51 512.255 1227.37 537.754 1227.79 C 537.872 1231.92 537.888 1236.06 537.804 1240.19 C 511.239 1240.49 484.035 1240.16 457.416 1240.07 C 457.309 1235.29 457.438 1232.63 457.821 1227.93 z" fill="rgb(235,104,46)" transform="translate(0,0)"></path>
<path d="M 457.811 884.969 C 464.878 884.907 535.386 884.259 536.5 885.602 C 538.338 887.82 537.227 894.86 537.136 897.649 C 511.759 898.394 483.901 896.784 458.479 896.593 C 457.314 896.584 457.798 885.843 457.811 884.969 z" fill="rgb(235,104,46)" transform="translate(0,0)"></path>
<path d="M 457.836 1142.17 C 480.021 1142.11 502.225 1142 524.407 1141.96 C 538.538 1141.93 537.314 1140.09 536.954 1154.12 C 513.387 1155.1 481.201 1154.66 457.339 1154.29 C 457.281 1149.55 457.476 1146.87 457.836 1142.17 z" fill="rgb(235,104,46)" transform="translate(0,0)"></path>
<path d="M 537.094 970.75 C 537.164 974.873 537.172 978.996 537.117 983.118 C 511.199 982.996 484.313 983.537 458.485 982.58 C 457.356 982.538 457.806 971.753 457.818 970.881 L 537.094 970.75 z" fill="rgb(235,104,46)" transform="translate(0,0)"></path>
<path d="M 1511.96 970.942 C 1537.76 970.525 1565.57 970.686 1591.41 970.932 L 1591.06 983.196 C 1583.56 983.179 1513.52 983.727 1512.51 982.379 C 1511.01 980.374 1511.94 973.527 1511.96 970.942 z" fill="rgb(235,104,46)" transform="translate(0,0)"></path>
<metadata><recraft-signature>{"signed_by": "recraft", "signature_b64": "31hhsoI4RZuvXT1i2l4RzHy/UtsGVSN07pBfxvK/IsNCAocxsqQV3hfuvS6LtsIhJw/Gws3ON8JejF3kuJb6Dg==", "signing_algo": "Ed25519", "generation_timestamp": 1777067485, "identifier": "aa9bf331-8217-4dbf-830d-1bfe27a65d97"}</recraft-signature></metadata></svg>