<svg xmlns="http://www.w3.org/2000/svg" height="1024" preserveAspectRatio="none" style="display: block;" version="1.1" viewBox="0 0 2048 2048" width="1024">
<path d="M 0 0 L 2048 0 L 2048 2048 L 0 2048 L 0 0 z" fill="rgb(53,52,52)" transform="translate(0,0)"></path>
<path d="M 1507.85 1139.43 C 1518.06 1138.84 1528.29 1137.83 1538.29 1140.59 C 1549.62 1143.73 1641.47 1188.13 1648.08 1194.23 C 1654.6 1200.24 1656.88 1208.41 1657.24 1217.04 C 1657.84 1231.39 1657.04 1246.03 1657.17 1260.42 C 1657.3 1275.49 1658.92 1291.89 1657.05 1306.75 C 1656.29 1312.86 1654.64 1318.94 1651.58 1324.33 C 1647.12 1332.19 1638.89 1338.85 1630.5 1342.09 C 1622.71 1345.1 1613.9 1344.87 1605.72 1346.05 C 1599.62 1346.94 1593.54 1348.66 1587.59 1350.24 C 1522.91 1367.48 1456.98 1393.26 1411.11 1444.19 C 1384.98 1473.21 1368.09 1509.74 1370.53 1549.36 C 1372.05 1574.12 1381.15 1599.49 1392.6 1621.32 C 1426.28 1685.5 1481.8 1731.81 1541.46 1771.03 C 1553.19 1778.79 1565.11 1786.26 1577.21 1793.44 C 1589.1 1800.57 1601.94 1807.62 1612.49 1816.65 C 1618.69 1821.69 1622.07 1829.47 1621.35 1838.09 C 1619.35 1862 1629.41 1897.56 1612.38 1916.7 C 1607.46 1922.22 1597.89 1924.21 1591.11 1924.63 C 1557.55 1926.74 1523.84 1927.2 1490.23 1928.45 C 1428.04 1931.39 1365.82 1933.94 1303.59 1936.11 L 1071.9 1945.33 C 999.996 1948.51 925.929 1952.39 854.035 1953.95 C 839.651 1944.44 822.509 1930.63 808.667 1919.84 L 749.624 1873.93 C 731.927 1860.03 714.322 1846.02 696.81 1831.88 C 689.834 1826.33 663.375 1807.74 661.947 1799.49 C 660.757 1792.62 661.606 1775.1 661.679 1767.41 L 662.085 1710.76 C 673.411 1693.85 693.144 1695.97 712.228 1693.1 C 763.301 1681.69 794.181 1666.51 835.244 1634.19 C 869.574 1607.44 893.414 1569.48 902.6 1526.94 C 905.271 1514.44 906.638 1498.8 908.136 1485.87 C 858.76 1465.51 809.288 1474.01 757.938 1468.53 C 740.997 1466.72 733.135 1457.56 723.981 1444.7 C 699.676 1444.52 673.942 1445.02 649.248 1442.59 C 503.781 1428.23 357.592 1377.94 231.626 1304.02 C 217.781 1295.89 194.311 1283.96 192.209 1267.13 C 191.084 1258.12 198.873 1249.07 207.84 1248.58 C 222.139 1247 236.662 1246.31 251.098 1245.36 C 274.994 1243.79 298.869 1241.91 322.717 1239.73 C 441.926 1229.36 561.289 1220.86 680.764 1214.23 C 683.923 1199.27 687.549 1181.44 705.491 1180.03 C 730.7 1178.05 755.887 1176.99 781.132 1175.58 L 941.754 1167.08 L 1507.85 1139.43 z" fill="rgb(254,254,254)" transform="translate(0,0)"></path>
<path d="M 1625.46 1206.43 C 1630.57 1206.06 1632.62 1205.77 1637.73 1206.46 C 1643.07 1211.34 1639.82 1289.87 1640.78 1303.31 C 1642.6 1328.79 1601.98 1330.06 1582.15 1334.55 C 1470.79 1359.77 1326.6 1444.03 1358.63 1578.64 C 1387.51 1693.22 1491.34 1760.99 1587.78 1820.06 C 1570.74 1819.53 1527.84 1821.93 1510.48 1824.26 C 1502.45 1804.77 1486.02 1786.87 1469.37 1774.29 C 1393.12 1716.7 1229.18 1690.4 1135.18 1704.14 C 1106.41 1708.34 1068.1 1718.79 1050.18 1743.86 C 1043.88 1752.67 1040.96 1763.31 1043.11 1774.05 C 1049.02 1803.5 1083.45 1826.43 1106.81 1841.59 C 1088.78 1841.77 1068.48 1841.55 1050.68 1842.88 C 994.414 1843.88 929.965 1847.51 873.089 1849.86 C 874.898 1848.32 876.68 1846.76 878.432 1845.16 C 945.135 1785.04 999.651 1694.88 1004.19 1603.94 C 1007.3 1541.5 977.19 1499.52 921.702 1474.76 C 865.79 1449.82 819.866 1455.1 761.449 1453 C 787.8 1376.03 786.094 1324.67 767.683 1246.95 L 1625.46 1206.43 z" fill="rgb(53,52,52)" transform="translate(0,0)"></path>
<path d="M 208.798 1266.38 C 220.914 1264.54 241.018 1266.36 253.5 1267.91 C 369.041 1282.22 482.959 1284.28 599.507 1280.69 C 652.341 1279.31 705.153 1277.21 757.928 1274.37 C 766.91 1318.03 767.037 1368.23 755.795 1411.42 C 754.638 1416.89 752.589 1422.79 750.893 1428.17 C 726.759 1428.12 699.381 1428.66 675.558 1427.06 C 534.614 1416.54 397.526 1376.13 273.412 1308.51 C 259.311 1300.77 223.412 1280.34 209.587 1269.09 C 209.324 1268.19 209.061 1267.29 208.798 1266.38 z" fill="rgb(53,52,52)" transform="translate(0,0)"></path>
<path d="M 1574.6 1840.46 L 1604.72 1840.2 C 1604.94 1853.72 1607.81 1901.42 1600.51 1905.38 C 1590.53 1910.79 1510.51 1912.02 1496.32 1912.55 L 1321.71 1918.81 L 896.751 1935.44 C 886.72 1936.02 874.997 1936.06 864.832 1936.32 C 864.217 1913.35 864.356 1889.32 864.2 1866.26 C 1018.24 1861.43 1172.25 1855.52 1326.2 1848.54 L 1574.6 1840.46 z" fill="rgb(53,52,52)" transform="translate(0,0)"></path>
<path d="M 922.201 1492.31 C 944.105 1501.67 966.688 1522.65 977.327 1544.22 C 996.826 1583.77 987.792 1632.06 974.793 1671.85 C 957.281 1725.45 924.935 1775.56 885.02 1815.11 C 875.891 1824.15 864.191 1836.4 852.705 1842.11 C 835.523 1828.69 818.503 1815.06 801.649 1801.23 C 772.319 1776.91 741.246 1753.76 711.71 1729.63 C 704.647 1723.86 697.66 1718.64 690.826 1712.54 C 748.093 1707.6 811.339 1678.51 854.215 1640.13 C 898.49 1600.51 919.448 1551.17 922.201 1492.31 z" fill="rgb(53,52,52)" transform="translate(0,0)"></path>
<path d="M 1239.28 1733.43 C 1318.99 1731.33 1451.74 1748.74 1493.41 1825.75 C 1465.64 1825.88 1435.84 1827.86 1407.92 1828.82 C 1376.57 1829.9 1343.72 1830.72 1312.47 1832.79 L 1199.68 1836.94 C 1186.19 1837.54 1172.65 1838.14 1159.18 1838.73 C 1146.84 1839.26 1140.59 1840.35 1129.19 1834.57 C 1105.68 1822.64 1077.14 1804.36 1062.22 1782.24 C 1103.98 1736.43 1180.64 1736.14 1239.28 1733.43 z" fill="rgb(53,52,52)" transform="translate(0,0)"></path>
<path d="M 1514.65 1155.43 C 1531.74 1154.7 1540.01 1158.41 1554.94 1166.12 C 1572.23 1175.05 1588.77 1183.87 1607.27 1190.06 L 1466.72 1196.57 L 818.752 1227.31 C 800.18 1228.91 777.579 1229.01 758.686 1229.38 C 747.678 1215.09 739.263 1204.3 724.425 1193.96 C 753.463 1193.59 785.439 1191.61 814.626 1190.37 L 1051.43 1178.39 L 1514.65 1155.43 z" fill="rgb(53,52,52)" transform="translate(0,0)"></path>
<path d="M 678.678 1726.58 C 705.98 1744.95 734.531 1769.83 760.299 1790.47 C 788.116 1812.75 820.864 1836.36 847.136 1860.28 C 847.275 1883.06 847.298 1905.85 847.204 1928.63 C 832.84 1919.6 809.444 1898.44 794.676 1887.39 C 755.347 1857.95 717.16 1827.6 678.96 1796.73 L 678.678 1726.58 z" fill="rgb(53,52,52)" transform="translate(0,0)"></path>
<path d="M 705.086 1230.43 C 732.954 1227.18 738.816 1233.87 751.289 1257.19 C 704.812 1261.89 641.442 1262.46 594.001 1263.22 C 528.313 1264.27 448.991 1266.29 383.941 1261.14 C 367.077 1261.01 346.446 1258.24 328.782 1257.54 C 360.533 1252.16 412.581 1250.08 446.12 1247.49 C 532.346 1240.42 618.679 1234.73 705.086 1230.43 z" fill="rgb(53,52,52)" transform="translate(0,0)"></path>
<path d="M 1057.15 1762.84 C 1061.96 1753.87 1064.42 1750.34 1072.47 1743.62 C 1104.69 1716.73 1183.94 1714.11 1225.01 1718.16 C 1229.33 1717.62 1230.29 1717.63 1234.52 1718.6 L 1235.22 1719.39 C 1225.41 1719.85 1213.4 1720.75 1203.81 1719.88 C 1174.07 1719.22 1118.85 1728.17 1092.59 1740.98 C 1080.48 1746.89 1068.36 1755.18 1057.15 1762.84 z" fill="rgb(53,52,52)" transform="translate(0,0)"></path>
<path d="M 1225.01 1718.16 C 1229.33 1717.62 1230.29 1717.63 1234.52 1718.6 L 1235.22 1719.39 C 1225.41 1719.85 1213.4 1720.75 1203.81 1719.88 C 1209.89 1719.06 1218.24 1718.89 1225.01 1718.16 z" fill="rgb(211,212,211)" transform="translate(0,0)"></path>
<path d="M 785.981 212.031 L 790.04 212.075 C 793.497 216.716 786.401 226.82 784.035 231.668 C 772.633 255.026 759.849 271.007 739.753 287.464 C 753.65 302.592 775.342 322.094 790.553 336.62 C 800.151 316.459 827.32 298.824 847.091 290.323 C 853.556 287.543 862.912 281.357 869.522 283.658 C 873.374 289.317 867.172 295.966 864.545 301.356 C 852.565 325.937 835.337 341.75 815.972 360.408 L 863.457 407.096 C 882.48 382.83 896.887 372.22 925.411 360.583 C 930.302 358.587 939.535 353.542 943.778 357.779 C 943.387 367.934 918.325 404.886 910.338 412.745 C 905.772 417.237 893.513 425.997 887.752 430.155 C 900.357 443.886 926.386 469.486 939.943 480.858 C 945.219 475.053 953.415 465.813 958.71 460.725 C 966.072 453.651 1009.95 427.572 1018.27 430.847 C 1019.55 435.321 1018.19 439.153 1015.97 443.179 C 1003.71 465.379 986.46 492.999 961.577 501.602 C 978.799 521.562 998.027 539.415 1017.23 557.417 C 1025.75 544.975 1033.51 534.054 1046 525.276 C 1052.87 520.443 1085.07 504.048 1092.03 505.255 L 1093.08 506.878 C 1092.93 517.433 1075.31 542.198 1069.13 551.134 C 1061.76 561.771 1046.98 570.657 1035.72 576.69 C 1053.78 596.779 1077.7 612.772 1077.36 642.954 C 1077.05 670.252 1056.86 686.323 1038.7 703.778 C 1051.71 711.296 1063.14 721.241 1072.4 733.071 C 1078.44 740.785 1098.14 773.337 1097.1 782.075 L 1095.61 783.203 C 1091.18 782.962 1083.74 778.7 1079.29 776.876 C 1044.12 762.476 1038.95 752.362 1015.42 726.87 C 998.26 742.795 981.322 758.953 964.605 775.338 C 983.442 790.794 997.628 805.278 1008.45 827.441 C 1011.04 832.745 1021.26 852.747 1019.73 857.43 L 1018.12 857.906 C 1012.8 856.544 1004.35 851.414 999.166 848.651 C 972.33 834.337 957.577 823.027 940.453 798.151 C 924.1 815.053 907.088 830.51 890.544 848 C 907.059 866.745 925.312 879.742 935.727 904.132 C 938.533 910.703 948.044 923.182 943.778 930.341 L 941.307 930.665 C 906.292 916.895 887.128 900.932 864.498 872.272 C 848.231 888.24 832.235 904.479 816.515 920.985 C 839.795 940.954 854.299 957.1 866.256 985.78 C 868.662 991.552 871.228 996.137 872.936 1002.28 L 871.981 1003.89 C 865.308 1006.61 856.994 999.832 851.053 996.699 C 825.782 983.375 808.607 967.317 791.309 944.931 C 774.403 962.142 755.944 979.719 738.684 996.74 C 758.923 1011.81 776.856 1035.98 787.315 1058.92 C 789.967 1064.74 795.795 1073.15 791.469 1078.85 C 787.851 1078.95 779.893 1073.85 776.154 1072.06 C 747.654 1058.38 730.848 1043 712.528 1017.91 C 690.09 1026.19 674.851 1010.37 661.005 995.43 C 652.216 1015.73 644.99 1026.5 628.662 1041.59 C 621.518 1048.19 582.16 1071.64 576.008 1071.19 L 574.571 1069.49 C 575.378 1064.92 580.867 1053.52 583.032 1048.67 C 597.236 1017.8 615.423 997.182 645.482 981.038 C 629.474 962.552 603.579 937.296 585.667 919.981 C 570.664 948.171 534.87 971.363 506.063 985.725 C 504.988 986.261 504.065 984.814 503.196 983.988 C 503.068 983.229 502.842 982.27 503.09 981.521 C 511.955 954.78 526.523 930.748 546.837 911.145 C 551.861 906.296 557.067 901.444 562.28 896.664 C 545.361 878.807 527.431 862.586 510.598 844.946 C 505.338 853.475 496.632 864.422 488.812 870.466 C 478.779 878.22 440.907 903.066 429.135 904.038 L 428.029 903.077 C 428.514 898.545 433.601 889.704 435.667 885.226 C 447.675 859.202 465.242 837.621 492.256 826.391 C 476.556 808.874 451.825 784.991 434.574 769.019 C 414.994 797.141 397.748 806.54 367.734 821.54 C 363.442 823.685 362.191 825.506 357.489 824.186 C 353.987 817.957 359.971 810.506 362.782 804.54 C 374.416 779.842 390.244 761.967 410.378 743.717 C 393.694 726.672 376.835 709.801 359.802 693.104 C 353.128 703.114 345.18 712.214 336.159 720.173 C 325.638 729.296 289.051 749.636 277.524 748.798 C 276.445 747.227 275.685 746.545 276.669 743.962 C 288.531 712.84 312.446 689.632 338.349 671.862 C 317.564 655.531 310.655 629.909 320.854 605.393 C 325.206 594.932 334.224 587.444 342.451 580.014 C 324.335 569.974 308.629 556.101 296.429 539.363 C 290.965 531.83 276.176 509.026 277.57 500.396 C 284.462 494.51 317.614 516.894 324.229 521.758 C 338.847 532.506 350.776 546.98 363.266 560.073 C 380.669 544.348 397.755 526.677 415.182 510.469 C 401.092 500.083 388.537 487.759 377.891 473.864 C 372.289 466.653 355.58 442.864 356.648 434.096 C 357.707 432.771 358.997 430.868 360.895 431.471 C 388.444 440.227 421.691 466.771 438.107 487.598 C 449.093 478.994 478.004 449.7 487.787 439.891 C 463.785 422.319 440.961 392.755 432.76 363.814 C 432.377 362.46 433.54 361.894 434.354 361.121 C 440.766 360.298 446.603 364.829 452.11 367.722 C 475.36 379.935 495.978 395.213 511.612 416.639 C 529.089 400.24 546.223 383.276 563.584 366.695 C 549.625 357.951 493.051 296.784 506.078 285.41 C 508.997 285.053 510.615 285.235 513.399 286.446 C 536.338 296.43 575.478 322.371 585.328 345.865 L 638.721 295.98 C 624.921 286.038 572.483 231.033 582.331 214.487 C 584.634 213.728 585.538 213.387 588.23 214.631 C 618.805 228.768 643.933 243.598 658.921 274.807 C 676.604 257.219 694.397 251.053 717.318 265.207 C 717.451 264.804 717.584 264.402 717.717 263.999 L 718.37 262.168 C 726.829 238.488 764.583 220.94 785.981 212.031 z" fill="rgb(254,254,254)" transform="translate(0,0)"></path>
<path d="M 687.894 274.223 C 697.605 273.818 702.737 273.371 710.217 280.591 C 793.009 360.503 875.548 440.697 956.479 522.467 C 975.836 541.952 995.362 561.267 1015.06 580.412 C 1027.84 592.781 1042.17 605.362 1053.42 619.032 C 1064.36 633.173 1064.36 654.716 1051.52 667.783 C 989.701 730.716 924.596 790.475 861.531 852.075 L 761.789 951.026 C 746.609 965.993 723.149 990.168 706.941 1002.9 C 695.13 1005.69 688.639 1000.19 680.634 992.248 C 668.577 980.288 657.17 967.662 645.128 955.682 L 506.941 817.137 L 398.986 708.444 C 382.745 692.162 366.01 676.318 349.893 659.958 C 340.55 650.476 334.579 640.952 334.779 627.241 C 334.959 614.919 340.305 605.703 348.916 597.426 C 372.292 574.956 395.518 552.366 418.831 529.846 C 459.564 489.742 500.638 449.985 542.046 410.579 L 630.343 325.458 C 642.91 313.278 674.008 279.692 687.894 274.223 z" fill="rgb(53,52,52)" transform="translate(0,0)"></path>
<path d="M 690.531 317.601 C 700.455 321.784 783.402 405.57 796.047 418.086 L 923.54 544.11 L 984.669 604.022 C 994.59 613.828 1005.12 623.832 1014.02 634.362 C 1020.3 641.788 1016.18 649.929 1010.22 655.563 C 987.808 676.731 965.577 698.637 943.583 720.184 L 789.088 871.525 C 771.324 889.043 753.669 906.671 736.124 924.409 C 728.348 932.223 714.446 946.968 706.098 953.019 C 697.036 953.394 697.072 953.108 690.621 946.813 C 632.491 890.092 576.191 831.219 518.459 774.157 C 487.961 744.235 457.778 713.994 427.913 683.44 C 413.631 669.077 398.634 654.34 384.595 639.696 C 381.294 636.253 378.706 630.614 379.485 625.794 C 380.299 620.762 382.497 617.921 386.065 614.309 C 407.459 592.644 429.589 571.472 451.347 550.196 L 589.566 415.666 C 609.84 396.026 629.987 376.255 650.005 356.354 C 659.598 346.77 680.774 324.528 690.531 317.601 z" fill="rgb(254,254,254)" transform="translate(0,0)"></path>
<path d="M 690.688 330.626 C 697.507 334.57 720.434 358.914 727.938 366.169 C 760.828 398.24 793.464 430.568 825.846 463.152 C 866.049 502.136 905.931 541.452 945.487 581.094 C 963.897 599.228 982.865 616.898 1000.85 635.456 C 1004.06 638.776 1005.38 639.593 1005.67 643.457 C 997.174 653.943 977.137 672.403 966.779 682.527 L 896.529 751.233 C 831.767 814.221 767.711 877.93 704.374 942.349 L 702.616 942.996 C 695.22 939.736 583.842 823.071 570.746 810.206 C 526.956 767.489 483.549 724.381 440.531 680.886 C 429.41 669.718 397.213 639.703 389.977 628.204 C 390.386 620.778 461.062 555.242 471.606 544.931 C 545.21 474.089 618.24 402.651 690.688 330.626 z" fill="rgb(53,52,52)" transform="translate(0,0)"></path>
<path d="M 651.046 603.896 C 654.508 605.684 660.389 613.619 662.884 616.901 C 648.566 627.949 632.996 641.146 618.339 651.126 C 624.974 659.182 631.697 667.109 637.716 675.638 C 650.598 668.541 669.176 653.272 681.789 643.984 C 685.234 647.841 688.247 652.374 691.253 656.614 C 678.623 668.954 662.437 679.179 650.111 690.745 L 662.591 705.436 C 668.573 713.741 676.363 721.737 682.872 730.857 C 677.84 734.707 672.774 738.514 667.676 742.277 C 643.507 712.656 614.859 679.12 592.616 648.559 C 609.224 634.089 632.958 617.301 651.046 603.896 z" fill="rgb(254,254,254)" transform="translate(0,0)"></path>
<path d="M 744.595 529.796 L 746.018 530.194 C 750.991 538.461 766.404 646.694 767.179 661.066 C 761.966 666.705 758.493 669.828 752.63 674.859 C 748.615 648.472 744.449 622.108 740.131 595.769 C 737.697 583.764 735.409 571.73 733.269 559.67 C 717.255 573.037 701.18 587.127 683.403 597.978 C 679.074 593.687 676.132 590.145 672.237 585.477 C 695.427 565.738 719.575 547.155 744.595 529.796 z" fill="rgb(254,254,254)" transform="translate(0,0)"></path>
<path d="M 567.968 902.858 C 571.25 905.771 576.642 911.97 579.818 915.435 C 566.595 936.925 547.321 952.165 525.65 964.444 L 516.834 969.281 C 531.137 938.834 544.112 925.434 567.968 902.858 z" fill="rgb(53,52,52)" transform="translate(0,0)"></path>
<path d="M 650.059 988.825 L 651.263 989.438 C 652.315 991.824 652.412 993.218 651.455 995.715 C 641.616 1021.4 616.61 1042.76 592.376 1054.03 L 590.955 1053.74 L 590.711 1052.09 C 603.98 1023.52 622.007 1003.32 650.059 988.825 z" fill="rgb(53,52,52)" transform="translate(0,0)"></path>
<path d="M 809.6 927.015 C 816.123 933.518 823.856 939.72 830.595 946.475 C 844.188 960.1 851.65 974.654 860.539 991.352 L 852.561 987.366 C 825.687 972.034 816.471 962.552 797.494 938.718 L 809.6 927.015 z" fill="rgb(53,52,52)" transform="translate(0,0)"></path>
<path d="M 1032.41 710.679 C 1051.6 717.087 1075.9 749.081 1082.74 767.722 L 1082.12 768.863 L 1078.62 767.707 C 1047.66 751.871 1043.44 747.383 1023.3 720.283 L 1032.41 710.679 z" fill="rgb(53,52,52)" transform="translate(0,0)"></path>
<path d="M 444.711 373.699 C 471.281 387.168 486.504 398.946 506.582 421.634 L 500.7 427.662 L 493.045 435.261 C 471.552 414.925 456.714 401.266 444.711 373.699 z" fill="rgb(53,52,52)" transform="translate(0,0)"></path>
<path d="M 854.934 297.012 L 855.659 297.731 C 852.041 312.958 821.957 343.25 810.064 355.71 L 803.894 348.739 L 795.446 341.134 C 817.584 315.058 825.277 311.926 854.934 297.012 z" fill="rgb(53,52,52)" transform="translate(0,0)"></path>
<path d="M 882.936 855.63 C 897.884 863.841 923.456 894.486 929.271 911.317 C 930.138 913.827 930.139 913.374 929.29 915.034 L 925.559 913.323 C 900.318 899.382 888.546 890.804 871.972 866.645 L 882.936 855.63 z" fill="rgb(53,52,52)" transform="translate(0,0)"></path>
<path d="M 957.999 782.549 C 969.23 784.763 1004.89 828.986 1004.78 840.461 L 1003.4 841.073 L 999.05 839.049 C 976.232 826.633 962.155 814.799 947.398 793.081 L 957.999 782.549 z" fill="rgb(53,52,52)" transform="translate(0,0)"></path>
<path d="M 345.847 678.846 C 347.458 680.03 351.719 684.754 353.329 686.452 C 336.935 711.15 323.849 721.68 296.871 733.647 C 293.172 734.75 294.005 735.079 290.755 734.28 L 290.745 732.113 C 302.046 711.389 325.006 690.219 345.847 678.846 z" fill="rgb(53,52,52)" transform="translate(0,0)"></path>
<path d="M 517.693 298.753 C 536.501 306.46 569.092 330.64 578.025 350.098 C 578.508 351.15 576.12 353.03 575.306 353.898 L 568.199 360.491 C 549.385 345.929 526.231 321.337 517.693 298.753 z" fill="rgb(53,52,52)" transform="translate(0,0)"></path>
<path d="M 415.276 750.601 C 418.359 751.866 425.065 760.17 427.618 763.066 C 414.982 783.269 400.949 794.157 380.539 805.206 L 370.722 809.81 C 383.289 781.941 393.76 770.987 415.276 750.601 z" fill="rgb(53,52,52)" transform="translate(0,0)"></path>
<path d="M 369.953 444.646 C 389.496 451.436 418.516 477.789 433.731 491.781 L 426.851 498.754 L 421.448 505.107 C 402.419 491.773 379.857 465.916 369.953 444.646 z" fill="rgb(53,52,52)" transform="translate(0,0)"></path>
<path d="M 925.383 370.888 C 926.218 371.074 925.672 370.882 926.766 371.938 C 919.838 389.385 899.086 414.62 883.602 424.245 C 880.458 424.222 880.218 422.777 877.126 419.773 L 869.726 412.577 C 888.409 388.509 897.935 384.459 925.383 370.888 z" fill="rgb(53,52,52)" transform="translate(0,0)"></path>
<path d="M 731.835 1003.54 C 743.331 1008.42 775.397 1049.04 778.053 1061.51 L 777.141 1062.64 L 773.514 1061.1 C 754.016 1049.6 731.961 1035.07 721.751 1013.92 C 725.715 1010.5 728.354 1007.41 731.835 1003.54 z" fill="rgb(53,52,52)" transform="translate(0,0)"></path>
<path d="M 291.712 513.25 C 303.422 516.295 347.43 547.829 350.541 558.067 C 349.112 559.428 347.964 560.903 346.815 562.504 C 344.818 565.436 342.018 570.782 337.788 567.958 C 320.399 556.35 298.576 533.005 291.712 513.25 z" fill="rgb(53,52,52)" transform="translate(0,0)"></path>
<path d="M 1003.4 445.205 L 1003.53 446.227 C 997.955 459.258 970.324 495.885 956.651 496.79 L 953.905 494.36 L 946.171 486.838 C 964.734 463.486 975.957 456.46 1003.4 445.205 z" fill="rgb(53,52,52)" transform="translate(0,0)"></path>
<path d="M 775.031 227.063 L 775.763 228.454 C 772.043 239.377 744.205 278.406 733.981 280.585 L 732.293 279.087 C 710.049 256.769 759.122 234.433 775.031 227.063 z" fill="rgb(53,52,52)" transform="translate(0,0)"></path>
<path d="M 496.613 832.936 C 499.406 833.17 500.718 834.077 502.446 836.19 C 506.763 852.163 460.265 879.031 448.362 885.461 C 447.265 885.997 446.423 886.072 445.194 886.35 C 444.899 882.098 450.44 875.079 452.634 871.405 C 463.692 852.888 477.997 843.049 496.613 832.936 z" fill="rgb(53,52,52)" transform="translate(0,0)"></path>
<path d="M 592.975 226.51 C 612.945 233.295 635.816 254.106 647.827 271.935 L 640.451 275.928 L 635.831 283.064 C 615.618 264.07 604.773 251.919 592.975 226.51 z" fill="rgb(53,52,52)" transform="translate(0,0)"></path>
<path d="M 1076.85 519.956 L 1077.84 521.474 C 1073.25 536.5 1045.74 564.255 1031.56 571.348 L 1029.48 569.804 L 1021.73 563.709 C 1043.13 535.072 1044.74 534.401 1076.85 519.956 z" fill="rgb(53,52,52)" transform="translate(0,0)"></path>
<path d="M 1787.14 95.2327 C 1807.7 93.0763 1824.46 97.0872 1838.6 113.289 C 1848.46 124.437 1853.23 139.177 1851.78 153.983 C 1850.37 169.01 1842.91 182.819 1831.12 192.246 C 1818.51 202.463 1805.42 206.372 1789.35 204.811 C 1768.56 223.31 1730.75 248.908 1707.18 267.305 C 1649.72 311.937 1591.78 355.952 1533.38 399.341 C 1513.43 414.142 1494.58 429.114 1474.25 443.551 C 1474.15 448.305 1473.45 461.306 1473.21 465.048 C 1471.75 487.538 1527.3 473.67 1539.22 487.738 C 1542.51 491.625 1543.41 494.934 1543.17 500.2 C 1542.49 515.092 1523.28 533.826 1513.01 543.381 C 1484.49 569.773 1452.42 591.177 1416.58 606.529 C 1402.96 612.362 1371.3 627.897 1358.17 612.983 C 1349.73 603.383 1368 592.66 1374.26 586.278 C 1391.97 568.243 1403.48 547.224 1405.58 521.759 C 1408.27 491.221 1382.97 494.445 1369.74 475.688 C 1361.2 463.577 1363.74 441.233 1342.2 440.155 C 1316.7 438.879 1293.36 451.297 1273.18 465.969 C 1265.07 471.871 1251.16 489.096 1240.11 488.697 C 1230.57 486.111 1231.85 472.887 1234.44 466.35 C 1256.14 411.56 1302.16 369.781 1352.9 341.747 C 1361.85 336.807 1391.82 323.197 1400.04 327.308 C 1413.19 333.89 1415.65 373.265 1423.56 386.12 C 1423.73 386.466 1423.9 386.812 1424.07 387.158 C 1437.9 377.541 1456.93 361.176 1470.81 350.446 L 1551.88 288.962 C 1615.05 240.467 1679.73 192.899 1742.22 143.71 C 1743.34 135.22 1746.29 127.073 1750.85 119.826 C 1759.88 105.472 1771.28 99.1235 1787.14 95.2327 z" fill="rgb(254,254,254)" transform="translate(0,0)"></path>
<path d="M 1391.53 341.798 C 1397.5 344.326 1403.83 387.84 1411.81 396.001 C 1414.61 398.863 1416.83 401.323 1419.92 403.989 C 1420.19 430.461 1435.12 439.467 1458.75 444.332 C 1451.69 506.241 1485.97 489.137 1527.3 498.869 L 1528.67 499.202 C 1527.98 500.612 1527.24 501.997 1526.45 503.354 C 1521.8 511.439 1510.29 523.892 1503.54 530.295 C 1468.37 563.68 1425.54 591.287 1378.4 603.329 C 1392.6 590.074 1398.54 583.286 1408.11 566.628 C 1421.69 538.977 1431.54 503.262 1401.66 480.771 C 1397.03 477.535 1385.77 473.912 1383.5 468.761 C 1373.68 446.504 1371.72 425.71 1340.03 424.933 C 1308.72 424.166 1275.34 441.464 1252.15 462.906 C 1280.74 405.945 1333.06 364.977 1391.53 341.798 z" fill="rgb(53,52,52)" transform="translate(0,0)"></path>
<path d="M 1742.79 163.978 C 1743.87 165.046 1743.47 164.453 1744.1 166.164 C 1750.31 182.989 1756.56 189.458 1770.67 199.433 C 1757.7 208.953 1745.44 219.598 1732.53 229.234 C 1668.99 276.647 1606.03 326.083 1542.39 373.211 L 1496.2 408.048 C 1490.85 412.097 1469.87 429.618 1464.32 428.438 C 1453.52 427.955 1444.24 426.815 1436.66 417.386 C 1433.27 413.167 1433.07 408.84 1433.62 403.626 C 1434.17 398.438 1436.88 397.144 1440.44 393.719 C 1452.36 383.774 1465.32 374.44 1477.69 365.028 L 1552.4 308.536 C 1614.76 261.095 1679.72 209.695 1742.79 163.978 z" fill="rgb(53,52,52)" transform="translate(0,0)"></path>
<path d="M 1790.21 111.34 C 1811.47 107.578 1831.78 121.669 1835.7 142.898 C 1839.62 164.128 1825.69 184.545 1804.49 188.624 C 1783.06 192.747 1762.38 178.627 1758.42 157.172 C 1754.45 135.718 1768.73 115.142 1790.21 111.34 z" fill="rgb(53,52,52)" transform="translate(0,0)"></path>
<path d="M 1792.85 126.409 C 1805.81 124.277 1818.09 132.934 1820.44 145.862 C 1822.79 158.79 1814.34 171.212 1801.45 173.776 C 1792.92 175.472 1784.14 172.437 1778.48 165.835 C 1772.82 159.233 1771.16 150.091 1774.14 141.92 C 1777.11 133.749 1784.27 127.819 1792.85 126.409 z" fill="rgb(254,254,254)" transform="translate(0,0)"></path>
<path d="M 1657.8 647.818 C 1661.4 647.759 1663.78 648.382 1666.21 650.999 C 1669.11 660.128 1646.39 738.297 1641.99 752.151 C 1660.12 752.292 1744.47 751.076 1754.73 758.051 C 1756.11 761.303 1755.71 759.567 1755.25 763.578 C 1750.5 770.328 1741.95 778.642 1736.14 784.919 L 1701.21 823.118 C 1650.77 878.447 1599.93 933.421 1548.72 988.035 C 1540.62 996.73 1501.45 1040.08 1495.4 1043.98 C 1491.95 1042.06 1490 1041.49 1488.19 1038.01 C 1487.93 1035.5 1488.18 1034.04 1489.63 1031.93 C 1501.98 1014.17 1514.63 996.76 1526.44 978.615 C 1561.74 924.393 1601.95 872.651 1636.85 818.19 C 1614.87 817.44 1592.89 816.885 1570.9 816.525 C 1558.91 816.368 1531.22 816.981 1521.27 814.45 C 1519.02 811.881 1519.86 813.37 1519.22 809.555 C 1522.15 802.868 1645.01 660.361 1657.8 647.818 z" fill="rgb(243,141,37)" transform="translate(0,0)"></path>
<path d="M 1649.36 675.75 C 1645.14 691.11 1628.31 746.843 1629.26 759.91 C 1633.76 766.903 1659.06 765.298 1667.59 765.674 C 1689.94 766.66 1712.62 766.346 1734.97 767.575 C 1720.21 782.364 1705.42 799.08 1691.14 814.472 C 1671.32 835.42 1651.64 856.504 1632.11 877.723 C 1611.31 900.276 1580.06 932.149 1561.24 955.062 L 1559.57 952.797 C 1576.05 929.913 1593.84 903.766 1609.85 880.557 C 1620.44 865.223 1651.47 824.362 1656.11 810.136 C 1655.29 808.056 1654.98 808.057 1652.98 807.208 C 1640.83 802.038 1559.21 803.376 1539.64 803.151 L 1614.61 716.65 C 1625.24 704.314 1638.58 687.014 1649.36 675.75 z" fill="rgb(53,52,52)" transform="translate(0,0)"></path>
<path d="M 1559.57 952.797 L 1561.24 955.062 C 1556.75 960.288 1553 964.984 1547.68 969.391 C 1551.51 963.518 1555.36 958.41 1559.57 952.797 z" fill="rgb(67,37,14)" transform="translate(0,0)"></path>
<path d="M 1307.52 710.855 C 1312.27 710.735 1313.17 710.936 1316.34 713.662 C 1319.52 722.745 1309.88 764.486 1307.7 777.058 C 1321.85 779.088 1370.72 779.348 1380.78 784.244 C 1384.38 789.62 1381.7 793.575 1378.08 797.884 C 1356.9 823.061 1333.31 846.044 1311.38 870.55 L 1248.88 939.134 C 1238.79 950.307 1227.16 965.318 1216.77 975.446 C 1212.92 974.901 1210.74 974.337 1208.28 971.273 C 1208.19 970.311 1208.11 969.349 1208.03 968.387 C 1231.63 930.057 1275.27 863.694 1297.4 828.27 C 1275.6 824.527 1246.8 824.875 1224.51 820.971 C 1222.36 820.594 1221.88 818.31 1221.18 816.492 C 1221.37 809.86 1241.26 788.643 1246.2 782.723 C 1266.45 758.606 1286.89 734.65 1307.52 710.855 z" fill="rgb(243,141,37)" transform="translate(0,0)"></path>
<path d="M 1300.8 736.865 C 1303.94 740.213 1290.45 776.116 1294.29 787.69 C 1299.39 792.831 1352.21 794.16 1363.07 795.048 C 1352.36 805.531 1267 900.883 1265.25 901.627 L 1266.06 899.342 C 1282.41 876.441 1296.91 851.363 1313.63 828.57 C 1316.6 824.527 1318.34 821.017 1315.93 816.508 C 1310.28 812.078 1251.48 810.633 1239.56 809.872 C 1257.36 791.423 1284.17 757.243 1300.8 736.865 z" fill="rgb(53,52,52)" transform="translate(0,0)"></path>
<metadata><recraft-signature>{"signed_by": "recraft", "signature_b64": "xXTrleRAGSUxwW1aFH+TVOz1uKEgl+KSgr0Xx92W9gmPt1sexq4g+6q7pKuXKxbjAoU2NyIOwVL8KIcBj2JvDg==", "signing_algo": "Ed25519", "generation_timestamp": 1777048277, "identifier": "b0c818fb-f7da-47f1-abfc-8f109d42d5a7"}</recraft-signature></metadata></svg>