<svg xmlns="http://www.w3.org/2000/svg" height="1024" preserveAspectRatio="none" style="display: block;" version="1.1" viewBox="0 0 2048 2048" width="1024">
<path d="M 0 0 L 2048 0 L 2048 2048 L 0 2048 L 0 0 z" fill="rgb(38,36,36)" transform="translate(0,0)"></path>
<path d="M 539.639 690.359 C 552.78 688.818 575.985 689.551 589.69 689.615 L 674.491 689.782 L 970.06 689.82 L 1326.81 689.863 L 1442.06 689.82 C 1460.22 689.818 1487.93 689.02 1505.47 690.437 C 1522.75 691.891 1539.33 697.886 1553.54 707.814 C 1604.16 743.66 1594.93 794.226 1594.93 848.854 L 1594.96 1000.93 L 1595 1178.28 C 1595.03 1207.66 1596.49 1240.15 1594.2 1269.25 C 1590.57 1315.42 1552.74 1347.85 1509.23 1354.79 C 1486.85 1355.82 1460.09 1355.12 1437.44 1355.08 L 1313.3 1354.98 L 926.487 1355.14 L 666.592 1355.07 L 584.416 1355.22 C 547.399 1355.28 522.609 1359.13 491.113 1335.72 C 471.342 1321.12 458.138 1299.31 454.373 1275.02 C 451.788 1257.21 453.007 1208.43 453.039 1188.88 L 453.058 1029.71 L 452.955 857.075 L 452.96 806.219 C 452.964 801.365 453.13 795.892 452.984 791.091 C 451.352 737.323 487.605 697.522 539.639 690.359 z" fill="rgb(249,246,250)" transform="translate(0,0)"></path>
<path d="M 1256.25 1186.5 C 1257.35 1186.43 1258.55 1186.33 1259.65 1186.32 C 1299.74 1186 1339.83 1186.62 1379.93 1186.43 L 1439.55 1186.19 C 1468.51 1186.08 1493.77 1182.1 1516.35 1203.71 C 1528.48 1215.39 1535.35 1231.51 1535.36 1248.35 C 1535.45 1264.63 1529.48 1279.72 1517.76 1291.14 C 1495.5 1312.84 1472.8 1309.27 1444.25 1309.08 L 1291.96 1309.38 C 1274.76 1309.42 1229.15 1310.49 1214.93 1307.81 C 1202.58 1305.46 1191.17 1299.61 1182.05 1290.96 C 1158.83 1268.5 1157.7 1227.88 1181.02 1204.76 C 1202.61 1183.34 1228.08 1186.36 1256.25 1186.5 z" fill="rgb(221,221,219)" transform="translate(0,0)"></path>
<path d="M 1235.46 1192.49 L 1399.55 1192.79 C 1425.98 1192.83 1456.73 1191.98 1483 1194.37 C 1491.25 1195.12 1503.96 1202.17 1510.36 1208.04 C 1521.49 1218.18 1528.04 1232.42 1528.49 1247.48 C 1528.76 1261.58 1523.34 1275.19 1513.44 1285.24 C 1499.79 1299.21 1483.59 1301.69 1465.25 1302.17 C 1449.18 1302.89 1431.96 1302.35 1415.71 1302.33 L 1320.93 1302.1 L 1260.44 1302.03 C 1230.09 1301.98 1194.04 1305.47 1177.54 1273.41 C 1173.88 1266.31 1170.99 1257.77 1170.56 1249.79 C 1169.76 1236.14 1174.47 1222.75 1183.62 1212.6 C 1199.22 1195.23 1213.92 1193.36 1235.46 1192.49 z" fill="rgb(249,246,250)" transform="translate(0,0)"></path>
<path d="M 1334.85 1239.9 C 1338.51 1240.34 1343.01 1240.7 1344.72 1244.6 C 1346.39 1248.36 1346.43 1252.65 1344.82 1256.44 C 1343.92 1258.57 1341.7 1259.83 1339.6 1260.48 L 1337.69 1261.17 C 1323.68 1258.54 1324.13 1245.08 1334.85 1239.9 z" fill="rgb(38,36,36)" transform="translate(0,0)"></path>
<path d="M 1333.94 1243.72 C 1343.67 1244.62 1343.56 1249.79 1339.55 1257.7 C 1329.92 1256.44 1329.02 1251.74 1333.94 1243.72 z" fill="rgb(249,246,250)" transform="translate(0,0)"></path>
<path d="M 1227.93 1232.97 C 1231.12 1233.28 1244.55 1236.33 1238.39 1240.9 C 1236.83 1242.06 1231.74 1235.1 1227.5 1238.04 C 1219.44 1244.09 1233.65 1245.28 1236.42 1246.32 C 1242.93 1248.76 1242.74 1257.97 1236.06 1260.56 L 1234.38 1261.26 C 1230.22 1261.02 1222.65 1261.59 1220.64 1256.52 C 1220.2 1255.42 1220.36 1253.06 1222.02 1253.1 C 1224.46 1253.16 1225.25 1256.36 1227.53 1256.92 C 1229.58 1257.46 1231.93 1257.79 1233.91 1256.95 C 1235.91 1256.11 1236.87 1253.48 1235.66 1251.65 C 1234.1 1249.52 1230.88 1249.41 1228.52 1248.84 C 1225.85 1248.15 1222.65 1246.32 1221.43 1243.71 C 1218.98 1238.47 1224.36 1235.06 1227.93 1232.97 z" fill="rgb(38,36,36)" transform="translate(0,0)"></path>
<path d="M 1263.5 1240.04 C 1265.58 1240.11 1271.13 1239.75 1272.54 1241.98 C 1275.27 1246.49 1273.82 1253.82 1273.91 1259.07 C 1272.75 1262.52 1270.39 1258.2 1268 1259.79 C 1264.57 1262.07 1261.13 1260.48 1258.14 1259.15 C 1256.32 1250.36 1259.26 1249.65 1267.64 1248.92 C 1272.95 1246.78 1269.41 1241.97 1263.32 1244.52 C 1255.82 1247.67 1259.25 1242.91 1263.5 1240.04 z" fill="rgb(38,36,36)" transform="translate(0,0)"></path>
<path d="M 1262.7 1251.76 C 1269.46 1252.05 1271.83 1251.06 1267.76 1257.85 C 1262.45 1257.32 1260.64 1257.49 1262.7 1251.76 z" fill="rgb(249,246,250)" transform="translate(0,0)"></path>
<path d="M 1377.73 1240.11 C 1391.18 1241.73 1387.05 1246.06 1386.72 1259.88 C 1386.68 1261.65 1383.29 1259.5 1383.65 1259.43 C 1376.68 1260.79 1377.23 1261.73 1370.62 1258.41 C 1369.84 1242.12 1387.43 1254.39 1382.17 1244.7 C 1380.79 1242.15 1373.69 1246.72 1371.89 1244.56 C 1371.97 1244.12 1372.05 1243.69 1372.14 1243.25 C 1373.3 1241.99 1374.55 1241.16 1376.17 1240.65 L 1377.73 1240.11 z" fill="rgb(38,36,36)" transform="translate(0,0)"></path>
<path d="M 1375.84 1251.87 C 1381.78 1252.08 1384.74 1250.76 1381.54 1257.17 C 1376.7 1256.97 1373.09 1257.59 1375.84 1251.87 z" fill="rgb(249,246,250)" transform="translate(0,0)"></path>
<path d="M 1461.18 1236.45 C 1468.34 1235.68 1475.02 1236.21 1482.23 1236.03 C 1482.45 1238.95 1483.39 1253.1 1482.5 1254.03 C 1476.69 1260.04 1480.11 1241.66 1480.18 1240.69 C 1475.93 1244.81 1471.64 1248.89 1467.32 1252.94 C 1461.9 1257.89 1458.14 1261.5 1452.37 1266.2 C 1459.36 1255.07 1467.2 1247.84 1477.07 1239.08 C 1472.62 1238.97 1462.59 1240.63 1461.18 1236.45 z" fill="rgb(195,88,64)" transform="translate(0,0)"></path>
<path d="M 1410.97 1239.74 C 1413.62 1241.04 1414.04 1241.58 1414.82 1244.48 C 1415.71 1247.79 1416.71 1251.07 1417.81 1254.32 C 1418.14 1255.33 1418.52 1256.38 1418.87 1257.39 C 1419.87 1254.37 1423.78 1241.06 1424.42 1240.72 C 1431.53 1236.94 1424.41 1253.42 1424.05 1254.52 C 1423 1257.83 1420.48 1266.05 1416.99 1266.83 C 1410.9 1268.2 1408.14 1262.98 1415.38 1262.39 C 1417.05 1262.26 1414.81 1256.43 1414.23 1254.46 C 1412.65 1249.01 1409.75 1245.91 1410.97 1239.74 z" fill="rgb(38,36,36)" transform="translate(0,0)"></path>
<path d="M 1356.92 1239.93 C 1359.69 1240.19 1368.76 1241.22 1366.93 1246.06 C 1363.43 1247.62 1357.05 1240.34 1354.28 1247.06 C 1351.76 1253.16 1355.8 1259.73 1363.38 1255.78 L 1364.72 1255.12 C 1365.19 1254.72 1366.56 1253.67 1366.69 1254.64 C 1367.64 1262.68 1353.56 1262.8 1350.76 1255.99 C 1348.51 1250.54 1348.64 1243.56 1354.79 1240.83 C 1355.5 1240.53 1356.21 1240.23 1356.92 1239.93 z" fill="rgb(38,36,36)" transform="translate(0,0)"></path>
<path d="M 1248.36 1234.64 C 1248.8 1235.11 1249.7 1235.99 1249.78 1236.6 C 1250.09 1241.07 1253.32 1239.24 1254.84 1241.12 C 1256.58 1243.27 1250.7 1243.13 1250.46 1244.02 C 1249.63 1247.02 1250.01 1252.04 1250.27 1255.05 C 1250.37 1256.32 1254.79 1258.48 1256.38 1260.29 C 1243.55 1262.96 1246.74 1253.48 1246.03 1244.47 C 1245.94 1243.33 1243.76 1243.19 1242.95 1242.01 C 1242.97 1242.23 1247.46 1236.42 1248.36 1234.64 z" fill="rgb(38,36,36)" transform="translate(0,0)"></path>
<path d="M 1297.73 1234.22 C 1298.38 1234.63 1299.04 1235.02 1299.7 1235.42 C 1300.18 1235.8 1300.48 1236.36 1300.53 1236.97 C 1301.01 1242.39 1303.9 1239.74 1304.47 1241.06 C 1307.9 1243.94 1300.69 1243.49 1300.5 1244.89 C 1298.55 1259.15 1301.7 1254.2 1306.19 1258.79 C 1293.67 1268.07 1297.7 1246.75 1296.75 1245.57 C 1291.55 1239.11 1294.76 1246.36 1297.73 1234.22 z" fill="rgb(38,36,36)" transform="translate(0,0)"></path>
<path d="M 1402.7 1231.43 C 1403.09 1231.65 1405.6 1232.91 1405.63 1233.36 C 1406.13 1240.5 1406.81 1255.43 1404.74 1261.45 C 1404.24 1261.26 1402.05 1260.52 1401.99 1259.95 C 1401.38 1253.4 1400.97 1237.1 1402.7 1231.43 z" fill="rgb(38,36,36)" transform="translate(0,0)"></path>
<path d="M 1279.55 1239.23 C 1283.23 1240.46 1283.72 1243.59 1285.36 1242 C 1287.17 1240.24 1289.54 1239.03 1291.79 1240.55 C 1292.17 1243.97 1286.02 1243.06 1283.5 1249.25 C 1283.46 1251.31 1283.72 1259.21 1282.85 1259.95 C 1276.71 1265.19 1279.31 1241.25 1279.55 1239.23 z" fill="rgb(38,36,36)" transform="translate(0,0)"></path>
<path d="M 1318.96 1232.13 C 1324.75 1234.33 1322.71 1234.82 1322.94 1241.66 C 1323.16 1247.97 1322.94 1254.59 1322.77 1260.9 C 1322.18 1260.77 1319.37 1260.24 1319.25 1259.69 C 1318.07 1254.49 1318.72 1236.72 1318.96 1232.13 z" fill="rgb(38,36,36)" transform="translate(0,0)"></path>
<path d="M 1393.05 1232.09 C 1393.68 1232.32 1396.26 1233.17 1396.31 1233.58 C 1396.99 1239.05 1396.78 1256.19 1396.54 1260.77 C 1396.17 1260.68 1393.13 1260.1 1393.05 1259.67 C 1391.7 1252.34 1392.49 1239.18 1393.05 1232.09 z" fill="rgb(38,36,36)" transform="translate(0,0)"></path>
<path d="M 1027.21 907.192 C 1029.34 907.081 1031.48 907.011 1033.62 906.982 C 1081.23 906.504 1092.4 980.698 1062.98 1008.27 C 1049.37 1021.03 1028.05 1020.67 1012.28 1012.29 C 1004.75 1008.29 1000.37 1003.01 995.019 996.647 L 994.903 1023.5 L 994.883 1050.97 L 969.026 1051.16 C 969.016 1031.93 966.603 922.787 970.023 912.457 C 973.865 909.34 986.082 908.891 990.192 911.15 C 993.786 916.487 994.27 924.356 995.279 930.925 C 1003.98 916.227 1010.59 910.784 1027.21 907.192 z" fill="rgb(38,36,36)" transform="translate(0,0)"></path>
<path d="M 1017.79 929.075 C 1044.22 927.956 1054.51 941.996 1052.24 969.009 C 1051.12 982.351 1044.32 990.379 1031.83 995.083 C 1017.05 996.953 1000.17 993.471 996.531 977.697 C 991.159 954.423 993.998 936.074 1017.79 929.075 z" fill="rgb(249,246,250)" transform="translate(0,0)"></path>
<path d="M 899.221 907.154 C 914.848 906.3 926.034 907.555 937.337 919.996 C 958.013 942.752 957.426 987.876 934.969 1009.06 C 927.174 1016.41 912.697 1018.95 902.45 1017.45 C 887.266 1015.71 878.227 1009.04 868.862 997.429 L 868.728 1022.5 L 868.66 1051.01 C 860.062 1051.34 851.461 1051.61 842.859 1051.8 L 842.738 910.294 C 850.429 909.425 855.003 909.111 862.732 909.07 C 864.763 916.456 866.173 921.421 868.987 928.494 C 879.48 914.799 882.72 911.11 899.221 907.154 z" fill="rgb(38,36,36)" transform="translate(0,0)"></path>
<path d="M 892.01 929.149 C 923.464 927.86 931.829 953.032 922.638 980.742 C 920.083 988.446 911.423 993.13 903.912 995.656 C 890.135 997.132 873.17 994.446 870.06 977.496 C 866.07 955.755 866.683 935.046 892.01 929.149 z" fill="rgb(249,246,250)" transform="translate(0,0)"></path>
<path d="M 584.132 868.414 C 626.047 865.715 647.561 888.656 658.705 926.299 C 650.771 927.324 639.865 927.532 631.669 927.92 C 621.177 898.588 597.683 881.034 566.166 898.534 C 543.258 911.253 544.471 961.602 559.469 981.17 C 565.733 989.326 575.138 994.472 585.384 995.349 C 600.26 996.715 609.804 990.947 620.472 981.949 C 626.898 974.211 628.729 968.88 632.534 959.687 C 641.348 959.629 650.395 959.8 659.23 959.86 C 650.51 992.612 633.105 1014.43 597.572 1017.97 C 551.238 1023.02 525.394 993.992 521.579 950.074 C 517.676 905.143 536.69 872.059 584.132 868.414 z" fill="rgb(38,36,36)" transform="translate(0,0)"></path>
<path d="M 676.68 872.319 L 703.12 872.109 C 703.659 890.123 703.983 908.142 704.091 926.163 L 707.036 925.858 C 718.774 903.308 750.045 900.376 766.737 917.052 C 770.908 921.264 773.844 926.539 775.223 932.303 C 777.431 941.342 776.162 1001.8 776.206 1015.41 L 749.95 1015.43 C 749.927 1001.12 750.132 986.329 750.287 972.074 C 750.762 953.638 752.467 930.162 727.147 929.954 C 698.654 929.72 703.754 961.058 703.27 980.294 C 702.974 992.075 703.24 1003.82 703.241 1015.42 C 694.362 1015.78 685.338 1015.5 676.442 1015.36 L 676.68 872.319 z" fill="rgb(38,36,36)" transform="translate(0,0)"></path>
<path d="M 704.091 926.163 L 707.036 925.858 C 706.681 926.646 705.4 929.832 704.504 930.208 L 704.335 930.12 C 703.789 929.03 704.043 927.329 704.091 926.163 z" fill="rgb(249,246,250)" transform="translate(0,0)"></path>
<path d="M 1163.79 910.083 C 1172.45 909.878 1181.12 909.98 1189.77 910.388 C 1181.82 933.381 1170.84 960.001 1162.08 983.222 C 1144.47 1027.18 1148.83 1056.65 1091.59 1054.87 L 1091.2 1038.42 C 1109.47 1035.01 1114.69 1031.43 1120.97 1013.75 C 1116.69 992.426 1098.46 956.497 1090.58 935.357 C 1087.72 927.663 1083.54 920.292 1081.29 911.981 L 1082.36 910.449 C 1090.91 910.308 1099.45 910.356 1108 910.594 C 1117.62 932.004 1127.55 963.696 1135.89 986.577 C 1140.23 971.733 1157.4 922.853 1163.79 910.083 z" fill="rgb(38,36,36)" transform="translate(0,0)"></path>
<path d="M 795.251 909.098 L 822.227 909.11 C 822.675 944.581 822.777 980.055 822.534 1015.53 C 813.551 1015.75 804.149 1015.63 795.129 1015.66 L 795.251 909.098 z" fill="rgb(38,36,36)" transform="translate(0,0)"></path>
<path d="M 795.153 867.894 C 804.196 867.687 813.385 867.804 822.455 867.719 C 822.438 876.992 822.491 884.515 822.966 893.798 C 813.759 894.068 804.293 893.906 795.059 893.865 L 795.153 867.894 z" fill="rgb(38,36,36)" transform="translate(0,0)"></path>
<path d="M 1526.72 755.659 C 1531.67 759.314 1527.29 761.307 1523.56 765.11 C 1517.84 770.932 1512.25 775.963 1507.09 782.406 C 1512.95 788.774 1525.24 799.14 1528.3 806.444 L 1530.15 810.762 C 1518.51 802.81 1513.89 795.909 1503.71 786.163 C 1496.4 792.232 1487.87 801.596 1480.54 807.078 C 1479.82 807.612 1477.24 805.171 1476.83 804.798 C 1481.61 800.07 1496.01 786.582 1499.58 781.511 C 1499.42 780.286 1495.49 776.598 1495.02 779.504 C 1494.9 780.23 1494.6 781.434 1493.61 781.039 C 1492.87 779.795 1494.98 777.587 1493.59 775.998 C 1491.64 773.529 1477.33 761.389 1477.25 758.964 C 1477.03 751.782 1492.43 768.01 1492.45 768.031 C 1496.16 771.424 1499.86 774.467 1503.4 777.846 C 1509.99 771.449 1520.04 760.678 1526.72 755.659 z" fill="rgb(221,221,219)" transform="translate(0,0)"></path>
<path d="M 632.059 1109.01 C 633.707 1108.9 639.156 1108.47 640.106 1109.57 C 643.082 1113 645.526 1107.17 646.448 1109.02 C 647.908 1111.95 647.16 1115.74 647.496 1119.76 C 647.809 1123.5 648.43 1133.39 645.514 1136.5 C 639.251 1140.85 632.859 1140.19 627.701 1135.44 C 630.44 1131.17 631.727 1134.96 636.481 1135.92 C 641.661 1136.96 644.785 1131 642.724 1129.43 C 638.46 1128.9 627.529 1134.63 626.726 1119.99 C 626.497 1115.8 627.834 1113.19 630.909 1110.2 L 632.059 1109.01 z" fill="rgb(38,36,36)" transform="translate(0,0)"></path>
<path d="M 634.987 1112.89 C 638.746 1111.71 642.755 1113.79 643.959 1117.54 C 645.162 1121.29 643.109 1125.31 639.363 1126.53 C 635.589 1127.77 631.531 1125.7 630.318 1121.91 C 629.105 1118.13 631.199 1114.09 634.987 1112.89 z" fill="rgb(249,246,250)" transform="translate(0,0)"></path>
<path d="M 1027.61 1109.02 C 1029.83 1108.83 1039.99 1109.67 1040.11 1109.55 C 1044.42 1105.31 1043.13 1118.53 1043.15 1120.33 C 1043.31 1133.19 1045.43 1140.44 1029.47 1138.96 C 1027.05 1138.74 1025.49 1137.02 1024.54 1134.76 L 1023.8 1133.08 C 1028.83 1133.75 1031.52 1138.64 1037.47 1135.02 C 1039.48 1133.8 1041.28 1130.56 1039.26 1128.47 C 1036.79 1128.37 1030.39 1132.83 1026.56 1128.83 C 1020.11 1122.12 1021.8 1114.99 1027.61 1109.02 z" fill="rgb(38,36,36)" transform="translate(0,0)"></path>
<path d="M 1030.6 1112.82 C 1034.29 1111.5 1038.34 1113.42 1039.66 1117.11 C 1040.98 1120.79 1039.07 1124.85 1035.39 1126.17 C 1031.7 1127.5 1027.63 1125.59 1026.31 1121.89 C 1024.98 1118.2 1026.91 1114.14 1030.6 1112.82 z" fill="rgb(249,246,250)" transform="translate(0,0)"></path>
<path d="M 704.54 1159.24 C 711.922 1162.34 705.755 1166.67 708.524 1170.62 C 711.401 1170.55 713.437 1166.45 719.511 1168.92 C 721.583 1169.77 723.219 1171.42 724.038 1173.51 C 726.156 1178.76 724.661 1183.67 722.609 1188.55 C 713.929 1194.8 713.002 1189.09 708.983 1188.84 C 708.807 1188.93 705.279 1192.87 704.974 1190.36 C 703.843 1181.06 703.784 1168.61 704.54 1159.24 z" fill="rgb(38,36,36)" transform="translate(0,0)"></path>
<path d="M 713.865 1170.76 C 722.445 1174.17 724.263 1182.12 717.062 1187.74 L 715.827 1188.73 C 705.81 1184.12 703.941 1176.94 713.865 1170.76 z" fill="rgb(249,246,250)" transform="translate(0,0)"></path>
<path d="M 683.736 1158.43 C 687.409 1161.1 686.425 1163.93 686.269 1168.69 C 686.164 1171.92 686.888 1188.8 686.035 1190.72 C 682.835 1192.69 683.03 1186 678.736 1190.66 C 677.905 1191.57 672.015 1190.7 670.456 1190.44 C 665.721 1185.08 663.919 1178.84 667.844 1171.94 C 671.394 1165.7 678.966 1170.33 681.754 1169.97 C 682.904 1167.73 681.816 1163.38 683.011 1160.28 L 683.736 1158.43 z" fill="rgb(38,36,36)" transform="translate(0,0)"></path>
<path d="M 673.933 1170.64 C 684.205 1173.64 686.02 1182.27 677.206 1188.12 C 668.264 1185.53 666.74 1178.68 672.792 1171.98 L 673.933 1170.64 z" fill="rgb(249,246,250)" transform="translate(0,0)"></path>
<path d="M 791.766 1099.19 C 799.517 1102.65 792.825 1118.62 795.176 1126.54 C 795.686 1128.26 795.969 1131.09 793.389 1131.12 C 791.763 1130.26 791.312 1127.26 789.81 1128.62 C 786.59 1131.53 784.282 1131.13 780.178 1131.57 C 773.372 1125.81 771.8 1114.99 780.042 1109.25 C 783.208 1107.05 789.931 1110.63 790.653 1110.42 C 791.024 1109.93 791.275 1101.79 791.766 1099.19 z" fill="rgb(38,36,36)" transform="translate(0,0)"></path>
<path d="M 781.958 1111.44 C 790.939 1112.82 795.065 1119.4 788.392 1126.3 L 787.167 1127.62 C 775.798 1128.4 777.598 1118.44 781.958 1111.44 z" fill="rgb(249,246,250)" transform="translate(0,0)"></path>
<path d="M 525.833 1161.03 C 529.362 1160.99 538.742 1160.27 541.375 1162.3 C 550.51 1169.34 548.157 1178.22 537.754 1180.62 C 526.492 1181.36 529.94 1179.79 529.148 1190.03 C 529.06 1191.17 525.177 1192.5 525.283 1188.03 C 525.497 1179.01 525.295 1170.09 525.833 1161.03 z" fill="rgb(38,36,36)" transform="translate(0,0)"></path>
<path d="M 529.54 1164.23 C 537.435 1164.14 545.355 1164.34 542.285 1174.67 L 541.876 1176.11 C 527.517 1179.31 528.765 1177.39 529.54 1164.23 z" fill="rgb(249,246,250)" transform="translate(0,0)"></path>
<path d="M 616.747 778.199 C 618.586 785.681 619.573 805.976 610.044 807.226 C 604.318 807.977 596.949 804.518 600.524 801.777 C 599.311 801.87 608.019 804.555 611.949 804.648 C 612.364 803.241 614.321 798.639 612.734 797.438 C 610.924 797.438 608.044 800.386 603.526 798.785 C 593.15 795.11 598.633 774.922 609.773 779.44 C 614.159 781.218 613.135 780.59 616.747 778.199 z" fill="rgb(98,92,87)" transform="translate(0,0)"></path>
<path d="M 605.12 780.614 C 615.258 782.271 615.778 789.781 610.055 797.119 C 598.672 795.879 599.322 788.365 605.12 780.614 z" fill="rgb(249,246,250)" transform="translate(0,0)"></path>
<path d="M 755.616 1109.74 C 761.278 1107.22 767.911 1109.74 770.47 1115.39 C 773.03 1121.03 770.559 1127.68 764.936 1130.28 C 759.251 1132.92 752.511 1130.41 749.923 1124.71 C 747.336 1119 749.891 1112.28 755.616 1109.74 z" fill="rgb(38,36,36)" transform="translate(0,0)"></path>
<path d="M 757.041 1111.79 C 768.565 1111.68 769.336 1119.5 763.78 1127.83 C 751.689 1128.76 751.221 1120.08 757.041 1111.79 z" fill="rgb(249,246,250)" transform="translate(0,0)"></path>
<path d="M 591.889 779.004 C 594.408 779.632 592.699 797.614 592.785 800.517 C 593.229 815.474 564.816 801.014 579.089 802.779 C 576.7 802.484 587.212 806.547 586.195 806.184 C 587.58 804.711 593.093 796.719 587.569 798.042 C 583.179 799.094 577.848 799.917 575.565 794.628 C 573.83 789.07 573.507 781.596 580.026 779.226 C 587.082 776.661 586.587 783.574 591.889 779.004 z" fill="rgb(98,92,87)" transform="translate(0,0)"></path>
<path d="M 579.862 780.679 C 590.585 780.991 592.146 788.388 587.329 797.003 L 585.412 796.956 C 575.256 796.754 575.99 787.562 579.862 780.679 z" fill="rgb(249,246,250)" transform="translate(0,0)"></path>
<path d="M 555.06 1169.11 C 565.528 1168.02 570.368 1169.82 570.126 1182.03 C 570.043 1186.21 567.636 1188.58 564.592 1191.14 C 560.814 1191.25 555.785 1191.99 552.973 1189.05 C 547.136 1182.96 548.077 1175.56 553.888 1170.23 L 555.06 1169.11 z" fill="rgb(38,36,36)" transform="translate(0,0)"></path>
<path d="M 555.965 1171.82 C 567.535 1171.36 568.943 1178.78 563.771 1187.81 C 551.877 1188.91 549.843 1180.28 555.965 1171.82 z" fill="rgb(249,246,250)" transform="translate(0,0)"></path>
<path d="M 955.972 1108.89 C 971.23 1109.77 974.45 1123.17 962.546 1131.33 C 958.138 1131.34 951.793 1131.8 949.998 1127.03 C 946.566 1117.91 948.502 1113.21 955.972 1108.89 z" fill="rgb(38,36,36)" transform="translate(0,0)"></path>
<path d="M 954.728 1112.73 C 965.144 1112.25 968.91 1118.03 963.06 1126.77 L 962.122 1128.2 C 951.312 1127.76 949.339 1122 954.728 1112.73 z" fill="rgb(249,246,250)" transform="translate(0,0)"></path>
<path d="M 709.09 777.473 C 723.233 782.62 713.714 780.54 719.464 778.759 C 719.675 778.857 720.561 779.271 720.578 779.641 C 720.809 785.815 721.633 793.347 720.516 799.359 C 720.375 799.638 719.656 799.693 719.493 799.508 C 718.489 798.366 718.798 797.446 717.832 796.088 C 705.093 808.706 694.887 788.18 707.976 778.34 L 709.09 777.473 z" fill="rgb(98,92,87)" transform="translate(0,0)"></path>
<path d="M 709.279 780.438 C 718.082 782.215 720.842 789.362 715.227 796.221 L 714.016 797.841 C 702.445 795.487 703.116 788.604 709.279 780.438 z" fill="rgb(249,246,250)" transform="translate(0,0)"></path>
<path d="M 772.05 1160.37 C 769.629 1159.52 773.95 1160.86 774.19 1161.28 C 778.897 1169.71 781.936 1180.72 784.804 1189.97 C 785.047 1190.76 783.48 1191.38 782.891 1191.06 C 778.679 1188.82 781.84 1183.81 776.239 1182.81 C 761.916 1183.31 769.642 1182.11 764.248 1190.54 C 763.141 1192.27 758.824 1191.5 763.353 1182.61 C 766.374 1176.68 768.738 1166.44 772.05 1160.37 z" fill="rgb(38,36,36)" transform="translate(0,0)"></path>
<path d="M 772.688 1167.81 C 775.005 1170.21 778.024 1176.67 775.496 1180 C 766.507 1178.27 768.71 1177.57 772.688 1167.81 z" fill="rgb(249,246,250)" transform="translate(0,0)"></path>
<path d="M 578.736 1109.07 C 582.89 1108.88 594.443 1107.19 593.223 1119.99 C 592.977 1122.58 580.493 1120.31 578.155 1121.48 C 575.333 1122.89 578.758 1128.32 581.364 1128.46 C 584.403 1128.95 584.297 1129.23 587.129 1127.77 C 598.553 1120.9 591.409 1133.66 582.533 1132.13 C 570.065 1129.98 570.249 1116.65 578.736 1109.07 z" fill="rgb(38,36,36)" transform="translate(0,0)"></path>
<path d="M 580.746 1111.61 L 581.676 1111.72 C 585.38 1112.12 593.521 1115.35 587.115 1118.29 C 578.843 1118.23 573.09 1119.82 580.746 1111.61 z" fill="rgb(249,246,250)" transform="translate(0,0)"></path>
<path d="M 804.578 1109.1 L 806.043 1108.99 C 810.114 1108.64 820.6 1107.74 820.456 1119.98 C 820.428 1122.37 805.651 1120.09 804.911 1121.58 C 802.045 1127.35 808.751 1128.01 811.225 1128.05 C 812.54 1127.71 818.001 1126.05 818.573 1126.55 C 823.073 1130.44 806.745 1133.07 803.545 1129.98 C 798.737 1125.33 798.509 1115.26 803.37 1110.35 L 804.578 1109.1 z" fill="rgb(38,36,36)" transform="translate(0,0)"></path>
<path d="M 806.955 1111.74 L 808.431 1111.8 C 811.737 1111.94 819.259 1114.45 814.832 1117.94 C 810.129 1117.89 800.956 1119.89 805.994 1113.18 L 806.955 1111.74 z" fill="rgb(249,246,250)" transform="translate(0,0)"></path>
<path d="M 647.587 1169.01 C 653.873 1168.59 663.214 1167.95 662.536 1180.3 C 662.38 1183.15 644.367 1178.41 646.25 1183.67 C 647.585 1187.41 650.662 1188.61 654.248 1187.65 C 667.928 1181.27 660.434 1190.9 653.524 1191.11 C 640.034 1191.52 638.665 1177.5 647.587 1169.01 z" fill="rgb(38,36,36)" transform="translate(0,0)"></path>
<path d="M 649.071 1171.57 C 652.519 1171.7 660.357 1172.84 657.772 1178.11 C 652.693 1178.1 642.614 1180.36 648.043 1173.11 L 649.071 1171.57 z" fill="rgb(249,246,250)" transform="translate(0,0)"></path>
<path d="M 658.804 1108.95 C 667.303 1108.97 670.818 1108.81 672.498 1118.04 C 673.077 1121.22 671.585 1121.13 669.031 1121.33 C 663.352 1121.78 649.327 1119.24 659.972 1128 C 661.074 1128.9 663.965 1128.07 665.423 1127.55 C 666.387 1127.14 673.077 1124 670.189 1129.11 C 668.226 1131.26 664.407 1131.72 662.024 1131.75 C 650.494 1131.9 648.833 1115.93 657.195 1110.1 L 658.804 1108.95 z" fill="rgb(38,36,36)" transform="translate(0,0)"></path>
<path d="M 660.835 1111.49 C 664.334 1112.48 672.755 1115.77 665.158 1118.74 C 656.202 1118.13 652.891 1119 660.835 1111.49 z" fill="rgb(249,246,250)" transform="translate(0,0)"></path>
<path d="M 612.847 1168.08 C 620.545 1169.17 622.959 1170.51 624.077 1179.07 C 624.749 1184.2 605.728 1177.51 608.039 1183.51 C 610.732 1190.5 616.598 1187.32 621.398 1185.24 C 631.152 1185.98 608.572 1198.02 604.935 1185.51 C 602.317 1176.5 603.764 1171.49 612.847 1168.08 z" fill="rgb(38,36,36)" transform="translate(0,0)"></path>
<path d="M 610.891 1171.66 C 613.788 1171.77 623.967 1173.52 618.792 1177.97 C 610.778 1177.82 605.088 1179.98 610.891 1171.66 z" fill="rgb(249,246,250)" transform="translate(0,0)"></path>
<path d="M 856.741 1108.94 C 861.729 1109.01 866.603 1108.65 869.562 1113.65 C 877.367 1126.19 858.554 1119.47 855.492 1121.51 C 852.691 1123.38 856.16 1129.99 863.362 1127.69 C 874.711 1121.28 870.253 1132.14 860.014 1131.39 C 847.732 1130.49 847.629 1116.78 856.741 1108.94 z" fill="rgb(38,36,36)" transform="translate(0,0)"></path>
<path d="M 858.87 1111.49 C 860.807 1112.05 870.74 1115.49 865.001 1118.13 C 856.708 1118.02 851.159 1119.56 858.87 1111.49 z" fill="rgb(249,246,250)" transform="translate(0,0)"></path>
<path d="M 593.867 1184.88 C 594.453 1182.68 597.532 1165.93 601.196 1169.49 C 601.866 1170.14 600.937 1172.78 600.751 1173.67 C 600.086 1175.94 599.393 1178.2 598.801 1180.49 L 598.371 1182.05 C 595.499 1192.84 592.895 1196.97 589.253 1182.48 C 588.488 1179.48 587.765 1176.47 587.085 1173.45 C 584.833 1181.36 583.009 1186.49 580.246 1194.08 C 576.788 1186.52 573.241 1176.71 572.759 1168.36 C 578.036 1170.35 577.742 1175.36 579.012 1181.01 L 580.066 1185.59 C 587.648 1161.49 586.797 1163.12 593.867 1184.88 z" fill="rgb(38,36,36)" transform="translate(0,0)"></path>
<path d="M 896.277 1108.9 C 900.909 1109.41 906.139 1110.03 906.178 1115.99 C 906.194 1118.52 906.935 1129.7 905.01 1130.99 C 903.522 1131.1 902.921 1129.69 902.499 1129.79 C 898.353 1130.78 893.444 1132.95 889.787 1129.25 C 889.07 1128.54 888.353 1127.82 887.636 1127.11 C 888.763 1118.25 891.066 1119.35 900.034 1118.08 C 904.067 1117.61 902.735 1114.26 900.021 1112.77 C 896.679 1110.94 892.371 1115.41 890.143 1113.82 C 889.466 1111.57 892.869 1110.22 894.402 1109.65 L 896.277 1108.9 z" fill="rgb(38,36,36)" transform="translate(0,0)"></path>
<path d="M 894.812 1121.01 C 902.685 1121.52 905.665 1121.54 898.146 1128.91 C 892.781 1127.56 889.117 1125.91 894.812 1121.01 z" fill="rgb(249,246,250)" transform="translate(0,0)"></path>
<path d="M 756.687 779.051 C 773.043 778.158 768.652 782.08 768.679 798.857 C 768.681 800.176 767.173 799.31 766.855 799.113 C 762.226 796.252 759.352 802.308 752.767 797.628 L 751.427 796.722 C 754.107 782.572 764.451 790.523 766.066 785.134 C 767.089 781.722 761.002 779.075 756.79 782.453 C 751.379 786.792 752.914 782.847 756.687 779.051 z" fill="rgb(98,92,87)" transform="translate(0,0)"></path>
<path d="M 763.459 789.003 C 769.503 790.363 763.653 796.082 760.542 797.75 L 758.998 798.627 C 752.473 793.821 753.681 791.234 761.546 789.467 L 763.459 789.003 z" fill="rgb(249,246,250)" transform="translate(0,0)"></path>
<path d="M 627.579 778.928 C 635.22 778.75 640.523 777.945 641.24 786.993 C 641.403 789.056 641.11 789.767 639.021 789.658 C 634.764 789.436 630.216 789.134 625.984 789.448 C 625.631 789.474 624.962 790.03 624.926 790.408 C 624.752 793.739 628.846 796.507 631.376 797.255 L 633.239 797.868 C 634.606 796.8 635.9 795.524 637.395 794.663 C 639.229 793.645 640.199 795.474 638.912 796.654 C 631.915 803.069 621.788 797.994 622.056 788.49 C 622.169 784.502 625.344 781.254 627.579 778.928 z" fill="rgb(98,92,87)" transform="translate(0,0)"></path>
<path d="M 629.246 780.661 C 632.423 781.098 641.791 784.781 635.058 787.151 C 625.921 786.796 622.658 788.327 629.246 780.661 z" fill="rgb(249,246,250)" transform="translate(0,0)"></path>
<path d="M 684.58 778.924 C 686.388 778.903 699.102 777.582 697.715 789.4 C 697.494 791.278 684.193 789.27 683.398 790.162 C 680.047 793.925 686.615 797.413 689.62 798.49 C 691.032 797.671 692.967 796.499 694.27 795.602 C 696.274 794.22 697.26 796.346 695.931 797.304 C 683.163 806.505 673.658 790.559 684.58 778.924 z" fill="rgb(75,70,66)" transform="translate(0,0)"></path>
<path d="M 685.761 780.439 C 690.368 781.02 698.947 785.814 693.017 788.079 C 683.373 787.822 679.736 789.694 685.761 780.439 z" fill="rgb(249,246,250)" transform="translate(0,0)"></path>
<path d="M 744.465 1167.58 C 743.823 1167.14 746.673 1168.92 746.552 1169.35 C 744.123 1177.93 740.324 1186.78 736.796 1195 C 735.878 1197.14 730.732 1200.13 728.515 1198.24 C 728.365 1193.87 735.152 1196.16 734.173 1188.57 C 733.296 1186.51 721.61 1162.22 730.66 1170.24 C 730.639 1170.22 736.139 1183.82 736.82 1185.37 C 738.938 1179.74 741.19 1172.53 744.465 1167.58 z" fill="rgb(38,36,36)" transform="translate(0,0)"></path>
<path d="M 677.195 1108.5 C 684.7 1112.86 686.922 1105.3 694.183 1110.8 C 696.243 1112.36 696.443 1129.49 694.154 1131.61 C 689.849 1131.56 691.533 1120.68 691.57 1117.52 C 690.681 1112.7 690.49 1111.27 683.991 1112.48 C 677.071 1113.78 684.535 1135.63 677.58 1130.92 C 676.366 1130.1 677.066 1111.27 677.195 1108.5 z" fill="rgb(38,36,36)" transform="translate(0,0)"></path>
<path d="M 535.217 1108.51 C 536.025 1108.84 539.197 1110.59 539.083 1110.63 C 542.078 1109.53 549.65 1106.98 552.109 1110.49 C 553.966 1113.14 555.247 1128.9 552.178 1131.19 L 550.759 1130.88 C 549.688 1128.23 550.039 1119.84 550.033 1116.75 C 549.44 1112.48 547.933 1111.49 543.644 1112.32 C 534.879 1114.03 541.217 1126.34 538.027 1131.07 L 536.953 1131.15 C 533.5 1129.31 535.05 1112.65 535.217 1108.51 z" fill="rgb(38,36,36)" transform="translate(0,0)"></path>
<path d="M 1000.35 1108.44 C 1002.11 1109.4 1004.16 1111.26 1005.99 1110.18 C 1021.17 1101.21 1019.44 1129.41 1015.9 1131.38 L 1014.79 1131.01 C 1013.54 1128.72 1013.96 1119.19 1013.95 1116.07 C 1012.94 1113.46 1010.7 1111 1007.6 1112.16 C 1001.08 1114.09 1005.38 1128.33 1003.55 1130.26 C 997.911 1136.22 1000.2 1110.62 1000.35 1108.44 z" fill="rgb(38,36,36)" transform="translate(0,0)"></path>
<path d="M 532.725 770.947 C 536.569 770.857 541.845 769.874 544.42 773.618 C 545.116 774.63 545.939 776.488 544.427 777.159 C 543.195 777.021 538.498 770.829 534.593 773.363 C 519.474 783.177 545.135 782.668 546.51 788.43 C 548.421 796.437 544.243 798.094 538.452 800.483 C 534.296 799.916 529.579 799.3 527.275 795.171 C 526.887 794.914 527.217 792.849 527.401 793.034 C 531.684 797.347 542.171 801.502 543.832 791.831 C 545.107 784.408 516.183 785.715 531.338 772.209 L 532.725 770.947 z" fill="rgb(75,70,66)" transform="translate(0,0)"></path>
<path d="M 732.643 1108.94 C 736.08 1108.91 740.163 1108.31 743.15 1110.51 C 744.083 1111.2 747.157 1114.19 745.367 1115.44 C 743.129 1117 740.95 1112.75 738.424 1112.31 C 737.391 1111.86 734.092 1112.37 733.355 1113.15 C 728.034 1118.73 729.399 1127.09 737.415 1128.56 L 739.312 1128.95 C 739.886 1128.42 740.446 1127.87 740.993 1127.31 C 744.826 1123.36 745.945 1125.99 745.743 1126.39 C 738.33 1141.03 715.077 1123.99 732.643 1108.94 z" fill="rgb(38,36,36)" transform="translate(0,0)"></path>
<path d="M 796.481 769.276 C 800.927 772.356 799.122 783.987 799.146 789.676 C 800.489 788.232 808.783 777.664 810.676 778.615 C 811.006 779.129 810.888 778.85 811.025 779.451 C 810.284 781.255 804.996 786.827 803.481 788.557 C 805.282 790.458 807.045 792.394 808.771 794.363 C 808.993 794.656 814.608 800.446 811.506 800.747 C 808.08 801.079 805.132 792.674 802.322 791.381 C 798.147 789.461 799.8 798.127 796.995 798.929 C 794.663 798.148 795.88 772.821 796.481 769.276 z" fill="rgb(98,92,87)" transform="translate(0,0)"></path>
<path d="M 918.901 1108.91 C 931.948 1109.46 935.689 1119.93 922.648 1112.47 C 916.731 1109.09 907.552 1128.28 923.375 1128.14 C 933.425 1122.72 929.721 1128.84 927.416 1129.97 C 912.18 1137.43 903.203 1117.51 918.901 1108.91 z" fill="rgb(38,36,36)" transform="translate(0,0)"></path>
<path d="M 777.605 779.032 C 781.867 778.806 786.953 777.606 789.306 781.735 C 790.431 783.709 788.821 784.452 787.227 783.362 C 786.577 782.826 785.926 782.29 785.276 781.753 C 782.733 778.904 776.463 783.234 778.385 785.382 C 781.503 788.864 801.23 789.496 786.115 799.394 C 785.378 799.527 773.673 801.676 774.349 795.24 C 776.445 793.546 781.41 799.221 784.537 796.558 C 796.312 786.533 765.398 795.854 777.605 779.032 z" fill="rgb(98,92,87)" transform="translate(0,0)"></path>
<path d="M 880.572 1099.38 C 881.225 1099.53 881.878 1099.67 882.531 1099.82 C 887.298 1100.15 886.473 1102.52 882.7 1103.42 C 881.069 1104.22 880.326 1106.96 881.416 1108.41 C 882.498 1109.65 885.58 1108.62 885.932 1110.53 C 886.382 1112.98 881.772 1111.8 881.518 1112.93 C 880.361 1118.09 880.991 1125.24 880.964 1130.76 C 872.89 1132.09 879.108 1118.28 876.797 1113.56 C 876.069 1112.07 872.084 1112.32 872.471 1110.27 C 873.991 1108.47 876.955 1110.25 877.025 1107.07 C 877.09 1104.12 877.836 1102.51 879.744 1100.36 L 880.572 1099.38 z" fill="rgb(38,36,36)" transform="translate(0,0)"></path>
<path d="M 703.142 1102.19 C 708.874 1104.71 705.275 1106.7 706.85 1108 C 709.105 1109.85 715.554 1110.44 707.173 1112.64 C 706.243 1112.88 706.357 1124.19 706.743 1125.49 C 707.707 1128.75 710.131 1127.2 711.638 1132.11 C 710.419 1131.93 705.496 1131.36 704.626 1130.63 C 700.712 1127.36 703.766 1117.91 702.354 1113.39 C 701.823 1111.69 698.74 1112.32 698.204 1110.89 C 698.04 1110.45 698.108 1109.96 698.385 1109.59 C 701.641 1105.25 700.093 1114.71 703.142 1102.19 z" fill="rgb(38,36,36)" transform="translate(0,0)"></path>
<path d="M 562.643 1102.38 C 563.165 1102.78 563.687 1103.18 564.209 1103.58 C 565.423 1104.21 564.586 1108.19 565.326 1108.37 C 572.421 1110.09 570.512 1111.23 565.141 1112.65 C 564.567 1112.8 564.251 1124.94 564.974 1126.54 C 565.864 1128.5 568.215 1127.48 570.609 1131.11 C 568.935 1131.15 563.872 1131.66 562.528 1130.38 C 559.134 1128.32 561.811 1114.36 560.771 1113.55 C 552.42 1107.06 558.738 1111.84 560.784 1107.06 C 561.238 1105.99 560.798 1104.92 562.643 1102.38 z" fill="rgb(38,36,36)" transform="translate(0,0)"></path>
<path d="M 648.051 778.922 C 652.233 778.75 658.881 777.525 660.721 782.892 C 660.61 783.313 660.718 783.154 660.452 783.4 C 658.583 783.866 649.732 776.873 648.652 784.494 C 648.014 789.001 674.153 789.364 656.994 799.79 C 653.581 799.994 645.951 800.539 645.551 795.411 L 646.071 794.877 C 648.842 795.312 649.664 798.453 653.479 797.768 C 654.904 798.018 659.839 795.322 658.693 793.344 C 655.253 787.402 640.989 793.211 646.943 780.606 C 646.804 780.899 648.311 778.527 648.051 778.922 z" fill="rgb(98,92,87)" transform="translate(0,0)"></path>
<path d="M 938.067 1102.31 C 942.513 1104.81 939.577 1103.94 941.112 1108.44 C 941.437 1109.39 945.674 1109.08 945.771 1110.17 C 946.105 1113.9 939.601 1109.74 940.317 1115.46 C 940.61 1125.29 938.56 1124.95 946.809 1130 C 934.13 1134.89 937.026 1120.93 936.574 1113.61 C 936.471 1111.95 933.672 1112.35 933.401 1110.5 C 938.949 1106.78 935.726 1109.79 938.067 1102.31 z" fill="rgb(38,36,36)" transform="translate(0,0)"></path>
<path d="M 598.583 1099.2 C 598.78 1099.3 601.303 1100.51 601.313 1100.84 C 601.628 1110.63 602.316 1122.94 600.75 1132.53 C 600.409 1132.38 598.159 1131.56 598.099 1130.95 C 597.286 1122.7 597.102 1107.1 598.583 1099.2 z" fill="rgb(38,36,36)" transform="translate(0,0)"></path>
<path d="M 608.626 1099.21 C 608.95 1099.38 611.462 1100.58 611.487 1100.93 C 612.156 1110.31 612.364 1122.69 611.567 1132.07 C 611.18 1131.9 608.303 1130.81 608.294 1130.33 C 608.131 1121.18 607.236 1108.01 608.626 1099.21 z" fill="rgb(38,36,36)" transform="translate(0,0)"></path>
<path d="M 628.712 1167.74 C 635.781 1171.29 638.777 1166.61 641.057 1169.84 C 641.35 1176.4 631.979 1165.27 632.078 1179.75 C 632.09 1182.75 633.361 1190.17 629.99 1191.28 C 626.216 1190.24 627.99 1171.6 628.712 1167.74 z" fill="rgb(38,36,36)" transform="translate(0,0)"></path>
<path d="M 739.744 772.265 C 740.533 772.581 741.548 772.77 742.192 773.363 C 742.778 773.895 743.11 774.652 743.105 775.443 C 743.11 781.352 745.54 777.795 748.728 779.386 C 752.013 781.68 743.246 781.088 743.361 782.361 C 744.053 790.016 739.305 795.563 747.417 797.313 L 749.222 797.719 C 747.62 799.434 744.301 799.794 742.604 798.814 C 738.518 797.158 740.751 783.422 739.772 782.955 C 731.636 779.075 740.033 780.644 739.523 777.455 C 739.299 776.054 739.206 775.451 739.744 772.265 z" fill="rgb(98,92,87)" transform="translate(0,0)"></path>
<path d="M 791.103 1159.24 C 791.071 1159.22 793.761 1160.18 793.828 1160.72 C 794.71 1167.8 794.477 1185.86 793.592 1192.15 C 793.21 1191.9 790.766 1190.47 790.739 1190.16 C 789.962 1181.13 790.287 1168.08 791.103 1159.24 z" fill="rgb(38,36,36)" transform="translate(0,0)"></path>
<path d="M 974.436 1108.21 C 975.551 1108.79 978.59 1111.21 978.56 1111.22 C 979.932 1110.22 984.131 1107.06 985.719 1109.92 C 987.367 1112.89 978.668 1110.57 977.916 1118.75 C 977.892 1121.03 978.158 1129.92 977.319 1130.73 C 971.703 1136.11 974.124 1110.18 974.436 1108.21 z" fill="rgb(38,36,36)" transform="translate(0,0)"></path>
<path d="M 836.597 1108.26 C 837.128 1108.48 839.697 1109.73 840.151 1109.9 C 841.298 1110.71 846.334 1107.74 847.358 1109.21 C 852.413 1116.45 840.263 1106.26 840.393 1119.75 C 840.368 1121.16 840.489 1129.18 840.088 1129.93 C 838.632 1132.66 836.302 1130.63 836.34 1127.55 C 836.421 1121.03 836.306 1114.75 836.597 1108.26 z" fill="rgb(38,36,36)" transform="translate(0,0)"></path>
<path d="M 525.772 1101.24 C 526.437 1101.43 529.186 1102.13 529.202 1102.65 C 529.409 1109.4 529.449 1125.92 528.594 1131.91 C 528.236 1131.69 525.834 1130.31 525.805 1130.04 C 524.945 1122.41 525.182 1108.53 525.772 1101.24 z" fill="rgb(38,36,36)" transform="translate(0,0)"></path>
<path d="M 669.119 772.392 C 671.893 774.64 670.579 774.343 671.693 777.576 C 672.083 778.709 676.249 778.188 676.868 779.557 C 676.501 782.01 671.067 779.796 671.26 782.055 C 672.245 793.602 666.656 794.424 676.379 798.617 C 663.307 803.182 669.975 788.333 667.846 781.567 C 667.241 780.606 664.841 781.117 664.435 780.238 C 663.419 778.038 668.035 779.035 668.033 776.578 C 668.032 775.631 668.871 773.2 669.119 772.392 z" fill="rgb(75,70,66)" transform="translate(0,0)"></path>
<path d="M 618.758 1108.3 C 624.191 1111.43 621.896 1125.84 621.522 1132.04 C 621.151 1131.88 618.35 1130.84 618.321 1130.32 C 617.948 1123.57 617.467 1114.92 618.758 1108.3 z" fill="rgb(38,36,36)" transform="translate(0,0)"></path>
<path d="M 991.06 1108.38 C 996.28 1111.01 994.08 1126.44 993.393 1131.78 C 987.874 1128.47 990.038 1114.26 991.06 1108.38 z" fill="rgb(38,36,36)" transform="translate(0,0)"></path>
<path d="M 552.798 778.537 C 557.96 783.136 552.432 790.699 556.04 795.97 C 557.871 798.644 563.012 794.826 564.663 798.533 C 561.969 799.155 559.261 799.831 556.455 799.112 C 555.144 798.769 554.035 797.896 553.395 796.702 C 551.283 792.795 551.805 782.919 552.798 778.537 z" fill="rgb(75,70,66)" transform="translate(0,0)"></path>
<path d="M 567.273 778.721 C 570.6 781.49 569.272 796.371 568.624 800.704 C 564.705 795.072 566.461 785.467 567.273 778.721 z" fill="rgb(75,70,66)" transform="translate(0,0)"></path>
<path d="M 717.868 771.467 C 719.07 770.539 720.792 770.733 721.759 771.905 C 722.725 773.077 722.588 774.804 721.448 775.808 C 720.677 776.488 719.597 776.693 718.631 776.344 C 717.664 775.995 716.964 775.147 716.806 774.132 C 716.647 773.116 717.054 772.095 717.868 771.467 z" fill="rgb(123,122,113)" transform="translate(0,0)"></path>
<path d="M 1050.15 1126.45 C 1051.28 1125.65 1052.82 1125.81 1053.76 1126.83 C 1054.69 1127.85 1054.72 1129.4 1053.82 1130.45 C 1053.14 1131.26 1052.05 1131.59 1051.03 1131.32 C 1050.01 1131.04 1049.24 1130.2 1049.05 1129.16 C 1048.86 1128.12 1049.29 1127.07 1050.15 1126.45 z" fill="rgb(38,36,36)" transform="translate(0,0)"></path>
<path d="M 618.077 1100.55 C 618.756 1099.96 619.724 1099.81 620.546 1100.19 C 621.369 1100.57 621.894 1101.39 621.885 1102.3 C 621.876 1103.2 621.337 1104.02 620.507 1104.38 C 619.472 1104.83 618.263 1104.46 617.658 1103.5 C 617.052 1102.55 617.23 1101.3 618.077 1100.55 z" fill="rgb(38,36,36)" transform="translate(0,0)"></path>
<path d="M 990.875 1099.76 C 993.747 1101.18 994.989 1101.24 992.456 1103.59 C 989.906 1104.6 989.919 1103.46 990.53 1101.15 L 990.875 1099.76 z" fill="rgb(38,36,36)" transform="translate(0,0)"></path>
<metadata><recraft-signature>{"signed_by": "recraft", "signature_b64": "Mmnr12ozvKL5TuMweCxfS7JVCM67fZO1+huqNQJUin/qWDcRHMnB7HPQvxhRJNXnA/BqnlNER+qwZupBDdFfAA==", "signing_algo": "Ed25519", "generation_timestamp": 1777068057, "identifier": "067a3f1b-09d3-4bab-a69b-cabe94eebadf"}</recraft-signature></metadata></svg>