<svg xmlns="http://www.w3.org/2000/svg" height="1024" preserveAspectRatio="none" style="display: block;" version="1.1" viewBox="0 0 2048 2048" width="1024">
<path d="M 0 0 L 2048 0 L 2048 2048 L 0 2048 L 0 0 z" fill="rgb(54,59,64)" transform="translate(0,0)"></path>
<path d="M 1254.16 224.405 C 1289.12 220.301 1328.48 234.035 1356.65 254.748 C 1390.67 279.764 1402.06 311.166 1419.51 347.895 L 1471.31 459.743 L 1639.86 829.535 L 1740.7 1050.69 L 1787.24 1151.01 C 1801.24 1181.84 1817.49 1210.27 1822.03 1244.42 C 1827.26 1283.8 1815.56 1324.15 1791.71 1355.61 C 1777.68 1374.01 1759.96 1389.29 1739.7 1400.47 C 1723.23 1409.54 1703.83 1417.82 1686.54 1425.68 C 1656.88 1439.39 1627.1 1452.83 1597.2 1466.01 L 1329.38 1587.82 L 1027.88 1726.75 L 922.569 1775.31 C 897.232 1787.26 871.392 1800.01 845.673 1810.99 C 829.637 1817.84 811.901 1820.64 794.713 1822.93 C 756.196 1824.01 718.024 1813.38 687.846 1788.76 C 672.072 1775.86 658.889 1760.09 648.993 1742.27 C 643.803 1732.74 639.416 1722.51 634.82 1712.68 C 561.436 1555.61 490.112 1397.62 418.172 1239.9 C 396.137 1191.59 375.282 1142.31 352.896 1094.21 L 283.831 943.639 C 263.728 900.203 231.469 841.828 224.877 795.428 C 216.993 739.937 248.491 676.234 299.58 651.245 C 344.673 629.188 391.329 608.04 437.743 587.122 L 666.713 483.052 L 1034.76 315.653 C 1092.29 289.584 1149.45 260.512 1207.95 236.187 C 1223.22 229.838 1237.69 225.902 1254.16 224.405 z" fill="rgb(246,246,244)" transform="translate(0,0)"></path>
<path d="M 1255.56 301.397 C 1256.59 301.33 1257.62 301.28 1258.65 301.246 C 1293.76 299.936 1323.42 322.595 1338.22 353.226 C 1350.31 378.239 1361.58 403.384 1372.88 428.747 C 1384.11 453.862 1395.6 478.862 1407.34 503.745 L 1571.25 860.133 L 1694.66 1129.13 C 1708.62 1159.87 1723.73 1190.03 1737.38 1220.89 C 1744.44 1236.82 1747.5 1257.86 1743.5 1274.96 C 1739.75 1291.02 1733.58 1307.72 1721.79 1319.68 C 1713.55 1328.04 1704.17 1334.5 1693.56 1339.55 C 1665.08 1352.86 1636.58 1366.12 1607.97 1379.11 C 1571.58 1395.97 1535.09 1412.61 1498.51 1429.03 L 1221.04 1555.24 L 935.847 1687.24 C 910.788 1698.69 885.75 1710.08 860.859 1721.9 C 837.865 1732.81 816.319 1744.4 790.38 1745.12 C 770.034 1745.39 750.204 1738.72 734.163 1726.2 C 721.158 1715.86 711.312 1700.53 704.235 1685.68 C 685.789 1646.99 668.681 1607.34 650.83 1568.36 L 520.192 1281.15 L 404.998 1028.46 L 351.973 913.564 C 338.492 884.779 302.948 818.112 299.917 791.109 C 297.558 770.095 304.796 748.72 317.978 732.395 C 325.882 722.605 335.719 714.96 346.867 709.19 C 363.344 700.662 381.332 694.007 398.241 686.261 L 526.623 627.906 C 628.401 580.932 730.505 534.667 832.927 489.112 L 1110.6 362.125 C 1149.24 344.333 1187.81 325.741 1226.56 308.166 C 1235.6 304.068 1245.75 302.376 1255.56 301.397 z" fill="rgb(54,59,64)" transform="translate(0,0)"></path>
<path d="M 1258.4 369.144 C 1263.3 369.659 1266.05 370.41 1270.76 371.642 C 1276.79 380.195 1286.77 403.223 1291.6 413.692 L 1329.55 497.282 L 1445.71 752.146 L 1607.99 1108.7 C 1631.84 1160.89 1660.74 1217.24 1681.83 1269.39 L 788.182 1681.01 L 781.003 1684.12 L 501.489 1076.4 L 411.631 882.173 C 399.678 856.289 376.907 811.289 368.172 785.911 C 368.847 783.863 369.625 781.85 370.503 779.881 C 372.296 775.878 375.293 771.588 379.341 769.741 C 393.444 763.305 407.826 757.01 421.973 750.692 C 447.896 739.13 473.736 727.382 499.491 715.449 L 796.098 579.454 L 1083.12 448.43 L 1195.01 398.034 C 1214.86 389.032 1238.78 376.688 1258.4 369.144 z" fill="rgb(246,246,244)" transform="translate(0,0)"></path>
<path d="M 1148.79 673.221 C 1171.97 676.228 1177.99 698.942 1186.45 717.621 L 1207.28 763.326 C 1218.51 759.223 1233.33 750.93 1244.15 745.237 C 1249.62 759.152 1256.27 772.887 1262.01 786.812 C 1249.84 792.644 1237.82 798.779 1225.95 805.212 C 1232.85 824.93 1250.71 863.191 1260.08 881.46 C 1272.68 875.787 1285.58 869.739 1298.52 864.98 C 1304.65 878.102 1312.81 892.417 1318.01 905.521 C 1305.55 912.285 1290.77 918.73 1277.75 924.727 C 1290.43 950.223 1302.46 976.035 1313.83 1002.14 C 1325.8 997.283 1340.68 989.543 1352.9 983.938 C 1358.93 998.364 1365.24 1012.68 1371.8 1026.86 C 1360.17 1032.97 1346.9 1038.66 1334.67 1044.97 C 1340.11 1058.95 1352.13 1084.98 1358.16 1096.83 C 1382.87 1145.39 1377.36 1157.11 1326.71 1177.18 C 1314.07 1182.19 1287.91 1194.43 1274.74 1201.36 C 1280.63 1213.82 1286.34 1226.37 1291.88 1238.99 C 1278.27 1244.38 1263.8 1252.25 1250.17 1256.92 L 1231.32 1219.37 C 1205.39 1233.52 1179.01 1243.94 1153.69 1257.66 C 1159.21 1271.32 1166.31 1282.53 1171.93 1297.61 C 1158.68 1303.69 1145.35 1309.63 1131.97 1315.42 C 1125.52 1302.75 1119.23 1290 1113.12 1277.16 C 1094.41 1283.61 1055.25 1303.17 1035.96 1312.4 C 1038.52 1321.11 1050.98 1343.14 1055.81 1352.59 C 1042.4 1359.23 1028.85 1365.59 1015.18 1371.68 L 995.305 1332.73 C 970.296 1341.82 922.529 1370.81 901.288 1370.77 C 874.076 1366.71 868.915 1342.85 859.168 1320.79 C 853.787 1308.8 848.293 1296.86 842.685 1284.98 C 828.883 1291.07 815.036 1297.07 801.145 1302.95 C 794.977 1289.44 788.888 1275.88 782.878 1262.29 C 796.254 1256.33 809.577 1250.25 822.845 1244.06 C 819.279 1233.32 812.407 1219.64 807.55 1209.31 C 800.942 1195.16 794.432 1180.96 788.02 1166.72 C 775.013 1172.69 762.055 1178.77 749.147 1184.95 C 743.447 1171.43 737.155 1158.17 730.29 1145.2 C 742.842 1138.7 757.086 1132.48 770.039 1126.54 C 761.65 1104.52 745.19 1069.13 734.553 1047.92 C 721.503 1052.77 707.924 1059.09 695.13 1064.79 C 688.983 1051.63 682.98 1038.4 677.121 1025.11 L 715.214 1006.36 C 708.657 990.977 701.783 975.73 694.594 960.629 C 676.875 922.612 661.416 895.595 712.921 875.48 C 732.664 867.769 755.846 856.263 775.107 846.81 C 769.648 833.47 763.64 820.363 757.098 807.52 C 769.86 800.471 783.394 794.333 796.646 788.262 C 803.2 801.399 810.039 814.392 817.157 827.233 C 837.065 820.051 871.772 802.817 892.232 793.537 C 888.316 782.391 879.166 765.691 874.016 753.1 C 887.478 746.599 901.48 739.564 915.323 734.089 C 921.362 747.019 927.524 759.891 933.808 772.704 C 959.783 760.929 985.634 748.884 1011.36 736.57 C 1005.98 722.951 998.711 708.729 991.924 695.771 C 1004.91 689.805 1018.16 683.151 1031.35 677.814 C 1037.71 690.665 1044.18 704.256 1051.18 716.688 C 1070.64 709.63 1089.69 699.808 1108.4 690.948 C 1120.61 685.168 1136.08 676.192 1148.79 673.221 z" fill="rgb(54,59,64)" transform="translate(0,0)"></path>
<path d="M 1145.77 708.993 C 1154.39 718.357 1209.57 850.857 1217.82 869.095 L 1340.26 1134.56 C 1193.61 1199.51 1049.31 1271.36 903.412 1338.05 C 902.078 1336.94 901.103 1335.18 900.387 1333.64 L 785.84 1081.82 C 761.014 1027.58 731.28 967.774 709.038 912.822 C 749.037 892.733 793.415 874.852 833.847 855.86 L 1145.77 708.993 z" fill="rgb(246,246,244)" transform="translate(0,0)"></path>
<path d="M 1060.48 864.246 C 1074.4 862.72 1096.78 867.657 1103.76 880.587 C 1132.22 933.27 1155.53 989.893 1180.93 1044.27 C 1189.32 1062.23 1184.53 1089.11 1166.21 1099.43 C 1144.61 1111.6 1120.11 1120.94 1097.86 1132.06 C 1061.33 1148.01 1024.59 1168.87 987.414 1182.73 C 947.544 1188.66 938.286 1160.9 924.851 1131.85 C 916.825 1114.53 908.934 1097.13 901.178 1079.68 C 889.661 1054.02 877.66 1028.67 866.854 1002.51 C 859.363 984.368 868.541 955.499 885.628 944.988 C 894.922 939.27 907.861 933.958 917.91 929.35 L 977.502 902.045 C 998.783 892.28 1040.85 870.633 1060.48 864.246 z" fill="rgb(54,59,64)" transform="translate(0,0)"></path>
<path d="M 1065.91 892.877 C 1071.79 892.995 1078.57 895.699 1081.71 901.022 C 1091.74 919.22 1101.05 938.876 1109.51 957.912 C 1124.43 991.489 1142.88 1026.31 1155.41 1060.71 C 1154.19 1065.86 1153.08 1068.53 1151.14 1073.34 C 1142.98 1079.89 1109.96 1094.26 1098.52 1099.65 C 1059.59 1118.13 1020.52 1136.34 981.324 1154.26 C 975.725 1155.69 971.996 1153.5 966.899 1151.24 C 957.565 1138.84 945.637 1105.56 938.355 1090.08 C 925.558 1062.87 913.34 1034.83 899.966 1007.79 C 896.181 1000.15 890.856 988.214 894.287 979.989 C 896.041 975.745 898.863 971.48 902.908 969.11 C 920.311 960.182 938.586 951.895 956.306 943.658 L 1065.91 892.877 z" fill="rgb(248,153,74)" transform="translate(0,0)"></path>
<path d="M 496.512 759.391 C 532.958 756.278 564.95 783.482 567.734 819.954 C 570.518 856.427 543.027 888.172 506.531 890.628 C 470.497 893.052 439.241 865.984 436.492 829.973 C 433.743 793.963 460.528 762.464 496.512 759.391 z" fill="rgb(54,59,64)" transform="translate(0,0)"></path>
<path d="M 1205.35 433.78 C 1241.23 428.763 1274.39 453.773 1279.42 489.649 C 1284.45 525.524 1259.45 558.689 1223.58 563.735 C 1187.69 568.784 1154.5 543.771 1149.46 507.874 C 1144.43 471.978 1169.46 438.8 1205.35 433.78 z" fill="rgb(54,59,64)" transform="translate(0,0)"></path>
<path d="M 1532.44 1160.03 C 1567.76 1153.41 1601.81 1176.52 1608.71 1211.79 C 1615.61 1247.06 1592.77 1281.3 1557.56 1288.48 C 1521.94 1295.74 1487.23 1272.59 1480.25 1236.91 C 1473.27 1201.24 1496.71 1166.71 1532.44 1160.03 z" fill="rgb(54,59,64)" transform="translate(0,0)"></path>
<path d="M 825.704 1488.08 C 861.256 1483.06 894.12 1507.88 899.016 1543.45 C 903.912 1579.02 878.976 1611.8 843.39 1616.57 C 807.979 1621.32 775.398 1596.53 770.526 1561.14 C 765.654 1525.74 790.327 1493.07 825.704 1488.08 z" fill="rgb(54,59,64)" transform="translate(0,0)"></path>
<path d="M 1591.21 1504.93 C 1595.79 1508.56 1647.69 1640.17 1652.2 1654.29 C 1639.1 1660.73 1624.77 1667.47 1611.17 1672.65 L 1605.68 1663.44 C 1591.8 1637.1 1577.65 1610.9 1563.24 1584.86 C 1554.95 1569.61 1542.34 1547.17 1535.53 1531.61 C 1552.68 1522.5 1573.31 1513.63 1591.21 1504.93 z" fill="rgb(246,246,244)" transform="translate(0,0)"></path>
<path d="M 1953.86 1038.13 L 1955.96 1037.9 C 1959.95 1041.41 1971.69 1071.71 1974.63 1078.86 C 1935.68 1097.77 1898.67 1117.74 1860.1 1137.14 C 1853.59 1140.42 1831.47 1151.9 1826.08 1153.1 C 1818.81 1139.64 1808.07 1115.41 1802.61 1101.34 C 1814.38 1095.2 1826.7 1089.59 1839.06 1084.71 C 1877.38 1069.58 1915.31 1052.61 1953.86 1038.13 z" fill="rgb(246,246,244)" transform="translate(0,0)"></path>
<path d="M 437.355 1372.78 L 439.27 1373.34 C 446.365 1383.35 459.137 1415.12 463.778 1427.14 C 449.001 1433.43 430.847 1439.62 415.622 1445.39 C 383.419 1457.92 350.999 1469.9 318.378 1481.31 L 309.281 1483.7 C 303.124 1472.49 296.907 1457.32 291.84 1445.47 C 307.282 1436.58 327.65 1427.03 343.692 1418.72 C 374.512 1402.75 405.769 1387.15 437.355 1372.78 z" fill="rgb(246,246,244)" transform="translate(0,0)"></path>
<path d="M 1735.26 564.897 L 1736.71 564.791 C 1741.04 567.554 1754.2 600.212 1756.63 606.802 L 1607.09 675.955 C 1599.12 658.404 1591.43 640.73 1584.01 622.939 C 1601.92 614.826 1627.36 605.995 1646.15 598.978 C 1675.95 587.868 1705.65 576.507 1735.26 564.897 z" fill="rgb(246,246,244)" transform="translate(0,0)"></path>
<path d="M 1806.27 719.838 L 1807.26 719.846 C 1811.13 722.633 1825.65 756.889 1828.18 763.677 C 1780.51 784.804 1727.01 811.885 1681.04 836.097 C 1673.85 818.448 1664.9 801.449 1657.66 783.537 C 1705.79 759.563 1756.8 743.696 1806.27 719.838 z" fill="rgb(246,246,244)" transform="translate(0,0)"></path>
<path d="M 1876.99 877.928 C 1881.48 880.213 1896.58 916.977 1898.97 923.615 C 1852.88 943.502 1799.84 970.058 1754.35 992.304 C 1749.59 987.239 1734.67 951.425 1731.14 943.163 C 1747.08 934.039 1770.26 924.603 1787.48 917.074 L 1876.99 877.928 z" fill="rgb(246,246,244)" transform="translate(0,0)"></path>
<path d="M 293.618 1052.95 C 298.771 1058.46 316.774 1100.65 319.999 1109.9 C 274.082 1124 219.834 1144.21 174.752 1161.51 L 165.571 1165.22 C 160.599 1152.18 154.104 1139.33 148.841 1126.12 C 196.667 1100.89 244.934 1076.49 293.618 1052.95 z" fill="rgb(246,246,244)" transform="translate(0,0)"></path>
<path d="M 222.047 894.107 C 226.115 898.76 242.759 940.688 245.8 948.711 C 198.308 970.182 143.737 985.175 97.9321 1007.1 C 95.566 1007.88 96.3449 1007.67 93.7585 1007.68 C 89.2133 1003.27 78.4734 975.406 76.0315 968.248 C 122.797 946.231 175.49 917.836 222.047 894.107 z" fill="rgb(246,246,244)" transform="translate(0,0)"></path>
<path d="M 507.247 1530.73 C 507.955 1531.07 508.662 1531.41 509.37 1531.75 C 516.572 1546.85 529.433 1572.85 535.063 1587.37 C 492.629 1604.82 435.605 1623.81 392.093 1639.03 L 381.682 1642.81 C 375.619 1630.75 369.796 1617.4 364.507 1604.99 C 411.845 1579.57 459.117 1557.42 507.247 1530.73 z" fill="rgb(246,246,244)" transform="translate(0,0)"></path>
<path d="M 1662.13 401.999 C 1665.73 404.441 1679.23 437.257 1682.1 443.851 C 1669.26 451.345 1646.94 461.437 1633.09 468.268 L 1534.86 516.435 C 1527.87 499.08 1519.7 482.014 1512.64 464.416 C 1528.53 456.441 1550.54 448.487 1567.57 441.462 L 1662.13 401.999 z" fill="rgb(246,246,244)" transform="translate(0,0)"></path>
<path d="M 274.225 448.808 C 278.087 449.917 285.164 466.545 287.287 470.965 C 306.576 511.123 329.363 550.046 352.205 588.319 C 337.485 595.065 322.687 601.64 307.813 608.04 L 294.714 613.817 C 286.266 597.065 276.191 569.659 269.007 551.423 C 258.269 524.167 244.809 494.415 235.011 467.096 C 244.839 461.691 263.495 453.799 274.225 448.808 z" fill="rgb(246,246,244)" transform="translate(0,0)"></path>
<path d="M 437.162 375.879 C 440.338 376.896 447.824 396.228 449.75 400.361 C 468.091 439.709 490.326 478.297 512.239 515.749 C 498.189 522.748 482.291 529.1 467.751 535.507 L 452.553 542.491 C 438.479 501.542 425.014 461.153 407.348 421.441 C 403.413 412.596 399.118 403.466 395.962 394.338 C 407.572 388.114 424.657 381.249 437.162 375.879 z" fill="rgb(246,246,244)" transform="translate(0,0)"></path>
<path d="M 363.55 1211.93 C 368.494 1217.02 385.473 1259.2 388.343 1267.67 C 340.099 1285.67 292.001 1304.06 244.054 1322.85 C 241.687 1323.76 241.743 1323.98 239.322 1323.47 C 233.324 1312.93 226.34 1296.37 221.102 1284.89 C 265.462 1260.19 317.71 1235.7 363.55 1211.93 z" fill="rgb(246,246,244)" transform="translate(0,0)"></path>
<path d="M 758.57 229.808 L 759.807 229.83 C 762.35 231.364 773.976 256.886 776.06 261.181 C 785.981 282.083 796.554 302.669 807.764 322.91 C 816.057 338.209 826.153 355.648 833.323 371.085 C 819.753 377.693 805.471 384.006 791.705 390.291 L 776.523 396.878 C 759.507 344.876 740.432 298.499 718.6 248.511 C 728.736 242.915 747.625 234.878 758.57 229.808 z" fill="rgb(246,246,244)" transform="translate(0,0)"></path>
<path d="M 584.681 1691.14 C 589.033 1695.94 605.372 1734.97 609.02 1743.51 C 560.897 1763.94 512.287 1783.2 463.232 1801.27 C 460.774 1802.14 460.783 1802.38 458.274 1801.96 C 452.38 1796.13 443.952 1772.99 440.428 1764.37 C 461.666 1752.16 487.918 1740.78 509.918 1729.15 C 534.737 1716.03 559.186 1702.93 584.681 1691.14 z" fill="rgb(246,246,244)" transform="translate(0,0)"></path>
<path d="M 1429.58 1578.93 C 1433.98 1583.43 1464.67 1665.17 1469.52 1676.88 C 1476.19 1692.67 1483.22 1708.31 1490.6 1723.78 C 1476.58 1730.02 1462.64 1736.44 1448.79 1743.04 L 1444.21 1735.59 C 1431.72 1713.87 1420.17 1689.8 1408.39 1667.59 C 1397.28 1646.66 1385.74 1625.99 1376.12 1604.33 C 1394.08 1596.15 1411.9 1587.68 1429.58 1578.93 z" fill="rgb(246,246,244)" transform="translate(0,0)"></path>
<path d="M 1752.17 1430.83 C 1752.91 1431.06 1753.89 1431.69 1754.19 1432.44 C 1768.08 1466.97 1782.09 1501.45 1795.89 1536.02 C 1801.83 1550.91 1808.39 1565.54 1815.85 1579.73 C 1803.2 1585.42 1789.2 1592.65 1776.64 1598.8 L 1772.23 1590.85 C 1756.04 1562.15 1740.23 1533.25 1724.79 1504.15 C 1716.59 1488.72 1706.74 1471.19 1699.63 1455.53 L 1752.17 1430.83 z" fill="rgb(246,246,244)" transform="translate(0,0)"></path>
<path d="M 1106.18 1729.88 L 1108.51 1730.48 C 1129.42 1778.27 1146.03 1821.89 1169.07 1869.42 C 1161.53 1873.03 1131.96 1887.61 1125.06 1889.25 L 1123.42 1887.68 C 1103.06 1847.22 1071.01 1793.61 1055.13 1754.03 C 1066.82 1747 1092.95 1735.91 1106.18 1729.88 z" fill="rgb(246,246,244)" transform="translate(0,0)"></path>
<path d="M 920.414 157.778 L 922.577 158.305 C 930.546 168.515 948.966 208.113 955.99 221.707 C 967.956 244.866 983.529 271.906 994.436 295.298 C 980.856 302.852 965.398 309.598 951.223 316.013 L 940.177 320.654 C 922.231 273.942 901.323 221.687 880.357 177.067 C 893.036 170.496 907.475 163.935 920.414 157.778 z" fill="rgb(246,246,244)" transform="translate(0,0)"></path>
<path d="M 1590.71 240.033 C 1595.17 244.226 1608.48 274.355 1610.81 281.353 C 1577.57 297.207 1544.55 314.877 1511.45 331.068 C 1496.26 338.497 1477.65 348.708 1462.26 354.963 C 1454.9 339.97 1447.74 324.886 1440.76 309.713 C 1447.41 306.071 1455.79 301.998 1462.72 298.969 C 1505.13 280.418 1547.61 256.671 1590.71 240.033 z" fill="rgb(246,246,244)" transform="translate(0,0)"></path>
<path d="M 1081.48 81.7277 C 1086.04 83.3016 1095.2 102.006 1097.75 107.063 C 1117.03 145.343 1138.34 182.917 1157.62 221.14 C 1143.9 227.885 1131.3 234.006 1117.26 239.999 L 1103.15 245.873 C 1084.66 197.176 1064.27 147.723 1045.17 99.2017 C 1057.48 94.9251 1069.9 87.8679 1081.48 81.7277 z" fill="rgb(246,246,244)" transform="translate(0,0)"></path>
<path d="M 599.571 305.126 C 604.295 310.67 620.833 346.465 625.406 355.2 C 640.558 384.568 656.986 413.26 674.643 441.194 C 661.173 448.258 642.25 456.409 628.006 463.056 L 616.916 467.946 C 608.724 447.812 602 426.641 593.869 406.343 C 582.695 378.449 570.568 351.126 558.942 323.445 L 599.571 305.126 z" fill="rgb(246,246,244)" transform="translate(0,0)"></path>
<path d="M 1267.47 1655.82 C 1270.93 1656.65 1276.43 1673.71 1278.16 1678.3 C 1293.61 1719.31 1312.95 1757.94 1331.45 1797.57 C 1324.17 1801.03 1293.92 1816.16 1288.49 1816.16 L 1286.92 1813.61 C 1283.05 1804.83 1276.1 1793.52 1271.64 1784.62 C 1254.21 1749.83 1232.5 1714.84 1215.93 1679.84 C 1232.35 1671.52 1250.64 1663.49 1267.47 1655.82 z" fill="rgb(246,246,244)" transform="translate(0,0)"></path>
<path d="M 945.74 1804.01 C 948.316 1807.23 971.361 1868.09 973.681 1875.1 C 981.51 1898.74 996.635 1925.13 1004.04 1947.87 C 997.471 1951.02 967.321 1966.54 962.608 1965.53 L 960.638 1961.75 C 939.295 1918.2 913.804 1871.54 894.04 1828.05 C 905.661 1821.56 932.367 1810.22 945.74 1804.01 z" fill="rgb(246,246,244)" transform="translate(0,0)"></path>
<metadata><recraft-signature>{"signed_by": "recraft", "signature_b64": "rX1xk1YnnW7LupxBj+tTgXtsT8zqIRPoF9l6k4oG56UElz2BnITtRSUT+jGkXFp+hB07gTKv1ZVboHjgrOojBQ==", "signing_algo": "Ed25519", "generation_timestamp": 1777048264, "identifier": "c62e54fe-7ef0-4709-a89e-d34c4bba3db0"}</recraft-signature></metadata></svg>