<svg xmlns="http://www.w3.org/2000/svg" viewBox="0 0 512 512" role="img" aria-label="Chippy">
  <rect width="512" height="512" fill="#0b0b0d"/>

  <g fill="#ff7a29">
    <rect x="136" y="88"  width="20" height="24"/>
    <rect x="180" y="88"  width="20" height="24"/>
    <rect x="224" y="88"  width="20" height="24"/>
    <rect x="268" y="88"  width="20" height="24"/>
    <rect x="312" y="88"  width="20" height="24"/>
    <rect x="356" y="88"  width="20" height="24"/>

    <rect x="136" y="400" width="20" height="24"/>
    <rect x="180" y="400" width="20" height="24"/>
    <rect x="224" y="400" width="20" height="24"/>
    <rect x="268" y="400" width="20" height="24"/>
    <rect x="312" y="400" width="20" height="24"/>
    <rect x="356" y="400" width="20" height="24"/>

    <rect x="88"  y="136" width="24" height="20"/>
    <rect x="88"  y="180" width="24" height="20"/>
    <rect x="88"  y="224" width="24" height="20"/>
    <rect x="88"  y="268" width="24" height="20"/>
    <rect x="88"  y="312" width="24" height="20"/>
    <rect x="88"  y="356" width="24" height="20"/>

    <rect x="400" y="136" width="24" height="20"/>
    <rect x="400" y="180" width="24" height="20"/>
    <rect x="400" y="224" width="24" height="20"/>
    <rect x="400" y="268" width="24" height="20"/>
    <rect x="400" y="312" width="24" height="20"/>
    <rect x="400" y="356" width="24" height="20"/>
  </g>

  <rect x="112" y="112" width="288" height="288" fill="#121214" stroke="#ff7a29" stroke-width="4"/>

  <circle cx="132" cy="132" r="6" fill="#ff7a29"/>

  <g fill="#f5f2ed">
    <rect x="170" y="326" width="172" height="22"/>
    <rect x="204" y="304" width="104" height="22"/>
    <rect x="170" y="272" width="172" height="32"/>
    <polygon points="170,280 170,298 140,289"/>
  </g>

  <path d="M 324 222 L 330 240 L 348 246 L 330 252 L 324 270 L 318 252 L 300 246 L 318 240 Z" fill="#ff7a29"/>
</svg>
