<svg xmlns="http://www.w3.org/2000/svg" height="1024" preserveAspectRatio="none" style="display: block;" version="1.1" viewBox="0 0 2048 2048" width="1024">
<defs>
	<linearGradient gradientUnits="userSpaceOnUse" id="Gradient1" x1="1280.99" x2="1268.78" y1="1163.69" y2="1162.39">
		<stop class="stop0" offset="0" stop-color="rgb(43,39,40)" stop-opacity="1"></stop>
		<stop class="stop1" offset="1" stop-color="rgb(64,64,64)" stop-opacity="1"></stop>
	</linearGradient>
</defs>
<path d="M 0 0 L 2048 0 L 2048 2048 L 0 2048 L 0 0 z" fill="rgb(42,40,40)" transform="translate(0,0)"></path>
<path d="M 1487.59 603.35 C 1490.21 604.426 1492.13 605.325 1494.94 605.924 C 1523.64 607.363 1558.66 626.862 1577.46 648.146 C 1591 663.464 1596.04 675.09 1596.17 695.355 C 1604.96 695.179 1613.29 694.974 1622.04 695.885 C 1673.46 701.239 1710.95 741.952 1710.72 793.975 C 1710.51 839.974 1710.66 885.931 1710.71 931.858 L 1710.84 1217.83 L 1710.73 1342.85 C 1710.75 1365.22 1711.7 1393.4 1709.14 1415.2 C 1707.14 1432.19 1695.36 1453.91 1683.36 1466.02 C 1663.35 1486.2 1640.25 1496.26 1611.76 1496.21 C 1528.05 1496.04 1444.26 1496.08 1360.57 1496.08 L 838.76 1496.12 L 583.62 1496.19 L 506.189 1496.33 C 491.587 1496.36 471.803 1496.97 457.721 1495.31 C 437.559 1492.91 418.791 1483.8 404.434 1469.45 C 381.801 1447.15 374.972 1425.46 374.746 1394.76 L 374.925 972.232 L 374.906 844.679 C 374.89 801.772 368.208 757.44 401.25 725.708 C 413.285 714.151 430.091 701.846 446.434 698.534 C 473.481 693.053 507.632 695.085 535.313 695.106 L 685.375 695.157 L 1239.11 695.16 C 1238.44 691.931 1237.53 687.021 1237.28 683.82 C 1234.05 643.67 1308.43 607.676 1340.47 606.237 C 1346.52 606.318 1351.82 605.617 1357.82 604.959 C 1359.6 606.09 1363.33 609.042 1365.17 610.413 L 1365.3 645.335 L 1466.62 645.137 L 1466.73 615.926 C 1474.89 611.541 1480.2 608.881 1487.59 603.35 z" fill="rgb(249,249,249)" transform="translate(0,0)"></path>
<path d="M 1487.59 603.35 C 1490.21 604.426 1492.13 605.325 1494.94 605.924 C 1495.01 633.036 1498.75 658.826 1499.12 684.059 C 1499.34 687.457 1499.09 692.14 1500.72 694.927 L 1323.53 695.127 C 1324.51 692.077 1325.06 689.262 1326.01 686.282 L 1326.49 684.66 C 1331.82 658.643 1336.48 632.493 1340.47 606.237 C 1346.52 606.318 1351.82 605.617 1357.82 604.959 C 1359.6 606.09 1363.33 609.042 1365.17 610.413 L 1365.3 645.335 L 1466.62 645.137 L 1466.73 615.926 C 1474.89 611.541 1480.2 608.881 1487.59 603.35 z" fill="rgb(137,86,62)" transform="translate(0,0)"></path>
<path d="M 1494.94 605.924 C 1523.64 607.363 1558.66 626.862 1577.46 648.146 C 1591 663.464 1596.04 675.09 1596.17 695.355 C 1590.7 722.434 1568.01 732.233 1542.65 731.14 C 1533.26 730.735 1519.77 726.92 1521.08 714.788 C 1522.03 706.01 1529.48 700.188 1535.94 695.13 C 1524.2 694.936 1512.46 694.869 1500.72 694.927 C 1499.09 692.14 1499.34 687.457 1499.12 684.059 C 1498.75 658.826 1495.01 633.036 1494.94 605.924 z" fill="rgb(0,0,0)" transform="translate(0,0)"></path>
<path d="M 1499.12 684.059 C 1504.4 687.469 1534.25 689.341 1537.03 694.471 C 1536.83 694.8 1536.33 694.962 1535.94 695.13 C 1524.2 694.936 1512.46 694.869 1500.72 694.927 C 1499.09 692.14 1499.34 687.457 1499.12 684.059 z" fill="rgb(42,40,40)" transform="translate(0,0)"></path>
<path d="M 1239.11 695.16 C 1238.44 691.931 1237.53 687.021 1237.28 683.82 C 1234.05 643.67 1308.43 607.676 1340.47 606.237 C 1336.48 632.493 1331.82 658.643 1326.49 684.66 L 1326.01 686.282 C 1325.06 689.262 1324.51 692.077 1323.53 695.127 C 1318.11 695.045 1307.56 694.432 1302.97 696.472 L 1304.42 696.973 C 1309.63 698.785 1318.83 703.154 1319.52 707.87 C 1323.25 733.233 1276.57 730.369 1262.97 722.294 C 1248.86 713.92 1243.63 707.621 1239.11 695.16 z" fill="rgb(0,0,0)" transform="translate(0,0)"></path>
<path d="M 1326.49 684.66 L 1326.01 686.282 C 1325.06 689.262 1324.51 692.077 1323.53 695.127 C 1318.11 695.045 1307.56 694.432 1302.97 696.472 C 1299.23 695.686 1294.57 693.079 1290.87 691.608 L 1301.01 689.313 L 1305.51 688.259 C 1313.26 686.482 1318.54 685.119 1326.49 684.66 z" fill="rgb(42,40,40)" transform="translate(0,0)"></path>
<path d="M 1221.7 1275.42 C 1246.04 1274.25 1276.39 1275.18 1301.26 1275.18 L 1447.45 1275.21 L 1521.78 1275.19 C 1551.82 1275.08 1577.22 1270.95 1602.27 1290.19 C 1617.86 1301.98 1627.97 1319.62 1630.27 1339.03 C 1635.74 1384.52 1602.8 1416.26 1559.24 1420.71 C 1538.19 1421.43 1510.61 1420.17 1488.84 1420.05 L 1352.05 1420.09 L 1264.54 1420.17 C 1231.47 1420.18 1202.68 1424.69 1175.29 1402.51 C 1160.54 1390.76 1151.31 1373.44 1149.77 1354.65 C 1145.76 1310.01 1178.6 1278.66 1221.7 1275.42 z" fill="rgb(222,143,102)" transform="translate(0,0)"></path>
<path d="M 1343.28 1281.5 L 1491.06 1281.77 C 1514.04 1281.73 1547.11 1279.18 1568.43 1282.75 C 1638.93 1294.56 1643.58 1393.41 1573.97 1411.47 C 1555.41 1416.29 1526.9 1413.72 1507.52 1413.49 C 1483.86 1413.17 1460.2 1413.11 1436.54 1413.29 C 1387.08 1413.71 1337.62 1413.78 1288.16 1413.49 C 1278.73 1413.47 1269.09 1413.5 1259.82 1413.44 C 1228.71 1413.26 1199.41 1417.36 1175.16 1393.43 C 1162.72 1381.15 1156.54 1366.15 1156.41 1348.52 C 1156.26 1331.09 1163.08 1314.32 1175.35 1301.94 C 1200.49 1276.45 1231.38 1281.67 1264.17 1281.7 L 1343.28 1281.5 z" fill="rgb(249,249,249)" transform="translate(0,0)"></path>
<path d="M 1375.99 1335.05 C 1400.54 1334.85 1399.19 1358.29 1386.95 1364.59 L 1385.54 1365.36 C 1365.22 1367.07 1360.31 1345.97 1375.99 1335.05 z" fill="rgb(0,0,0)" transform="translate(0,0)"></path>
<path d="M 1378.7 1339.72 C 1391.3 1342.09 1391.35 1352.91 1383.44 1360.66 C 1372.27 1358.37 1370.95 1347.66 1377.6 1340.88 L 1378.7 1339.72 z" fill="rgb(249,249,249)" transform="translate(0,0)"></path>
<path d="M 1219.96 1325.13 C 1227.03 1324.86 1236.05 1324.81 1238.43 1334.94 C 1238.33 1337.16 1236.31 1337.07 1234.95 1336.99 C 1231.92 1336.8 1231.64 1334.13 1228.96 1332.09 C 1224.58 1328.75 1214.04 1332.58 1216.76 1338.06 C 1219.4 1343.39 1235.84 1342.75 1238.87 1349.53 C 1240.64 1357.77 1237.81 1363.26 1229.59 1365.48 L 1227.69 1366.03 C 1203.53 1364.58 1207.77 1348.64 1216.48 1355.85 C 1223.84 1361.94 1233.85 1362.16 1232.27 1351.92 C 1231.86 1349.27 1220.63 1347.18 1218.61 1346.61 C 1205 1341.63 1207.91 1330.55 1219.96 1325.13 z" fill="rgb(0,0,0)" transform="translate(0,0)"></path>
<path d="M 1437.61 1336.27 C 1461.3 1334.85 1455.01 1342.01 1455.71 1363.98 C 1455.85 1368.28 1445.55 1360.29 1443.43 1364.79 C 1442.76 1366.23 1435.61 1364.79 1433.42 1363.43 L 1431.8 1362.49 C 1427.3 1347.38 1436.57 1349.5 1447.98 1346.84 C 1451.42 1343.64 1444.9 1338.71 1441.01 1341.17 C 1432.35 1346.66 1425.73 1341.57 1437.61 1336.27 z" fill="rgb(0,0,0)" transform="translate(0,0)"></path>
<path d="M 1443.15 1351.79 C 1452.4 1352.53 1450.07 1357.56 1444.02 1359.78 L 1442.53 1360.4 C 1437.08 1358.54 1434.57 1355.38 1441.34 1352.62 L 1443.15 1351.79 z" fill="rgb(249,249,249)" transform="translate(0,0)"></path>
<path d="M 1274 1335.12 C 1283.36 1335.37 1289.73 1336.82 1289.57 1347.99 C 1289.52 1351.27 1290.16 1362.99 1288.83 1364.61 C 1287.17 1367.11 1281.32 1363.1 1281.97 1362.48 C 1276.09 1368.15 1267.9 1364.18 1265.27 1362.34 C 1262.42 1345.25 1271.33 1349.37 1281.49 1347.31 C 1285.39 1346.52 1280.1 1336.06 1272.52 1342.04 C 1265.82 1347.32 1260.98 1340.11 1274 1335.12 z" fill="rgb(0,0,0)" transform="translate(0,0)"></path>
<path d="M 1274.23 1352.12 C 1282.77 1351.89 1286.11 1353.06 1278.64 1361 C 1275.15 1360.22 1267.31 1358.6 1272.86 1353.42 L 1274.23 1352.12 z" fill="rgb(249,249,249)" transform="translate(0,0)"></path>
<path d="M 1569.32 1328.5 C 1576.26 1330.65 1582.86 1339.48 1588.12 1345.42 C 1584.27 1350.55 1577.6 1359.28 1571.49 1361.71 C 1570.46 1362.12 1567.22 1360.39 1567.52 1359.01 C 1568.15 1356.16 1572.51 1351.99 1574.31 1349.98 C 1571.79 1344.26 1547.67 1352.67 1546.84 1345.85 C 1546.06 1339.38 1570.89 1342.33 1576.32 1342.31 C 1571.29 1336.72 1566.42 1335.48 1569.32 1328.5 z" fill="rgb(222,143,102)" transform="translate(0,0)"></path>
<path d="M 1488.11 1335.61 C 1488.92 1335.62 1494.85 1335.36 1495.1 1336.09 C 1497.54 1343.2 1499.56 1351.07 1502.03 1358.28 C 1503.55 1352.75 1506.3 1332.57 1513.52 1335.94 C 1516.67 1337.42 1510.22 1351.66 1509.08 1355.78 C 1508.2 1358.08 1502.8 1380.77 1491.83 1374.06 C 1488.95 1372.29 1497.36 1367.88 1498.81 1366.84 C 1495.79 1357.33 1491.95 1344.58 1488.11 1335.61 z" fill="rgb(0,0,0)" transform="translate(0,0)"></path>
<path d="M 1410.05 1335.05 C 1415.79 1334.96 1426.2 1336.49 1425.6 1342.55 C 1424.78 1350.92 1417 1336.26 1410.32 1341.39 C 1399.67 1349.58 1410 1366.54 1419.98 1358.15 L 1421.17 1357.19 C 1421.75 1356.35 1422.92 1355.4 1423.57 1355.91 C 1433.77 1363.9 1405.83 1371.51 1401.23 1357.94 C 1397.41 1346.69 1398.7 1340.74 1410.05 1335.05 z" fill="rgb(0,0,0)" transform="translate(0,0)"></path>
<path d="M 1247.32 1328.93 C 1250.08 1329.01 1255.17 1327.87 1254.37 1332.45 C 1253.29 1338.67 1260.25 1334.34 1260.81 1337.98 C 1261.56 1342.81 1255.47 1339.58 1254.32 1342.01 C 1253.79 1347.12 1253.77 1353.53 1254.47 1358.58 C 1254.52 1358.93 1256.14 1359.37 1256.48 1359.27 C 1258.68 1358.92 1259.96 1360.16 1261.32 1361.37 C 1259.13 1365.64 1256.29 1366.41 1251.02 1364.77 C 1245.16 1361.87 1248.55 1345.4 1246.93 1341.99 C 1246.55 1341.19 1236.84 1339.65 1246.21 1335.79 C 1247.22 1335.37 1247.22 1330.09 1247.32 1328.93 z" fill="rgb(0,0,0)" transform="translate(0,0)"></path>
<path d="M 1321.68 1328.94 C 1322.24 1328.96 1322.8 1328.98 1323.36 1329 C 1329.49 1328.37 1326.89 1331.06 1328.23 1335 C 1329.65 1336.91 1332.73 1334.45 1333.52 1337.23 C 1335.01 1342.51 1328.73 1340.2 1328.3 1341.65 C 1327.22 1345.26 1327.95 1354.06 1328.11 1358.01 C 1328.15 1359.01 1331.51 1359.74 1331.96 1359.82 C 1334.03 1360.27 1334.48 1361.94 1335.33 1363.72 C 1332.33 1365 1330.11 1365.68 1326.99 1364.8 C 1317.91 1361.91 1322.99 1347.68 1320.89 1341.62 C 1320.54 1340.58 1314.21 1341.95 1316.41 1336.51 C 1316.7 1335.78 1319.14 1335.99 1319.92 1335.36 C 1321.5 1334.09 1321.38 1330.87 1321.68 1328.94 z" fill="rgb(0,0,0)" transform="translate(0,0)"></path>
<path d="M 1477 1324.67 C 1477.34 1324.71 1482.59 1325 1482.64 1325.56 C 1483.83 1338.24 1483.47 1352.55 1483.4 1365.39 C 1474.91 1364.3 1477.18 1364.91 1477.01 1354.94 C 1476.83 1344.89 1476.98 1334.73 1477 1324.67 z" fill="rgb(0,0,0)" transform="translate(0,0)"></path>
<path d="M 1300.15 1334.44 C 1301.17 1335.05 1302.91 1336.26 1303.66 1337.67 C 1303.71 1337.76 1304.02 1337.6 1304.01 1337.6 C 1306.18 1335.78 1309.95 1333.87 1312.71 1335.53 C 1314.11 1336.38 1314.04 1339.88 1312.71 1340.77 C 1310.32 1342.38 1307.04 1340.61 1304.57 1343.1 C 1302.24 1345.44 1302.42 1349.68 1302.31 1352.75 C 1302.3 1355 1302.98 1362.71 1301.61 1364.51 C 1301.04 1365.52 1296.35 1365.2 1296.42 1364.34 C 1297.06 1356.61 1295.72 1343.82 1296.46 1336.52 C 1297.17 1335.92 1297.98 1335.56 1298.81 1335.16 L 1300.15 1334.44 z" fill="rgb(0,0,0)" transform="translate(0,0)"></path>
<path d="M 1463.2 1324.28 C 1464.43 1324.51 1467.63 1324.65 1468.64 1325.52 C 1469.96 1326.65 1469.14 1361.25 1469.01 1366.05 C 1468.25 1365.85 1467.49 1365.65 1466.73 1365.46 C 1464.8 1364.99 1462.96 1365.02 1462.98 1362.62 C 1463.11 1349.95 1462.61 1336.91 1463.2 1324.28 z" fill="rgb(0,0,0)" transform="translate(0,0)"></path>
<path d="M 1354.99 1324.59 C 1355.28 1324.62 1360.53 1324.97 1360.56 1325.5 C 1361.4 1338.52 1361.02 1352.15 1361.09 1365.29 C 1360.77 1365.26 1355.49 1365 1355.44 1364.38 C 1354.47 1351.48 1354.95 1337.64 1354.99 1324.59 z" fill="rgb(0,0,0)" transform="translate(0,0)"></path>
<path d="M 840.795 945.38 C 909.646 942.643 907.438 1056.27 838.341 1049.08 C 822.956 1047.48 816.758 1043.77 806.802 1032.49 L 806.829 1053.5 L 806.799 1085.57 L 787.729 1085.42 L 787.526 946.92 L 807.015 946.968 L 807.248 961.125 C 818.265 948.878 824.641 947.238 840.795 945.38 z" fill="rgb(42,40,40)" transform="translate(0,0)"></path>
<path d="M 834.86 962.219 C 873.172 959.67 884.452 1007.96 856.471 1027.98 C 853.283 1030.26 848.524 1031.12 844.702 1032.1 C 818.203 1032.53 803.482 1018.62 806.36 991.006 C 808.051 974.779 819.552 965.776 834.86 962.219 z" fill="rgb(249,249,249)" transform="translate(0,0)"></path>
<path d="M 964.544 945.342 C 1032.1 945.3 1031.34 1050.44 967.122 1049.35 C 951.256 1049.08 941.602 1044.17 930.792 1032.94 L 930.729 1050.75 C 930.706 1062.55 930.575 1074.36 930.337 1086.16 L 911.409 1086.1 C 911.07 1039.74 911.158 993.37 911.671 947.008 L 930.17 947.013 L 929.826 962.123 C 942.079 950.632 948.12 947.155 964.544 945.342 z" fill="rgb(42,40,40)" transform="translate(0,0)"></path>
<path d="M 955.602 963.098 C 964.517 962.463 971.131 961.993 979.437 966.118 C 996.572 974.63 999.761 1001.52 991.138 1017 C 987.29 1023.99 980.751 1029.1 973.04 1031.14 C 972.059 1031.41 971.119 1031.66 970.135 1031.94 L 969.298 1032.08 C 926.529 1039.71 912.613 975.555 955.602 963.098 z" fill="rgb(249,249,249)" transform="translate(0,0)"></path>
<path d="M 527.623 900.404 C 564.497 896.585 595.552 915.871 602.862 953.195 L 583.738 953.661 C 571.52 924.807 547.737 911.651 517.234 921.042 C 504.815 924.935 494.497 933.682 488.623 945.296 C 481.034 960.012 479.991 980.469 485.403 996.123 C 489.985 1009.79 499.983 1020.97 513.053 1027.04 C 528.413 1034.07 543.212 1032.73 558.489 1027.24 C 572.824 1019.88 576.78 1012.9 583.574 999.346 C 589.804 999.075 596.641 999.183 602.921 999.164 C 591.83 1051.84 526.905 1064.77 487.903 1034.78 C 445.06 1001.82 454.594 919.51 509.415 903.702 C 516.109 901.772 520.554 901.083 527.623 900.404 z" fill="rgb(42,40,40)" transform="translate(0,0)"></path>
<path d="M 624.626 898.217 L 643.469 898.187 C 643.304 918.822 643.327 939.458 643.536 960.093 C 673.254 930.875 718.573 946.085 715.243 990.34 C 713.981 1007.12 715.065 1029.67 714.965 1046.97 L 696.513 1046.96 C 695.81 1029.08 696.087 1010.02 696.058 992.045 C 696.118 982.624 696.095 974.983 689.058 967.892 C 678.906 957.876 660.623 958.911 650.991 969.046 C 644.629 975.558 643.502 984.761 643.463 993.504 C 643.384 1011.33 643.455 1029.19 643.505 1047.04 L 624.737 1047.07 C 624.448 997.456 624.41 947.836 624.626 898.217 z" fill="rgb(42,40,40)" transform="translate(0,0)"></path>
<path d="M 1021.27 947.2 L 1041.73 947.098 C 1052.04 972.768 1062.78 998.264 1073.94 1023.57 C 1077.24 1016.54 1082.09 1001.63 1084.9 993.842 C 1090.55 978.421 1096.38 963.073 1102.42 947.802 L 1121.07 947.624 C 1118.22 956.824 1113.52 968.061 1110.08 977.416 L 1091.97 1027.99 C 1088.51 1037.13 1084.01 1048.93 1081.11 1058.04 C 1070.79 1090.52 1055.86 1091.78 1025.34 1091.63 L 1025.53 1075.97 C 1054.28 1079.07 1059.47 1069 1065.85 1043.79 C 1059.97 1037.69 1028.75 962.302 1021.27 947.2 z" fill="rgb(42,40,40)" transform="translate(0,0)"></path>
<path d="M 741.034 947.138 L 759.639 947.198 C 760.129 980.236 759.631 1014 759.655 1047.1 L 740.871 1047.11 C 740.989 1014.2 740.373 979.863 741.034 947.138 z" fill="rgb(42,40,40)" transform="translate(0,0)"></path>
<path d="M 1567.37 777.499 C 1579.86 778.942 1591.47 797.216 1602.72 806.129 L 1603.52 805.431 C 1607.26 802.217 1631.31 778.745 1633.19 778.383 C 1648.7 775.394 1613.56 807.113 1610.08 811.636 C 1617.62 820.362 1630.96 834.197 1637.13 844.021 C 1637.66 844.866 1635 847.295 1634.42 847.862 C 1623.04 840.658 1613.04 828.538 1603.02 818.631 C 1592.68 828.175 1581.83 839.454 1570.59 847.523 C 1569.83 848.063 1566.36 843.829 1567.01 843.009 C 1575.54 832.322 1587.23 822.466 1596.93 812.223 C 1590.37 805.905 1583.79 799.576 1577.26 793.232 C 1573.14 789.24 1564.55 784.633 1566.77 779.103 L 1567.37 777.499 z" fill="rgb(192,190,191)" transform="translate(0,0)"></path>
<path d="M 565.953 788.061 C 568.307 788.337 572.777 788.734 574.681 790.337 C 576.457 793.185 578.998 786.001 581.067 789.325 C 582.97 792.384 581.591 805.825 582.18 809.502 C 582.131 812.261 582.571 819.051 580.915 821.384 C 575.644 828.813 558.549 828.546 557.42 817.743 C 562.732 819.319 578.063 829.246 577.505 813.497 C 577.45 811.958 572.342 814.75 571.481 814.931 C 565.655 816.155 559.858 814.634 557.395 808.756 C 554.968 798.886 555.624 791.679 565.953 788.061 z" fill="rgb(42,40,40)" transform="translate(0,0)"></path>
<path d="M 565.977 791.955 C 568.956 792.039 574.744 792.054 575.937 795.023 C 578.998 802.64 578.298 807.236 572.587 811.346 L 571.047 811.247 C 558.494 810.561 557.858 799.345 565.977 791.955 z" fill="rgb(249,249,249)" transform="translate(0,0)"></path>
<path d="M 711.264 1222.88 C 723.659 1225.24 729.069 1236.6 722.53 1247.15 C 720.618 1250.25 717.541 1252.45 713.991 1253.26 C 707.233 1254.77 707.139 1249.88 703.046 1250.41 C 703.034 1253.09 703.067 1256.92 703.017 1259.55 C 702.953 1262.85 698.033 1262.74 698.085 1260.89 C 698.416 1249.03 697.564 1236.41 698.774 1224.74 C 698.796 1224.52 700.237 1223.41 700.565 1223.7 C 702.307 1223.77 702.391 1225.83 703.672 1226.5 C 705.147 1226.38 707.595 1224.39 709.411 1223.67 L 711.264 1222.88 z" fill="rgb(42,40,40)" transform="translate(0,0)"></path>
<path d="M 707.752 1227.82 C 721.337 1228.59 723.893 1239.69 715.856 1247.65 L 714.684 1248.83 C 701.371 1248.98 699.39 1235.25 706.295 1229.16 L 707.752 1227.82 z" fill="rgb(249,249,249)" transform="translate(0,0)"></path>
<path d="M 534.04 788.111 C 538.283 788.665 544.625 792.244 545.83 790.427 C 546.438 789.51 546.468 789.389 547.466 788.918 C 550.152 789.274 549.265 795.807 549.324 798.512 C 549.699 815.566 553.971 830.481 530.514 824.883 C 526.318 823.882 525.19 822.171 526.45 818.202 C 530.993 820.345 540.334 826.103 543.577 819.621 C 551.195 804.393 528.95 824.423 524.188 807.476 C 521.951 799.518 523.721 790.819 532.301 788.586 L 534.04 788.111 z" fill="rgb(42,40,40)" transform="translate(0,0)"></path>
<path d="M 533.804 791.796 C 546.912 793.117 549.129 804.767 539.29 811.174 C 525.583 809.956 524.088 799.19 533.804 791.796 z" fill="rgb(249,249,249)" transform="translate(0,0)"></path>
<path d="M 670.045 1227.15 C 672.753 1226.45 672.086 1226.51 674.555 1225.03 C 686.899 1217.63 695.415 1235.78 690.524 1245.36 C 684.417 1257.33 679.177 1255.44 670.684 1250.36 C 670.425 1254.9 672.742 1260.41 668.913 1262.55 C 662.873 1265.93 665.114 1212.39 669.652 1226.02 L 670.045 1227.15 z" fill="rgb(249,249,249)" transform="translate(0,0)"></path>
<path d="M 670.045 1227.15 C 672.753 1226.45 672.086 1226.51 674.555 1225.03 C 686.899 1217.63 695.415 1235.78 690.524 1245.36 C 684.417 1257.33 679.177 1255.44 670.684 1250.36 C 671.287 1249.71 671.891 1249.06 672.494 1248.4 C 694.73 1252.94 690.024 1219.98 671.581 1230.55 C 671.031 1229.38 670.543 1228.35 670.045 1227.15 z" fill="rgb(42,40,40)" transform="translate(0,0)"></path>
<path d="M 670.684 1250.36 C 670.425 1254.9 672.742 1260.41 668.913 1262.55 C 662.873 1265.93 665.114 1212.39 669.652 1226.02 L 670.045 1227.15 C 670.543 1228.35 671.031 1229.38 671.581 1230.55 C 669.367 1237.23 669.136 1242.42 672.494 1248.4 C 671.891 1249.06 671.287 1249.71 670.684 1250.36 z" fill="rgb(42,40,40)" transform="translate(0,0)"></path>
<path d="M 997.888 1137.23 C 1000.01 1137.9 1002.13 1137.83 1002.15 1140.42 C 1002.24 1149.16 1002.29 1157.74 1002.22 1166.51 C 1002.2 1168.76 1002.58 1174.7 1001.46 1176.83 C 998.963 1179.63 997.848 1174.56 997.008 1175 C 989.96 1178.69 989.513 1180.04 980.692 1176.07 C 975.101 1168.03 975.225 1163.11 978.568 1154.23 C 982.499 1143.78 997.896 1151.89 997.365 1152.3 C 997.427 1152.13 997.585 1139.87 997.888 1137.23 z" fill="rgb(42,40,40)" transform="translate(0,0)"></path>
<path d="M 985.124 1152.71 C 998.634 1152 1001.46 1164.24 994.802 1172.65 L 993.731 1174.07 C 978.892 1175.61 977.006 1162.18 985.124 1152.71 z" fill="rgb(249,249,249)" transform="translate(0,0)"></path>
<path d="M 713.918 790.815 C 714.32 791.031 714.655 791.335 715.108 791.201 C 716.944 789.352 712.993 777.669 717.455 776.961 C 717.918 776.888 719.153 777.148 719.584 777.455 C 720.761 788.973 719.841 802.639 720.071 814.49 C 720.091 815.488 719.868 815.993 719.821 816.152 C 719.246 816.633 718.839 816.154 718.252 815.828 C 717.4 815.101 716.414 814.123 715.488 813.577 C 711.584 814.527 710.054 819.943 701.454 816.167 C 698.694 814.944 696.549 812.651 695.514 809.815 C 691.122 797.415 700.132 782.991 713.918 790.815 z" fill="rgb(249,249,249)" transform="translate(0,0)"></path>
<path d="M 718.252 815.828 C 717.4 815.101 716.414 814.123 715.488 813.577 C 711.584 814.527 710.054 819.943 701.454 816.167 C 698.694 814.944 696.549 812.651 695.514 809.815 C 691.122 797.415 700.132 782.991 713.918 790.815 C 713.694 792.301 713.769 792.889 713.819 794.405 C 693.61 784.209 694.024 822.934 714.453 810.827 C 717.106 812.347 717.017 812.915 718.252 815.828 z" fill="rgb(42,40,40)" transform="translate(0,0)"></path>
<path d="M 713.918 790.815 C 714.32 791.031 714.655 791.335 715.108 791.201 C 716.944 789.352 712.993 777.669 717.455 776.961 C 717.918 776.888 719.153 777.148 719.584 777.455 C 720.761 788.973 719.841 802.639 720.071 814.49 C 720.091 815.488 719.868 815.993 719.821 816.152 C 719.246 816.633 718.839 816.154 718.252 815.828 C 717.017 812.915 717.106 812.347 714.453 810.827 C 716.02 803.09 716.868 801.458 713.819 794.405 C 713.769 792.889 713.694 792.301 713.918 790.815 z" fill="rgb(42,40,40)" transform="translate(0,0)"></path>
<path d="M 552.709 1149.02 C 554.205 1148.98 558.41 1148.7 559.512 1149.02 C 575.361 1153.64 573.997 1170.77 562.046 1178.82 C 540.706 1179.82 538.366 1157.9 552.709 1149.02 z" fill="rgb(42,40,40)" transform="translate(0,0)"></path>
<path d="M 553.944 1152.84 C 568.194 1153.32 569.758 1165.86 561.97 1173.68 L 560.853 1174.83 C 546.122 1175.27 545.058 1161.77 553.944 1152.84 z" fill="rgb(249,249,249)" transform="translate(0,0)"></path>
<path d="M 864.93 1149.03 C 888.064 1148.08 888.645 1169.65 874.386 1178.56 C 854.666 1181.21 851.427 1159.37 863.405 1150.22 L 864.93 1149.03 z" fill="rgb(42,40,40)" transform="translate(0,0)"></path>
<path d="M 866.264 1152.84 C 879.835 1152.8 882.473 1163.96 875.016 1172.74 L 873.961 1174.02 C 859.386 1175.26 857.666 1162.05 865.063 1154.16 L 866.264 1152.84 z" fill="rgb(249,249,249)" transform="translate(0,0)"></path>
<path d="M 1132.86 1149.11 C 1140.12 1148.8 1146.75 1148.96 1149.69 1156.6 C 1153.43 1166.35 1150.87 1173.72 1142.04 1177.95 C 1136.21 1178.07 1130 1178.52 1126.56 1172.82 C 1121.91 1165.1 1123.35 1154.92 1131.23 1150.15 L 1132.86 1149.11 z" fill="rgb(42,40,40)" transform="translate(0,0)"></path>
<path d="M 1133.86 1152.82 C 1148.22 1153.56 1149.85 1165.35 1141.05 1174.15 C 1125.93 1174.38 1125.19 1161.49 1133.86 1152.82 z" fill="rgb(249,249,249)" transform="translate(0,0)"></path>
<path d="M 1246.9 1149.1 C 1269.69 1148.31 1270.59 1169.74 1256.37 1178.27 C 1236.28 1180.59 1232.53 1158.78 1246.9 1149.1 z" fill="rgb(42,40,40)" transform="translate(0,0)"></path>
<path d="M 1248.86 1152.88 C 1263.7 1153.84 1264.32 1166.37 1254.57 1174.63 C 1241.08 1174.52 1239.96 1161.36 1248.86 1152.88 z" fill="rgb(249,249,249)" transform="translate(0,0)"></path>
<path d="M 753.911 1149.12 C 775.257 1148.78 776.901 1169.94 763.498 1178.06 C 740.995 1179.19 740.135 1157.55 752.282 1150.17 L 753.911 1149.12 z" fill="rgb(42,40,40)" transform="translate(0,0)"></path>
<path d="M 754.951 1152.89 C 769.22 1153.85 770.992 1166.33 761.368 1174.32 C 747.209 1173.13 745.854 1161.94 754.951 1152.89 z" fill="rgb(249,249,249)" transform="translate(0,0)"></path>
<path d="M 745.717 901.312 C 750.55 899.955 755.739 901.322 759.276 904.884 C 762.814 908.446 764.145 913.644 762.755 918.467 C 761.365 923.291 757.473 926.984 752.582 928.117 C 745.257 929.816 737.916 925.354 736.051 918.069 C 734.185 910.785 738.477 903.344 745.717 901.312 z" fill="rgb(42,40,40)" transform="translate(0,0)"></path>
<path d="M 471.214 1139.13 C 471.673 1139.2 474.612 1139.51 474.998 1139.8 C 476.263 1139.98 479.418 1147.66 479.324 1147.93 C 478.551 1150.16 495.144 1180.64 487.62 1178.32 C 481.933 1176.58 486.12 1166.76 478.25 1166.77 C 474.377 1166.81 469.984 1166.71 466.177 1166.99 L 465.697 1168.27 C 465.063 1169.92 462.655 1177.32 462.129 1177.49 C 457.231 1179.06 456.917 1177.48 458.452 1173.79 C 463.235 1162.3 467.028 1150.66 471.214 1139.13 z" fill="rgb(42,40,40)" transform="translate(0,0)"></path>
<path d="M 473.387 1145.73 C 475.125 1147.76 482.684 1161.77 477.196 1163.16 C 463.737 1162.53 467.199 1161.91 473.387 1145.73 z" fill="rgb(249,249,249)" transform="translate(0,0)"></path>
<path d="M 600.134 788.19 C 607.835 788.973 610.222 789.024 613.044 797.004 C 618.727 809.822 596.433 801.514 594.498 804.224 C 590.889 809.281 597.685 817.886 608.523 810.205 C 608.974 808.987 610.023 808.025 610.668 808.553 C 619.849 815.949 591.595 822.803 589.626 810.62 C 587.822 799.456 587.581 791.26 600.134 788.19 z" fill="rgb(42,40,40)" transform="translate(0,0)"></path>
<path d="M 598.743 791.819 L 600.622 792.02 C 607.094 792.649 612.235 799.665 606.023 800.697 C 600.101 800.565 587.94 802.053 597.33 793.182 L 598.743 791.819 z" fill="rgb(249,249,249)" transform="translate(0,0)"></path>
<path d="M 630.86 1149.08 C 645.996 1149.09 645.599 1152.64 645.387 1167.19 C 645.364 1168.75 646.456 1180.93 642.446 1177.24 C 641.225 1176.12 641.281 1174.74 638.98 1176.32 C 632.82 1180.44 627.849 1178.86 622.548 1174.57 C 622.283 1172.18 621.684 1169.07 622.853 1167.02 C 625.976 1161.52 634.452 1162.78 639.461 1161.39 C 640.157 1161.13 640.957 1160.42 641.084 1159.67 C 641.253 1156.09 639.398 1153.93 635.929 1153.06 C 630.366 1151.67 629.11 1156.69 625.041 1156.92 C 624.175 1156.97 623.981 1154.92 624.283 1154.05 C 625.206 1151.39 628.483 1150.24 630.86 1149.08 z" fill="rgb(42,40,40)" transform="translate(0,0)"></path>
<path d="M 634.233 1165.2 C 645.473 1164.98 641.441 1171.51 635.689 1174.53 L 634.138 1175.37 C 624.085 1173.12 624.24 1167.49 634.233 1165.2 z" fill="rgb(249,249,249)" transform="translate(0,0)"></path>
<path d="M 924.48 1149.07 C 940.46 1149.22 941.798 1152.08 941.051 1167.09 C 940.901 1170.09 941.492 1173.94 940.639 1176.76 C 940.312 1177.84 938.165 1177.7 937.622 1176.84 C 935.552 1174.28 933.106 1177.37 930.992 1178.16 C 927.219 1179.57 923.373 1177.62 919.977 1176.02 C 912.99 1159.63 928.3 1163.32 935.353 1161.54 C 938.907 1160.65 934.488 1147.79 926.184 1154.65 C 920.182 1159.6 918.145 1154.81 924.48 1149.07 z" fill="rgb(42,40,40)" transform="translate(0,0)"></path>
<path d="M 926.817 1165.31 C 930.277 1165.25 936.668 1163.72 936.373 1168.42 C 936.193 1171.29 935.124 1172.23 933.024 1173.9 L 931.692 1175 C 925.336 1173.86 918.073 1170.6 926.817 1165.31 z" fill="rgb(249,249,249)" transform="translate(0,0)"></path>
<path d="M 676.178 788.064 C 683.726 788.96 687.66 790.109 689.079 798.353 C 690.388 805.955 686.93 803.464 681.337 804.024 C 680.507 804.601 669.451 802.613 669.784 805.45 C 670.82 814.283 678.527 815.047 684.13 811.185 L 685.637 810.199 C 686.542 809.65 687.944 809.032 688.408 810.24 C 690.937 817.025 676.25 818.36 672.292 816.456 C 661.78 811.402 662.04 792.254 674.346 788.679 L 676.178 788.064 z" fill="rgb(42,40,40)" transform="translate(0,0)"></path>
<path d="M 675.817 791.94 C 683.84 793.454 689.303 800.321 681.203 800.862 C 672.067 800.765 662.804 801.116 675.817 791.94 z" fill="rgb(249,249,249)" transform="translate(0,0)"></path>
<path d="M 681.031 1148.99 C 694.045 1149.8 694.242 1153.69 695.721 1165.11 C 689.764 1165.1 671.149 1162.27 676.153 1169.45 C 679.136 1173.72 681.552 1176.63 686.604 1173.89 C 687.232 1173.5 687.854 1173.1 688.47 1172.69 C 695.185 1168.11 695.543 1174.07 691.2 1176.27 C 671.322 1186.35 661.303 1157.71 681.031 1148.99 z" fill="rgb(42,40,40)" transform="translate(0,0)"></path>
<path d="M 680.321 1152.77 C 687.491 1153.08 694.735 1159.25 688.906 1161.79 C 681.864 1161.77 669.97 1164.13 679.105 1154.15 L 680.321 1152.77 z" fill="rgb(249,249,249)" transform="translate(0,0)"></path>
<path d="M 594.359 1213.05 C 602.137 1212.97 610.525 1214.13 613.108 1223.47 C 613.406 1224.54 612.825 1226.74 611.431 1226.12 C 606.835 1224.12 604.531 1217.12 598.016 1217.31 C 588.549 1217.59 584.091 1225.39 584.728 1234 C 585.737 1247.62 591.258 1249.66 603.072 1248.89 C 604.929 1247.4 607.017 1245.93 608.478 1243.99 C 608.69 1243.71 611.749 1239.23 612.734 1241.61 C 614.412 1245.96 609.072 1250.78 605.568 1252.22 C 595.319 1256.44 584.143 1252.52 580.697 1241.58 C 577.113 1230.2 579.882 1217.47 592.431 1213.69 L 594.359 1213.05 z" fill="rgb(42,40,40)" transform="translate(0,0)"></path>
<path d="M 768.357 789.149 C 776.73 788.478 785.627 786.916 785.049 798.525 C 784.771 804.123 785.563 810.396 784.673 815.918 C 784.607 816.329 783.876 816.824 783.49 816.875 C 780.18 817.539 781.421 814.338 780.351 813.454 C 777.066 813.032 777.7 820.032 764.964 815.765 C 763.248 812.717 760.992 808.115 763.269 804.622 C 765.988 800.45 774.037 801.486 778.031 800.444 C 782.749 799.213 780.094 792.978 776.434 792.238 C 772.978 790.629 768.559 795.066 766.557 794.948 C 760.046 794.565 767.124 789.883 768.357 789.149 z" fill="rgb(42,40,40)" transform="translate(0,0)"></path>
<path d="M 768.056 804.352 C 776.118 803.848 786.017 802.185 776.856 812.85 C 769.632 814.444 764.521 812.271 768.056 804.352 z" fill="rgb(249,249,249)" transform="translate(0,0)"></path>
<path d="M 470.033 777.096 C 472.974 777.154 479.669 777.452 481.734 779.349 C 490.979 787.838 485.393 792.347 477.666 782.6 C 472.594 779.062 461.22 784.554 464.742 790.582 C 469.415 798.578 491.892 793.548 486.593 810.681 C 485.55 814.054 479.317 816.589 476.157 817.651 C 472.143 817.683 457.641 816.681 459.5 807.901 C 460.431 806.093 462.877 808.418 463.183 808.862 C 471.551 821.021 495.213 805.866 474.983 800.236 C 471.17 799.175 461.313 796.756 460.235 792.431 C 457.989 783.418 462.535 779.852 470.033 777.096 z" fill="rgb(42,40,40)" transform="translate(0,0)"></path>
<path d="M 1083.37 1148.57 C 1089.72 1151.16 1091.68 1165.63 1093.95 1172.57 C 1095.16 1167.85 1098.77 1153.31 1100.3 1149.54 C 1100.96 1147.92 1101.61 1146.29 1102.24 1144.65 C 1105.97 1153.12 1108.3 1163.29 1111.16 1172.3 C 1112.27 1168.9 1113.32 1165.49 1114.2 1162.02 L 1115.25 1158.02 C 1115.44 1157.36 1117.05 1146.05 1121.15 1149.88 C 1122.02 1150.7 1120.95 1153.34 1120.64 1154.65 C 1119.99 1156.59 1119.36 1158.51 1118.82 1160.48 L 1118.36 1162.09 L 1117.84 1163.99 L 1117.37 1165.61 L 1116.86 1167.49 C 1110.15 1191.43 1106.69 1167.78 1103.29 1157.97 L 1102.22 1154.95 C 1100.25 1162.03 1098.51 1169.33 1096.64 1176.42 C 1096.18 1178.18 1092.16 1177.42 1091.86 1176.47 C 1089.48 1169.1 1083.5 1155.87 1083.37 1148.57 z" fill="rgb(42,40,40)" transform="translate(0,0)"></path>
<path d="M 475.005 1222.3 C 482.742 1225.81 481.843 1238.63 485.708 1246.95 C 486.342 1244.47 487.099 1241.89 487.697 1239.45 L 488.779 1234.98 C 489.557 1231.61 490.146 1225.05 493.382 1223.59 C 497.26 1225.06 490.604 1241.6 489.338 1246.59 C 484.365 1266.19 478.312 1234.6 477.425 1231.64 C 473.24 1230.19 472.51 1255.88 466.438 1252.85 C 465.672 1252.47 457.799 1226.49 457.485 1224.58 C 462.12 1218.27 467.048 1243.83 468.06 1246.79 L 468.627 1244.95 C 469.81 1241.34 470.848 1237.68 471.738 1233.98 L 472.217 1232.02 C 473.092 1228.55 473.933 1225.69 475.005 1222.3 z" fill="rgb(42,40,40)" transform="translate(0,0)"></path>
<path d="M 1178.79 1137.41 C 1179.27 1137.59 1182.38 1138.67 1182.47 1139.04 C 1183.91 1145.03 1183.18 1155.27 1183.18 1161.5 C 1185.26 1159.48 1194.55 1149.44 1196.04 1149.2 C 1208.72 1147.16 1191.37 1159.22 1189.71 1160.86 C 1193.77 1166.02 1195.58 1168.78 1199.01 1174.43 C 1200 1175.84 1201.78 1177.88 1198.64 1178.09 C 1192.81 1179.24 1189.96 1165.67 1187.06 1164.7 C 1182.09 1163.03 1183.35 1176.25 1182.55 1177.24 C 1181.09 1179.01 1179.11 1177.69 1179.07 1177.34 C 1177.94 1166.42 1177.14 1148.08 1178.79 1137.41 z" fill="rgb(42,40,40)" transform="translate(0,0)"></path>
<path d="M 534.698 1211.23 C 544.565 1213.86 535.53 1222.41 539.755 1226.14 C 541.881 1226.26 549.118 1219.39 554.407 1225.31 C 557.51 1228.79 557.987 1233.97 557.507 1238.51 C 557.192 1241.48 559.386 1254.93 553.504 1252.29 C 552.478 1251.46 553.024 1236.17 553.031 1232.95 C 551.475 1228.12 548.756 1225.73 543.531 1228.04 C 534.764 1231.91 540.979 1245.19 538.629 1251.72 C 537.716 1254.26 533.771 1253.16 534.093 1248.44 C 534.921 1236.32 533.176 1223.31 534.698 1211.23 z" fill="rgb(42,40,40)" transform="translate(0,0)"></path>
<path d="M 621.072 1212.05 C 627.911 1213.64 625.261 1219.86 625.43 1227.14 C 630.02 1225.19 634.527 1222.04 639.891 1224.52 C 642.077 1225.51 643.75 1227.38 644.507 1229.65 C 645.281 1231.95 645.338 1250.96 644.64 1251.69 C 638.125 1258.48 640.782 1235.01 640.783 1233.66 C 639.471 1229.97 638.799 1228.13 634.496 1227.81 C 618.102 1226.59 630.088 1251.44 623.892 1253.34 C 623.544 1253.25 623.196 1253.15 622.848 1253.06 C 622.401 1252.95 621.998 1252.71 621.697 1252.36 C 620.406 1250.88 620.962 1216.2 621.072 1212.05 z" fill="rgb(42,40,40)" transform="translate(0,0)"></path>
<path d="M 820.888 776.333 C 821.223 776.451 824.203 777.362 824.279 777.751 C 825.546 784.277 824.882 794.348 824.923 801.173 C 828.379 797.833 835.715 789.596 840.173 788.883 C 845.838 787.979 830.836 800.37 830.276 800.872 C 833.037 803.827 836.003 807.217 838.687 810.033 C 839.452 810.882 845.854 816.697 841.459 817.019 C 836.978 817.348 828.507 805.879 825.142 802.509 C 825.112 804.12 826.902 821.947 820.658 816.267 C 819.645 815.346 820.391 779.655 820.888 776.333 z" fill="rgb(42,40,40)" transform="translate(0,0)"></path>
<path d="M 582.082 1152.41 C 588.911 1147.27 591.797 1148.06 598.055 1152.92 C 601.603 1148.93 609.405 1147.76 613.567 1151.74 C 618.303 1156.26 615.543 1167.05 616.515 1173.01 C 617.388 1176.03 615.218 1180.66 612.369 1176.94 C 611.639 1175.99 611.939 1166.41 611.974 1165.31 C 612.316 1154.58 610.386 1151.29 599.264 1155.04 C 598.724 1158.52 597.902 1172.32 599.023 1175 C 601.445 1180.81 594.71 1178.03 594.602 1177.81 C 591.936 1172.45 597.31 1157.9 591.452 1154.13 C 589.282 1152.78 585.156 1153.61 583.064 1153.92 C 582.395 1153.24 582.363 1153.3 582.082 1152.41 z" fill="rgb(42,40,40)" transform="translate(0,0)"></path>
<path d="M 1009.37 1157.65 C 1017.43 1144.56 1031.55 1145.79 1034.87 1161.49 C 1036.16 1167.61 1019.4 1164.05 1012.89 1164.71 C 1012.62 1164.91 1012.35 1165.12 1012.07 1165.33 C 1010.68 1165.87 1010.23 1163 1010.18 1162.49 C 1010 1160.7 1009.68 1159.26 1009.37 1157.65 z" fill="rgb(42,40,40)" transform="translate(0,0)"></path>
<path d="M 1018.62 1152.77 C 1020.09 1152.87 1021.55 1152.9 1023.02 1153.02 C 1025.28 1153.2 1027.35 1154.36 1028.68 1156.2 C 1030.55 1159.01 1031.63 1160.33 1027.17 1161.03 C 1017.42 1160.96 1008.64 1163.34 1018.62 1152.77 z" fill="rgb(249,249,249)" transform="translate(0,0)"></path>
<path d="M 514.808 1148.29 C 515.582 1148.55 517.969 1149.13 518.561 1149.61 C 519.218 1151.3 519.115 1173.78 518.511 1177.01 C 518.318 1177.45 517.408 1178.08 516.996 1178.1 C 515.341 1178.19 514.878 1176.23 513.502 1175.72 C 512.741 1175.86 512.925 1175.94 512.291 1176.28 C 498.278 1183.73 495.041 1172.78 495.029 1163.25 C 495.037 1159.1 492.896 1149.34 498.592 1149.44 C 503.236 1152.62 492.791 1181.77 511.698 1172.69 C 516.006 1170.62 514.051 1153.71 514.808 1148.29 z" fill="rgb(42,40,40)" transform="translate(0,0)"></path>
<path d="M 740.092 1249.17 C 741.594 1245.29 747.106 1224.36 750.816 1223.88 C 755.103 1223.33 748.256 1239.27 747.406 1241.74 L 746.98 1242.83 C 744.398 1249.31 743.18 1254.1 739.035 1260 C 734.561 1266.36 727.072 1261.67 732.033 1259.28 C 740.335 1255.29 736.562 1251.56 734.657 1244.03 C 732.869 1236.97 729.953 1230.56 728.604 1223.53 C 729.042 1223.59 732.665 1223.9 732.892 1224.34 C 736.251 1230.95 738.372 1241.91 740.092 1249.17 z" fill="rgb(42,40,40)" transform="translate(0,0)"></path>
<path d="M 778.441 1149.23 C 781.634 1150.23 782.474 1149.64 782.613 1152.96 C 782.887 1159.51 779.271 1176.47 791.406 1173.79 C 801.043 1171.66 794.799 1156.57 797.692 1150.63 C 798.087 1149.82 799.995 1149.6 800.694 1150.45 C 801.703 1152.34 801.179 1157.82 801.173 1159.78 C 801.173 1162.57 802.209 1175.81 801.572 1177.27 C 799.817 1181.31 797.261 1177.63 796.542 1174.62 L 796.554 1174.72 L 796.524 1174.62 C 793.36 1175.21 786.33 1183.39 780.23 1174.81 C 776.761 1169.93 777.78 1154.95 778.441 1149.23 z" fill="rgb(42,40,40)" transform="translate(0,0)"></path>
<path d="M 494.094 788.11 C 494.037 788.092 497.444 789.075 497.613 789.453 C 499.837 794.412 494.093 813.276 503.546 813.115 C 519.497 812.842 509.438 793.21 514.323 788.357 C 517.614 789.866 517.022 791.255 517.056 794.75 C 517.06 798.701 518.673 817.471 514.924 818.139 C 514.094 817.849 513.483 817.255 513.172 816.375 C 511.141 810.859 508.745 817.48 502 817.213 C 490.247 816.747 493.776 797.349 494.094 788.11 z" fill="rgb(42,40,40)" transform="translate(0,0)"></path>
<path d="M 1279.43 1170.39 C 1281.43 1165.56 1283.7 1155.11 1285.14 1151.45 C 1289.43 1140.57 1295.48 1169.83 1296.04 1172.14 C 1298.13 1165.56 1300.56 1158.29 1301.81 1151.49 C 1302.31 1148.79 1306.97 1149.09 1306.66 1150.7 C 1305.57 1156.05 1303.53 1162.13 1301.97 1167.28 C 1301.23 1168.9 1299.33 1177.04 1297.96 1177.78 C 1292.77 1180.55 1292.48 1173.34 1291.92 1170.52 C 1290.8 1164.87 1289.15 1159.91 1287.19 1154.73 C 1285.81 1160.08 1283.05 1168.36 1282.88 1173.42 C 1281.72 1172.38 1280.63 1171.39 1279.43 1170.39 z" fill="rgb(42,40,40)" transform="translate(0,0)"></path>
<path d="M 624.406 789.061 C 628.18 788.721 642.821 787.521 639.012 795.701 C 638.917 795.904 637.229 795.291 636.634 794.729 C 635.207 792.485 627.99 790.993 626.01 793.065 C 616.334 803.193 638.329 799.414 640.405 804.555 C 643.168 811.4 640.136 813.869 635.303 817.007 C 618.977 817.459 614.702 806.787 627.533 812.772 C 633.714 815.654 638.861 808.78 636.507 807.43 C 630.168 803.794 608.403 803.04 624.406 789.061 z" fill="rgb(42,40,40)" transform="translate(0,0)"></path>
<path d="M 795.462 789.227 C 815.718 787.42 812.385 795.831 808.906 795.995 C 808.432 795.663 807.796 795.084 807.401 794.615 C 800.424 786.208 788.433 798.557 803.504 800.887 C 814.069 802.52 816.715 809.176 808.703 816.516 C 805.051 817.127 803.099 817.326 799.009 816.901 C 797.013 816.694 789.209 812.55 792.922 810.013 C 795.142 809.441 797.311 811.804 799.052 812.639 C 802.889 814.48 810.376 812.216 807.748 807.128 C 805.886 803.522 797.2 804.893 793.84 801.157 C 789.629 796.474 791.672 793.048 795.462 789.227 z" fill="rgb(42,40,40)" transform="translate(0,0)"></path>
<path d="M 898.181 1149.07 C 902.608 1149 914.458 1149.97 912.018 1156.99 C 906.54 1160.06 906.935 1151.22 899.984 1153.14 C 887.956 1156.47 891.374 1178.26 904.958 1173.23 C 915.187 1164.16 912.043 1174.75 907.436 1176.89 C 889.817 1185.07 878.965 1160.04 898.181 1149.07 z" fill="rgb(42,40,40)" transform="translate(0,0)"></path>
<path d="M 1212.41 1137.98 C 1214.18 1138.02 1219.9 1137.54 1220.81 1139.04 C 1222.36 1142.01 1217.51 1141.79 1216.09 1142.35 C 1214.06 1142.49 1214.26 1148.19 1214.99 1148.4 C 1221.24 1150.26 1222.45 1152.37 1214.93 1153.96 C 1214.07 1154.14 1214.23 1160.36 1214.21 1162.56 C 1214.19 1166.49 1214.19 1171.52 1214.16 1175.97 C 1213.73 1176.63 1212.14 1179 1210.81 1177.77 C 1209.37 1176.44 1210.1 1171.97 1209.98 1169.92 C 1209.78 1165.07 1210.31 1159.79 1209.8 1155 C 1209.65 1153.59 1204.93 1153.54 1204.63 1152.06 C 1203.89 1148.43 1209.71 1151.01 1210.01 1147.1 C 1210.19 1144.65 1211.55 1140.33 1212.41 1137.98 z" fill="rgb(42,40,40)" transform="translate(0,0)"></path>
<path d="M 528.941 1141.21 C 532.984 1142.6 533.139 1142.34 533.052 1146.99 C 532.994 1150.11 535.931 1148.8 537.94 1149.49 C 539.019 1149.86 539.242 1151.44 538.572 1152.3 C 537.126 1153.66 534.725 1152.28 533.469 1153.84 C 532.756 1159.59 532.748 1167.12 533.57 1172.85 C 533.652 1173.42 539.689 1175.69 541.161 1176.58 C 523.115 1185.27 529.497 1162.8 528.027 1153.95 C 527.818 1152.69 524.126 1153.42 523.937 1151.52 C 523.82 1150.36 523.834 1149.23 525.501 1149.19 C 529.392 1149.81 528.434 1144.7 528.941 1141.21 z" fill="rgb(42,40,40)" transform="translate(0,0)"></path>
<path d="M 654.237 1148.66 C 654.978 1147.58 655.177 1146.83 655.009 1145.49 C 654.691 1142.96 658.637 1141.82 659.698 1144.11 C 660.342 1145.56 659.378 1148.18 660.399 1149.4 C 661.682 1150.92 666.456 1148.66 666.78 1151.51 C 667.101 1154.35 660.654 1152.82 660.334 1154.3 C 659.198 1159.54 659.862 1166.58 660.044 1172 C 660.191 1172.67 660.829 1173.69 661.404 1173.94 C 662.444 1174.39 668.484 1174.01 667.499 1176.59 C 666.679 1178.73 658.498 1178.43 656.978 1177.17 C 655.733 1176.14 655.297 1174.02 655.314 1172.5 C 655.356 1167.83 655.374 1163.16 655.414 1158.49 C 655.429 1156.83 655.358 1156.44 654.489 1155.15 C 653.33 1154.41 651.46 1153.46 650.666 1152.43 C 650.415 1152.1 650.335 1151.67 650.451 1151.28 C 650.821 1150.03 653.275 1149.14 654.237 1148.66 z" fill="rgb(42,40,40)" transform="translate(0,0)"></path>
<path d="M 654.489 1155.15 C 653.33 1154.41 651.46 1153.46 650.666 1152.43 C 650.415 1152.1 650.335 1151.67 650.451 1151.28 C 650.821 1150.03 653.275 1149.14 654.237 1148.66 L 654.489 1155.15 z" fill="rgb(42,40,40)" transform="translate(0,0)"></path>
<path d="M 728.978 1173.87 C 730.833 1169.33 736.311 1151.38 738.948 1149.81 C 746.234 1145.48 732.329 1175.99 731.79 1176.94 C 729.086 1174 728.446 1173.74 725.953 1176.85 C 724.37 1173.15 715.07 1151.62 718.534 1149.54 C 722.956 1150.34 726.631 1167.59 728.554 1172.71 L 728.978 1173.87 z" fill="rgb(42,40,40)" transform="translate(0,0)"></path>
<path d="M 527 1226.69 C 526.476 1226.81 521.422 1227.67 521.395 1228.44 C 521.255 1232.51 520.473 1243.29 521.25 1246.8 C 523.402 1248.61 526.495 1248.28 527.509 1251.28 L 527.025 1252.25 C 525.273 1253.21 523.143 1253.15 521.483 1252.89 C 512.749 1250.6 519.143 1234.03 516.435 1228.23 C 515.996 1227.29 509.767 1228.86 512.306 1223.54 C 512.708 1222.7 515.217 1224.34 516.186 1223.24 C 517.864 1221.34 515.352 1217.51 518.286 1216.08 C 520.852 1215.44 520.867 1218.86 520.938 1219.84 L 521.162 1221.26 C 521.839 1226.68 525.822 1220.63 527 1226.69 z" fill="rgb(42,40,40)" transform="translate(0,0)"></path>
<path d="M 650.606 781.129 C 659.105 783.674 650.983 788.809 656.489 788.933 C 659.832 786.454 663.063 793.657 658.492 792.18 C 650.674 789.654 654.615 807.384 655.103 811.409 C 655.271 812.795 660.074 813.608 661.702 814.025 C 659.653 818.697 655.247 817.65 651.919 815.054 C 648.301 812.233 650.602 800.514 650.011 796.496 C 650.219 794.353 650.246 793.325 648.029 792.356 C 640.899 789.237 648.82 789.013 649.561 788.548 C 650.027 787.665 650.451 782.346 650.606 781.129 z" fill="rgb(42,40,40)" transform="translate(0,0)"></path>
<path d="M 747.443 781.121 C 749.15 781.781 751.607 782.372 751.005 784.92 C 749.366 791.862 758.724 786.67 756.586 791.559 C 756.23 792.374 751.346 791.448 751.287 793.211 C 751.109 798.762 750.423 805.92 751.663 811.26 C 751.851 812.066 757.878 813.91 759.154 814.546 C 751.482 821.203 746.193 814.83 746.934 806.497 C 747.7 797.887 748.873 795.276 743.439 791.175 C 743.276 789.354 746.909 789.827 746.894 787.54 C 746.881 785.524 747.22 783.143 747.443 781.121 z" fill="rgb(42,40,40)" transform="translate(0,0)"></path>
<path d="M 1226.96 1137.1 C 1227.3 1137.18 1231.4 1138 1231.42 1138.41 C 1232.03 1151.17 1231.84 1165.2 1231.58 1178.05 C 1229.3 1177.9 1226.94 1178.39 1226.93 1175.61 C 1226.88 1162.81 1226.8 1149.9 1226.96 1137.1 z" fill="rgb(42,40,40)" transform="translate(0,0)"></path>
<path d="M 949.128 1138.21 C 949.364 1138.27 953.281 1139.01 953.314 1139.56 C 954.053 1152.04 954.013 1165.74 953.763 1178.27 C 953.439 1178.23 949.53 1177.97 949.482 1177.17 C 948.726 1164.54 948.957 1150.95 949.128 1138.21 z" fill="rgb(42,40,40)" transform="translate(0,0)"></path>
<path d="M 845.455 1137.17 C 845.675 1137.21 849.635 1137.76 849.66 1138.39 C 850.169 1151.62 850.138 1165.51 849.842 1178.77 C 849.548 1178.69 845.967 1177.97 845.92 1177.38 C 844.915 1164.64 845.427 1150.17 845.455 1137.17 z" fill="rgb(42,40,40)" transform="translate(0,0)"></path>
<path d="M 1159.21 1148.42 C 1161.64 1149.62 1162.76 1152.85 1162.94 1152.72 C 1163.72 1151.37 1171.44 1147.29 1172.39 1149.42 C 1175.73 1156.91 1162.89 1148.11 1161.83 1162.75 C 1161.82 1166.07 1162.92 1175.8 1160.52 1177.24 C 1154.68 1180.72 1158.23 1163.4 1157.34 1161 C 1156.48 1158.68 1156.97 1151.8 1158.42 1149.66 L 1159.21 1148.42 z" fill="rgb(42,40,40)" transform="translate(0,0)"></path>
<path d="M 1012.89 1164.71 C 1015.4 1172.12 1019.31 1177.42 1028.07 1172.21 C 1028.23 1170.91 1034.64 1168.15 1033.83 1171.47 C 1031.65 1180.45 1015.88 1180.22 1011.62 1173.63 C 1007.97 1167.99 1008.78 1162.9 1009.37 1157.65 C 1009.68 1159.26 1010 1160.7 1010.18 1162.49 C 1010.23 1163 1010.68 1165.87 1012.07 1165.33 C 1012.35 1165.12 1012.62 1164.91 1012.89 1164.71 z" fill="rgb(42,40,40)" transform="translate(0,0)"></path>
<path d="M 1282.88 1173.42 C 1282.75 1173.7 1279.01 1181.85 1277.16 1177.71 C 1273.54 1169.64 1271.23 1159.54 1268.24 1151.09 C 1267.8 1149.85 1272.28 1148.76 1273.26 1152 L 1276.58 1163.2 C 1277.5 1166.35 1277.6 1167.83 1279.43 1170.39 C 1280.63 1171.39 1281.72 1172.38 1282.88 1173.42 z" fill="url(#Gradient1)" transform="translate(0,0)"></path>
<path d="M 583.064 1153.92 C 581.434 1159.78 581.317 1165.53 581.577 1171 C 582.301 1182.3 575.098 1179.99 577.019 1169.66 C 576.96 1169.97 575.329 1137.77 582.082 1152.41 C 582.363 1153.3 582.395 1153.24 583.064 1153.92 z" fill="rgb(42,40,40)" transform="translate(0,0)"></path>
<path d="M 815.823 1154.24 C 813.688 1159.02 813.073 1158.27 813.417 1164.43 C 813.612 1167.92 813.527 1172.94 813.117 1176.49 C 812.986 1177.63 810.905 1178.66 809.96 1177.76 C 808.068 1175.31 809.319 1170.81 808.963 1167.94 C 809.397 1163.3 808.405 1157.48 808.889 1152.96 C 809.356 1148.6 812.052 1148.67 814.126 1152.16 C 814.793 1153.3 814.878 1153.33 815.823 1154.24 z" fill="rgb(42,40,40)" transform="translate(0,0)"></path>
<path d="M 1051.42 1171.32 C 1054.15 1165.64 1056.33 1158.6 1058.06 1152.5 C 1059.14 1148.66 1064.5 1146.72 1062.17 1153.02 L 1054.8 1172.46 C 1054.11 1174.28 1054.13 1174.75 1053.89 1176.7 C 1050.67 1178.19 1048.9 1178.54 1047.31 1175.05 L 1045.92 1172.05 C 1047.71 1170.73 1047.71 1170.59 1049.64 1169.83 L 1051.42 1171.32 z" fill="rgb(42,40,40)" transform="translate(0,0)"></path>
<path d="M 1049.64 1169.83 L 1051.42 1171.32 C 1053.2 1173.03 1053.18 1174.33 1053.89 1176.7 C 1050.67 1178.19 1048.9 1178.54 1047.31 1175.05 L 1045.92 1172.05 C 1047.71 1170.73 1047.71 1170.59 1049.64 1169.83 z" fill="rgb(42,40,40)" transform="translate(0,0)"></path>
<path d="M 653.636 1223.18 C 654.035 1223.35 656.543 1224.32 656.588 1224.69 C 657.581 1232.82 657.704 1246.28 656.725 1254.3 C 656.331 1254.06 653.268 1252.45 653.247 1251.85 C 652.951 1243.54 651.989 1231.1 653.636 1223.18 z" fill="rgb(42,40,40)" transform="translate(0,0)"></path>
<path d="M 501.965 1222.99 C 502.126 1223.03 505.378 1223.75 505.426 1224.16 C 506.415 1232.68 506.094 1244.73 505.738 1253.39 C 505.477 1253.33 502.238 1252.75 502.196 1252.3 C 501.349 1243.22 501.795 1232.25 501.965 1222.99 z" fill="rgb(42,40,40)" transform="translate(0,0)"></path>
<path d="M 1045.92 1172.05 C 1045.47 1167 1037.34 1152.07 1038.37 1150.06 C 1042.33 1142.3 1049.43 1169.04 1049.64 1169.83 C 1047.71 1170.59 1047.71 1170.73 1045.92 1172.05 z" fill="rgb(42,40,40)" transform="translate(0,0)"></path>
<path d="M 725.953 1176.85 C 728.446 1173.74 729.086 1174 731.79 1176.94 C 729.48 1181.89 722.751 1193.78 719.568 1186 C 718.621 1183.68 725.74 1185.66 725.953 1176.85 z" fill="rgb(42,40,40)" transform="translate(0,0)"></path>
<path d="M 814.126 1152.16 C 816.572 1151.05 825.159 1144.98 823.505 1153.09 C 823.316 1154.02 817.015 1154.09 815.823 1154.24 C 814.878 1153.33 814.793 1153.3 814.126 1152.16 z" fill="rgb(42,40,40)" transform="translate(0,0)"></path>
<path d="M 756.892 1247.47 C 758.099 1246.18 760.115 1246.13 761.396 1247.33 C 762.676 1248.54 762.737 1250.56 761.53 1251.84 C 760.324 1253.12 758.306 1253.18 757.025 1251.97 C 755.743 1250.76 755.684 1248.75 756.892 1247.47 z" fill="rgb(42,40,40)" transform="translate(0,0)"></path>
<path d="M 502.032 1212.62 C 502.898 1211.92 504.077 1211.74 505.111 1212.16 C 506.145 1212.58 506.87 1213.52 507.006 1214.63 C 507.141 1215.74 506.665 1216.83 505.763 1217.48 C 504.418 1218.46 502.542 1218.19 501.531 1216.87 C 500.52 1215.55 500.742 1213.67 502.032 1212.62 z" fill="rgb(42,40,40)" transform="translate(0,0)"></path>
<path d="M 653.362 1212.69 C 654.172 1212.11 655.233 1212.02 656.134 1212.44 C 657.035 1212.87 657.633 1213.75 657.697 1214.75 C 657.761 1215.74 657.281 1216.69 656.442 1217.23 C 655.191 1218.03 653.527 1217.69 652.691 1216.46 C 651.856 1215.23 652.153 1213.56 653.362 1212.69 z" fill="rgb(42,40,40)" transform="translate(0,0)"></path>
<path d="M 1350.18 447.765 C 1373.65 408.784 1472.73 409.042 1498.88 447.158 C 1499.53 456.764 1499.67 466.249 1499.87 475.868 L 1501.6 475.88 C 1510.79 475.961 1559.09 475.516 1563.29 482.301 C 1581.43 511.588 1513.23 498.008 1502.21 496.642 C 1516.73 515.96 1520.37 543.598 1512.99 566.4 C 1508.02 581.751 1498.82 592.265 1487.59 603.35 C 1480.2 608.881 1474.89 611.541 1466.73 615.926 L 1466.62 645.137 L 1365.3 645.335 L 1365.17 610.413 C 1363.33 609.042 1359.6 606.09 1357.82 604.959 C 1315.84 568.064 1314.73 514.953 1362.17 482.376 L 1349.54 480.786 C 1349.41 469.123 1349.21 459.41 1350.18 447.765 z" fill="rgb(0,0,0)" transform="translate(0,0)"></path>
<path d="M 1416.52 427.405 C 1436.43 425.015 1478.41 430.899 1490.68 448.882 C 1491.87 458.753 1491.92 465.716 1492.03 475.605 L 1437.25 475.375 C 1410.99 475.118 1383.2 475.68 1357.16 474.659 C 1357 466.647 1357.13 458.916 1357.28 450.902 C 1369.31 432.777 1396.51 429.307 1416.52 427.405 z" fill="rgb(42,40,40)" transform="translate(0,0)"></path>
<path d="M 1435.58 482.503 C 1450.58 482.353 1547.89 483.293 1556.94 487.19 C 1559.36 490.162 1558.53 488.453 1558.92 492.734 C 1552.46 494.158 1441.27 484.518 1435.58 482.503 z" fill="rgb(42,40,40)" transform="translate(0,0)"></path>
<path d="M 1454.16 529.39 C 1460.04 526.722 1466.97 529.353 1469.59 535.252 C 1472.21 541.15 1469.53 548.057 1463.61 550.636 C 1457.76 553.187 1450.94 550.538 1448.34 544.702 C 1445.75 538.867 1448.35 532.03 1454.16 529.39 z" fill="rgb(249,249,249)" transform="translate(0,0)"></path>
<path d="M 1395.27 529.236 C 1401.24 527.046 1407.85 530.066 1410.11 536.006 C 1412.36 541.947 1409.41 548.595 1403.5 550.912 C 1399.61 552.433 1395.21 551.751 1391.97 549.125 C 1388.73 546.498 1387.15 542.334 1387.83 538.219 C 1388.52 534.104 1391.36 530.674 1395.27 529.236 z" fill="rgb(249,249,249)" transform="translate(0,0)"></path>
<metadata><recraft-signature>{"signed_by": "recraft", "signature_b64": "/++DkazN0pffRIo8OESdRgCAb2cUNzENq/scaPtrX09+/Xy6RFPX5QYIqEQw2rj9OwseRhAicHdJZc5C4mxXBw==", "signing_algo": "Ed25519", "generation_timestamp": 1777068833, "identifier": "a27d0b88-2e8f-49de-b865-94bdec9671c5"}</recraft-signature></metadata></svg>