<svg xmlns="http://www.w3.org/2000/svg" height="1024" preserveAspectRatio="none" style="display: block;" version="1.1" viewBox="0 0 2048 2048" width="1024">
<path d="M 0 0 L 2048 0 L 2048 2048 L 0 2048 L 0 0 z" fill="rgb(15,17,22)" transform="translate(0,0)"></path>
<path d="M 562.64 425.494 L 1228.33 425.851 L 1450.02 425.874 L 1519.26 425.861 C 1550.44 425.863 1576.02 422.615 1600.5 446.024 C 1624.21 468.692 1621.71 497.972 1621.72 527.961 L 1621.75 588.08 L 1621.87 803.995 L 1621.67 1522.9 C 1621.83 1553.77 1624.26 1576.98 1600.48 1601.29 C 1580.41 1621.81 1556.41 1620.87 1529.91 1620.91 L 1487.25 1620.9 L 784.462 1621.01 L 578.766 1620.76 L 521.556 1620.77 C 493.784 1620.91 469.762 1623.7 447.534 1602.5 C 431.768 1587.46 426.148 1571.25 425.798 1549.61 C 425.051 1462.23 425.042 1374.84 425.769 1287.46 L 425.77 862.405 L 425.396 617.461 L 425.382 533.086 C 425.446 520.556 425.103 499.545 426.457 487.492 C 428.26 471.947 435.218 457.455 446.22 446.327 C 468.39 423.835 492.365 425.746 521.068 425.784 C 534.926 425.775 548.783 425.678 562.64 425.494 z" fill="rgb(51,56,69)" transform="translate(0,0)"></path>
<path d="M 935.406 625.807 C 929.73 616.801 907.906 579.586 917.641 570.796 C 924.508 569.825 962.13 591.229 970.157 595.412 C 1006.02 577.634 1043.14 576.165 1079.19 594.59 C 1089.08 589.935 1121.04 572.552 1128.45 570.798 C 1140.74 575.446 1119.71 615.909 1113.92 624.173 C 1125.76 637.107 1134.67 655.811 1138.05 672.968 C 1141.5 690.53 1140.81 721.341 1130.86 736.775 C 1132.78 736.688 1136.05 736.331 1137.73 736.792 L 1366.61 736.965 L 1424.32 736.652 C 1435.97 736.566 1451.38 735.903 1462.48 737.743 C 1476.81 740.121 1491.57 748.048 1502.07 757.891 C 1518.04 772.865 1525.93 795.773 1526.03 817.451 C 1526.23 862.925 1526.2 908.67 1526.23 954.184 L 1526.37 1227.64 L 1526.61 1365.22 C 1526.67 1389.67 1527.67 1417.05 1525.38 1441.1 C 1523.97 1455.86 1514.97 1472.66 1504.62 1483.07 C 1486.46 1501.34 1466.63 1506.74 1441.46 1506.7 C 1382.92 1506.6 1324.31 1506.46 1265.79 1506.49 L 882.763 1506.69 L 688.96 1506.78 L 628.877 1506.87 C 597.417 1506.9 569.695 1509.21 545.395 1484.99 C 526.807 1466.47 522.052 1447.83 521.959 1422.19 L 522.069 996.034 L 522.053 872.889 C 522.053 854.207 521.167 817.09 523.824 800.542 C 526.407 784.747 533.896 770.166 545.23 758.864 C 570.405 733.827 595.792 736.78 628.609 736.792 L 688.58 736.829 L 919.96 736.793 L 920.052 736.167 C 914.902 732.894 912.059 721.93 910.945 715.96 C 905.038 684.289 913.107 649.264 935.406 625.807 z" fill="rgb(237,236,237)" transform="translate(0,0)"></path>
<path d="M 935.406 625.807 C 929.73 616.801 907.906 579.586 917.641 570.796 C 924.508 569.825 962.13 591.229 970.157 595.412 C 1006.02 577.634 1043.14 576.165 1079.19 594.59 C 1089.08 589.935 1121.04 572.552 1128.45 570.798 C 1140.74 575.446 1119.71 615.909 1113.92 624.173 C 1125.76 637.107 1134.67 655.811 1138.05 672.968 C 1141.5 690.53 1140.81 721.341 1130.86 736.775 C 1132.78 736.688 1136.05 736.331 1137.73 736.792 C 1130.59 737.452 1111.85 736.796 1103.85 736.764 C 1079.88 736.597 1055.9 736.623 1031.92 736.841 C 1029.27 739.406 1026.88 742.033 1024.19 744.64 C 1021.49 741.874 1019.2 738.999 1016.65 736.348 L 919.96 736.793 L 920.052 736.167 C 914.902 732.894 912.059 721.93 910.945 715.96 C 905.038 684.289 913.107 649.264 935.406 625.807 z" fill="rgb(162,108,85)" transform="translate(0,0)"></path>
<path d="M 935.406 625.807 C 929.73 616.801 907.906 579.586 917.641 570.796 C 924.508 569.825 962.13 591.229 970.157 595.412 C 1006.02 577.634 1043.14 576.165 1079.19 594.59 C 1089.08 589.935 1121.04 572.552 1128.45 570.798 C 1140.74 575.446 1119.71 615.909 1113.92 624.173 C 1125.76 637.107 1134.67 655.811 1138.05 672.968 C 1141.5 690.53 1140.81 721.341 1130.86 736.775 L 1128.61 735.65 C 1129.89 723.728 1135.76 713.946 1135.44 697.373 C 1134.89 668.248 1128.62 645.934 1107.57 625.114 C 1120.55 610.154 1124.91 594.803 1128.31 575.615 C 1114.39 580.792 1093.86 593.002 1078.31 599.666 C 1075.29 598.155 1072.19 596.781 1069.04 595.548 C 1032.57 581.176 1005.44 584.919 970.419 600.02 C 953.631 592.935 936.382 581.89 919.472 575.571 C 922.328 591.583 929.689 613.234 942.079 624.382 C 917.731 648.803 910.548 679.309 914.649 712.987 C 915.558 720.444 919.813 729.455 920.052 736.167 C 914.902 732.894 912.059 721.93 910.945 715.96 C 905.038 684.289 913.107 649.264 935.406 625.807 z" fill="rgb(15,17,22)" transform="translate(0,0)"></path>
<path d="M 1016.65 736.348 C 1011.1 727.5 1002.12 717.212 1003.01 705.952 C 1003.42 700.72 1042.46 702.805 1044 703.784 C 1053.87 710.053 1036.55 731.111 1031.92 736.841 C 1029.27 739.406 1026.88 742.033 1024.19 744.64 C 1021.49 741.874 1019.2 738.999 1016.65 736.348 z" fill="rgb(15,17,22)" transform="translate(0,0)"></path>
<path d="M 1005.97 707.011 L 1043.42 706.872 C 1039.84 716.533 1038.91 719.535 1033.11 728.271 C 1030.06 731.713 1027.72 734.012 1024.43 737.2 C 1013.42 726.499 1011.64 720.97 1005.97 707.011 z" fill="rgb(162,108,85)" transform="translate(0,0)"></path>
<path d="M 971.285 631.223 C 991.721 626.598 1012.05 639.357 1016.77 659.771 C 1021.5 680.185 1008.83 700.576 988.441 705.394 C 967.913 710.243 947.356 697.476 942.603 676.926 C 937.85 656.377 950.713 635.88 971.285 631.223 z" fill="rgb(15,17,22)" transform="translate(0,0)"></path>
<path d="M 977.772 633.313 C 996.953 632.328 1013.38 646.918 1014.66 666.082 C 1015.94 685.246 1001.61 701.893 982.465 703.472 C 969.816 704.515 957.586 698.661 950.465 688.154 C 943.345 677.647 942.44 664.118 948.098 652.756 C 953.755 641.394 965.096 633.963 977.772 633.313 z" fill="rgb(253,253,253)" transform="translate(0,0)"></path>
<path d="M 971.872 649.317 C 983.49 647.944 996.727 651.712 998.926 664.993 C 999.904 670.622 998.389 676.399 994.774 680.825 C 989.256 687.565 984.727 687.894 976.817 688.444 C 975.369 687.993 973.93 687.512 972.502 687.001 C 968.23 685.431 963.8 681.323 962.019 676.996 C 960.801 673.616 959.754 668.318 960.535 664.851 C 960.912 663.844 962.339 665.331 962.351 665.344 C 964.872 668.027 969.93 669.67 973.165 667.213 C 977.401 663.996 977.228 657.066 973.337 653.616 C 971.312 651.82 970.797 651.722 971.872 649.317 z" fill="rgb(15,17,22)" transform="translate(0,0)"></path>
<path d="M 1059.12 631.603 C 1072.31 628.321 1086.26 632.386 1095.63 642.248 C 1104.99 652.11 1108.34 666.245 1104.38 679.258 C 1100.43 692.271 1089.78 702.154 1076.51 705.133 C 1056.31 709.667 1036.23 697.108 1031.47 676.966 C 1026.7 656.824 1039.03 636.598 1059.12 631.603 z" fill="rgb(15,17,22)" transform="translate(0,0)"></path>
<path d="M 1063.96 633.629 C 1083.03 631.425 1100.31 645.021 1102.65 664.076 C 1105 683.132 1091.53 700.51 1072.49 702.995 C 1053.25 705.506 1035.65 691.866 1033.28 672.611 C 1030.91 653.355 1044.68 635.856 1063.96 633.629 z" fill="rgb(253,253,253)" transform="translate(0,0)"></path>
<path d="M 1064.82 649.045 C 1079.78 649.133 1089.44 656.201 1086.63 673.414 C 1084.42 686.962 1071.88 689.509 1059.67 686.539 C 1052.39 681.866 1049.15 678.383 1047.62 669.546 C 1047.06 666.307 1047.6 660.712 1051.48 666.288 C 1057.32 674.682 1070.06 663.35 1061.62 655.298 C 1057.59 651.447 1060.85 650.83 1064.82 649.045 z" fill="rgb(15,17,22)" transform="translate(0,0)"></path>
<path d="M 912.772 945.233 C 962.259 947.322 943.212 1028.21 894.35 998.444 C 894.402 1004.13 894.409 1009.81 894.37 1015.5 L 894.319 1029.54 L 879.063 1029.52 C 879.124 1002.16 878.834 974.198 879.305 946.918 C 883.426 946.943 887.954 946.904 892.045 947.071 C 895.756 947.223 891.952 953.385 893.618 952.942 C 898.724 951.584 903.555 946.532 909.533 945.885 C 910.45 945.786 911.828 945.43 912.772 945.233 z" fill="rgb(15,17,22)" transform="translate(0,0)"></path>
<path d="M 904.086 959.264 C 912.533 955.882 922.124 959.965 925.541 968.397 C 928.958 976.83 924.915 986.438 916.496 989.89 C 908.029 993.362 898.352 989.29 894.915 980.808 C 891.478 972.326 895.59 962.666 904.086 959.264 z" fill="rgb(237,236,237)" transform="translate(0,0)"></path>
<path d="M 830.614 945.268 C 881.945 944.464 865.486 1026 814.129 998.535 L 814.199 1010.93 L 814.168 1030.05 L 798.804 1030.08 L 799.098 946.989 C 824.658 945.995 810.68 949.49 815.576 951.949 C 814.539 952.051 827.289 946.091 830.614 945.268 z" fill="rgb(15,17,22)" transform="translate(0,0)"></path>
<path d="M 824.701 959.471 C 833.26 956.332 842.738 960.768 845.812 969.351 C 848.886 977.934 844.378 987.378 835.771 990.386 C 827.257 993.363 817.936 988.914 814.895 980.422 C 811.855 971.931 816.232 962.576 824.701 959.471 z" fill="rgb(237,236,237)" transform="translate(0,0)"></path>
<path d="M 624.027 914.204 C 650.644 911.772 665.022 921.2 675.776 945.182 C 669.853 945.231 663.929 945.19 658.008 945.058 C 653.118 937.952 649.915 932.889 640.992 930.244 C 633.284 927.965 624.984 928.864 617.943 932.741 C 611.294 936.472 606.44 942.738 604.491 950.108 C 602.134 958.811 603.041 967.452 607.633 975.297 C 611.432 981.781 617.685 986.457 624.978 988.268 C 633.807 990.513 641.023 988.463 648.565 983.957 C 653.591 979.385 654.267 978.527 658.046 972.998 C 663.861 972.944 669.677 972.927 675.492 972.947 C 669.434 987.784 660.336 999.266 643.999 1003.04 C 583.27 1017.05 563.343 928.752 624.027 914.204 z" fill="rgb(15,17,22)" transform="translate(0,0)"></path>
<path d="M 692.074 914.252 C 696.932 914.197 701.791 914.179 706.65 914.197 L 706.64 952.232 C 711.469 948.813 716.366 945.117 722.491 944.928 C 753.068 943.984 746.162 983.61 746.201 1002.98 L 731.725 1002.91 C 731.597 993.879 731.663 984.849 731.924 975.823 C 731.497 957.981 717.379 951.424 707.409 966.315 C 706.016 968.396 706.525 997.143 706.431 1002.98 L 691.685 1003 C 691.192 975.347 691.167 941.912 692.074 914.252 z" fill="rgb(15,17,22)" transform="translate(0,0)"></path>
<path d="M 999.234 946.481 C 1003.44 946.393 1007.86 946.287 1012.05 946.388 C 998.791 973.904 987.781 1002.1 974.758 1029.28 L 974.047 1030.79 L 958.022 1030.76 C 960.704 1024.27 971.042 1002.69 971.086 998.18 C 962.985 981.359 955.324 963.702 946.985 947.029 C 952.39 946.969 957.795 946.972 963.199 947.036 C 966.388 956.003 975.441 974.704 980.145 982.924 C 986.058 971.347 990.038 959.07 995.728 947.471 C 996.206 946.496 998.459 946.533 999.234 946.481 z" fill="rgb(15,17,22)" transform="translate(0,0)"></path>
<path d="M 764.147 946.81 C 769.332 946.565 773.741 946.604 778.924 946.645 C 778.887 965.067 779.207 985.164 778.57 1003.47 C 773.245 1003.75 769.587 1003.7 764.32 1003.5 C 764.021 984.846 764.105 965.478 764.147 946.81 z" fill="rgb(15,17,22)" transform="translate(0,0)"></path>
<path d="M 1393.38 803.566 C 1397.34 805.287 1418.18 825.484 1424.09 830.427 C 1433.13 822 1441.3 812.589 1450.54 804.549 C 1451.61 803.623 1453.99 806.115 1453.66 806.566 C 1446.32 816.578 1435.59 825.026 1427.26 834.888 C 1434.3 842.086 1453.6 857.955 1453.8 865.454 C 1448.81 863.604 1429.17 844.24 1423.71 839.244 C 1409.89 849.429 1403.54 859.828 1390.38 867.903 C 1398.19 854.28 1409.18 845.81 1420.58 834.829 C 1412 825.562 1402.63 817.463 1393.68 808.603 C 1392.62 807.559 1392.9 806.311 1393.14 805.033 L 1393.38 803.566 z" fill="rgb(198,196,195)" transform="translate(0,0)"></path>
<path d="M 895.864 1112.81 L 898.136 1113.41 C 900.432 1114 903.575 1114.68 904.082 1117.41 C 904.485 1123.12 901.594 1125.27 896.005 1126.85 C 891.457 1128.13 879.223 1124.67 883.809 1117.83 C 885.328 1115.57 887.078 1116.65 884.161 1113.44 C 882.869 1110.96 886.686 1108.87 885.36 1106.82 C 881.034 1100.12 886.48 1093.46 894.018 1094.25 C 895.417 1094.4 906.068 1093.91 904.628 1096.7 C 904.372 1097.2 903.915 1097.58 903.368 1097.73 C 896.505 1099.61 908.643 1103.15 894.727 1111.15 L 895.864 1112.81 z" fill="rgb(15,17,22)" transform="translate(0,0)"></path>
<path d="M 895.864 1112.81 C 884.72 1112.31 887.211 1107.55 894.727 1111.15 L 895.864 1112.81 z" fill="rgb(198,196,195)" transform="translate(0,0)"></path>
<path d="M 888.324 1116.2 C 895.787 1116.92 901.217 1115.05 898.966 1122.83 C 893.438 1123.12 885.036 1124.77 888.324 1116.2 z" fill="rgb(253,253,253)" transform="translate(0,0)"></path>
<path d="M 890.298 1098.41 C 892.245 1096.91 895.026 1097.24 896.569 1099.15 C 898.111 1101.06 897.854 1103.85 895.988 1105.44 C 894.737 1106.51 893.006 1106.81 891.465 1106.23 C 889.925 1105.66 888.819 1104.29 888.577 1102.66 C 888.334 1101.04 888.993 1099.41 890.298 1098.41 z" fill="rgb(237,236,237)" transform="translate(0,0)"></path>
<path d="M 783.121 1109.81 C 786.459 1102.98 789.768 1094.78 792.448 1087.66 C 792.467 1084.27 800.613 1084.04 800.578 1086.64 C 800.281 1089.63 801.368 1115.05 800.482 1116.1 C 794.16 1123.61 796.064 1094.53 796.068 1094.79 C 795.978 1094.42 795.827 1093.55 795.523 1093.36 C 793.21 1093.77 786.895 1115.34 783.747 1116.55 C 779.862 1118.04 772.655 1094.72 771.074 1091.43 C 770.915 1098.45 770.851 1105.48 770.88 1112.5 C 770.911 1116.23 769.192 1118.51 767.608 1116.3 C 766.011 1114.08 767.043 1086.63 767.19 1084.34 C 773.805 1085.86 772.703 1085.55 775.672 1092.59 C 777.537 1097.02 779.488 1101.87 781.481 1106.24 L 783.121 1109.81 z" fill="rgb(15,17,22)" transform="translate(0,0)"></path>
<path d="M 1100.92 1374.08 C 1107.53 1373.47 1111.87 1373.11 1115.82 1379.94 C 1116.91 1381.82 1113.99 1383.69 1112.49 1383.75 C 1107.73 1383.95 1106.45 1374.1 1101.23 1381.59 C 1099.38 1384.86 1104.3 1386.12 1106.16 1386.62 C 1119.59 1390.22 1122.58 1399.25 1110.03 1406.87 C 1107.81 1406.91 1092.23 1407.05 1094.8 1396.99 C 1095.77 1393.18 1102.81 1395.87 1102.34 1400.66 C 1103.54 1402.21 1108.76 1401.41 1109.45 1400.03 C 1114.24 1390.4 1101.55 1393.75 1097.1 1388.94 C 1092.06 1383.52 1095.98 1378.35 1100.92 1374.08 z" fill="rgb(241,121,70)" transform="translate(0,0)"></path>
<path d="M 1410.72 1369.46 C 1417.6 1370.77 1433.51 1388.81 1437.46 1394.75 C 1429.77 1402.98 1422.37 1409.77 1414.75 1418.05 C 1409.47 1420.31 1406.59 1411.42 1414.28 1407.81 C 1418.03 1406.05 1426.14 1396.99 1428.74 1393.18 C 1422.78 1387.33 1416.16 1382.03 1410.58 1375.97 C 1409.26 1374.54 1410.33 1371.26 1410.72 1369.46 z" fill="rgb(241,121,70)" transform="translate(0,0)"></path>
<path d="M 671.403 820.993 C 673.508 820.831 687.452 820.043 687.996 821.583 C 687.343 822.83 684.827 823.557 684.779 823.959 C 684.445 826.743 684.781 830.581 684.659 833.676 C 674.357 834.237 675.441 833.577 665.377 835.84 C 672.376 837.863 678.283 837.884 684.196 839.726 C 692.391 852.291 676.388 850.942 668.231 850.954 C 668.938 841.559 667.059 828.488 671.403 820.993 z" fill="rgb(51,56,69)" transform="translate(0,0)"></path>
<path d="M 672.121 822.91 C 681.471 823.055 681.887 821.83 681.807 831.977 C 671.274 831.964 671.739 833.498 672.121 822.91 z" fill="rgb(253,253,253)" transform="translate(0,0)"></path>
<path d="M 670.859 840.805 C 678.495 840.784 682.668 838.602 684.011 846.81 C 675.502 849.451 672.458 850.855 671.153 842.606 L 670.859 840.805 z" fill="rgb(253,253,253)" transform="translate(0,0)"></path>
<path d="M 1235.58 1384.53 C 1239.52 1382.82 1244.07 1383.45 1247.41 1386.14 C 1250.75 1388.83 1252.32 1393.15 1251.49 1397.36 C 1250.66 1401.57 1247.56 1404.97 1243.45 1406.19 C 1237.59 1407.93 1231.39 1404.81 1229.31 1399.07 C 1227.22 1393.32 1229.97 1386.95 1235.58 1384.53 z" fill="rgb(241,121,70)" transform="translate(0,0)"></path>
<path d="M 1237.15 1389.82 C 1239.2 1388.81 1241.64 1389.05 1243.44 1390.43 C 1245.25 1391.82 1246.12 1394.11 1245.67 1396.35 C 1245.23 1398.58 1243.56 1400.37 1241.36 1400.96 C 1238.39 1401.77 1235.29 1400.18 1234.2 1397.3 C 1233.11 1394.42 1234.39 1391.18 1237.15 1389.82 z" fill="rgb(253,253,253)" transform="translate(0,0)"></path>
<path d="M 1281.98 1389.9 C 1289.1 1380.43 1303.74 1381.37 1301.85 1395.47 C 1301.1 1401.07 1304.76 1408.56 1296.95 1405.3 C 1293.83 1404.52 1285.95 1409.52 1281.87 1403.06 C 1280.26 1400.92 1281.77 1397.6 1282.97 1395.24 C 1282.12 1391.89 1280.62 1392.84 1281.98 1389.9 z" fill="rgb(241,121,70)" transform="translate(0,0)"></path>
<path d="M 1281.98 1389.9 C 1288.03 1395.15 1288.99 1386.24 1292.5 1387.82 C 1302.34 1392.22 1285.58 1394.13 1282.97 1395.24 C 1282.12 1391.89 1280.62 1392.84 1281.98 1389.9 z" fill="rgb(253,253,253)" transform="translate(0,0)"></path>
<path d="M 1293.14 1395.66 C 1298.39 1398.24 1292.83 1401.55 1290.24 1403.24 C 1286.09 1399.35 1285.41 1398.63 1291.38 1396.36 L 1293.14 1395.66 z" fill="rgb(237,236,237)" transform="translate(0,0)"></path>
<path d="M 801.188 810.576 C 805.512 813.951 801.996 834.217 803.526 840.376 C 803.57 840.555 802.589 841.369 802.349 841.532 C 800.784 841.138 801.584 839.637 800.035 838.833 C 796.327 838.994 797.842 843.871 786.941 840.954 C 782.41 835.872 780.369 832.063 783.381 825.362 C 787.247 816.761 800.309 823.294 800.348 823.279 C 800.764 822.759 801.057 812.193 801.188 810.576 z" fill="rgb(15,17,22)" transform="translate(0,0)"></path>
<path d="M 789.695 823.681 C 793.807 821.9 798.588 823.752 800.427 827.839 C 802.266 831.927 800.481 836.733 796.419 838.629 C 793.741 839.879 790.597 839.59 788.192 837.874 C 785.786 836.157 784.491 833.278 784.802 830.339 C 785.113 827.4 786.983 824.856 789.695 823.681 z" fill="rgb(237,236,237)" transform="translate(0,0)"></path>
<path d="M 649.562 820.04 C 651.453 820.296 663.876 821.292 664.068 821.581 C 663.978 824.256 657.405 821.299 658.593 825.966 C 661.07 835.692 655.595 834.91 648.034 834.987 C 646.801 834.666 644.846 837.68 645.891 838.112 C 655.056 841.902 656.223 834.482 661.883 844.463 C 660.127 847.106 658.516 850.25 655.015 850.733 C 650.869 851.305 643.294 851.384 642.311 845.96 C 641.696 844.683 644.704 841.828 644.505 841.51 C 642.61 838.476 640.651 836.933 645.023 834.106 C 647.579 832.453 642.206 829.904 643.782 825.999 C 645.184 822.523 646.06 822.221 649.562 820.04 z" fill="rgb(15,17,22)" transform="translate(0,0)"></path>
<path d="M 648.516 823.756 C 650.04 822.517 652.131 822.239 653.926 823.037 C 655.72 823.835 656.915 825.573 657.016 827.534 C 657.118 829.496 656.109 831.348 654.406 832.326 C 652.049 833.681 649.048 832.998 647.508 830.758 C 645.969 828.518 646.407 825.471 648.516 823.756 z" fill="rgb(237,236,237)" transform="translate(0,0)"></path>
<path d="M 646.492 841.32 C 653.703 841.358 659.783 839.426 656.538 848.455 C 649.227 848.535 644.317 849.967 646.492 841.32 z" fill="rgb(253,253,253)" transform="translate(0,0)"></path>
<path d="M 1064.46 1160.68 C 1070.11 1158.11 1076.77 1160.64 1079.29 1166.32 C 1081.81 1172 1079.22 1178.64 1073.52 1181.1 C 1067.89 1183.54 1061.35 1180.98 1058.87 1175.38 C 1056.38 1169.78 1058.88 1163.22 1064.46 1160.68 z" fill="rgb(15,17,22)" transform="translate(0,0)"></path>
<path d="M 1065.89 1162.74 C 1077.16 1163.85 1078.66 1171.52 1071.26 1179.1 C 1060.13 1177.97 1060.07 1170.6 1065.89 1162.74 z" fill="rgb(237,236,237)" transform="translate(0,0)"></path>
<path d="M 602.227 1148.29 C 602.499 1148.38 604.626 1148.93 604.796 1149.28 C 609.472 1158.95 613.341 1170.24 616.981 1180.4 C 617.067 1181.49 615.574 1182.22 614.848 1181.79 C 609.281 1178.53 613.904 1173.28 606.247 1173.08 C 603.908 1173.16 600.688 1173.11 598.401 1173.3 C 594.186 1173.63 596.571 1182.54 590.989 1181.86 C 590.303 1181.78 589.038 1181.11 589.4 1180.32 C 594.126 1170.03 596.936 1158.26 602.227 1148.29 z" fill="rgb(15,17,22)" transform="translate(0,0)"></path>
<path d="M 602.773 1156.71 C 604.904 1158.79 609.456 1167.47 606.724 1170.19 C 595.572 1169.35 597.833 1169.34 602.773 1156.71 z" fill="rgb(253,253,253)" transform="translate(0,0)"></path>
<path d="M 857.382 1160.57 C 863.088 1158.36 869.506 1161.18 871.734 1166.88 C 873.962 1172.58 871.16 1179 865.469 1181.25 C 859.751 1183.51 853.289 1180.69 851.051 1174.96 C 848.812 1169.24 851.65 1162.79 857.382 1160.57 z" fill="rgb(15,17,22)" transform="translate(0,0)"></path>
<path d="M 859.242 1163.81 C 861.839 1163.07 864.634 1163.8 866.528 1165.73 C 868.423 1167.65 869.115 1170.46 868.333 1173.04 C 867.551 1175.63 865.42 1177.58 862.776 1178.13 C 858.886 1178.95 855.051 1176.53 854.099 1172.68 C 853.147 1168.82 855.421 1164.9 859.242 1163.81 z" fill="rgb(237,236,237)" transform="translate(0,0)"></path>
<path d="M 955.184 1160.54 C 960.73 1158.1 967.21 1160.56 969.738 1166.07 C 972.265 1171.58 969.904 1178.09 964.436 1180.71 C 960.823 1182.43 956.56 1182.08 953.283 1179.78 C 950.006 1177.48 948.222 1173.59 948.616 1169.6 C 949.009 1165.62 951.519 1162.16 955.184 1160.54 z" fill="rgb(15,17,22)" transform="translate(0,0)"></path>
<path d="M 957.503 1163.85 C 961.257 1162.68 965.264 1164.69 966.574 1168.39 C 967.884 1172.1 966.028 1176.18 962.373 1177.63 C 959.884 1178.61 957.055 1178.16 954.999 1176.45 C 952.943 1174.73 951.988 1172.03 952.51 1169.4 C 953.032 1166.78 954.948 1164.65 957.503 1163.85 z" fill="rgb(237,236,237)" transform="translate(0,0)"></path>
<path d="M 673.146 1160.52 C 678.844 1158.73 684.94 1161.78 686.909 1167.42 C 688.878 1173.07 686.006 1179.25 680.426 1181.39 C 676.664 1182.83 672.416 1182.11 669.339 1179.51 C 666.262 1176.91 664.842 1172.84 665.634 1168.89 C 666.426 1164.94 669.304 1161.74 673.146 1160.52 z" fill="rgb(15,17,22)" transform="translate(0,0)"></path>
<path d="M 674.482 1163.91 C 678.384 1162.87 682.404 1165.13 683.54 1169 C 684.677 1172.88 682.515 1176.95 678.669 1178.19 C 676.095 1179.01 673.275 1178.38 671.304 1176.53 C 669.333 1174.68 668.52 1171.9 669.18 1169.28 C 669.84 1166.66 671.869 1164.6 674.482 1163.91 z" fill="rgb(237,236,237)" transform="translate(0,0)"></path>
<path d="M 1146.17 1391.01 L 1144.65 1391.42 C 1139.13 1392.85 1139.21 1387.99 1142.8 1385.74 C 1146.75 1383.27 1156.02 1382.1 1158.86 1387.02 C 1160.9 1392.13 1159.9 1399.95 1159.72 1405.37 C 1159.67 1406.8 1156.3 1406.2 1155.41 1405.28 C 1152.27 1402.02 1148.99 1408.93 1144.07 1406.07 C 1142.74 1405.29 1141.15 1405.31 1140.42 1403.44 C 1137.57 1395.95 1143.36 1394.38 1148.95 1393.27 L 1146.17 1391.01 z" fill="rgb(241,121,70)" transform="translate(0,0)"></path>
<path d="M 1146.17 1391.01 C 1150.68 1383.58 1159.12 1392.12 1148.95 1393.27 L 1146.17 1391.01 z" fill="rgb(253,253,253)" transform="translate(0,0)"></path>
<path d="M 1150.27 1395.15 C 1156.14 1398.02 1153.96 1399.04 1150.05 1403.16 C 1143.63 1400.14 1145.04 1398.78 1150.27 1395.15 z" fill="rgb(253,253,253)" transform="translate(0,0)"></path>
<path d="M 606.438 1084.15 C 607.621 1084.45 610.745 1084.8 611.377 1086.19 C 615.547 1095.31 620.552 1105.52 622.189 1115.41 C 622.279 1115.96 620.065 1116.57 619.427 1116.11 C 615.995 1113.61 618.456 1107.68 613.034 1107.34 C 610.097 1107.35 606.709 1107.03 603.301 1107.58 C 600.679 1108 601.183 1119.51 595.483 1115.52 C 594.687 1114.97 598.403 1106.39 599.281 1104.01 C 601.626 1097.67 604.185 1090.82 606.438 1084.15 z" fill="rgb(15,17,22)" transform="translate(0,0)"></path>
<path d="M 608.394 1090.73 C 610.193 1092.54 615.793 1102 611.858 1104.26 C 601.187 1103.12 603.439 1102.8 608.394 1090.73 z" fill="rgb(253,253,253)" transform="translate(0,0)"></path>
<path d="M 794.94 1175.11 C 794.905 1175.77 794.87 1176.43 794.835 1177.08 C 794.375 1181.09 787.352 1182.74 783.991 1181.91 C 769.232 1178.22 773.436 1156.34 789.434 1160.3 C 793.492 1161.31 797.353 1167.96 795.977 1171.05 C 795.321 1172.52 782.58 1172.05 779.073 1172.88 C 783.457 1173.4 796.068 1171.43 794.94 1175.11 z" fill="rgb(15,17,22)" transform="translate(0,0)"></path>
<path d="M 779.073 1172.88 C 783.457 1173.4 796.068 1171.43 794.94 1175.11 C 787.192 1176.15 786.222 1184.29 779.073 1172.88 z" fill="rgb(253,253,253)" transform="translate(0,0)"></path>
<path d="M 782.934 1162.71 L 785.572 1162.91 C 788.771 1163.18 793.68 1165.83 789.762 1168.89 C 781.86 1168.73 777.102 1170.63 782.934 1162.71 z" fill="rgb(237,236,237)" transform="translate(0,0)"></path>
<path d="M 916.909 1094.03 C 924.017 1094.82 927.716 1095.43 928.946 1103.62 C 929.049 1104.3 928.928 1105.89 928.236 1106.23 C 926.097 1107.84 915.704 1106.51 914.895 1106.89 C 909.058 1109.58 915.843 1116.03 925.625 1111.46 C 927.64 1109.1 928.103 1111.94 927.819 1112.35 C 915.869 1129.42 897.099 1100.68 915.235 1094.67 L 916.909 1094.03 z" fill="rgb(15,17,22)" transform="translate(0,0)"></path>
<path d="M 914.189 1097.67 L 915.278 1097.68 C 919.687 1097.69 925.108 1097.5 923.641 1103.67 C 914.798 1103.47 911.824 1105.97 914.189 1097.67 z" fill="rgb(237,236,237)" transform="translate(0,0)"></path>
<path d="M 694.231 1159.39 C 700.777 1163.33 696.564 1162.21 703.467 1159.85 C 704.709 1159.43 708.156 1159.83 709.075 1160.86 C 711.332 1163.37 711.867 1162.77 714.552 1161.11 C 728.465 1155.54 727.897 1171.05 726.781 1180.06 C 726.621 1180.94 724.294 1181.61 723.858 1180.92 C 721.048 1176.41 725.827 1167.64 720.427 1164.08 C 718.032 1162.5 715.326 1163.68 713.002 1164.35 C 712.249 1167.9 713.175 1182.1 709.71 1181.55 C 705.886 1180.95 710.113 1165.87 706.7 1164.34 C 692.558 1157.99 700.826 1180.81 695.838 1181.75 C 692.253 1180.1 693.867 1163.11 694.231 1159.39 z" fill="rgb(15,17,22)" transform="translate(0,0)"></path>
<path d="M 681.595 1095.14 L 683.052 1095.05 C 699.261 1093.89 696.725 1100.29 696.242 1114.58 C 696.181 1116.38 695.545 1116.65 694.224 1116.43 C 686.783 1115.23 687.669 1118.82 679.134 1115.6 C 674.553 1101.57 683.202 1105.54 690.864 1103.62 C 695.055 1100.12 686.4 1095.32 683.678 1099.36 C 680.513 1104.07 676.254 1101.8 680.235 1096.79 C 680.688 1096.24 681.141 1095.69 681.595 1095.14 z" fill="rgb(15,17,22)" transform="translate(0,0)"></path>
<path d="M 682.978 1107.14 C 690.666 1107 694.275 1105.59 690.037 1113.67 C 684.46 1113.82 680.349 1114.09 682.978 1107.14 z" fill="rgb(253,253,253)" transform="translate(0,0)"></path>
<path d="M 814.737 1159.4 C 819.495 1160.77 819.033 1161.43 820.352 1166.41 L 823.262 1177.11 C 830.806 1152.56 829.533 1154.96 838.016 1176.1 C 838.867 1173.25 841.906 1161.6 844.485 1160.08 C 845.665 1159.39 847.173 1160.82 846.033 1163.21 C 839.131 1187.16 839.015 1189.13 830.102 1165.66 C 827.612 1174.92 824.381 1192.94 818.263 1172.96 C 816.728 1167.95 815.426 1164.65 814.737 1159.4 z" fill="rgb(15,17,22)" transform="translate(0,0)"></path>
<path d="M 865.72 1094.08 C 868.611 1094.18 874.788 1094.03 876.152 1097.43 C 878.079 1102.22 877.422 1110.82 877.065 1116.02 C 875.741 1118.53 874.16 1115.23 873.388 1115.14 C 871.293 1114.9 868.435 1117.51 865.545 1117.17 C 862.042 1116.76 861.646 1116.62 859.274 1114.01 L 858.101 1112.79 C 858.267 1112.06 858.421 1111.34 858.563 1110.6 C 859.459 1105.94 862.478 1103.74 866.485 1104.08 C 879.067 1105.76 870.516 1092.49 864.747 1099.42 C 860.35 1104.71 855.881 1099.34 865.72 1094.08 z" fill="rgb(15,17,22)" transform="translate(0,0)"></path>
<path d="M 864.676 1107 C 865.707 1107.01 866.737 1107.01 867.768 1107 C 874.54 1106.88 874.005 1107.99 870.442 1113.55 C 864.862 1113.26 860.731 1113.56 864.676 1107 z" fill="rgb(253,253,253)" transform="translate(0,0)"></path>
<path d="M 816.042 1094.19 C 818.684 1094.51 824.133 1094.76 825.096 1097.98 C 826.547 1102.83 826.366 1110.9 825.693 1115.9 C 824.844 1117.88 822.768 1115.21 822.395 1115.31 C 815.892 1117.01 813.675 1119.21 808.191 1113.99 L 806.914 1112.81 C 808.43 1095.81 830.212 1108.57 818.955 1097.85 C 817.224 1096.2 810.94 1100.21 811.637 1100.24 C 803.064 1099.85 813.033 1095.04 816.042 1094.19 z" fill="rgb(15,17,22)" transform="translate(0,0)"></path>
<path d="M 820.816 1106.28 C 824.063 1109.8 820.076 1112.55 816.759 1113.5 L 815.493 1113.85 L 813.609 1114.41 C 809.327 1106.38 813.829 1107.11 820.816 1106.28 z" fill="rgb(237,236,237)" transform="translate(0,0)"></path>
<path d="M 738.466 1160.02 C 743.029 1159.93 751.33 1159.23 751.448 1165.28 C 751.506 1168.27 754.205 1182.92 749.446 1181.23 C 741.808 1178.53 743.019 1185.88 733.315 1179.11 C 733.124 1167.82 736.955 1170.22 746.543 1168.37 C 748.606 1167.49 747.58 1165.95 746.839 1165.04 C 741.239 1158.13 737.957 1169.18 734.294 1166.51 C 734.295 1163.01 735.91 1162.12 738.466 1160.02 z" fill="rgb(15,17,22)" transform="translate(0,0)"></path>
<path d="M 740.153 1171.73 C 745.11 1171.95 750.953 1171.29 745.341 1178 L 744.346 1179.25 C 738.415 1178.24 734.07 1177.13 740.153 1171.73 z" fill="rgb(237,236,237)" transform="translate(0,0)"></path>
<path d="M 1122.14 1159.14 C 1132.91 1161.45 1130.44 1163.61 1130.98 1174.61 C 1130.54 1175.91 1132.26 1183.23 1128.5 1181.15 C 1122.21 1177.68 1119.11 1186.78 1112.04 1178.15 L 1111.06 1177.01 C 1118.62 1163.91 1129.54 1171.77 1125.49 1163.99 C 1122.48 1158.2 1113.1 1173.07 1114.16 1163.55 C 1114.37 1161.69 1119.12 1159.99 1120.34 1159.66 L 1122.14 1159.14 z" fill="rgb(15,17,22)" transform="translate(0,0)"></path>
<path d="M 1118.03 1172.2 C 1125.23 1171.57 1128.79 1169.62 1124.93 1177.41 C 1119.12 1178.38 1115.14 1179.66 1118.03 1172.2 z" fill="rgb(237,236,237)" transform="translate(0,0)"></path>
<path d="M 1340.6 1397.47 C 1341.92 1394.23 1344.3 1386.45 1346.22 1384.48 C 1346.19 1384.52 1353.15 1382.39 1351.1 1386.93 C 1348.86 1391.81 1346.77 1396.74 1344.8 1401.73 C 1343.3 1406.4 1341.43 1414.85 1336.12 1416.09 C 1334.16 1415.3 1334.5 1413.73 1335.21 1412.01 L 1337.11 1407.48 L 1337.77 1405.83 C 1336.62 1402.82 1329.64 1385.44 1329.35 1384.19 C 1340.16 1384.25 1335.98 1385.72 1340.6 1397.47 z" fill="rgb(241,121,70)" transform="translate(0,0)"></path>
<path d="M 996.979 1175.85 C 997.799 1173.15 1000.75 1161.99 1002.28 1160.67 C 1006.57 1156.99 1004.17 1164.6 1003.99 1165.22 C 997.633 1187.82 996.508 1187.16 989.727 1165.88 L 989.396 1166.91 C 988.667 1169.11 986.106 1179.01 985.314 1180.09 C 979.144 1188.52 974.969 1161.52 974.771 1159.37 C 981.199 1161.22 979.893 1166.98 981.855 1173.86 L 982.838 1177.22 C 989.885 1150.54 989.94 1158.1 996.979 1175.85 z" fill="rgb(15,17,22)" transform="translate(0,0)"></path>
<path d="M 769.892 915.36 C 774.757 914.4 779.486 917.542 780.485 922.399 C 781.484 927.255 778.38 932.009 773.532 933.048 C 768.628 934.098 763.808 930.95 762.797 926.038 C 761.787 921.126 764.972 916.331 769.892 915.36 z" fill="rgb(15,17,22)" transform="translate(0,0)"></path>
<path d="M 1261.47 1384.12 L 1262.98 1383.97 C 1266.62 1383.59 1270.5 1383.05 1273.77 1385.29 C 1275.05 1385.64 1277.76 1390.5 1275.97 1391.46 C 1269.69 1394.84 1271.23 1386.09 1266.54 1387.13 C 1260.53 1388.46 1259.01 1397.57 1263.97 1400.89 C 1265.52 1401.93 1266.6 1401.98 1268.37 1401.62 C 1269.11 1401.15 1274.44 1397.1 1275.29 1398.66 C 1279.48 1406.36 1261.98 1409.52 1257.71 1402.59 C 1252.86 1394.7 1254.85 1389.69 1261.47 1384.12 z" fill="rgb(241,121,70)" transform="translate(0,0)"></path>
<path d="M 697.579 820.903 C 702.113 820.858 711.637 819.858 711.224 830.583 C 711.094 833.972 695.392 830.721 694.975 832.34 C 693.55 837.877 699.838 839.259 704.161 839.118 C 716.037 831.62 709.45 842.534 701.259 841.508 C 688.791 839.945 688.979 828.32 697.579 820.903 z" fill="rgb(15,17,22)" transform="translate(0,0)"></path>
<path d="M 698.293 822.796 C 702.047 822.846 711.611 825.049 706.772 829.897 C 700.742 829.804 690.93 832.121 697.17 824.247 L 698.293 822.796 z" fill="rgb(237,236,237)" transform="translate(0,0)"></path>
<path d="M 898.753 1147.21 C 904.693 1149.97 902.145 1161.61 902.33 1168.65 C 911.067 1159.34 921.478 1153.43 906.85 1169.05 C 910.176 1172.75 912.579 1175.66 915.698 1179.5 C 916.822 1180.62 916.914 1181.79 915.028 1181.69 C 910.333 1181.33 909.004 1175.64 905.811 1173.07 C 901.426 1169.51 902.989 1178.97 901.819 1180.79 C 900.683 1182.57 898.565 1180.7 898.552 1180.59 C 897.81 1174.12 897.981 1152.6 898.753 1147.21 z" fill="rgb(15,17,22)" transform="translate(0,0)"></path>
<path d="M 846.514 821.113 C 852.081 820.695 858.981 819.372 860.538 826.615 C 860.876 828.189 861.61 841.067 859.568 841.548 C 853.272 837.913 853.73 843.412 843.309 839.852 C 842.998 834.337 844.366 829.722 850.476 829.975 C 862.212 830.46 857.809 821.883 850.323 822.68 C 846.852 823.049 848.373 827.736 844.512 827.197 C 843.687 824.739 845.147 823.065 846.514 821.113 z" fill="rgb(15,17,22)" transform="translate(0,0)"></path>
<path d="M 847.855 832.173 C 855.35 831.867 860.332 830.199 854.912 839.246 C 848.981 839.012 843.31 839.597 847.855 832.173 z" fill="rgb(253,253,253)" transform="translate(0,0)"></path>
<path d="M 727.132 1084.1 C 727.294 1084.15 730.36 1084.97 730.422 1085.31 C 731.488 1091.25 730.979 1099.93 731.05 1106.1 C 733.055 1103.85 739.331 1095.87 741.107 1095.35 C 750.332 1092.69 737.468 1104.32 737.298 1104.5 C 739.294 1107.1 741.209 1109.77 743.2 1112.39 C 743.297 1112.53 743.394 1112.68 743.491 1112.82 L 744.094 1113.68 C 744.565 1114.36 745.531 1116.56 744.035 1116.79 C 738.441 1116.82 737.927 1105.43 732.986 1108.49 C 729.37 1110.72 732.476 1118.26 727.989 1116.53 C 726.374 1115.9 727.032 1104.37 727.018 1102.5 C 726.971 1096.49 726.998 1090.16 727.132 1084.1 z" fill="rgb(15,17,22)" transform="translate(0,0)"></path>
<path d="M 763.008 821.024 C 767.722 820.942 776.324 820.191 776.225 830.568 C 776.195 833.769 760.941 830.507 760.615 832.238 C 759.577 837.758 764.216 840.044 769.444 838.976 C 779.255 832.764 774.76 841.671 767.001 841.87 C 764.534 841.941 762.146 840.993 760.399 839.25 C 754.102 833.013 757.185 825.906 763.008 821.024 z" fill="rgb(15,17,22)" transform="translate(0,0)"></path>
<path d="M 764.163 822.674 C 767.414 822.903 774.108 824.059 772.945 828.895 C 771.963 829.625 772.026 829.5 770.751 829.588 C 764.283 829.393 756.413 831.492 762.993 824.046 L 764.163 822.674 z" fill="rgb(237,236,237)" transform="translate(0,0)"></path>
<path d="M 1124.81 1378.32 C 1126.03 1378.45 1128.43 1378.33 1129.4 1379.24 C 1130.53 1380.69 1129.27 1382.9 1130.77 1384.31 C 1131.91 1385.46 1136.77 1384.14 1137.34 1385.45 C 1139.94 1391.42 1129.96 1386.86 1130.06 1390.97 C 1130.1 1393.29 1129.3 1398.48 1130.93 1400.5 C 1131.4 1401.09 1136.53 1401.66 1138.15 1402.25 C 1135.38 1405.46 1133.94 1407.26 1129.03 1405.8 C 1121.91 1403.31 1125.31 1394.92 1123.9 1389.61 C 1123.69 1388.84 1118.87 1389.24 1120.26 1386.1 C 1121.03 1384.36 1124.74 1385.89 1124.61 1382.82 C 1124.55 1381.29 1124.69 1379.79 1124.81 1378.32 z" fill="rgb(241,121,70)" transform="translate(0,0)"></path>
<path d="M 842.774 1094.03 C 846.248 1094.6 849.215 1094.72 851.467 1097.91 C 852.764 1099.75 855.044 1119.37 850.183 1116.56 C 846.965 1114.7 850.417 1104.72 848.276 1100.96 C 846.695 1098.17 844.849 1097.98 841.862 1097.16 C 841.431 1097.63 840.991 1098.09 840.544 1098.55 C 833.447 1105.73 842.323 1117.93 834.532 1116.62 C 832.696 1116.32 831.242 1089.99 836.251 1095.47 C 838.581 1098.01 838.751 1096.03 842.774 1094.03 z" fill="rgb(15,17,22)" transform="translate(0,0)"></path>
<path d="M 597.012 810.021 C 611.886 810.623 610.37 819.284 606.774 817.182 L 607.096 817.398 C 604.531 815.479 600.251 810.854 596.994 813.209 C 589.768 818.492 593.269 824.004 601.521 824.809 C 611.851 825.817 613.591 838.423 602.333 841.482 L 600.645 841.981 C 597.241 841.019 594.205 840.689 591.185 838.743 C 589.357 838.225 588.044 834.584 589.985 833.572 C 592.887 832.06 592.611 837.72 595.618 838.685 C 598.546 840.104 605.913 839.078 606.92 835.053 C 609.441 825.877 591.966 827.191 590.253 821.992 C 587.967 815.055 592.527 812.208 597.012 810.021 z" fill="rgb(51,56,69)" transform="translate(0,0)"></path>
<path d="M 706.699 1095.01 C 722.336 1094.05 722.28 1103.27 715.83 1100.18 C 714.172 1099.39 710.795 1095.43 708.057 1099.93 C 706.437 1102.6 718.443 1104.7 719.145 1107.46 C 721.596 1112.16 719.39 1114.64 715.431 1117.41 C 713.152 1117.22 698.699 1116.24 703.849 1109.59 C 706.624 1108.38 707.874 1114.46 711.505 1113.69 C 712.398 1114.02 717.159 1112.23 715.936 1110.53 C 712.711 1106.04 699.594 1106.39 705.134 1097.16 C 704.718 1097.85 706.732 1094.96 706.699 1095.01 z" fill="rgb(15,17,22)" transform="translate(0,0)"></path>
<path d="M 1189.99 1377.16 C 1199.3 1380.33 1188.47 1384.87 1198.01 1385.09 C 1200.42 1386.14 1198.39 1389.24 1196.42 1388.99 C 1191.49 1388.38 1193.38 1398.98 1193.79 1401.03 C 1194.24 1403.32 1198.64 1400.63 1198.55 1405.34 C 1196.32 1406.36 1194.32 1407.54 1191.95 1406.15 C 1186.1 1402.75 1189.05 1395.29 1187.88 1389.99 C 1187.42 1388.64 1184.26 1389.64 1184.07 1388.13 C 1183.66 1384.86 1184.55 1384.58 1187 1384.3 C 1188.08 1384.18 1189.5 1378.54 1189.99 1377.16 z" fill="rgb(241,121,70)" transform="translate(0,0)"></path>
<path d="M 1159.6 1159.31 C 1166.74 1160.71 1166.68 1168.95 1169.86 1176.27 L 1170.33 1175.21 C 1171.12 1173.45 1176.36 1156.01 1179.33 1160.41 C 1180.14 1161.62 1177.13 1167.81 1176.29 1170.02 L 1175.43 1172.25 C 1173.23 1177.84 1170.57 1185.3 1167.73 1190.39 C 1167.16 1191.42 1162.93 1192.46 1164.89 1187.49 L 1167.48 1181.08 C 1164.78 1173.92 1161.87 1166.56 1159.6 1159.31 z" fill="rgb(15,17,22)" transform="translate(0,0)"></path>
<path d="M 638.852 1159.32 C 644.424 1162.2 641.239 1164.15 641.914 1170.98 C 641.308 1175.41 643.554 1185.72 637.392 1180.28 C 636.999 1179.94 623.914 1187.5 623.117 1172.25 C 623.126 1170.44 622.879 1163.83 623.147 1162.43 C 623.291 1161.68 623.778 1161.05 624.461 1160.71 C 629.145 1158.39 625.612 1172.65 627.778 1176.02 C 630.713 1180.58 637.506 1178 637.823 1173.02 C 638.128 1168.24 637.657 1164.47 638.852 1159.32 z" fill="rgb(15,17,22)" transform="translate(0,0)"></path>
<path d="M 1017 1158.97 C 1019.85 1159.56 1022.86 1159.84 1024.88 1162.15 C 1025.4 1162.63 1026.76 1164.47 1025.44 1164.97 C 1022.38 1166.11 1019.83 1161.98 1016.62 1163.19 C 1015.84 1163.49 1013.8 1165.24 1014.43 1166.12 C 1016.14 1168.4 1019.76 1168.57 1022.43 1169.29 C 1025.88 1170.22 1028.34 1173.54 1026.8 1177.1 C 1025.36 1180.42 1021.5 1181.28 1018.34 1182.44 C 1015.37 1181.55 1006.78 1178.64 1011.12 1175.1 C 1013.91 1176.32 1019.53 1181.21 1022.55 1176.36 C 1025.34 1171.9 1012.7 1172.15 1011.11 1168.36 C 1009.28 1164.03 1011.26 1161.25 1015.28 1159.71 L 1017 1158.97 z" fill="rgb(15,17,22)" transform="translate(0,0)"></path>
<path d="M 653.052 1085.45 C 655.937 1085.1 678.564 1083.68 677.75 1086.54 C 676.514 1090.87 665.992 1083.43 668.113 1094.43 C 668.194 1094.85 668.139 1106.73 668.131 1108.25 C 668.123 1110.76 669.153 1116.83 665.61 1116.98 C 661.432 1114.52 665.545 1092.81 663.456 1088.93 C 662.059 1086.34 657.286 1091.16 653.052 1085.45 z" fill="rgb(15,17,22)" transform="translate(0,0)"></path>
<path d="M 1091.8 1160.08 C 1095.98 1159.84 1107.03 1159.37 1105.47 1167.02 C 1103.42 1169.16 1093.85 1155.72 1089.64 1168.43 C 1087.42 1175.12 1092.06 1178.02 1098.32 1179.33 C 1099.4 1178.26 1102.6 1174.46 1103.68 1174.28 C 1107.42 1173.68 1105.43 1177.62 1104.03 1178.99 C 1099.9 1183.03 1091.57 1183.42 1087.82 1178.56 C 1083.28 1172.67 1084.83 1165.6 1090.36 1161.25 L 1091.8 1160.08 z" fill="rgb(15,17,22)" transform="translate(0,0)"></path>
<path d="M 928.881 1148.37 C 930.772 1148.95 932.672 1149.43 934.325 1150.56 L 933.729 1150.25 C 935.183 1151.26 934.703 1150.68 935.381 1151.77 C 934.792 1155.36 929.259 1152.01 928.418 1156.27 C 928.059 1158.08 928.934 1160.21 930.959 1159.94 C 934.521 1159.49 936.029 1162.8 932.278 1163.46 C 932.01 1163.51 929.403 1163.55 929.267 1164.24 C 928.285 1169.18 928.827 1175.48 928.797 1180.68 C 927.618 1180.94 927.461 1181.01 926.471 1180.98 C 922.565 1179.58 926.116 1167.97 924.488 1164.78 C 923.635 1163.38 921.214 1164.06 920.099 1163.46 C 918.288 1162.5 919.631 1159.5 921.509 1159.84 C 922.339 1159.99 923.103 1159.97 923.836 1159.64 C 925.979 1155.15 922.964 1154.25 927.604 1149.69 L 928.881 1148.37 z" fill="rgb(15,17,22)" transform="translate(0,0)"></path>
<path d="M 1308.24 1373.28 C 1308.61 1373.37 1313.43 1374.25 1313.48 1375.1 C 1314 1385.18 1313.78 1396.5 1313.57 1406.72 C 1313.34 1406.68 1308.5 1405.96 1308.46 1405.38 C 1307.82 1395.31 1307.76 1383.42 1308.24 1373.28 z" fill="rgb(241,121,70)" transform="translate(0,0)"></path>
<path d="M 1320.67 1373.41 C 1321.11 1373.57 1324.78 1374.74 1324.84 1375.25 C 1325.99 1384.79 1326.07 1397.12 1325.71 1406.73 C 1324.97 1406.55 1320.64 1405.84 1320.6 1404.62 C 1320.37 1395.93 1318.99 1381.55 1320.67 1373.41 z" fill="rgb(241,121,70)" transform="translate(0,0)"></path>
<path d="M 1166.21 1383.3 C 1171.48 1384.2 1169.42 1383.6 1173.39 1386.43 C 1173.06 1386.5 1181.12 1379.15 1179.9 1388 C 1179.7 1389.44 1173.62 1389.26 1172.99 1391.96 C 1172.98 1392.02 1171.91 1393.98 1171.86 1394.06 C 1171.79 1396.27 1171.96 1403.48 1171.1 1404.39 C 1163.08 1412.86 1166.1 1385.62 1166.21 1383.3 z" fill="rgb(241,121,70)" transform="translate(0,0)"></path>
<path d="M 762.436 1152.45 C 762.537 1152.49 762.638 1152.54 762.739 1152.59 C 763.239 1152.84 763.74 1153.1 764.24 1153.36 C 764.781 1153.83 764.95 1154.77 764.886 1155.43 C 764.667 1157.67 764.316 1160.57 767.487 1160.44 C 768.465 1160.39 769.511 1160.55 770.526 1160.74 C 771.324 1160.85 772.005 1161.83 771.549 1162.58 C 770.75 1163.89 765.558 1162.9 765.291 1164.15 C 764.515 1167.76 764.647 1173.19 765.29 1176.82 C 765.384 1177.35 767.003 1178.09 767.482 1178.02 C 769.665 1178 770.559 1179.18 771.699 1180.55 C 757.955 1186.35 761.851 1172.09 760.535 1164.63 C 760.542 1164.66 752.442 1162.06 758.017 1160.35 C 762.526 1158.98 760.342 1157.7 762.436 1152.45 z" fill="rgb(15,17,22)" transform="translate(0,0)"></path>
<path d="M 1217.59 1373.42 C 1225.88 1374.77 1223.23 1374.37 1223.4 1384 C 1223.52 1391.22 1223.35 1398.63 1223.3 1405.86 C 1222.41 1405.89 1219.37 1406.11 1219.23 1405.5 C 1217.83 1399.46 1218.17 1379.53 1217.59 1373.42 z" fill="rgb(241,121,70)" transform="translate(0,0)"></path>
<path d="M 653.417 1154.3 C 658.054 1156.85 654.06 1160.58 658.012 1160.74 C 662.708 1160.93 661.259 1163.72 658.98 1163.72 C 654.076 1163.33 656.12 1168.51 655.749 1171.56 C 654.29 1183.58 662.961 1175.52 662.547 1181.07 C 659.269 1181.66 653.847 1183.05 652.336 1179.02 C 651.251 1177.19 652.196 1165.45 651.66 1165.15 C 643.179 1160.44 647.768 1163.04 651.91 1158.58 C 651.709 1158.8 653.154 1154.95 653.417 1154.3 z" fill="rgb(15,17,22)" transform="translate(0,0)"></path>
<path d="M 892.166 810.566 C 895.775 813.338 894.175 824.973 894.157 829.627 C 896.885 827.551 903.329 821.485 906.04 820.948 C 909.715 820.221 898.254 829.432 898.752 829.018 C 901.502 832.462 903.289 834.854 906.219 838.168 C 906.606 838.576 906.994 838.985 907.382 839.393 C 907.818 840.013 907.433 840.865 906.743 840.971 C 901.724 841.78 900.672 833.005 896.961 831.235 C 892.62 829.165 895.501 838.625 893.927 840.402 C 893.222 841.198 891.978 840.766 891.964 840.423 C 891.59 830.977 891.323 820.072 892.166 810.566 z" fill="rgb(15,17,22)" transform="translate(0,0)"></path>
<path d="M 629.34 1084.24 C 630.074 1084.42 633.452 1085.07 633.539 1085.6 C 634.665 1092.53 634.114 1110.51 633.967 1117.01 C 633.661 1116.95 630.212 1116.44 630.136 1115.82 C 628.868 1105.53 630.307 1094.88 629.34 1084.24 z" fill="rgb(15,17,22)" transform="translate(0,0)"></path>
<path d="M 720.246 820.822 C 722.987 820.717 732.84 820.248 732.434 825.768 C 731.142 827.687 725.85 820.384 722.578 823.065 C 712.264 831.516 745.431 827.984 731.12 840.826 L 729.933 841.941 C 727.536 841.985 713.795 840.214 718.25 836.165 C 720.265 835.919 724.035 840.584 727.973 839.392 C 729.874 839.682 731.888 835.53 730.877 834.551 C 725.022 828.886 713.235 833.896 720.246 820.822 z" fill="rgb(15,17,22)" transform="translate(0,0)"></path>
<path d="M 870.539 820.981 C 874.262 820.919 883.044 819.931 883.472 825.274 C 882.876 825.934 883.019 825.852 882.268 826.256 C 881.283 826.242 876.443 820.141 871.564 823.794 C 868.239 832.082 896.099 829.467 879.467 841.149 C 874.837 841.106 870.932 841.58 867.578 837.844 C 867.371 836.862 867.468 835.733 868.61 835.321 C 869.992 835.615 872.805 840.559 877.458 838.925 C 879.036 839.386 881.912 836.13 880.779 834.622 C 876.326 828.696 863.138 833.71 870.539 820.981 z" fill="rgb(15,17,22)" transform="translate(0,0)"></path>
<path d="M 940.689 1148.46 C 944.491 1151.82 943.413 1177.85 941.528 1182.37 C 935.508 1177.12 940.204 1165.57 938.735 1157.71 C 938.133 1154.48 938.847 1151.23 940.689 1148.46 z" fill="rgb(15,17,22)" transform="translate(0,0)"></path>
<path d="M 1150.09 1148.29 C 1150.39 1148.4 1153.24 1149.36 1153.29 1149.78 C 1154.45 1159.18 1153.93 1172.18 1153.59 1181.71 C 1153.09 1181.58 1150.45 1181.02 1150.38 1180.57 C 1149.38 1174.21 1149.77 1153.56 1150.09 1148.29 z" fill="rgb(15,17,22)" transform="translate(0,0)"></path>
<path d="M 1140.34 1148.82 C 1143.13 1151.95 1142.2 1177.91 1140.55 1182.55 C 1134.62 1176.79 1139.02 1166.75 1137.78 1158.68 C 1137.18 1154.76 1137.55 1151.55 1140.34 1148.82 z" fill="rgb(15,17,22)" transform="translate(0,0)"></path>
<path d="M 1048.68 1149.2 C 1049.17 1149.45 1051.7 1150.5 1051.7 1151.2 C 1051.69 1159.48 1053.18 1174.88 1050.93 1182.41 C 1051.02 1182.46 1048.41 1181.11 1048.37 1180.63 C 1047.73 1173.71 1047.66 1155.22 1048.68 1149.2 z" fill="rgb(15,17,22)" transform="translate(0,0)"></path>
<path d="M 935.668 1094.22 C 939.068 1095.65 939.262 1098.55 941.009 1096.61 C 942.455 1095 945.969 1093.5 947.278 1096.11 C 949.099 1099.75 942.338 1098.06 941.204 1100.22 C 939.349 1102.56 939.529 1102.86 939.59 1105.75 C 939.559 1108.64 939.947 1115.55 938.811 1116.34 C 932.485 1120.76 935.293 1097.05 935.668 1094.22 z" fill="rgb(15,17,22)" transform="translate(0,0)"></path>
<path d="M 879.485 1159.94 C 888.097 1164.32 883.562 1158.83 888.987 1160.05 C 895.882 1161.61 883.759 1163.77 882.993 1169.75 C 882.991 1171.72 883.461 1179.85 882.334 1180.76 C 876.825 1185.22 879.188 1162.45 879.485 1159.94 z" fill="rgb(15,17,22)" transform="translate(0,0)"></path>
<path d="M 744.416 814.597 C 747.202 817.105 745.114 817.403 746.671 820.301 C 747.484 821.814 752.579 820.124 752.448 822.612 C 751.202 823.416 745.883 822.802 746.172 824.597 C 747.478 832.707 742.17 837.826 750.394 839.415 L 752.175 839.835 C 749.293 842.882 741.598 841.682 743.316 835.767 C 743.815 834.05 743.392 826.54 743.278 824.456 C 743.198 822.971 736.833 823.805 740.229 821.446 C 740.752 821.176 741.275 820.906 741.798 820.636 C 743.433 819.667 743.817 816.382 744.416 814.597 z" fill="rgb(51,56,69)" transform="translate(0,0)"></path>
<path d="M 829.611 814.751 C 832.132 817.271 830.048 817.855 831.461 820.574 C 832.093 821.792 836.698 820.127 836.58 822.573 C 834.457 824.93 827.869 819.852 831.558 838.041 C 831.612 838.307 837.478 840.127 838.536 840.624 L 837.888 840.691 C 835.906 840.918 831.799 841.629 829.986 840.401 C 826.962 838.353 829.33 827.923 828.444 824.607 C 828.294 824.128 827.388 823.801 827 823.73 C 822.033 822.814 824.837 821.185 827.45 821.208 C 828.393 821.215 829.241 816.162 829.611 814.751 z" fill="rgb(15,17,22)" transform="translate(0,0)"></path>
<path d="M 618.673 820.408 C 622.565 825.501 619.533 829.386 620.744 835.561 C 622.105 842.506 629.072 835.76 630.544 839.408 C 615.807 847.704 617.098 829.484 618.673 820.408 z" fill="rgb(15,17,22)" transform="translate(0,0)"></path>
<path d="M 633.18 820.38 C 637.152 823.239 635.525 836.315 635.663 841.688 C 630.248 839.718 632.842 825.659 633.18 820.38 z" fill="rgb(15,17,22)" transform="translate(0,0)"></path>
<path d="M 368.424 1383.49 C 381.931 1383.4 395.439 1383.39 408.947 1383.45 L 408.889 1417.43 C 392.987 1417.01 375.931 1418.19 360.171 1416.75 C 356.257 1416.28 354.374 1414.7 352.497 1411.35 C 349.49 1405.98 348.516 1406.43 343.25 1406.33 C 328.876 1406.45 308.752 1407.08 294.145 1405.98 C 292.181 1405.83 291.545 1404.05 290.715 1402.62 C 292.184 1391.44 336.999 1395.85 348.039 1395.77 C 351.636 1389.98 352.58 1388.8 357.127 1383.9 L 368.424 1383.49 z" fill="rgb(241,121,70)" transform="translate(0,0)"></path>
<path d="M 378.49 898.5 L 408.527 898.481 L 408.261 932.879 C 393.501 932.729 372.578 934.943 358.75 931.354 C 353.962 930.111 351.706 925.294 349.748 921.15 L 333.5 921.179 C 325.933 921.188 299.595 921.592 293.509 920.321 C 290.354 917.854 291.448 919.383 290.172 915.522 L 291.252 913.653 C 299.307 909.022 336.475 910.825 348.232 910.896 C 355.258 894.987 362.935 898.231 378.49 898.5 z" fill="rgb(241,121,70)" transform="translate(0,0)"></path>
<path d="M 357.92 1222.04 C 374.879 1221.83 391.839 1221.79 408.797 1221.94 L 408.766 1255.25 C 391.391 1255.31 374.015 1255.27 356.641 1255.13 C 354.419 1252.52 351.768 1248.22 349.818 1245.26 C 337.996 1241.02 293.687 1251.04 288.931 1239.72 C 290.959 1236.16 297.182 1233.42 300.904 1233.49 C 316.849 1233.8 333.056 1233.93 348.985 1233.83 C 352.19 1228.56 353.289 1226.35 357.92 1222.04 z" fill="rgb(241,121,70)" transform="translate(0,0)"></path>
<path d="M 358.801 1114.41 C 375.2 1114.01 392.119 1114.19 408.562 1114.17 C 408.702 1125.21 408.503 1136.66 408.454 1147.74 C 393.476 1147.61 374.443 1148.72 359.991 1146.54 C 354.458 1145.7 352.383 1141.48 349.832 1137.01 C 340.441 1136.95 295.078 1139.2 290.574 1134.39 C 289.672 1130.84 289.37 1132.36 290.79 1129.6 C 298.871 1124.91 337.334 1126.72 349.278 1126.78 C 351.521 1120.07 352.329 1117.63 358.801 1114.41 z" fill="rgb(241,121,70)" transform="translate(0,0)"></path>
<path d="M 356.098 792.067 C 373.562 791.783 391.029 791.72 408.494 791.879 C 408.83 802.553 408.533 813.856 408.427 824.58 C 392.878 824.537 375.287 825.499 359.884 823.903 C 356.034 823.504 354.503 821.326 352.424 818.403 C 351.899 817.569 351.393 816.722 350.827 815.916 C 346.444 809.671 305.917 816.359 296.27 813.944 C 293.539 813.26 291.95 811.502 290.474 809.23 C 290.196 806.054 289.779 807.395 291.419 804.982 C 296.505 802.089 341.067 802.991 349.892 802.956 C 352.061 797.494 352.444 796.636 356.098 792.067 z" fill="rgb(241,121,70)" transform="translate(0,0)"></path>
<path d="M 362.85 1437.5 C 377.985 1437.11 393.715 1437.2 408.901 1437.07 L 408.851 1470.76 C 392.902 1470.74 375.576 1471.75 359.672 1470.14 C 352.889 1469.45 352.254 1463.92 348.711 1459.28 C 339.14 1460.47 297.024 1462.16 291.011 1456.31 C 290.468 1453.18 290.238 1454.68 292.119 1451.75 C 297.267 1448.45 339.687 1450 349.592 1450.07 C 352.329 1440.81 352.87 1438.17 362.85 1437.5 z" fill="rgb(241,121,70)" transform="translate(0,0)"></path>
<path d="M 356.809 1006.92 C 374.012 1006.75 391.217 1006.75 408.42 1006.91 C 408.876 1017.69 408.518 1029.74 408.425 1040.61 C 393.503 1040.59 375.935 1041.67 361.302 1039.85 C 355.555 1039.13 353.584 1036.11 350.614 1031.57 L 349.763 1029.7 C 342.126 1025.01 298.409 1033.51 291.33 1026.33 C 289.955 1022.93 289.819 1024.48 290.821 1021.54 C 296.756 1017.3 338.736 1019.04 348.926 1019.08 C 351.852 1013.3 352.491 1012.02 356.809 1006.92 z" fill="rgb(241,121,70)" transform="translate(0,0)"></path>
<path d="M 1638.71 899.028 C 1653.44 899.162 1675.11 896.863 1688.77 900.709 C 1693.67 902.087 1695.25 906.694 1696.89 910.98 C 1708 910.989 1749.62 908.103 1755.73 915.164 C 1756.04 918.596 1756.25 916.923 1754.71 920.302 C 1752.08 921.717 1748.52 921.301 1745.37 921.308 L 1696.22 921.401 C 1694.36 925.204 1692.09 928.577 1689.84 932.155 C 1674.6 933.21 1654.48 932.674 1638.87 932.645 L 1638.71 899.028 z" fill="rgb(241,121,70)" transform="translate(0,0)"></path>
<path d="M 1639.09 791.45 C 1653.45 791.438 1675.03 789.46 1688.46 793.205 C 1693 794.472 1694.97 799.704 1696.74 803.713 C 1706.88 803.786 1750.78 801.818 1756.29 806.678 C 1757.2 814.031 1750.83 813.638 1745.96 813.816 L 1696.74 813.945 C 1693.22 819.19 1692.23 820.372 1687.68 824.761 C 1671.83 825.101 1654.95 824.796 1639.02 824.783 C 1638.95 813.672 1638.97 802.561 1639.09 791.45 z" fill="rgb(241,121,70)" transform="translate(0,0)"></path>
<path d="M 1638.95 576.819 C 1654.43 577.019 1675.3 574.485 1690.24 578.881 C 1694.11 580.018 1696.01 585.393 1697.38 588.922 C 1707.19 588.506 1750.86 586.636 1756.26 590.956 C 1758.25 597.54 1752.85 598.275 1748.25 598.687 L 1697.75 598.796 C 1684.53 616.58 1673.5 608.794 1653.96 610.128 C 1649.21 610.453 1643.82 610.123 1638.99 610.132 L 1638.95 576.819 z" fill="rgb(241,121,70)" transform="translate(0,0)"></path>
<path d="M 358.207 1491.3 C 374.905 1491.2 391.604 1491.29 408.3 1491.58 L 408.194 1524.94 C 393.293 1524.86 372.092 1527.06 358.127 1523.52 C 352.998 1522.22 350.912 1517.17 348.816 1512.78 C 338.879 1514.07 297.694 1515.91 291.427 1509.89 C 291.048 1506.52 290.732 1508.17 293.211 1504.95 C 299.219 1502.24 339.851 1503.56 349.547 1503.52 C 351.994 1497.6 353.023 1494.99 358.207 1491.3 z" fill="rgb(241,121,70)" transform="translate(0,0)"></path>
<path d="M 359.453 1276.48 C 375.423 1276.04 392.17 1276.16 408.202 1276.05 L 408.17 1309.81 C 394.032 1309.64 377.325 1310.76 363.472 1309.24 C 355.774 1308.4 353.075 1304.65 349.143 1298.66 C 332.921 1298.15 316.3 1299.28 300.095 1298.56 C 295.53 1298.36 293.552 1298.09 290.892 1294.96 C 290.731 1291.64 290.269 1293.13 292.617 1290.43 C 301.438 1286.61 337.077 1288.28 349.302 1288.31 C 352.031 1282.18 352.783 1278.37 359.453 1276.48 z" fill="rgb(241,121,70)" transform="translate(0,0)"></path>
<path d="M 357.184 1061.04 C 373.757 1060.62 391.579 1060.94 408.247 1060.95 L 408.165 1094.32 C 392.539 1094.04 374.06 1096.12 358.773 1092.92 C 354.256 1091.97 351.971 1087.3 350.037 1083.46 C 343.788 1079.36 297.367 1088.2 290.664 1079.12 C 289.747 1068.49 339.647 1072.65 348.395 1072.65 C 351.745 1067.05 352.457 1065.83 357.184 1061.04 z" fill="rgb(241,121,70)" transform="translate(0,0)"></path>
<path d="M 356.851 684.114 C 373.788 683.747 391.598 684.039 408.601 684.063 C 408.65 695.026 408.623 705.989 408.518 716.951 C 393.329 716.841 375.214 718.429 360.383 716.371 C 354.663 715.577 352.797 712.115 349.988 707.592 C 344.482 701.594 295.957 712.583 290.761 701.147 C 293.558 692.009 339.932 695.62 348.922 697.065 C 351.539 691.662 352.709 688.606 356.851 684.114 z" fill="rgb(241,121,70)" transform="translate(0,0)"></path>
<path d="M 372.071 737.474 L 408.712 737.345 L 408.588 770.925 L 359.579 770.662 C 350.755 764.701 354.117 760.264 342.25 759.962 C 332.185 759.867 296.337 762.634 290.98 755.855 C 291.07 752.718 290.588 754.111 292.589 751.573 C 299.296 748.29 339.927 749.828 349.173 749.882 C 354.316 736.634 359.226 737.464 372.071 737.474 z" fill="rgb(241,121,70)" transform="translate(0,0)"></path>
<path d="M 358.855 845.071 C 375.322 844.848 391.792 844.92 408.256 845.289 C 408.66 856.09 408.356 868.009 408.302 878.894 C 393.884 878.871 376.044 880.092 361.979 878.342 C 355.25 877.506 353.025 873.382 349.715 868.065 C 341.355 864.164 303.785 870.465 293.103 865.734 C 290.34 862.415 290.839 864.183 290.648 860.576 C 297.785 853.318 337.822 861.011 349.105 856.335 C 349.358 856.23 352.953 848.924 358.855 845.071 z" fill="rgb(241,121,70)" transform="translate(0,0)"></path>
<path d="M 357.739 523.082 C 374.576 522.717 391.418 522.605 408.259 522.747 L 408.191 556.113 C 393.269 556.068 372.975 558.074 358.803 555.005 C 353.713 553.902 351.552 548.783 349.393 544.47 C 336.979 542.525 300.685 548.779 291.6 541.84 C 290.544 538.471 290.487 540.105 291.878 536.776 C 296.896 533.042 340.326 534.537 349.725 534.548 C 349.875 534.224 350.025 533.901 350.175 533.577 L 350.952 531.999 C 353.36 526.983 353.388 526.863 357.739 523.082 z" fill="rgb(241,121,70)" transform="translate(0,0)"></path>
<path d="M 1638.98 630.132 C 1653.46 630.297 1670.86 628.702 1684.87 631.053 C 1692.05 632.259 1695.15 636.314 1698.76 642.14 C 1707.69 642.273 1752.16 640.68 1755.73 644.468 C 1756.1 647.626 1756.47 648.188 1755.21 651.099 C 1752.12 652.807 1748.17 652.44 1744.51 652.495 L 1696.93 652.919 C 1692.97 658.477 1692.44 659.107 1686.84 663.215 C 1674.88 664.254 1651.95 663.621 1638.98 663.748 L 1638.98 630.132 z" fill="rgb(241,121,70)" transform="translate(0,0)"></path>
<path d="M 1638.82 1222.72 C 1652.67 1222.75 1668.27 1221.84 1681.94 1222.73 C 1690.93 1223.32 1694.1 1227.32 1698.9 1233.89 C 1710.74 1234.04 1748.74 1231.52 1755.82 1237.06 C 1756.96 1240.49 1756.98 1238.8 1755.53 1242.3 C 1752.79 1244.31 1750.7 1243.92 1747.25 1243.98 L 1697.62 1244.15 C 1693.9 1249.5 1692.79 1251.29 1687.78 1255.78 C 1672.08 1256.27 1654.72 1255.96 1638.89 1256.02 L 1638.82 1222.72 z" fill="rgb(241,121,70)" transform="translate(0,0)"></path>
<path d="M 1638.91 952.886 C 1655.85 952.726 1672.8 952.818 1689.74 953.16 C 1693.26 957.348 1694.95 960.42 1697.69 965.066 C 1709.32 965.242 1748.18 963.118 1755.23 968.274 C 1756.49 971.659 1756.44 969.911 1754.74 973.687 C 1752.31 975.748 1751.46 975.489 1748.25 975.878 C 1731.16 975.835 1714.07 975.89 1696.99 976.042 C 1694.28 979.767 1692.05 982.03 1688.93 985.316 C 1675.21 986.583 1653.33 985.981 1638.97 985.989 L 1638.91 952.886 z" fill="rgb(241,121,70)" transform="translate(0,0)"></path>
<path d="M 356.679 630.921 C 373.112 630.301 391.675 630.624 408.273 630.543 L 408.184 663.62 C 393.949 663.382 368.969 665.566 355.967 661.653 C 352.838 660.711 351.489 656.417 350.372 653.41 C 342.157 648.28 298.493 657.815 290.898 648.966 C 289.939 640.829 304.379 641.917 310.101 641.945 C 322.634 642.007 335.387 641.849 347.877 642.675 C 351.228 637.025 351.95 635.769 356.679 630.921 z" fill="rgb(241,121,70)" transform="translate(0,0)"></path>
<path d="M 1638.78 1060.91 C 1653.78 1061.06 1674.84 1058.95 1688.96 1062.38 C 1693.65 1063.51 1695.96 1068.09 1697.9 1072.13 C 1712.37 1072.43 1726.96 1072.17 1741.43 1072.5 C 1746.73 1072.63 1754.04 1072.65 1755.98 1078.24 L 1754.55 1081.14 C 1751.22 1083.12 1750.73 1082.43 1746.25 1082.59 L 1696.4 1082.63 C 1694.39 1087.77 1692.48 1092.6 1686.47 1093.52 C 1671.85 1095.77 1653.65 1094.51 1638.88 1094.38 L 1638.78 1060.91 z" fill="rgb(241,121,70)" transform="translate(0,0)"></path>
<path d="M 1640.48 1437.47 C 1654.64 1437.64 1676.38 1435.02 1689.07 1439.29 C 1693.83 1440.89 1695.32 1445.44 1696.77 1449.76 C 1706.98 1449.89 1751.95 1447.63 1757.17 1452.91 C 1757.05 1459.22 1749.66 1459.67 1745.09 1459.67 C 1729.03 1459.64 1712.96 1459.73 1696.9 1459.95 C 1694.07 1465.94 1690.98 1469.47 1684.15 1470.24 C 1669.7 1471.86 1653.21 1470.99 1638.65 1470.96 C 1638.59 1462.74 1638.01 1446.06 1639.02 1438.57 L 1640.48 1437.47 z" fill="rgb(241,121,70)" transform="translate(0,0)"></path>
<path d="M 1638.99 523.027 C 1653.72 523.161 1675.77 520.747 1689.46 524.58 C 1693.95 525.837 1695.85 530.941 1697.31 534.958 C 1708.23 534.817 1752.2 532.071 1757.28 538.781 C 1756.29 544.818 1748.66 544.871 1744.37 544.959 L 1697.11 544.875 C 1696.13 546.739 1693.8 550.841 1692.4 552.06 C 1684.11 559.239 1650.84 556.571 1639.03 556.497 L 1638.99 523.027 z" fill="rgb(241,121,70)" transform="translate(0,0)"></path>
<path d="M 1641.7 737.48 C 1655.3 737.481 1674.28 735.357 1686.84 738.741 C 1692.41 740.24 1694.83 744.999 1697 749.89 C 1709.29 749.977 1721.61 749.582 1733.91 749.617 C 1738.66 749.63 1762.62 747.485 1754.79 758.385 C 1750.97 760.224 1747.58 759.741 1743.25 759.719 C 1727.68 759.652 1712.11 759.736 1696.55 759.97 C 1695.59 761.69 1692.94 766.448 1691.71 767.432 C 1683.59 773.932 1650.17 771.204 1638.97 771.131 C 1638.88 763.828 1638.23 744.16 1639.61 738.422 L 1641.7 737.48 z" fill="rgb(241,121,70)" transform="translate(0,0)"></path>
<path d="M 1638.85 1383.72 C 1653.7 1384.02 1675.58 1381.59 1689.22 1385.68 C 1693.85 1387.07 1695.84 1391.91 1697.56 1396.03 C 1707.92 1395.89 1750.49 1393.67 1756.34 1398.57 C 1757.42 1405.22 1752 1405.56 1747.25 1405.91 L 1697.51 1406.08 C 1696.46 1407.63 1693.19 1412.49 1692.06 1413.3 C 1683.09 1419.67 1650.58 1417.08 1638.88 1417.03 L 1638.85 1383.72 z" fill="rgb(241,121,70)" transform="translate(0,0)"></path>
<path d="M 1638.95 1491.85 C 1652.99 1491.85 1669.75 1490.61 1683.44 1492.21 C 1691.04 1493.1 1693.87 1497.44 1697.87 1503.29 C 1707.48 1503.28 1754.81 1500.34 1756.77 1509.11 C 1754.39 1513.89 1751.49 1513.18 1746.85 1513.65 L 1696.86 1514.07 C 1685.76 1531.26 1675.65 1523.75 1657.14 1525.03 C 1651.52 1525.41 1644.73 1524.83 1638.98 1524.73 L 1638.95 1491.85 z" fill="rgb(241,121,70)" transform="translate(0,0)"></path>
<path d="M 1638.92 684.009 C 1653.05 684.248 1669.28 682.735 1683.03 684.442 C 1690.85 685.414 1693.18 690.019 1696.96 696.022 C 1707 695.996 1751.73 693.407 1756.65 699.322 C 1756.97 705.958 1750.75 705.832 1746.25 706.066 L 1697.45 706.192 C 1693.85 710.951 1691.69 713.547 1686.89 717.205 L 1638.96 717.635 L 1638.92 684.009 z" fill="rgb(241,121,70)" transform="translate(0,0)"></path>
<path d="M 356.174 953.065 C 373.51 952.868 390.847 952.849 408.184 953.008 L 408.12 986.074 C 392.907 985.871 373.706 987.624 359.022 985.058 C 354.249 984.224 352.388 980.472 350.088 976.552 C 345.028 971.463 297.11 980.014 290.657 972.002 C 290.543 961.634 339.14 965.349 348.785 965.264 C 351.272 960.069 352.964 957.703 356.174 953.065 z" fill="rgb(241,121,70)" transform="translate(0,0)"></path>
<path d="M 401.519 1330.5 C 404.153 1330.46 404.028 1330.45 406.542 1331.26 C 409.446 1336.33 408.041 1356.01 407.944 1363.36 C 391.412 1363.21 374.636 1363.38 358.083 1363.41 C 353.471 1358.87 352.952 1357.91 349.773 1352.34 L 311.087 1352.37 C 304.312 1352.49 296.022 1354.31 291.218 1349.41 C 290.65 1345.71 290.445 1347.45 291.85 1343.99 C 296.883 1340.91 339.808 1342.14 348.472 1342.09 C 351.747 1336.79 352.809 1335.56 356.969 1330.99 C 370.851 1330.22 387.427 1330.55 401.519 1330.5 z" fill="rgb(241,121,70)" transform="translate(0,0)"></path>
<path d="M 1638.77 844.806 C 1655.01 844.672 1671.24 844.752 1687.48 845.046 C 1692.74 849.449 1694.02 851.525 1696.73 857.801 C 1707.84 857.404 1748.75 855.076 1755.75 860.173 C 1757.15 863.403 1757 861.739 1755.89 865.356 C 1753.01 867.415 1753.44 866.742 1749.25 867.008 L 1696.87 866.989 C 1689.64 881.779 1678.83 878.183 1664.42 878.421 C 1655.96 878.56 1647.37 878.259 1638.89 878.229 L 1638.77 844.806 z" fill="rgb(241,121,70)" transform="translate(0,0)"></path>
<path d="M 356.633 576.98 C 373.965 576.633 391.302 576.609 408.635 576.909 C 408.747 587.729 408.672 598.55 408.409 609.367 C 393.786 609.674 374.058 610.986 359.804 608.7 C 354.933 607.919 353.38 604.451 351.217 600.455 L 350.462 599.097 C 342.238 594.382 297.764 603.276 290.908 595.032 C 291.179 584.988 339.58 588.884 348.687 588.984 C 351.253 582.864 351.849 581.52 356.633 576.98 z" fill="rgb(241,121,70)" transform="translate(0,0)"></path>
<path d="M 1638.84 1168.69 C 1653.99 1168.99 1672.44 1166.93 1686.86 1169.68 C 1692.87 1170.83 1695.04 1175.81 1697.63 1180.79 C 1708.98 1180.75 1747.71 1179.01 1755.1 1183.68 C 1756.36 1186.93 1756.31 1185.27 1754.81 1188.82 C 1751.8 1191.22 1752.72 1190.47 1748.25 1190.93 L 1696.91 1190.98 C 1693.46 1196.02 1690.94 1199.91 1684.53 1200.61 C 1670.01 1202.2 1653.56 1201.19 1638.94 1201.15 L 1638.84 1168.69 z" fill="rgb(241,121,70)" transform="translate(0,0)"></path>
<path d="M 1639.03 1007.12 L 1687.5 1007.23 C 1692.9 1010.95 1694.56 1013.65 1697.99 1018.96 C 1709.55 1018.85 1748.81 1016.73 1756.08 1022.03 C 1757.09 1025.42 1757.16 1023.73 1755.38 1027.23 C 1752.53 1029.31 1749.9 1028.82 1746.25 1028.84 L 1697.29 1028.92 C 1694.05 1035.12 1690.95 1038.59 1683.67 1039.18 C 1669.13 1040.36 1653.73 1039.48 1639.06 1039.74 L 1639.03 1007.12 z" fill="rgb(241,121,70)" transform="translate(0,0)"></path>
<path d="M 1638.87 1114.9 C 1654.01 1114.93 1675.39 1112.46 1690.04 1116.81 C 1693.85 1117.94 1695.41 1123.49 1696.58 1127.02 C 1707.84 1127.06 1749.56 1124.67 1755.87 1130.29 C 1756.64 1133.57 1756.66 1131.9 1755.2 1135.44 C 1751.8 1137.66 1752.04 1136.89 1747.23 1137.04 C 1730.26 1137.14 1713.29 1137.02 1696.33 1136.67 C 1693.33 1142.83 1690.4 1146.59 1683.1 1147.08 C 1668.69 1148.05 1653.39 1147.27 1638.92 1147.28 L 1638.87 1114.9 z" fill="rgb(241,121,70)" transform="translate(0,0)"></path>
<path d="M 1638.91 1330.86 C 1653.54 1330.83 1673.96 1329.02 1687.85 1331.97 C 1693.18 1333.11 1695.22 1337.54 1697.42 1342.01 C 1708.58 1342.2 1749.51 1340.29 1755.67 1345.4 C 1756.41 1348.76 1756.44 1347 1754.48 1350.79 C 1752.32 1352.61 1750.19 1352.24 1747.25 1352.32 L 1696.94 1352.53 C 1692.05 1362.34 1685.48 1363.58 1674.96 1363.44 C 1662.95 1363.29 1650.95 1363.06 1638.94 1363.02 L 1638.91 1330.86 z" fill="rgb(241,121,70)" transform="translate(0,0)"></path>
<path d="M 1639.12 1276.44 C 1653.21 1276.55 1677.02 1274.1 1689.79 1278.68 C 1693.97 1280.18 1695.31 1284.96 1696.56 1288.89 C 1711.28 1288.69 1726.13 1288.47 1740.86 1288.33 C 1746.16 1288.29 1754.51 1287.52 1756.59 1292.99 C 1754.35 1298.69 1752.49 1297.87 1747.25 1298.17 C 1730.64 1298.05 1714.03 1298.02 1697.43 1298.11 L 1696.28 1299.7 C 1692.56 1304.94 1690.29 1308.04 1683.59 1308.7 C 1669.38 1310.11 1653.34 1309.18 1639.05 1309.13 C 1639.02 1298.23 1639.04 1287.34 1639.12 1276.44 z" fill="rgb(241,121,70)" transform="translate(0,0)"></path>
<path d="M 1033.16 1636.36 C 1044.74 1636.31 1056.31 1636.38 1067.89 1636.58 C 1067.95 1650.89 1068.26 1666.18 1067.59 1680.38 C 1062.72 1685.23 1061.03 1686.24 1055.32 1689.93 C 1055.01 1704.2 1055.14 1718.94 1055.09 1733.25 C 1055.12 1736.62 1055.17 1736.9 1054.45 1740.36 C 1052.48 1742.84 1051.96 1743.99 1048.97 1745.02 L 1047.16 1743.82 C 1043.35 1735.24 1045.07 1700.71 1045.12 1689.47 C 1039.04 1685.98 1037.49 1684.6 1033.06 1679.12 C 1032.94 1664.87 1032.98 1650.61 1033.16 1636.36 z" fill="rgb(241,121,70)" transform="translate(0,0)"></path>
<path d="M 698.192 1636.47 C 709.726 1636.35 721.262 1636.41 732.794 1636.65 L 732.837 1679.42 C 729.04 1684.83 726.205 1686.59 720.959 1690.21 L 720.91 1734.25 C 721.016 1739.66 721.709 1740.62 717.188 1743.72 C 714.028 1743.76 715.453 1744.23 712.891 1741.94 C 709.149 1732.66 710.854 1701.34 711.017 1689.52 C 695.726 1682.43 697.632 1675.3 697.623 1659.6 C 697.619 1651.95 697.993 1644.13 698.192 1636.47 z" fill="rgb(241,121,70)" transform="translate(0,0)"></path>
<path d="M 1369 1636.25 L 1403.53 1636.3 C 1403.23 1649.92 1405.72 1668.01 1402.39 1680.39 C 1401.07 1685.29 1395.53 1687.46 1391.26 1689.36 L 1391.28 1727.75 C 1391.48 1732.79 1392.41 1738.59 1389.61 1742.57 C 1385.99 1743.86 1387.87 1743.67 1383.76 1742.66 C 1379.17 1737.63 1381.28 1698.33 1381.41 1688.72 C 1365.55 1681.85 1368.91 1679.78 1368.68 1663.26 C 1368.56 1654.34 1368.88 1645.18 1369 1636.25 z" fill="rgb(241,121,70)" transform="translate(0,0)"></path>
<path d="M 809.965 1636.43 C 821.295 1636.41 832.625 1636.58 843.95 1636.94 C 843.931 1649.45 845.612 1665.49 843.345 1677.43 C 842.086 1684.06 837.463 1686.32 832.007 1689.37 C 831.718 1703.99 831.541 1718.62 831.476 1733.25 C 831.525 1736.49 831.769 1737.78 830.583 1740.84 C 827.063 1744.04 828.994 1743.21 824.915 1744.17 L 823.24 1742.97 C 819.585 1735.08 821.133 1699.41 821.184 1688.99 C 807.25 1683.17 809.46 1672.68 809.448 1659.56 C 809.442 1651.89 809.788 1644.12 809.965 1636.43 z" fill="rgb(241,121,70)" transform="translate(0,0)"></path>
<path d="M 1145.61 1636.91 L 1179.97 1636.99 L 1179.83 1680.1 C 1176 1685.33 1174.11 1686.87 1168.34 1689.77 L 1168.22 1733.25 C 1168.47 1738.86 1169.38 1740.32 1164.83 1743.79 C 1161.36 1744.12 1162.87 1744.57 1160.15 1742.46 C 1155.85 1733.61 1157.46 1701.38 1157.49 1689.22 C 1151.73 1685.87 1149.53 1684.25 1145.58 1678.9 L 1145.61 1636.91 z" fill="rgb(241,121,70)" transform="translate(0,0)"></path>
<path d="M 1312.59 1636.36 L 1347.12 1636.44 C 1346.87 1649.51 1348.77 1666 1346.06 1678.3 C 1344.74 1684.32 1340.32 1686.56 1335.23 1689.07 L 1335.15 1733.25 C 1335.21 1736.4 1335.47 1737.78 1334.3 1740.75 C 1332.12 1742.91 1331.48 1744.01 1328.46 1744.44 L 1326.87 1743.16 C 1323.52 1735.24 1324.85 1699.52 1324.87 1689.25 C 1317.6 1686.03 1316.61 1684.73 1312.73 1677.76 L 1312.59 1636.36 z" fill="rgb(241,121,70)" transform="translate(0,0)"></path>
<path d="M 1089.3 1636.73 C 1100.55 1636.51 1112.83 1636.81 1124.17 1636.85 C 1123.95 1649.88 1126.27 1668.83 1122.63 1680.49 C 1121.13 1685.3 1115.74 1687.07 1111.41 1688.69 L 1111.29 1733.25 C 1111.4 1737.62 1108.97 1748.33 1103.28 1744.16 C 1099.75 1736.5 1101.64 1699.71 1101.78 1689.55 C 1083.52 1680.62 1089.21 1655.13 1089.3 1636.73 z" fill="rgb(241,121,70)" transform="translate(0,0)"></path>
<path d="M 1257.64 1636.93 L 1292 1636.93 C 1291.69 1650.08 1293.53 1665.49 1291.2 1677.95 C 1289.98 1684.47 1285.23 1686.66 1279.89 1689.64 L 1279.85 1733.25 C 1279.83 1735.69 1279.65 1737.01 1279.39 1739.4 C 1277.35 1742.4 1277.51 1742.43 1274.27 1744.45 L 1272.23 1743.81 C 1267.71 1736.59 1269.19 1700.32 1269.19 1689.17 C 1264.14 1685.88 1262.59 1684.62 1258.15 1680.64 C 1257.16 1667.71 1257.62 1650.25 1257.64 1636.93 z" fill="rgb(241,121,70)" transform="translate(0,0)"></path>
<path d="M 530.948 1636.91 L 565.156 1636.87 C 564.992 1650.1 566.771 1666.27 564.307 1678.86 C 563.178 1684.63 558.633 1686.89 553.919 1689.59 C 553.618 1703.81 553.458 1718.03 553.44 1732.25 C 553.432 1735.63 553.293 1736.28 552.735 1739.49 C 550.55 1742.39 550.675 1742.6 547.264 1744.16 L 545.267 1743.2 C 541.866 1736.71 543.079 1699.67 543.073 1690.28 C 536.582 1686.26 535.475 1685.26 531.077 1678.92 L 530.948 1636.91 z" fill="rgb(241,121,70)" transform="translate(0,0)"></path>
<path d="M 864.932 1636.31 C 876.462 1636.32 887.991 1636.42 899.519 1636.6 C 899.689 1651.48 899.573 1666.35 899.17 1681.22 C 894.57 1685.22 892.004 1686.55 886.821 1689.52 L 886.556 1733.25 C 886.647 1736.7 886.378 1738.08 885.873 1741.41 C 883.244 1744.22 882.602 1745.05 879.323 1743.3 C 874.863 1735.51 876.763 1701.41 876.898 1690.02 C 871.258 1686.26 868.597 1684.41 864.89 1678.74 L 864.932 1636.31 z" fill="rgb(241,121,70)" transform="translate(0,0)"></path>
<path d="M 822.458 302.718 C 825.817 302.695 827.267 302.339 830.073 304.16 C 832.798 308.796 831.659 348.066 831.612 356.197 C 837.092 359.782 838.333 360.88 843.022 365.344 C 844.075 378.271 843.68 395.8 843.711 409.128 L 830.5 409.121 L 809.372 409.094 C 809.487 396.107 807.561 378.178 810.862 366.18 C 812.349 360.778 816.607 358.691 821.291 356.389 C 821.412 345.264 819.983 311.746 822.458 302.718 z" fill="rgb(241,121,70)" transform="translate(0,0)"></path>
<path d="M 1271.11 302.699 C 1274.43 302.784 1274.66 302.629 1277.88 303.798 C 1281.12 308.218 1279.42 348.865 1279.3 356.149 C 1297.1 366.701 1291.56 377.961 1292.12 396.296 C 1292.25 400.569 1292.05 404.984 1292.02 409.269 L 1276.75 409.256 L 1257.31 409.163 C 1257.17 394.36 1257.29 379.555 1257.67 364.756 C 1262.31 360.46 1264.41 359.39 1269.75 356.313 C 1269.74 345.918 1268.42 310.179 1271.11 302.699 z" fill="rgb(241,121,70)" transform="translate(0,0)"></path>
<path d="M 921.914 1636.96 L 956.15 1636.97 C 955.951 1649.92 957.598 1664.42 955.85 1676.89 C 954.824 1684.21 950.562 1686.37 944.812 1689.94 L 944.563 1734.25 C 944.582 1736.38 944.262 1737.89 943.959 1739.99 C 941.908 1742.7 942.002 1743.01 938.754 1744.23 L 936.907 1743.32 C 933.175 1736.24 934.807 1700.56 934.903 1689.82 C 925.58 1685.38 921.156 1682.06 921.235 1670.4 C 921.31 1659.27 921.783 1648.11 921.914 1636.96 z" fill="rgb(241,121,70)" transform="translate(0,0)"></path>
<path d="M 1202.08 1636.88 C 1212.88 1636.59 1225.13 1636.88 1236.04 1636.91 C 1235.87 1649.7 1237.59 1665.27 1235.31 1677.45 C 1234.1 1683.93 1229.99 1686.17 1224.67 1689.22 C 1224.32 1703.84 1224.26 1718.62 1224.09 1733.25 C 1224.13 1736.52 1224.32 1737.19 1223.41 1740.38 C 1221.22 1742.82 1221.11 1743.45 1217.95 1744.3 L 1216.12 1743.03 C 1212.45 1734.5 1213.95 1700.81 1214 1689.93 C 1197.91 1680.14 1202.28 1671.03 1201.97 1653.83 C 1201.87 1648.24 1202.06 1642.48 1202.08 1636.88 z" fill="rgb(241,121,70)" transform="translate(0,0)"></path>
<path d="M 589.519 1636.48 L 620.929 1636.65 C 620.769 1649.07 622.383 1663.93 620.407 1675.87 C 619.205 1683.12 614.716 1685.76 608.832 1689.21 C 608.657 1704.89 608.615 1720.57 608.706 1736.25 C 608.776 1740.39 608.566 1741.42 605.192 1743.29 C 597.235 1742.73 598.637 1730.5 598.636 1724.26 C 598.632 1712.46 598.894 1700.59 599.068 1688.79 C 596.201 1687.48 589.702 1684.34 588.21 1682.14 C 584.842 1677.18 585.717 1642.45 586.901 1637.33 L 589.519 1636.48 z" fill="rgb(241,121,70)" transform="translate(0,0)"></path>
<path d="M 1383.52 302.424 C 1387.81 303.007 1387.51 302.297 1390.37 304.603 C 1391.98 310.097 1391.27 348.236 1391.22 356.583 C 1397.09 359.948 1397.99 360.549 1402.94 365.115 C 1404.29 374.675 1403.64 398.347 1403.57 409.118 L 1387.75 409.086 L 1369.12 409.073 C 1369.13 395.956 1368.68 378.08 1369.77 365.406 C 1374.5 360.553 1375.18 359.993 1381.12 356.451 C 1381.25 344.639 1379.35 310.929 1383.52 302.424 z" fill="rgb(241,121,70)" transform="translate(0,0)"></path>
<path d="M 1481.03 1636.62 L 1515.35 1636.8 C 1515.07 1650 1517.44 1668 1513.84 1679.99 C 1512.44 1684.67 1507.2 1686.83 1503.07 1688.66 L 1502.93 1731.18 C 1502.92 1736.63 1504.44 1740.4 1499.63 1743.39 C 1496.29 1743.49 1497.72 1743.98 1495.16 1741.95 C 1491.06 1733.68 1492.77 1700.4 1492.83 1688.56 C 1475.52 1679.12 1481.86 1666.73 1480.98 1649.66 C 1480.76 1645.42 1481.02 1640.89 1481.03 1636.62 z" fill="rgb(241,121,70)" transform="translate(0,0)"></path>
<path d="M 878.47 302.372 C 881.71 302.51 881.7 302.336 884.616 303.607 C 888.202 307.763 886.883 349.295 886.915 356.801 C 892.723 359.713 893.948 360.337 899.09 364.662 C 899.341 379.314 899.123 394.478 899.1 409.171 L 884.416 409.138 L 864.811 409.1 C 864.721 395.139 864.92 381.011 865.015 367.037 C 869.045 361.239 870.679 359.807 876.977 356.629 C 877.046 345.655 875.516 311.034 878.47 302.372 z" fill="rgb(241,121,70)" transform="translate(0,0)"></path>
<path d="M 642.739 1636.39 L 677.007 1636.42 L 676.962 1680.95 C 672.447 1685.66 669.847 1686.91 664.225 1689.8 L 664.067 1733.25 C 664.173 1737.13 664.117 1737.19 663.24 1741.01 C 660.652 1743.67 662.139 1742.89 658.812 1743.74 L 656.808 1742.08 C 653.216 1732.91 654.62 1701.75 654.706 1690.08 C 648.769 1686.53 647.55 1685.58 643.014 1680.35 C 642.626 1665.7 642.534 1651.04 642.739 1636.39 z" fill="rgb(241,121,70)" transform="translate(0,0)"></path>
<path d="M 754.799 1636.77 L 788.225 1636.9 C 788.394 1651.25 788.1 1666.14 788.011 1680.54 C 783.448 1685.48 783.226 1685.71 777.118 1689.05 L 777.033 1734.25 C 777.103 1737.53 776.996 1738.13 776.528 1741.25 C 773.556 1744.31 774.647 1744.06 771.06 1744.99 L 769.123 1743.47 C 765.207 1735.06 766.644 1701.31 766.672 1689.63 C 757.111 1684.78 754.194 1680.72 754.313 1669.25 C 754.427 1658.4 754.774 1647.63 754.799 1636.77 z" fill="rgb(241,121,70)" transform="translate(0,0)"></path>
<path d="M 544.483 302.828 C 547.574 302.718 549.259 302.329 551.949 303.823 C 554.958 308.166 553.876 346.873 554.056 355.944 C 557.709 358.892 561.332 361.875 564.927 364.893 C 565.104 379.517 564.913 394.471 564.884 409.123 L 551.5 409.103 L 531.205 409.052 C 531.263 396.269 529.243 378.84 532.412 367.117 C 533.995 361.261 538.83 359.069 543.886 356.663 C 543.752 346.492 542.685 311.924 544.483 302.828 z" fill="rgb(241,121,70)" transform="translate(0,0)"></path>
<path d="M 1159.32 302.48 C 1162.57 302.733 1163.2 302.508 1166.04 304.154 C 1168.8 309.076 1167.38 348.547 1167.28 357.035 C 1176.83 361.144 1180.02 365.088 1180.06 376.232 C 1180.09 387.123 1179.6 398.17 1179.38 409.078 L 1164.7 409.064 L 1145.5 409.048 C 1145.42 394.166 1145.25 379.407 1145.73 364.529 C 1149.65 361.355 1153.23 359.31 1157.5 356.689 C 1157.95 345.326 1156.16 310.687 1159.32 302.48 z" fill="rgb(241,121,70)" transform="translate(0,0)"></path>
<path d="M 711.625 302.812 C 714.845 302.63 716.236 302.229 719.061 303.772 C 722.382 308.84 720.575 347.21 720.391 356.304 C 725.881 359.678 727.346 360.464 731.931 365.341 C 732.611 378.665 732.225 395.473 732.29 409.063 L 717.75 409.045 L 698.611 409.015 C 698.526 394.474 698.585 379.932 698.79 365.392 C 702.998 361.02 705.895 359.038 710.714 355.507 C 710.838 343.958 709.213 312.109 711.625 302.812 z" fill="rgb(241,121,70)" transform="translate(0,0)"></path>
<path d="M 1494.1 302.584 C 1497.61 302.634 1498.16 302.373 1501.36 303.891 C 1504.29 308.572 1502.96 348.912 1502.96 356.761 C 1508.76 360.557 1509.96 361.367 1514.85 366.476 C 1515.34 379.885 1514.97 395.418 1514.98 408.988 L 1501.07 409.023 L 1480.89 409.046 L 1481.01 366.397 C 1485.98 361.017 1487.12 360.148 1492.99 356.206 C 1493.01 346.369 1492.05 310.658 1494.1 302.584 z" fill="rgb(241,121,70)" transform="translate(0,0)"></path>
<path d="M 1045.52 302.78 C 1048.92 302.53 1049.67 302.292 1052.98 303.404 C 1056.74 308.744 1055.16 348.015 1055.15 356.552 C 1060.87 360.083 1062.06 360.983 1067.06 365.476 C 1067.53 379.399 1067.22 394.993 1067.25 409.045 L 1054.22 409.075 L 1033.82 409.061 C 1033.93 395.99 1032.16 378.876 1034.85 366.605 C 1036.06 361.05 1040.37 359.144 1045.01 356.629 C 1044.95 343.604 1044.1 314.839 1045.52 302.78 z" fill="rgb(241,121,70)" transform="translate(0,0)"></path>
<path d="M 600.973 302.36 C 607.66 303.866 608.023 306.597 608.3 313.253 C 608.9 327.715 607.893 342.166 608.793 356.649 C 625.125 366.002 620.482 375.499 620.812 392.444 C 620.919 397.926 620.621 403.566 620.528 409.062 L 603.847 409.04 L 586.446 409.018 C 586.41 394.954 586.046 379.077 586.966 365.205 C 591.662 360.432 593.052 359.785 598.684 356.676 C 598.575 345.295 596.921 311.029 600.973 302.36 z" fill="rgb(241,121,70)" transform="translate(0,0)"></path>
<path d="M 977.81 1636.94 L 1011.6 1636.91 C 1011.04 1650.57 1013.07 1666.07 1010.46 1678.87 C 1009.31 1684.52 1004.82 1686.49 1000.11 1689.07 L 1000.02 1733.25 C 1000.19 1739.14 1000.4 1740.42 995.849 1744.35 C 986.603 1745.64 990.147 1696.42 990.194 1689.32 C 981.233 1684.74 977.454 1681.04 977.364 1669.9 C 977.275 1658.97 977.708 1647.9 977.81 1636.94 z" fill="rgb(241,121,70)" transform="translate(0,0)"></path>
<path d="M 935.687 302.439 C 939.065 302.5 940.317 302.167 942.935 304.26 C 946.109 309.854 944.286 346.79 943.885 355.818 C 950.073 359.833 951.638 361 955.843 367.099 C 956.504 379.977 956.097 396.014 956.091 409.139 L 941.825 409.078 L 922.247 409.033 C 922.214 395.498 921.732 378.01 922.785 364.852 C 926.982 360.589 929.828 359.04 934.808 355.913 C 934.696 344.593 933.765 312.725 935.687 302.439 z" fill="rgb(241,121,70)" transform="translate(0,0)"></path>
<path d="M 1104.6 302.41 C 1107.44 302.832 1107.44 302.615 1109.64 304.355 C 1112.82 310.87 1111.26 347.921 1111.17 356.855 C 1117.54 359.053 1119.17 360.775 1123.24 366.148 C 1123.51 380.466 1123.61 394.787 1123.53 409.107 L 1106.75 409.108 L 1089.49 409.118 C 1089.65 396.128 1087.81 378.549 1091.06 366.452 C 1092.54 360.918 1096.77 358.617 1101.63 356.426 C 1101.85 344.413 1099.43 310.477 1104.6 302.41 z" fill="rgb(241,121,70)" transform="translate(0,0)"></path>
<path d="M 1425.77 1636.86 L 1459 1636.83 C 1458.77 1650 1460.67 1665.44 1458.18 1677.9 C 1456.92 1684.21 1452.41 1686.39 1447.24 1689.31 L 1447.08 1733.25 C 1447.16 1736.91 1447.26 1737.23 1446.48 1740.96 C 1443.65 1743.81 1445.28 1742.92 1441.5 1743.85 L 1439.43 1742.38 C 1435.32 1733.61 1437.02 1701.2 1437.11 1689.24 C 1421.28 1681.85 1426.24 1668.35 1425.63 1653.49 C 1425.41 1648.06 1425.73 1642.33 1425.77 1636.86 z" fill="rgb(241,121,70)" transform="translate(0,0)"></path>
<path d="M 768.122 302.633 C 771.512 302.782 772.227 302.472 775.034 304.34 C 778.026 308.842 776.939 349.489 776.978 357.456 C 782.166 360.26 783.304 361.176 787.781 365.062 C 788.75 377.76 788.218 396.067 788.157 409.214 L 774.501 409.164 L 754.811 409.123 C 754.915 396.426 753.142 380.075 755.794 368.108 C 757.171 361.899 761.76 359.643 767.017 356.938 C 767.059 347.133 765.557 310.201 768.122 302.633 z" fill="rgb(241,121,70)" transform="translate(0,0)"></path>
<path d="M 990.991 302.574 C 994.289 302.626 994.635 302.475 997.861 303.503 C 1001.57 308.713 1000.06 346.95 1000.03 356.569 C 1005.52 360.041 1006.43 360.881 1010.96 365.418 L 1011.04 409.613 L 999.053 409.293 L 977.803 409.347 C 978.001 396.135 975.76 377.697 979.44 365.727 C 980.999 360.653 986.028 358.57 990.505 356.495 C 990.412 345.424 989.479 312.402 990.991 302.574 z" fill="rgb(241,121,70)" transform="translate(0,0)"></path>
<path d="M 1216.83 302.267 C 1223.62 304.115 1224.05 307.155 1224.19 314.024 C 1224.47 327.873 1223.98 342.517 1223.7 356.316 C 1233.09 361.544 1235.91 365.086 1236.17 376.68 C 1236.4 387.398 1235.68 398.416 1235.29 409.149 L 1220.5 409.21 L 1202.24 409.139 C 1202.37 396.205 1200.63 379.281 1203.31 367.118 C 1204.68 360.955 1209.6 358.929 1214.8 356.286 C 1214.86 345.103 1212.42 309.589 1216.83 302.267 z" fill="rgb(241,121,70)" transform="translate(0,0)"></path>
<path d="M 656.255 302.553 C 659.43 302.776 659.728 302.572 662.548 304.18 C 664.941 308.281 663.974 348.713 664.073 356.825 C 670.011 360.394 671.358 361.266 676.555 366.082 C 676.747 380.447 676.726 394.814 676.493 409.178 L 663.5 409.16 L 642.817 409.124 C 642.946 396.31 641.009 379.464 644.05 367.526 C 645.48 361.911 650.163 359.469 654.967 357.006 C 654.812 346.532 653.373 309.968 656.255 302.553 z" fill="rgb(241,121,70)" transform="translate(0,0)"></path>
<path d="M 349.571 1178.78 C 353.853 1166.08 359.647 1168.72 371.772 1168.69 C 384.097 1168.66 396.506 1168.8 408.832 1168.96 C 408.877 1179.87 408.861 1190.78 408.786 1201.68 C 395.2 1201.72 369.897 1202.28 357.138 1200.91 C 353.639 1196.96 352.43 1195.81 350.112 1190.87 C 350.144 1186.42 350.131 1183.23 349.571 1178.78 z" fill="rgb(241,121,70)" transform="translate(0,0)"></path>
<path d="M 1334.98 356.932 C 1337.62 358.003 1346.63 362.618 1346.75 365.987 C 1347.29 380.24 1347.04 394.802 1346.98 409.097 L 1312.87 409.108 C 1312.87 399.579 1313.07 389.717 1312.9 380.216 C 1312.68 368.261 1312.01 361.604 1325.11 356.75 C 1329.01 357.694 1330.89 357.368 1334.98 356.932 z" fill="rgb(241,121,70)" transform="translate(0,0)"></path>
<path d="M 1426.08 365.299 C 1430.52 360.776 1430.72 359.849 1436.33 357.647 C 1440.96 359.735 1442.8 359.335 1447.71 357.707 C 1459.49 362.143 1459.08 365.717 1458.92 377.22 C 1458.78 387.787 1458.94 398.6 1458.91 409.191 L 1425.91 409.079 C 1425.81 394.486 1425.87 379.891 1426.08 365.299 z" fill="rgb(241,121,70)" transform="translate(0,0)"></path>
<path d="M 349.571 1178.78 C 350.131 1183.23 350.144 1186.42 350.112 1190.87 C 339.612 1190.77 303.062 1192.63 295.6 1190.62 C 293.966 1190.18 292.182 1189.18 291.392 1187.62 C 290.717 1186.28 290.861 1184.62 291.507 1183.3 C 294.496 1177.18 338.658 1183.52 347.555 1180.83 C 348.198 1180.64 348.725 1180.41 349.053 1179.79 C 349.23 1179.45 349.398 1179.11 349.571 1178.78 z" fill="rgb(241,121,70)" transform="translate(0,0)"></path>
<path d="M 1436.33 357.647 C 1439.35 351.225 1436.54 309.045 1437.84 306.975 C 1452.25 284.143 1446.16 350.475 1447.71 357.707 C 1442.8 359.335 1440.96 359.735 1436.33 357.647 z" fill="rgb(241,121,70)" transform="translate(0,0)"></path>
<path d="M 1325.11 356.75 C 1327.9 350.827 1321.12 308.595 1327.59 303.329 C 1339.23 293.853 1334.8 351.885 1334.98 356.932 C 1330.89 357.368 1329.01 357.694 1325.11 356.75 z" fill="rgb(241,121,70)" transform="translate(0,0)"></path>
<metadata><recraft-signature>{"signed_by": "recraft", "signature_b64": "9Xdprqnc71sRaNsK+41glLMuBsfQrxBQDnitch3jMJFuCxEeRTo7k12MbzBqZaOCMPOIX9e/2xy+lAlkGoFDAw==", "signing_algo": "Ed25519", "generation_timestamp": 1777069148, "identifier": "87fd5dce-19cb-4104-9b61-8efaf036337d"}</recraft-signature></metadata></svg>