<svg xmlns="http://www.w3.org/2000/svg" height="1024" preserveAspectRatio="none" style="display: block;" version="1.1" viewBox="0 0 2048 2048" width="1024">
<defs>
	<linearGradient gradientUnits="userSpaceOnUse" id="Gradient1" x1="1385.84" x2="1400.96" y1="709.982" y2="717.414">
		<stop class="stop0" offset="0" stop-color="rgb(95,94,94)" stop-opacity="1"></stop>
		<stop class="stop1" offset="1" stop-color="rgb(124,123,126)" stop-opacity="1"></stop>
	</linearGradient>
</defs>
<path d="M 0 0 L 2048 0 L 2048 2048 L 0 2048 L 0 0 z" fill="rgb(29,28,31)" transform="translate(0,0)"></path>
<path d="M 1333.7 537.709 C 1342.37 516.172 1346.78 499.871 1370.41 489.724 C 1385.38 483.294 1402.29 482.026 1417.7 488.065 C 1430.83 493.162 1441.27 503.46 1446.54 516.518 C 1461.03 552.443 1422.09 609.956 1428.29 618.182 L 1432.13 617.518 C 1435.84 618.099 1434.41 617.234 1436.69 620.036 C 1438.18 627.942 1429.05 647.283 1426.25 656.989 L 1470.66 656.828 C 1498.42 656.743 1519.18 654.615 1541.25 675.037 C 1555.05 687.805 1562.09 704.686 1562.27 723.417 C 1562.69 768.934 1562.45 814.723 1562.42 860.246 L 1562.56 1108.32 L 1562.49 1256.31 C 1562.46 1273.28 1563.35 1315.17 1561.48 1330.85 C 1559.92 1344.07 1554.09 1356.42 1544.86 1366.02 C 1530.49 1381.04 1516.49 1386.11 1495.97 1386.15 C 1427.1 1386.25 1358.17 1386.13 1289.3 1386.12 L 856.384 1386 L 645.275 1386.09 L 581.907 1386.43 C 569.646 1386.51 555.644 1387.42 543.587 1386 C 504.255 1381.37 484.963 1352.78 484.918 1316.14 L 485.17 897.125 L 485.261 776.99 C 485.263 769.839 485.199 762.654 485.267 755.501 C 485.556 725.487 481.412 699.261 504.809 676.191 C 514.588 666.427 527.277 660.11 540.962 658.192 C 558.118 655.892 598.896 657.123 617.901 657.136 L 765.573 657.183 L 1276.98 657.145 C 1281.79 656.597 1289.21 656.838 1294.24 656.848 C 1296.7 647.699 1302.8 625.833 1308.61 619.062 C 1311.76 617.645 1310.19 617.716 1313.47 618.864 L 1316.92 622.358 L 1320.29 623.278 C 1324.61 620.614 1324.98 620.072 1329.83 619.985 L 1334.51 623.091 C 1338.7 630.863 1328.67 646.837 1326.17 656.31 C 1337.79 656.239 1358.04 655.602 1369.17 656.842 C 1376.34 656.946 1384.06 656.905 1391.18 657.206 C 1392.14 656.788 1393.16 655.983 1393.55 654.967 C 1399.29 639.991 1402.91 625.694 1411.92 612.292 C 1414.85 610.168 1414.04 608.512 1418.57 605.701 C 1420.67 603.19 1420.5 601.387 1422.25 598.449 C 1424.4 593.373 1425.65 590.058 1426.91 584.618 C 1426.29 583.017 1425.69 581.409 1425.11 579.795 C 1424.73 575.049 1423.41 572.987 1422.77 569.052 C 1435.9 547.223 1436.03 550.092 1433.34 524.958 C 1421.64 499.932 1401.19 494.753 1376.51 505.016 C 1352.85 514.86 1357.55 536.106 1346.7 549.213 C 1344.68 547.173 1343.39 545.699 1341.19 543.777 C 1339.96 542.84 1339.48 542.402 1338.24 541.297 C 1336.74 540.094 1335.18 538.925 1333.7 537.709 z" fill="rgb(233,233,233)" transform="translate(0,0)"></path>
<path d="M 1333.7 537.709 C 1342.37 516.172 1346.78 499.871 1370.41 489.724 C 1385.38 483.294 1402.29 482.026 1417.7 488.065 C 1430.83 493.162 1441.27 503.46 1446.54 516.518 C 1461.03 552.443 1422.09 609.956 1428.29 618.182 L 1432.13 617.518 C 1435.84 618.099 1434.41 617.234 1436.69 620.036 C 1438.18 627.942 1429.05 647.283 1426.25 656.989 C 1421.39 669.504 1391.17 754.49 1386.96 758.167 C 1384.1 758.579 1384.16 758.513 1381.27 758.055 C 1378.37 756.813 1378.35 757.107 1376.15 754.969 C 1375.24 753.39 1374.5 752.06 1373.46 750.552 C 1369.04 764.011 1353.76 806.979 1346.35 817.192 C 1341.74 823.415 1335.77 828.491 1328.88 832.023 C 1316.26 838.377 1301.65 839.491 1288.22 835.124 C 1274.06 830.372 1262.48 820.016 1256.18 806.479 C 1252.17 798.125 1250.55 788.821 1251.52 779.604 C 1253.28 763.867 1262.15 743.037 1267.76 727.954 L 1294.09 657.882 C 1288.38 657.733 1282.68 657.488 1276.98 657.145 C 1281.79 656.597 1289.21 656.838 1294.24 656.848 C 1296.7 647.699 1302.8 625.833 1308.61 619.062 C 1311.76 617.645 1310.19 617.716 1313.47 618.864 L 1316.92 622.358 L 1320.29 623.278 C 1324.61 620.614 1324.98 620.072 1329.83 619.985 L 1334.51 623.091 C 1338.7 630.863 1328.67 646.837 1326.17 656.31 C 1337.79 656.239 1358.04 655.602 1369.17 656.842 C 1376.34 656.946 1384.06 656.905 1391.18 657.206 C 1392.14 656.788 1393.16 655.983 1393.55 654.967 C 1399.29 639.991 1402.91 625.694 1411.92 612.292 C 1414.85 610.168 1414.04 608.512 1418.57 605.701 C 1420.67 603.19 1420.5 601.387 1422.25 598.449 C 1424.4 593.373 1425.65 590.058 1426.91 584.618 C 1426.29 583.017 1425.69 581.409 1425.11 579.795 C 1424.73 575.049 1423.41 572.987 1422.77 569.052 C 1435.9 547.223 1436.03 550.092 1433.34 524.958 C 1421.64 499.932 1401.19 494.753 1376.51 505.016 C 1352.85 514.86 1357.55 536.106 1346.7 549.213 C 1344.68 547.173 1343.39 545.699 1341.19 543.777 C 1339.96 542.84 1339.48 542.402 1338.24 541.297 C 1336.74 540.094 1335.18 538.925 1333.7 537.709 z" fill="rgb(105,105,106)" transform="translate(0,0)"></path>
<path d="M 1369.17 656.842 C 1376.34 656.946 1384.06 656.905 1391.18 657.206 L 1391.68 658.516 C 1390.56 666.04 1376.71 698.701 1373.19 708.031 L 1352.68 762.634 C 1346.89 778.245 1341.4 798.146 1330.66 810.653 C 1317.31 826.21 1293.17 826.741 1278.99 812.437 C 1259.3 792.578 1267.41 770.693 1276.23 748.501 C 1278.68 742.338 1283.64 725.491 1287.56 721.764 C 1289.58 725.734 1289.83 726.854 1293.12 729.637 C 1298.27 730.761 1301.34 727.666 1303.01 722.875 C 1310.65 700.958 1318.18 679 1325.95 657.103 C 1340.35 657.261 1354.76 657.174 1369.17 656.842 z" fill="rgb(233,233,233)" transform="translate(0,0)"></path>
<path d="M 1411.92 612.292 C 1414.85 610.168 1414.04 608.512 1418.57 605.701 C 1403.33 647.137 1386.55 688.435 1371.03 729.944 C 1364.91 746.434 1358.7 762.888 1352.39 779.306 C 1349.19 787.772 1345.25 801.607 1340.18 809.163 C 1315.57 845.808 1257.34 824.298 1261.44 781.001 C 1263.88 755.274 1281.38 724.49 1288.82 699.425 C 1297.28 678.202 1306.29 640.134 1316.92 622.358 L 1320.29 623.278 C 1324.61 620.614 1324.98 620.072 1329.83 619.985 L 1334.51 623.091 C 1338.7 630.863 1328.67 646.837 1326.17 656.31 C 1337.79 656.239 1358.04 655.602 1369.17 656.842 C 1354.76 657.174 1340.35 657.261 1325.95 657.103 C 1318.18 679 1310.65 700.958 1303.01 722.875 C 1301.34 727.666 1298.27 730.761 1293.12 729.637 C 1289.83 726.854 1289.58 725.734 1287.56 721.764 C 1283.64 725.491 1278.68 742.338 1276.23 748.501 C 1267.41 770.693 1259.3 792.578 1278.99 812.437 C 1293.17 826.741 1317.31 826.21 1330.66 810.653 C 1341.4 798.146 1346.89 778.245 1352.68 762.634 L 1373.19 708.031 C 1376.71 698.701 1390.56 666.04 1391.68 658.516 L 1391.18 657.206 C 1392.14 656.788 1393.16 655.983 1393.55 654.967 C 1399.29 639.991 1402.91 625.694 1411.92 612.292 z" fill="rgb(112,111,111)" transform="translate(0,0)"></path>
<path d="M 1329.83 619.985 L 1334.51 623.091 C 1327.1 632.443 1302.6 708.741 1296.32 724.234 L 1295 724.271 C 1294.15 722.069 1293.52 718.587 1294.49 716.356 C 1307.87 685.812 1316.18 649.886 1329.83 619.985 z" fill="rgb(233,233,233)" transform="translate(0,0)"></path>
<path d="M 1302.62 679.614 C 1305.16 682.528 1303.72 681.958 1302.03 686.014 C 1300.34 690.056 1299.03 694.143 1297.72 698.33 C 1294.69 695.526 1301.06 683.407 1302.62 679.614 z" fill="rgb(105,105,106)" transform="translate(0,0)"></path>
<path d="M 1338.24 541.297 C 1345.41 522.239 1351.54 503.849 1371.56 494.324 C 1384.77 488.036 1401.09 487.569 1414.68 492.894 C 1426.96 497.65 1436.82 507.134 1442.05 519.22 C 1451.06 540.329 1441.57 555.863 1434.94 575.648 C 1425.88 602.646 1413.58 628.236 1403.43 654.733 L 1366.23 753.966 C 1360.02 770.679 1353.85 787.729 1347.35 804.327 C 1343.1 815.191 1333.91 824.251 1322.92 828.523 C 1310.81 833.269 1297.32 833 1285.42 827.777 C 1273.59 822.548 1264.34 812.801 1259.75 800.712 C 1251.34 778.003 1264.07 752.992 1272.19 731.717 C 1279.99 711.579 1287.56 691.356 1294.9 671.052 C 1298.6 660.706 1308.65 625.938 1313.47 618.864 L 1316.92 622.358 C 1306.29 640.134 1297.28 678.202 1288.82 699.425 C 1281.38 724.49 1263.88 755.274 1261.44 781.001 C 1257.34 824.298 1315.57 845.808 1340.18 809.163 C 1345.25 801.607 1349.19 787.772 1352.39 779.306 C 1358.7 762.888 1364.91 746.434 1371.03 729.944 C 1386.55 688.435 1403.33 647.137 1418.57 605.701 C 1420.67 603.19 1420.5 601.387 1422.25 598.449 C 1424.4 593.373 1425.65 590.058 1426.91 584.618 C 1426.29 583.017 1425.69 581.409 1425.11 579.795 C 1424.73 575.049 1423.41 572.987 1422.77 569.052 C 1435.9 547.223 1436.03 550.092 1433.34 524.958 C 1421.64 499.932 1401.19 494.753 1376.51 505.016 C 1352.85 514.86 1357.55 536.106 1346.7 549.213 C 1344.68 547.173 1343.39 545.699 1341.19 543.777 C 1339.96 542.84 1339.48 542.402 1338.24 541.297 z" fill="rgb(233,233,233)" transform="translate(0,0)"></path>
<path d="M 1341.19 543.777 C 1345.95 538.863 1346.57 535.49 1348.88 529.121 C 1354.57 513.418 1363.21 503.319 1379.18 497.526 C 1390.2 493.53 1406.91 491.984 1417.07 499.227 C 1421.33 505.054 1434.05 515.801 1433.49 523.105 L 1433.37 524.497 C 1433.36 524.651 1433.35 524.804 1433.34 524.958 C 1421.64 499.932 1401.19 494.753 1376.51 505.016 C 1352.85 514.86 1357.55 536.106 1346.7 549.213 C 1344.68 547.173 1343.39 545.699 1341.19 543.777 z" fill="rgb(105,105,106)" transform="translate(0,0)"></path>
<path d="M 1417.07 499.227 C 1427.62 504.901 1435.49 514.537 1438.93 526.013 C 1445.46 548.373 1431.37 562.533 1426.91 584.618 C 1426.29 583.017 1425.69 581.409 1425.11 579.795 C 1424.73 575.049 1423.41 572.987 1422.77 569.052 C 1435.9 547.223 1436.03 550.092 1433.34 524.958 C 1433.35 524.804 1433.36 524.651 1433.37 524.497 L 1433.49 523.105 C 1434.05 515.801 1421.33 505.054 1417.07 499.227 z" fill="rgb(112,111,111)" transform="translate(0,0)"></path>
<path d="M 1432.13 617.518 C 1435.84 618.099 1434.41 617.234 1436.69 620.036 C 1438.18 627.942 1429.05 647.283 1426.25 656.989 C 1421.39 669.504 1391.17 754.49 1386.96 758.167 C 1384.1 758.579 1384.16 758.513 1381.27 758.055 L 1383.52 756.18 C 1376.19 748.64 1405.14 692.019 1406.64 678.41 C 1410.16 671.457 1426.98 624.723 1428.29 618.182 L 1432.13 617.518 z" fill="rgb(105,105,106)" transform="translate(0,0)"></path>
<path d="M 1428.29 618.182 L 1432.13 617.518 C 1431.97 620.175 1431.64 622.937 1430.76 625.461 C 1418.03 661.785 1404.32 697.77 1391.6 734.093 C 1389.13 741.175 1386.8 749.467 1383.52 756.18 C 1376.19 748.64 1405.14 692.019 1406.64 678.41 C 1410.16 671.457 1426.98 624.723 1428.29 618.182 z" fill="rgb(233,233,233)" transform="translate(0,0)"></path>
<path d="M 1407.9 661.924 C 1408.31 665.778 1406.43 666.879 1406.91 669.975 L 1407.12 670.028 C 1407.23 670.692 1406.65 676.877 1406.64 678.41 C 1405.14 692.019 1376.19 748.64 1383.52 756.18 L 1381.27 758.055 C 1378.37 756.813 1378.35 757.107 1376.15 754.969 C 1376.21 752.572 1376.15 747.498 1377.11 745.492 C 1382.73 733.723 1403.31 668.064 1407.9 661.924 z" fill="url(#Gradient1)" transform="translate(0,0)"></path>
<path d="M 1373.46 750.552 C 1374.11 743.662 1392.71 700.618 1395.09 690.054 C 1396.1 685.574 1404.58 663.671 1407.2 658.243 C 1407.28 658.064 1407.37 658.11 1407.54 658.149 C 1407.99 658.959 1407.87 661.031 1407.9 661.924 C 1403.31 668.064 1382.73 733.723 1377.11 745.492 C 1376.15 747.498 1376.21 752.572 1376.15 754.969 C 1375.24 753.39 1374.5 752.06 1373.46 750.552 z" fill="rgb(165,164,166)" transform="translate(0,0)"></path>
<path d="M 1197.17 1219.3 C 1212.47 1218.42 1233.87 1219.04 1249.5 1219.04 L 1345.11 1219.01 L 1417.93 1218.98 C 1439.88 1218.99 1466.31 1216.01 1485.2 1228.45 C 1498.19 1237.08 1507.08 1250.66 1509.8 1266.02 C 1515.73 1299.12 1491.74 1323.49 1460.76 1328.87 C 1405 1329.87 1346.29 1328.92 1290.31 1328.96 L 1231.71 1329 C 1212.51 1329.05 1188.99 1331.39 1172.25 1320.49 C 1159.39 1312.1 1149.6 1298.1 1147.06 1282.86 C 1144.75 1268.55 1148.38 1253.91 1157.1 1242.34 C 1167.16 1228.75 1180.75 1221.85 1197.17 1219.3 z" fill="rgb(29,28,31)" transform="translate(0,0)"></path>
<path d="M 1340.68 1277.79 C 1339.36 1286.3 1329.77 1288.54 1325.25 1283.75 C 1311 1268.67 1342.88 1259.2 1340.16 1273.06 C 1341.99 1272.91 1343.17 1272.82 1344.99 1272.49 C 1341.75 1263.5 1361.98 1264.9 1360.03 1272.49 C 1359.05 1276.32 1362.55 1287.11 1357.54 1285.74 C 1347.67 1284.08 1345.12 1290.27 1341.99 1277.57 L 1340.68 1277.79 z" fill="rgb(233,233,233)" transform="translate(0,0)"></path>
<path d="M 1344.99 1272.49 C 1341.75 1263.5 1361.98 1264.9 1360.03 1272.49 C 1359.05 1276.32 1362.55 1287.11 1357.54 1285.74 C 1347.67 1284.08 1345.12 1290.27 1341.99 1277.57 C 1344.87 1276.47 1347.57 1274.98 1350.6 1274.29 C 1351.7 1274.05 1352.82 1274.09 1353.61 1273.41 C 1354.32 1272.8 1354.33 1271.27 1353.47 1270.84 C 1351.02 1269.74 1347.16 1271.68 1344.99 1272.49 z" fill="rgb(233,233,233)" transform="translate(0,0)"></path>
<path d="M 1349.64 1278.4 C 1350.2 1277.62 1351.16 1277.25 1352.09 1277.46 C 1353.02 1277.66 1353.73 1278.4 1353.9 1279.34 C 1354.08 1280.28 1353.67 1281.22 1352.88 1281.75 C 1351.93 1282.38 1350.66 1282.24 1349.87 1281.42 C 1349.08 1280.59 1348.98 1279.32 1349.64 1278.4 z" fill="rgb(29,28,31)" transform="translate(0,0)"></path>
<path d="M 1344.99 1272.49 C 1347.16 1271.68 1351.02 1269.74 1353.47 1270.84 C 1354.33 1271.27 1354.32 1272.8 1353.61 1273.41 C 1352.82 1274.09 1351.7 1274.05 1350.6 1274.29 C 1347.57 1274.98 1344.87 1276.47 1341.99 1277.57 L 1340.68 1277.79 C 1335.98 1278.91 1334.79 1280.69 1331.6 1281.62 C 1328.14 1282.62 1325.92 1273.57 1329.53 1271.56 C 1334.06 1269.03 1334.31 1272.82 1340.16 1273.06 C 1341.99 1272.91 1343.17 1272.82 1344.99 1272.49 z" fill="rgb(29,28,31)" transform="translate(0,0)"></path>
<path d="M 1200.76 1273.97 C 1190.46 1260.04 1207.6 1256.82 1214.88 1264.72 L 1215.75 1265.65 C 1215.1 1266.63 1214.48 1267.82 1213.91 1268.84 C 1211.3 1267.94 1206.33 1264.47 1204.97 1265.55 C 1196.91 1271.94 1217.35 1269.2 1216.11 1278.51 C 1214.64 1289.56 1193.42 1288.9 1198.77 1275.83 C 1199.8 1275.05 1199.98 1274.99 1200.76 1273.97 z" fill="rgb(233,233,233)" transform="translate(0,0)"></path>
<path d="M 1200.76 1273.97 C 1203.72 1275.05 1209.37 1275.42 1210.78 1278.09 C 1212.17 1280.74 1206.12 1282.98 1204.68 1281.36 C 1202.12 1278.48 1202.05 1277.95 1198.77 1275.83 C 1199.8 1275.05 1199.98 1274.99 1200.76 1273.97 z" fill="rgb(29,28,31)" transform="translate(0,0)"></path>
<path d="M 1305.77 1267.68 C 1308.87 1265.96 1312.67 1266.08 1315.67 1267.99 C 1318.66 1269.89 1320.37 1273.29 1320.13 1276.83 C 1319.88 1280.37 1317.72 1283.5 1314.49 1284.97 C 1309.75 1287.13 1304.15 1285.17 1301.81 1280.52 C 1299.47 1275.87 1301.21 1270.2 1305.77 1267.68 z" fill="rgb(233,233,233)" transform="translate(0,0)"></path>
<path d="M 1309.05 1269.4 C 1316.19 1272.5 1315.53 1275.67 1312.47 1281.97 C 1304.59 1279.87 1305.06 1276.09 1309.05 1269.4 z" fill="rgb(29,28,31)" transform="translate(0,0)"></path>
<path d="M 1235.73 1274.63 C 1229.63 1266.63 1248.83 1263.82 1249.61 1271.14 C 1251.88 1292.65 1248.85 1282.91 1241.94 1285.62 C 1240.12 1286.32 1238.1 1286.26 1236.32 1285.47 C 1231.54 1283.38 1233.63 1278.7 1236.06 1275.77 C 1237.91 1275.34 1250.07 1274.78 1242.48 1270.8 C 1241.01 1270.02 1238.58 1272.9 1237.31 1273.68 L 1235.73 1274.63 z" fill="rgb(233,233,233)" transform="translate(0,0)"></path>
<path d="M 1238.13 1278.22 C 1242 1278.01 1243.95 1276.76 1244.81 1280.71 C 1240.03 1282.41 1239.83 1283.05 1238.13 1278.22 z" fill="rgb(30,35,34)" transform="translate(0,0)"></path>
<path d="M 1389.6 1281.7 C 1390.77 1277.43 1391.86 1272.91 1393.19 1269 C 1394.13 1266.24 1397.71 1266.41 1398.46 1267.78 C 1399.01 1268.79 1394.63 1281.48 1394.21 1282.75 C 1392.1 1288.21 1390.98 1291.83 1384.52 1293.15 C 1383.14 1292.69 1381.98 1291.32 1382.23 1289.97 C 1382.73 1287.28 1388.1 1287.81 1385.96 1284.08 C 1384.05 1280.75 1382.85 1276.21 1381.79 1272.51 C 1381.2 1270.46 1380.75 1268.39 1380.31 1266.25 C 1388.89 1267.92 1387 1272.59 1389.6 1281.7 z" fill="rgb(233,233,233)" transform="translate(0,0)"></path>
<path d="M 1441.37 1257.39 C 1447.16 1258.85 1456.07 1269.54 1460.28 1274.38 L 1459.34 1275.5 C 1455.53 1280.15 1449.2 1286.34 1444.73 1290.45 C 1434.57 1288.19 1449.97 1278.44 1453.98 1274.4 C 1448.39 1269.06 1439.13 1264.44 1441.37 1257.39 z" fill="rgb(237,137,60)" transform="translate(0,0)"></path>
<path d="M 1219.98 1265.32 C 1221.17 1263.45 1222.75 1260.6 1225.36 1262.6 C 1226.54 1263.5 1226.13 1266.4 1227.99 1266.88 C 1228.48 1266.98 1228.97 1267.09 1229.46 1267.19 C 1230.74 1267.33 1231.96 1268.5 1231.34 1269.85 C 1230.89 1270.91 1227.42 1270.91 1227.28 1271.6 C 1226.76 1274.39 1226.51 1277.97 1227.38 1280.78 C 1227.85 1282.26 1229.48 1281.36 1230.06 1281.47 C 1237.07 1282.8 1224.96 1289.97 1222.49 1283.09 C 1221 1278.94 1222.98 1274.51 1220.88 1271.33 C 1220.48 1270.8 1218.11 1269.89 1217.49 1269.59 C 1216.23 1269.35 1215.16 1269.14 1213.91 1268.84 C 1214.48 1267.82 1215.1 1266.63 1215.75 1265.65 C 1217.86 1265.78 1217.75 1265.75 1219.98 1265.32 z" fill="rgb(233,233,233)" transform="translate(0,0)"></path>
<path d="M 1215.75 1265.65 C 1217.86 1265.78 1217.75 1265.75 1219.98 1265.32 C 1218.93 1267.5 1218.83 1267.67 1217.49 1269.59 C 1216.23 1269.35 1215.16 1269.14 1213.91 1268.84 C 1214.48 1267.82 1215.1 1266.63 1215.75 1265.65 z" fill="rgb(30,35,34)" transform="translate(0,0)"></path>
<path d="M 1273.94 1260.39 C 1274.6 1260.79 1275.27 1261.18 1275.93 1261.58 C 1277.54 1262.76 1276.19 1264.94 1277.13 1266.35 C 1277.65 1266.97 1278.69 1267 1279.41 1267.14 C 1281.48 1267.53 1281.33 1270.31 1279.36 1270.72 C 1278.52 1270.9 1276.82 1271.38 1276.64 1272.5 C 1276.27 1274.77 1276.13 1277.73 1276.96 1279.92 C 1277.49 1281.24 1279.23 1281.15 1280.22 1281.79 C 1281.06 1282.39 1280.86 1283.8 1280.77 1284.69 L 1280.67 1285.98 C 1278.09 1286.04 1275.23 1286.51 1273.09 1284.8 C 1269.74 1281.93 1271.43 1276.88 1270.96 1273 C 1271.01 1270.63 1267.11 1271.19 1267.91 1268.49 C 1268.47 1266.57 1271.21 1267.82 1271.22 1264.96 C 1271.22 1263.7 1271.43 1262.38 1272.47 1261.62 C 1272.96 1261.21 1273.45 1260.8 1273.94 1260.39 z" fill="rgb(233,233,233)" transform="translate(0,0)"></path>
<path d="M 1372.32 1259.28 C 1372.9 1259.41 1377.15 1260.12 1377.25 1260.85 C 1378.13 1267.38 1378 1280.37 1377.6 1286.7 C 1370.43 1285.06 1372.42 1285.08 1372.21 1276.94 C 1372.06 1271.13 1372.11 1265.08 1372.32 1259.28 z" fill="rgb(233,233,233)" transform="translate(0,0)"></path>
<path d="M 1363.45 1259.25 C 1370.52 1260.85 1368.3 1261.34 1368.66 1269.31 C 1368.91 1274.9 1368.86 1281.08 1368.61 1286.66 C 1361.19 1285.04 1363.29 1285.41 1363.21 1276.58 C 1363.16 1270.92 1363.11 1264.86 1363.45 1259.25 z" fill="rgb(233,233,233)" transform="translate(0,0)"></path>
<path d="M 1292.47 1258.22 C 1292.89 1258.36 1296.7 1259.38 1296.72 1260.24 C 1296.89 1267.02 1298.13 1279.95 1295.99 1286.11 C 1295.52 1285.95 1292.47 1285.12 1292.41 1284.5 C 1291.67 1277.31 1291.54 1265.04 1292.47 1258.22 z" fill="rgb(233,233,233)" transform="translate(0,0)"></path>
<path d="M 1254.45 1266.27 C 1258.96 1267.95 1258.82 1269.74 1262.09 1267.25 C 1263.16 1266.44 1265.78 1266.77 1266.58 1268.81 C 1264.72 1274.68 1262.83 1269.45 1259.07 1275.19 C 1259.07 1275.52 1260.92 1289.53 1254.39 1284.37 C 1253.37 1283.56 1254.16 1269.08 1254.45 1266.27 z" fill="rgb(233,233,233)" transform="translate(0,0)"></path>
<path d="M 812.127 929.264 C 820.774 929.041 827.617 930.253 834.768 935.29 C 849.212 945.466 851.476 960.264 848.814 976.494 C 844.194 1004.67 801.86 1016.05 786.816 990.558 C 784.562 986.737 787.972 992.302 785.117 987.689 L 785.063 1000.75 L 785.02 1028.19 C 780.049 1028.12 775.077 1028.1 770.106 1028.13 C 769.991 996.481 769.925 963.552 770.432 931.942 C 775.057 931.83 779.685 931.807 784.311 931.874 C 784.767 937.888 784.742 942.054 784.766 948.107 C 785.884 946.401 787.026 944.712 788.192 943.039 C 794.77 933.568 801.224 931.227 812.127 929.264 z" fill="rgb(29,28,31)" transform="translate(0,0)"></path>
<path d="M 803.853 943.216 C 812.515 940.956 821.723 943.543 827.94 949.984 C 834.158 956.425 836.418 965.718 833.854 974.295 C 831.289 982.872 824.298 989.399 815.566 991.37 C 802.372 994.347 789.227 986.195 786.03 973.052 C 782.833 959.91 790.765 946.631 803.853 943.216 z" fill="rgb(233,233,233)" transform="translate(0,0)"></path>
<path d="M 904.181 929.161 C 917.039 928.753 927.895 932.616 935.421 943.594 C 947.364 959.739 944.293 989.846 925.251 999.553 C 906.845 1008.94 889.029 1005.93 877.954 988.622 C 877.834 993.83 877.768 999.04 877.756 1004.25 C 877.779 1012.25 877.675 1020.25 877.443 1028.25 L 862.991 1028.2 L 863.194 931.202 C 867.759 931.149 872.325 931.14 876.89 931.177 C 876.945 936.546 877.031 941.914 877.149 947.282 C 885.599 935.507 888.92 932.405 904.181 929.161 z" fill="rgb(29,28,31)" transform="translate(0,0)"></path>
<path d="M 898.938 942.837 C 912.523 940.803 925.195 950.141 927.276 963.72 C 929.357 977.298 920.064 990.002 906.493 992.131 C 892.854 994.269 880.074 984.92 877.983 971.275 C 875.891 957.629 885.285 944.881 898.938 942.837 z" fill="rgb(233,233,233)" transform="translate(0,0)"></path>
<path d="M 587.972 901.433 C 616.793 901.832 626.962 914.269 633.627 940.671 L 619.783 940.876 C 619.234 939.473 618.659 938.08 618.059 936.697 C 609.681 917.514 593.871 909.667 573.617 918.486 C 554.762 926.696 552.102 956.866 561.433 973.252 C 566.124 981.551 574.083 987.5 583.37 989.649 C 594.922 992.294 605.298 989.489 615.05 983.194 C 622.142 976.146 622.671 973.288 625.963 964.027 C 630.73 963.755 632.881 963.65 637.602 964.135 C 643.096 970.444 635.486 980.989 631.696 986.412 C 615.312 1009.75 578.213 1008.98 557.618 992.589 C 531.566 971.851 534.686 918.533 567.374 905.713 C 575.239 902.628 579.765 902.099 587.972 901.433 z" fill="rgb(29,28,31)" transform="translate(0,0)"></path>
<path d="M 652.485 904.081 C 657.208 904.052 661.93 904.057 666.653 904.095 L 666.696 942.609 C 679.225 928.228 700.994 922.277 715.851 937.143 C 726.087 947.386 722.797 986.987 722.817 1002.84 L 708.079 1002.81 C 708.063 991.121 708.118 979.435 708.244 967.75 C 708.232 952.174 705.608 942.123 687.507 942.264 C 659.61 942.482 667.002 982.885 666.962 1003 L 652.099 1002.94 C 651.871 971.056 651.752 935.875 652.485 904.081 z" fill="rgb(29,28,31)" transform="translate(0,0)"></path>
<path d="M 1006.72 931.154 C 1012.14 931.112 1017.55 931.113 1022.97 931.159 C 1016.89 946.923 1010.57 962.403 1004.63 978.272 C 1000.44 989.102 992.202 1011.47 984.625 1019.63 C 976.126 1028.78 964.129 1028.35 952.828 1028.16 C 952.806 1026.25 952.266 1016.91 953.398 1015.45 C 958.053 1014.82 966.163 1016.82 970.406 1013.79 C 988.651 1000.77 974.416 1000.44 974.622 1000.81 C 968.837 990.509 963.244 970.272 957.47 958.255 C 954.914 952.934 948.258 937.139 947.25 931.394 C 952.457 931.259 957.665 931.188 962.873 931.182 C 968.097 946.468 978.504 975.833 984.997 990.324 C 992.36 972.566 999.994 949.456 1006.72 931.154 z" fill="rgb(29,28,31)" transform="translate(0,0)"></path>
<path d="M 740.893 932.475 C 744.92 932.335 748.948 932.275 752.977 932.293 C 752.963 944.167 753.508 987.772 752.45 1002.12 C 752.413 1002.63 750.394 1002.52 749.75 1002.5 C 745.856 1002.45 741.961 1002.47 738.066 1002.54 C 738.057 983.745 738.073 953.641 738.856 933.998 C 738.882 933.339 740.405 932.715 740.893 932.475 z" fill="rgb(29,28,31)" transform="translate(0,0)"></path>
<path d="M 1463.7 712.738 C 1474.08 712.476 1473.29 717.062 1480.99 724.065 L 1483.59 726.411 C 1485.77 724.18 1495.14 713.539 1496.1 713.346 C 1510.33 710.472 1490.81 728.469 1488.66 731.019 C 1492.37 735.248 1500.37 742.827 1501.36 747.088 C 1493.49 749.272 1490.16 741.529 1484.07 735.493 L 1483.34 736.064 C 1480.43 738.294 1471.77 746.866 1468.48 748.019 C 1467.41 748.395 1463.47 745.236 1465.95 742.995 C 1469.92 739.411 1475.15 734.565 1479.19 730.824 C 1473.83 725.194 1467.38 719.428 1463.7 712.738 z" fill="rgb(165,164,166)" transform="translate(0,0)"></path>
<path d="M 795.409 1088.9 C 796.933 1088.94 799.577 1088.9 800.996 1089.3 C 803.873 1090.09 806.258 1092.1 807.52 1094.8 C 808.904 1097.72 808.873 1100.48 807.816 1103.46 C 806.87 1106.17 804.837 1108.37 802.205 1109.53 C 797.907 1111.41 795.73 1110.33 791.9 1108.7 C 790.489 1109.2 790.768 1111.75 791.042 1112.5 C 793.088 1118.11 786.851 1118.56 787.194 1114.06 C 787.452 1110.69 786.513 1091.16 788.509 1089.79 C 789.857 1089.91 789.822 1091.27 791.02 1091.63 C 791.771 1091.46 794.61 1089.39 795.409 1088.9 z" fill="rgb(29,28,31)" transform="translate(0,0)"></path>
<path d="M 794.481 1092.71 C 798.22 1090.84 802.764 1092.34 804.66 1096.06 C 806.556 1099.79 805.094 1104.34 801.386 1106.27 C 797.634 1108.22 793.015 1106.74 791.097 1102.97 C 789.18 1099.2 790.699 1094.59 794.481 1092.71 z" fill="rgb(233,233,233)" transform="translate(0,0)"></path>
<path d="M 1001.67 1079.47 C 1002.14 1079.92 1002.62 1080.36 1003.09 1080.81 C 1004.43 1082.61 1003.61 1088.03 1003.69 1090.3 C 1003.85 1095.2 1003.52 1100.21 1003.56 1105.02 C 1003.59 1108.13 1003.62 1112.28 999.823 1108.56 C 999.47 1108.22 997.834 1108.82 997.558 1109.01 C 993.975 1111.26 990.599 1110.04 987.028 1108.73 C 983.205 1103.34 981.793 1099.47 985.265 1093.06 C 989.38 1085.47 998.385 1090.99 999.808 1090.66 C 1000.75 1089.69 1000.88 1082.4 1001.67 1079.47 z" fill="rgb(29,28,31)" transform="translate(0,0)"></path>
<path d="M 990.491 1092.72 C 994.072 1091.09 998.299 1092.54 1000.14 1096.01 C 1001.98 1099.49 1000.8 1103.8 997.44 1105.84 C 995.079 1107.28 992.114 1107.3 989.742 1105.87 C 987.369 1104.45 985.982 1101.83 986.139 1099.07 C 986.296 1096.31 987.972 1093.86 990.491 1092.72 z" fill="rgb(233,233,233)" transform="translate(0,0)"></path>
<path d="M 611.797 719.921 C 614.3 719.912 623.012 721.607 623.103 721.533 C 628.051 717.483 626.828 743.012 623.148 745.149 C 617.271 748.562 612.095 748.692 607.316 742.991 C 612.722 741.588 615.342 746.166 620.24 743.266 C 621.159 742.722 623.021 739.432 621.822 738.252 C 620.267 737.85 617.645 739.295 615.498 739.115 C 602.794 738.052 603.647 726.912 611.797 719.921 z" fill="rgb(29,28,31)" transform="translate(0,0)"></path>
<path d="M 612.511 723.627 C 615.811 721.753 620.004 722.889 621.909 726.171 C 623.813 729.453 622.718 733.657 619.454 735.592 C 616.146 737.555 611.873 736.441 609.942 733.115 C 608.012 729.788 609.166 725.525 612.511 723.627 z" fill="rgb(233,233,233)" transform="translate(0,0)"></path>
<path d="M 1119.13 1088.5 C 1121.68 1089.56 1120.99 1089.93 1123 1090.99 C 1123.55 1090.95 1123.94 1090.86 1124.44 1090.56 C 1138.36 1082.15 1145.12 1103.45 1132.83 1109.62 L 1131.24 1110.48 C 1126.11 1109.9 1125.68 1108.66 1122.8 1108.19 C 1121.04 1108.87 1122.74 1115.88 1121.48 1117.1 C 1116.88 1121.55 1118.97 1091.64 1119.13 1088.5 z" fill="rgb(29,28,31)" transform="translate(0,0)"></path>
<path d="M 1126.53 1092.51 C 1130.38 1091.15 1134.6 1093.17 1135.93 1097.03 C 1137.27 1100.88 1135.23 1105.08 1131.37 1106.4 C 1127.54 1107.71 1123.37 1105.68 1122.04 1101.86 C 1120.71 1098.03 1122.72 1093.85 1126.53 1092.51 z" fill="rgb(233,233,233)" transform="translate(0,0)"></path>
<path d="M 735.388 1131.21 C 737.191 1131.84 739.714 1132.99 738.653 1134.36 C 737.241 1135.58 740.792 1163.29 736.435 1159.56 C 733.065 1156.67 732.421 1160.31 726.935 1160.65 L 725.511 1160.78 C 717.454 1155.46 715.032 1146.47 724.381 1139.59 C 727.262 1137.47 731.873 1139.95 734.577 1140.49 C 735.4 1139.47 735.309 1132.71 735.388 1131.21 z" fill="rgb(29,28,31)" transform="translate(0,0)"></path>
<path d="M 725.908 1141.59 C 737.878 1142.56 738.656 1151.7 730.573 1157.89 C 719.535 1156.65 719.913 1149.02 725.908 1141.59 z" fill="rgb(233,233,233)" transform="translate(0,0)"></path>
<path d="M 1094.47 1088.47 C 1096.33 1089.75 1096.88 1091.26 1097.88 1091.75 C 1101.18 1091.16 1107.38 1084.69 1112.63 1093.35 C 1116.35 1099.49 1113.87 1106.6 1107.74 1109.68 L 1106.04 1110.59 C 1103.16 1110.23 1099.15 1108.66 1097.88 1108.53 C 1095.65 1109.97 1099.05 1117.73 1095.51 1117.71 C 1095.12 1117.71 1094.74 1117.53 1094.5 1117.22 C 1093.13 1115.47 1093.93 1091.84 1094.47 1088.47 z" fill="rgb(29,28,31)" transform="translate(0,0)"></path>
<path d="M 1101.59 1092.66 C 1105.45 1091.39 1109.61 1093.46 1110.94 1097.3 C 1112.26 1101.14 1110.26 1105.33 1106.44 1106.72 C 1103.91 1107.63 1101.09 1107.12 1099.06 1105.37 C 1097.02 1103.62 1096.08 1100.91 1096.61 1098.27 C 1097.13 1095.64 1099.04 1093.49 1101.59 1092.66 z" fill="rgb(233,233,233)" transform="translate(0,0)"></path>
<path d="M 726.184 711.105 C 728.691 711.924 730.141 711.812 729.847 714.468 C 729.519 717.444 730.489 738.836 729.429 740.412 C 726.712 740.69 716.625 740.805 714.506 740.458 C 711.581 737.06 709.942 735.195 710.084 730.507 C 710.264 724.543 713.443 720.36 719.546 720.067 C 721.924 719.952 723.268 721.279 725.501 721.509 C 725.593 721.519 725.743 721.434 725.774 721.346 C 726.69 718.513 726.222 714.057 726.184 711.105 z" fill="rgb(29,28,31)" transform="translate(0,0)"></path>
<path d="M 717.075 722.741 C 727.492 723.24 729.214 728.976 724.307 737.921 C 721.866 738.071 718.855 738.673 716.723 737.314 C 715.209 736.362 714.169 734.814 713.861 733.052 C 712.997 728.324 714.591 726.329 717.075 722.741 z" fill="rgb(233,233,233)" transform="translate(0,0)"></path>
<path d="M 587.766 719.883 C 590.171 719.899 598.599 721.682 598.794 721.456 C 603.474 716.042 601.882 731.687 602.084 733.507 C 602.723 739.257 601.182 745.683 594.448 746.684 C 591.571 747.112 585.691 747.952 584.975 744.091 C 585.065 743.921 585.445 742.798 585.944 742.646 C 586.352 742.521 587.172 742.928 587.368 743.01 C 589.301 743.814 590.358 744.27 592.487 744.094 C 594.254 743.948 595.913 743.489 597.038 742.018 C 597.627 741.249 598.506 739.524 598.26 738.517 C 598.146 738.051 597.908 737.771 597.555 737.473 C 581.528 743.16 577.627 728.749 587.766 719.883 z" fill="rgb(29,28,31)" transform="translate(0,0)"></path>
<path d="M 588.874 723.705 C 592.172 721.838 596.359 723.017 598.198 726.33 C 600.036 729.643 598.821 733.82 595.492 735.63 C 592.203 737.418 588.088 736.22 586.272 732.948 C 584.456 729.675 585.617 725.549 588.874 723.705 z" fill="rgb(233,233,233)" transform="translate(0,0)"></path>
<path d="M 841.569 1138.55 C 842.223 1138.99 845.117 1141.28 845.466 1141.37 C 848.708 1140.39 847.754 1138.78 852.438 1138.85 C 863.4 1139.03 864.744 1152.47 857.129 1158.53 L 856.021 1159.45 C 854.831 1159.54 843.769 1158.9 845.384 1158.32 C 844.337 1159.62 845.246 1163.04 844.893 1164.48 C 843.974 1168.23 841.591 1165.86 841.713 1163.01 C 842.052 1155.03 840.682 1146.43 841.569 1138.55 z" fill="rgb(29,28,31)" transform="translate(0,0)"></path>
<path d="M 848.557 1142.66 C 852.108 1141.09 856.267 1142.54 858.068 1145.98 C 859.869 1149.42 858.695 1153.67 855.383 1155.69 C 853.035 1157.13 850.084 1157.14 847.728 1155.72 C 845.372 1154.3 844.003 1151.68 844.177 1148.93 C 844.351 1146.19 846.04 1143.77 848.557 1142.66 z" fill="rgb(233,233,233)" transform="translate(0,0)"></path>
<path d="M 608.648 1089.61 C 612.31 1087.98 616.576 1088.5 619.741 1090.96 C 622.905 1093.42 624.451 1097.43 623.761 1101.39 C 623.071 1105.34 620.257 1108.58 616.444 1109.83 C 610.958 1111.62 605.029 1108.81 602.953 1103.42 C 600.876 1098.04 603.379 1091.97 608.648 1089.61 z" fill="rgb(29,28,31)" transform="translate(0,0)"></path>
<path d="M 612.219 1091.81 C 616.332 1091.36 620.062 1094.25 620.667 1098.34 C 621.272 1102.43 618.535 1106.27 614.469 1107.04 C 611.694 1107.56 608.857 1106.52 607.074 1104.33 C 605.291 1102.14 604.85 1099.15 605.923 1096.54 C 606.996 1093.93 609.412 1092.11 612.219 1091.81 z" fill="rgb(233,233,233)" transform="translate(0,0)"></path>
<path d="M 823.371 1139.51 C 828.877 1137.52 834.956 1140.37 836.954 1145.87 C 838.951 1151.37 836.111 1157.46 830.608 1159.46 C 825.099 1161.46 819.01 1158.62 817.011 1153.11 C 815.011 1147.6 817.86 1141.51 823.371 1139.51 z" fill="rgb(29,28,31)" transform="translate(0,0)"></path>
<path d="M 824.197 1142.67 C 827.962 1141.15 832.251 1142.95 833.799 1146.7 C 835.347 1150.46 833.575 1154.76 829.83 1156.33 C 826.05 1157.92 821.7 1156.13 820.137 1152.34 C 818.574 1148.54 820.396 1144.21 824.197 1142.67 z" fill="rgb(233,233,233)" transform="translate(0,0)"></path>
<path d="M 557.221 1139.72 C 562.801 1138.01 568.714 1141.13 570.44 1146.71 C 572.165 1152.28 569.051 1158.2 563.479 1159.94 C 557.889 1161.69 551.946 1158.56 550.215 1152.97 C 548.484 1147.37 551.623 1141.44 557.221 1139.72 z" fill="rgb(29,28,31)" transform="translate(0,0)"></path>
<path d="M 557.972 1142.72 C 560.518 1141.88 563.32 1142.48 565.306 1144.28 C 567.293 1146.08 568.156 1148.81 567.565 1151.43 C 566.975 1154.04 565.022 1156.14 562.455 1156.91 C 558.558 1158.09 554.44 1155.91 553.213 1152.03 C 551.987 1148.15 554.107 1144 557.972 1142.72 z" fill="rgb(233,233,233)" transform="translate(0,0)"></path>
<path d="M 966.625 1089.55 C 972.155 1087.67 978.158 1090.64 980.031 1096.17 C 981.903 1101.7 978.936 1107.7 973.405 1109.57 C 967.875 1111.44 961.876 1108.48 960.005 1102.95 C 958.133 1097.42 961.096 1091.42 966.625 1089.55 z" fill="rgb(29,28,31)" transform="translate(0,0)"></path>
<path d="M 967.01 1092.66 C 970.723 1091.09 975.015 1092.76 976.686 1096.43 C 978.357 1100.1 976.8 1104.43 973.175 1106.2 C 970.743 1107.39 967.86 1107.16 965.644 1105.61 C 963.429 1104.05 962.23 1101.42 962.514 1098.73 C 962.798 1096.04 964.519 1093.72 967.01 1092.66 z" fill="rgb(233,233,233)" transform="translate(0,0)"></path>
<path d="M 716.192 1103.71 C 714.89 1115.7 692.767 1110.84 698.3 1095.6 C 703.398 1081.55 721.439 1091.88 715.969 1100.93 C 716.617 1102.2 716.493 1102.17 716.192 1103.71 z" fill="rgb(29,28,31)" transform="translate(0,0)"></path>
<path d="M 716.192 1103.71 C 714.487 1104.53 701.591 1112.26 701.726 1101.36 C 701.741 1100.19 714.579 1100.86 715.969 1100.93 C 716.617 1102.2 716.493 1102.17 716.192 1103.71 z" fill="rgb(233,233,233)" transform="translate(0,0)"></path>
<path d="M 704.008 1091.57 C 707.461 1091.53 716.538 1093.06 711.824 1097.96 C 706.656 1097.92 697.879 1100.01 703.002 1093.09 L 704.008 1091.57 z" fill="rgb(233,233,233)" transform="translate(0,0)"></path>
<path d="M 1026.34 1102.49 C 1028.33 1113.6 1006.11 1113.69 1007.95 1098.99 C 1009.98 1082.78 1029.49 1088.48 1026.7 1100.85 L 1026.34 1102.49 z" fill="rgb(29,28,31)" transform="translate(0,0)"></path>
<path d="M 1026.34 1102.49 C 1022.97 1105.41 1023.48 1105.68 1019.48 1107.13 C 1014.3 1109 1009.62 1102.26 1011.64 1101.2 C 1013.62 1100.16 1023.68 1100.76 1026.7 1100.85 L 1026.34 1102.49 z" fill="rgb(233,233,233)" transform="translate(0,0)"></path>
<path d="M 1015.18 1091.5 C 1018.4 1091.82 1027.42 1094.91 1021.88 1097.78 C 1013.3 1097.79 1008.26 1099.7 1015.18 1091.5 z" fill="rgb(233,233,233)" transform="translate(0,0)"></path>
<path d="M 917.054 1153.69 C 922.42 1158.92 906.176 1163.67 902.046 1156.07 C 894.738 1142.61 911.307 1131.5 918.721 1144.56 C 919.673 1146.24 919.771 1149.27 918.924 1151.08 C 921.539 1153.39 919.508 1153.5 917.054 1153.69 z" fill="rgb(29,28,31)" transform="translate(0,0)"></path>
<path d="M 915.95 1154.3 C 911.988 1157.87 903.922 1159.45 904.134 1151.03 C 904.154 1150.21 913.631 1150.72 915.297 1150.75 L 915.95 1154.3 z" fill="rgb(233,233,233)" transform="translate(0,0)"></path>
<path d="M 915.297 1150.75 L 918.924 1151.08 C 921.539 1153.39 919.508 1153.5 917.054 1153.69 L 915.95 1154.3 L 915.297 1150.75 z" fill="rgb(233,233,233)" transform="translate(0,0)"></path>
<path d="M 906.816 1141.59 C 909.686 1141.78 918.539 1142.8 914.643 1147.81 C 906.572 1147.62 901.298 1149.69 906.816 1141.59 z" fill="rgb(233,233,233)" transform="translate(0,0)"></path>
<path d="M 705.839 735.479 C 703.853 740.192 700.503 741.74 695.494 741.013 C 683.053 739.026 685.898 717.501 699.74 720.449 C 704.978 721.565 707.961 727.344 706.157 732.094 C 707.556 733.547 706.748 733.808 705.839 735.479 z" fill="rgb(29,28,31)" transform="translate(0,0)"></path>
<path d="M 703.94 733.976 C 701.186 736.846 699.548 739.266 695.001 738.055 C 693.239 737.585 690.131 734 691.371 732.561 C 692.192 731.609 699.589 731.901 701.102 731.854 C 702.042 732.589 702.98 733.27 703.94 733.976 z" fill="rgb(233,233,233)" transform="translate(0,0)"></path>
<path d="M 701.102 731.854 L 706.157 732.094 C 707.556 733.547 706.748 733.808 705.839 735.479 C 705.206 734.978 704.573 734.477 703.94 733.976 C 702.98 733.27 702.042 732.589 701.102 731.854 z" fill="rgb(233,233,233)" transform="translate(0,0)"></path>
<path d="M 695.063 722.598 C 698.413 723.021 707.348 726.301 701.01 729.19 C 692.309 728.858 688.371 730.324 695.063 722.598 z" fill="rgb(233,233,233)" transform="translate(0,0)"></path>
<path d="M 921.692 1102.95 C 919.699 1110.11 912.02 1112.76 907.324 1108.62 C 891.568 1094.73 921.825 1076.87 922.025 1100.06 C 921.807 1100.88 921.76 1102.11 921.692 1102.95 z" fill="rgb(29,28,31)" transform="translate(0,0)"></path>
<path d="M 919.344 1103.75 C 917.959 1104.94 915.754 1107.1 913.974 1107.06 C 907.963 1106.92 899.294 1099.7 915.433 1100.33 C 917.712 1101.68 917.622 1101.74 919.344 1103.75 z" fill="rgb(233,233,233)" transform="translate(0,0)"></path>
<path d="M 922.025 1100.06 C 921.807 1100.88 921.76 1102.11 921.692 1102.95 C 920.909 1103.21 920.127 1103.48 919.344 1103.75 C 917.622 1101.74 917.712 1101.68 915.433 1100.33 C 918.006 1100.36 919.451 1100.28 922.025 1100.06 z" fill="rgb(233,233,233)" transform="translate(0,0)"></path>
<path d="M 909.941 1091.63 C 912.82 1091.78 921.61 1092.9 917.647 1097.95 C 909.562 1097.63 904.1 1099.66 909.941 1091.63 z" fill="rgb(233,233,233)" transform="translate(0,0)"></path>
<path d="M 547.402 1082.18 C 554.583 1083.35 552.856 1083.69 556.126 1091.47 C 558.356 1096.78 561.741 1103.97 562.511 1109.5 C 557.536 1112.85 560.94 1103.13 554.25 1103.1 C 550.896 1103.14 546.9 1102.93 543.588 1103.41 C 541.712 1103.68 540.789 1114.29 537.532 1109.67 C 537.429 1109.53 537.912 1108.23 537.834 1108.53 C 541.141 1099.79 544.331 1091.01 547.402 1082.18 z" fill="rgb(29,28,31)" transform="translate(0,0)"></path>
<path d="M 549.407 1086.48 C 551.509 1088.29 558.708 1099.18 553.085 1101.31 C 551.1 1101.14 545.526 1101.5 544.642 1099.4 C 544.782 1098.25 544.722 1098.14 545.157 1097.16 C 546.187 1094.8 547.155 1092.42 548.06 1090.01 L 549.407 1086.48 z" fill="rgb(233,233,233)" transform="translate(0,0)"></path>
<path d="M 743.167 901.826 C 756.794 902.557 761.204 915.125 749.759 920.338 L 748.119 921.12 C 733.825 920.437 730.22 910.165 741.681 902.813 L 743.167 901.826 z" fill="rgb(29,28,31)" transform="translate(0,0)"></path>
<path d="M 665.135 1089.08 C 679.824 1088.25 678.868 1089.46 678.91 1104.28 C 678.942 1115.56 677.318 1104.9 669.979 1110.22 C 668.78 1111.09 663.975 1109.26 662.542 1108.73 C 658.994 1090.28 676.627 1103.54 674.99 1093.97 C 674.765 1092.66 673.143 1092.18 671.992 1091.69 C 668.256 1090.07 665.316 1095.73 663.147 1093.8 C 662.34 1092.99 664.789 1089.61 665.135 1089.08 z" fill="rgb(29,28,31)" transform="translate(0,0)"></path>
<path d="M 670.149 1099.67 C 670.835 1099.81 671.525 1099.93 672.217 1100.03 C 679.537 1101.1 672.514 1106.54 670.215 1108.37 C 663.463 1105.2 662.575 1102.98 670.149 1099.67 z" fill="rgb(233,233,233)" transform="translate(0,0)"></path>
<path d="M 791.881 1138.95 C 794.518 1139.01 806.329 1138.51 804.265 1149.72 C 803.885 1151.79 791.589 1150.27 790.414 1150.75 C 785.478 1152.78 791.09 1158.71 797.236 1156.77 C 809.695 1150.76 802.48 1160.05 795.024 1160.07 C 783.388 1160.1 782 1146.37 790.318 1140.17 L 791.881 1138.95 z" fill="rgb(29,28,31)" transform="translate(0,0)"></path>
<path d="M 792.883 1141.53 L 793.774 1141.66 C 797.325 1142.15 804.659 1145.77 798.952 1147.93 C 791.21 1147.69 785.229 1149.35 792.883 1141.53 z" fill="rgb(233,233,233)" transform="translate(0,0)"></path>
<path d="M 622 1138.91 C 624.519 1139.15 627.379 1139.41 629.722 1140.6 C 632.96 1142.24 632.76 1158.38 632.106 1159.4 C 631.044 1159.93 624.651 1158.42 621.998 1160.07 C 620.286 1161.14 615.804 1158.22 614.115 1156.85 C 614.278 1156.11 614.428 1155.37 614.565 1154.63 C 616.518 1144 626.824 1150.17 628.935 1146.16 C 628.527 1137.87 618.003 1145.14 616.363 1144.06 C 615.699 1141.96 618.875 1140.36 620.333 1139.7 L 622 1138.91 z" fill="rgb(29,28,31)" transform="translate(0,0)"></path>
<path d="M 626.994 1150.22 C 632.184 1152.89 624.96 1156.67 622.334 1157.57 L 620.531 1158.22 C 614.274 1151.13 621.118 1150.93 626.994 1150.22 z" fill="rgb(233,233,233)" transform="translate(0,0)"></path>
<path d="M 1148.79 1088.88 C 1152.2 1089.01 1163.45 1089.46 1161.33 1099.98 C 1161 1101.62 1149.59 1100.14 1147.94 1100.64 C 1143.41 1102.01 1148.95 1109.15 1154.2 1106.37 C 1155.2 1105.84 1162.74 1101.51 1159.57 1107.52 C 1158.01 1110.49 1148.06 1111.07 1145.81 1108.17 C 1141.36 1102.44 1141.38 1095.04 1147.29 1090.16 L 1148.79 1088.88 z" fill="rgb(29,28,31)" transform="translate(0,0)"></path>
<path d="M 1149.08 1091.61 C 1152.18 1091.75 1160.94 1093.44 1156.76 1097.97 C 1147.82 1097.83 1143.78 1099.83 1149.08 1091.61 z" fill="rgb(233,233,233)" transform="translate(0,0)"></path>
<path d="M 867.099 1138.62 C 867.266 1138.7 868.567 1139.32 868.678 1139.42 C 872.127 1142.76 875.476 1136.09 879.969 1140.13 C 884.204 1143.94 887.73 1134.91 894.383 1140.68 C 897.03 1142.97 898.731 1160.84 894.618 1159.56 C 891.191 1158.49 894.484 1147.63 892.655 1144.63 C 891.24 1142.2 889.086 1141.79 886.799 1141.01 C 886.478 1141.37 886.157 1141.73 885.836 1142.09 C 880.317 1142.5 885.331 1162.7 880.593 1158.94 C 877.88 1156.78 883.383 1140.44 874.51 1142.11 C 865.88 1143.73 873.214 1158.82 868.246 1159.52 C 865.593 1157.4 866.874 1142.35 867.099 1138.62 z" fill="rgb(29,28,31)" transform="translate(0,0)"></path>
<path d="M 766.322 720.053 C 769.42 720.271 772.399 720.619 775.267 721.705 C 777.925 722.711 778.972 739.406 778.742 740.692 C 776.412 742.998 775.973 737.864 772.517 739.916 C 768.453 742.329 764.919 741.089 760.94 739.184 C 761.594 727.545 765.356 731.111 773.45 728.079 C 777.077 726.72 768.824 719.553 766.255 724.688 C 765.368 726.463 763.973 727.714 762.158 726.275 C 761.095 723.462 764.368 721.311 766.322 720.053 z" fill="rgb(29,28,31)" transform="translate(0,0)"></path>
<path d="M 772.778 731.065 C 776.435 734.983 771.775 737.497 768.408 738.837 L 766.58 739.602 C 762.395 732.736 766.364 732.569 772.778 731.065 z" fill="rgb(233,233,233)" transform="translate(0,0)"></path>
<path d="M 820.123 1088.69 C 823.131 1089.27 832.891 1092.02 830.92 1099.68 C 829.444 1102.38 816.266 1099.88 815.995 1100.92 C 814.029 1108.53 822.334 1107.84 827.848 1105.42 C 829.727 1103.47 829.537 1105.84 829.544 1105.83 C 819.122 1120.79 801.715 1098.51 818.878 1089.38 L 820.123 1088.69 z" fill="rgb(29,28,31)" transform="translate(0,0)"></path>
<path d="M 819.923 1091.52 C 822.454 1092.27 832.047 1096.39 825.148 1098.3 C 818.697 1098.04 811.707 1099.55 818.669 1092.78 L 819.923 1091.52 z" fill="rgb(233,233,233)" transform="translate(0,0)"></path>
<path d="M 748.553 1138.99 C 756.052 1138.84 760.877 1138.04 762.033 1147.69 C 762.83 1154.35 738.164 1144.74 749.261 1156.48 C 750.31 1157.59 752.871 1157.41 754.243 1157.37 C 766.81 1151.48 758.483 1161.18 753.017 1160.4 C 740.959 1158.7 739.955 1147.09 748.553 1138.99 z" fill="rgb(29,28,31)" transform="translate(0,0)"></path>
<path d="M 749.461 1141.45 C 752.172 1141.67 761.492 1142.31 756.97 1147.5 C 755.48 1147.45 753.99 1147.43 752.5 1147.43 C 745.705 1147.46 745.882 1146.92 749.461 1141.45 z" fill="rgb(233,233,233)" transform="translate(0,0)"></path>
<path d="M 676.776 1138.94 L 677.698 1138.97 C 681.473 1139.06 685.661 1138.91 687.517 1142.64 C 693.691 1155.09 680.966 1148.84 674.616 1151.09 C 672.645 1151.79 675.113 1154.71 675.663 1155.35 C 677.809 1157.83 681.9 1157.01 684.796 1157.02 C 688.043 1154.28 688.135 1157.86 687.196 1158.36 C 673.275 1165.83 663.442 1148.87 675.222 1140.12 L 676.776 1138.94 z" fill="rgb(29,28,31)" transform="translate(0,0)"></path>
<path d="M 677.044 1141.76 C 680.157 1141.95 688.148 1142.66 684.658 1147.93 C 676.364 1147.88 670.584 1149.98 677.044 1141.76 z" fill="rgb(233,233,233)" transform="translate(0,0)"></path>
<path d="M 636.668 719.923 C 639.573 720.053 651.676 720.73 648.738 730.279 C 648.118 732.294 634.066 729.942 634.192 732.066 C 634.634 739.512 640.462 738.668 645.486 736.477 C 647.439 731.479 652.798 740.531 641.936 740.981 C 627.908 741.563 627.279 728.085 636.668 719.923 z" fill="rgb(29,28,31)" transform="translate(0,0)"></path>
<path d="M 637.075 722.694 C 639.672 722.863 648.89 724.169 644.356 728.57 C 635.901 728.62 631.865 730.487 637.075 722.694 z" fill="rgb(233,233,233)" transform="translate(0,0)"></path>
<path d="M 628.077 1088.66 C 633.145 1091.73 630.566 1090.05 635.97 1088.77 C 639.162 1088.01 641.24 1089.13 643.543 1091.05 C 643.993 1091.43 649.278 1087.5 651.004 1088.74 C 653.72 1088.71 654.045 1089.84 655.842 1091.1 C 658.391 1092.89 659.364 1112.55 655.869 1109.79 C 653.362 1107.81 656.058 1098.15 654.153 1094.47 C 651.871 1090.06 649.052 1091.42 645.302 1092.85 L 645.109 1093.75 C 644.157 1098.03 645.676 1110.05 642.164 1109.98 C 638.703 1107.04 645.859 1087.76 634.521 1091.87 C 627.543 1094.39 633.656 1108.53 629.472 1110.05 C 627.448 1108.45 627.883 1105.31 627.865 1103.04 C 627.829 1098.25 627.9 1093.45 628.077 1088.66 z" fill="rgb(29,28,31)" transform="translate(0,0)"></path>
<path d="M 770.816 1088.98 C 786.432 1089.15 785.336 1100.95 780.565 1100.83 L 773.508 1100.66 C 763.027 1100.32 770.498 1106.78 775.155 1107.98 L 776.045 1107.51 C 777.331 1106.83 779.806 1105 781.448 1105.49 C 782.244 1105.98 781.662 1107.08 781.296 1107.45 C 777.895 1110.93 771.68 1111.4 768.18 1107.79 C 765.918 1105.47 764.958 1102.21 764.993 1098.99 C 765.045 1094.22 767.527 1092.01 770.816 1088.98 z" fill="rgb(29,28,31)" transform="translate(0,0)"></path>
<path d="M 771.183 1091.65 C 774.904 1091.53 782.839 1093.05 778.77 1098.08 C 770.33 1097.87 765.937 1099.8 771.183 1091.65 z" fill="rgb(233,233,233)" transform="translate(0,0)"></path>
<path d="M 541.621 713.11 C 544.777 712.991 547.466 712.489 551.032 713.721 C 553.216 714.221 556.972 718.775 554.44 720.544 C 552.204 720.494 550.588 716.793 548.409 716.349 C 539.266 714.484 536.053 724.26 546.991 725.211 C 548.943 725.381 554.525 727.023 555.29 729.381 C 557.558 736.367 554.808 738.707 549.035 741.436 C 544.073 741.102 538.382 741.429 536.169 735.943 C 534.84 732.412 537.812 730.899 539.054 734.043 C 541.475 740.168 551.666 739.898 552.568 733.514 C 553.479 727.057 540.67 729.228 537.904 724.548 C 534.902 719.467 537.76 716.43 541.621 713.11 z" fill="rgb(29,28,31)" transform="translate(0,0)"></path>
<path d="M 802.754 711.298 C 807.379 714.45 805.489 723.773 805.673 729.744 C 806.84 728.737 817.682 717.725 818.817 720.759 C 819.324 722.115 812.498 727.708 810.677 729.339 C 812.721 731.998 814.55 733.966 816.819 736.423 C 818.448 738.055 819.311 738.342 819.124 740.624 C 814.544 742.547 812.031 733.001 807.499 732.115 C 804.039 731.039 807.633 744.743 802.686 740.234 C 801.172 738.854 802.248 713.85 802.754 711.298 z" fill="rgb(29,28,31)" transform="translate(0,0)"></path>
<path d="M 581.329 1087.61 C 585.871 1090.47 584.622 1110.4 581.824 1110.4 C 580.81 1109.57 580.958 1108.09 580.012 1107.24 C 579.069 1107.09 566.741 1118.64 565.906 1101.25 C 565.912 1100.54 565 1086.58 568.117 1089.13 C 571.419 1091.82 564.775 1111.74 576.246 1106.38 C 582.469 1103.47 579.601 1094.33 581.329 1087.61 z" fill="rgb(29,28,31)" transform="translate(0,0)"></path>
<path d="M 924.105 1138.56 C 926.288 1139.72 926.858 1140.81 929.437 1139.98 C 940.619 1135.36 943.77 1145.46 941.633 1155.02 C 938.132 1170.68 938.191 1147.73 938.195 1145.88 C 936.55 1141.12 932.43 1140.62 928.694 1143.73 C 925.229 1146.62 928.91 1157.45 926.352 1159.92 C 923.977 1159.59 923.954 1156.34 923.938 1154.51 C 923.87 1149.19 923.926 1143.88 924.105 1138.56 z" fill="rgb(29,28,31)" transform="translate(0,0)"></path>
<path d="M 787.45 719.931 C 789.919 720.166 794.085 720.067 796.164 721.944 C 796.786 722.446 797.324 725.195 796.094 725.359 C 794.173 725.716 791.594 722.307 789.497 723.039 C 784.507 724.781 785.417 727.67 790.006 728.749 C 790.806 728.938 791.606 729.126 792.406 729.314 C 800.077 731.006 799.891 738.995 792.709 741.418 L 790.973 742.037 C 789.026 741.696 777.925 739.21 783.57 735.437 L 783.563 735.444 C 786.73 737.362 789.97 741.783 794.424 736.442 C 794.696 731.223 772.324 729.744 787.45 719.931 z" fill="rgb(29,28,31)" transform="translate(0,0)"></path>
<path d="M 657.289 720.003 L 658.88 720.138 C 660.122 720.234 667.657 720.553 667.587 725.239 C 667.567 726.547 663.972 724.821 663.509 723.975 C 663.003 723.052 659.623 722.864 658.664 723.307 C 650.526 728.669 666.94 728.915 668.64 733.233 C 670.425 737.767 668.565 739.036 664.78 741.338 C 661.354 741.122 657.442 741.438 654.485 739.097 C 651.98 737.518 652.835 733.703 655.835 736.195 C 657.062 738.711 666.15 739.317 665.238 735.435 C 664.263 731.283 643.557 730.158 657.289 720.003 z" fill="rgb(29,28,31)" transform="translate(0,0)"></path>
<path d="M 1044.68 1088.98 L 1046.1 1088.98 C 1049.9 1088.93 1055.64 1089.3 1056.42 1093.37 C 1056.79 1099.13 1050.53 1089.31 1047.48 1091.93 C 1036.42 1101.42 1066.29 1092.56 1054.52 1110.46 C 1051.01 1110.45 1042.9 1110.29 1042.21 1105.95 C 1041.29 1100.09 1047.04 1106.42 1047.34 1106.57 C 1053.01 1109.39 1058.32 1102.8 1050.03 1101.01 C 1041.15 1099.1 1040.14 1096.42 1044.68 1088.98 z" fill="rgb(29,28,31)" transform="translate(0,0)"></path>
<path d="M 1183.18 1088.93 C 1186.77 1088.93 1194.07 1088.25 1194.71 1092.58 C 1195.63 1099.25 1185.57 1085.72 1183.74 1094.53 C 1182.95 1098.35 1207.16 1100.33 1190.46 1110.68 L 1189.47 1110.56 L 1187.49 1110.33 C 1184.05 1109.92 1176.76 1105.97 1180.97 1103.84 C 1182.21 1103.98 1188.42 1109.75 1190.48 1107.34 C 1198.93 1097.47 1171.73 1104.4 1183.18 1088.93 z" fill="rgb(29,28,31)" transform="translate(0,0)"></path>
<path d="M 641.693 1138.76 L 643.113 1138.91 C 645.517 1139.16 652.186 1140.65 651.433 1144.28 C 648.374 1145.9 645.832 1140.66 642.404 1142.15 C 638.771 1144.19 639.608 1147.13 643.484 1147.95 C 654.45 1150.26 655.721 1155.78 645.767 1160.61 C 640.569 1159.64 638.232 1159.89 635.906 1154.75 L 635.934 1154.87 L 636.737 1153.55 C 639.086 1153.4 639.557 1155.92 641.972 1156.87 C 644.477 1157.85 650.717 1156.57 648.433 1153.15 C 646.637 1150.46 639.091 1151.61 637.153 1147.99 C 635.092 1143.7 638.673 1140.95 641.693 1138.76 z" fill="rgb(29,28,31)" transform="translate(0,0)"></path>
<path d="M 1067.04 1089.37 C 1072.76 1088.85 1078.64 1088.73 1079.85 1096.98 C 1079.85 1098.1 1080.49 1109.08 1079.2 1109.41 C 1074.06 1110.71 1079.08 1099.11 1074.51 1092.54 L 1073.45 1090.93 C 1071.2 1091.58 1070.28 1091.98 1067.98 1093.01 C 1062.62 1095.4 1068.41 1112.74 1062.99 1109.76 C 1061.61 1109.01 1062.53 1096.26 1062.26 1094.49 C 1062.11 1093.49 1061.68 1090.75 1063.04 1089.78 C 1065.33 1089.82 1065.14 1092.6 1067.04 1089.37 z" fill="rgb(29,28,31)" transform="translate(0,0)"></path>
<path d="M 561.731 719.477 C 567.936 724.22 560.279 737.574 567.475 738.315 C 578.674 739.468 572.34 723.018 575.648 720.049 L 576.287 720.108 C 577.252 720.875 577.522 722.074 577.56 723.248 L 577.648 724.752 C 577.584 727.199 578.214 740.262 576.538 740.793 C 574.547 740.322 575.88 738.491 572.588 740.101 C 558.553 746.965 559.945 727.496 561.731 719.477 z" fill="rgb(29,28,31)" transform="translate(0,0)"></path>
<path d="M 722.554 1089.02 C 726.239 1088.88 733.241 1088.31 734.074 1093.11 C 735.045 1098.69 729.971 1093.02 729.38 1092.16 C 727.845 1089.91 722.182 1093.51 723.888 1095.46 C 728.899 1101.22 739.837 1099.18 732.267 1109.56 C 728.498 1110.57 722.911 1111.13 720.641 1107.13 C 716.379 1099.63 733.982 1113.05 730.89 1103.63 C 729.374 1099.01 715.893 1102.43 722.554 1089.02 z" fill="rgb(29,28,31)" transform="translate(0,0)"></path>
<path d="M 944.009 1088.82 L 944.864 1088.88 C 950.343 1089.19 959.57 1094.71 955.018 1096.82 C 953.071 1096.21 947.58 1088.81 943.906 1092.42 C 935.705 1100.5 940.809 1106.16 949.514 1107.89 C 960.836 1095.61 955.68 1111.46 946.531 1110.65 C 936.152 1109.72 933.84 1096.17 941.616 1090.54 L 944.009 1088.82 z" fill="rgb(29,28,31)" transform="translate(0,0)"></path>
<path d="M 546.779 1129.69 C 548.711 1130.9 550.213 1132.07 547.035 1133.35 C 546.521 1133.52 546.008 1133.7 545.495 1133.87 C 544.471 1134.26 543.742 1134.98 543.478 1136.06 C 542.813 1137.56 543.963 1138.98 545.493 1139.12 C 546.162 1139.26 546.831 1139.4 547.5 1139.54 C 548.751 1139.93 548.951 1140.36 548.38 1141.33 C 547.681 1142.53 544.472 1141.68 544.26 1142.44 C 542.771 1147.76 543.738 1154.74 543.221 1160.76 C 537.318 1157.45 541.619 1151.09 540.349 1144.97 C 540.196 1144.23 540.191 1142.7 539.401 1142.41 C 538.042 1141.9 534.322 1143.99 535.76 1139.84 C 544.244 1138.21 536.266 1133.39 545.152 1130.35 L 546.779 1129.69 z" fill="rgb(29,28,31)" transform="translate(0,0)"></path>
<path d="M 676.491 714.356 C 678.05 715.027 679.315 715.602 678.981 717.449 C 678.236 721.568 681.775 720.682 684.455 721.097 C 685.023 721.094 685.96 722.041 685.614 722.642 C 684.705 724.218 679.388 722.845 679.181 724.563 C 678.751 728.124 678.561 733.226 679.259 736.725 C 679.475 737.811 683.878 738.929 684.497 739.133 C 682.614 741.268 680.609 741.877 677.849 740.314 C 673.423 738.563 675.942 725.968 674.985 724.962 C 673.179 723.064 667.424 722.356 674.373 720.543 C 674.875 720.412 676.02 715.751 676.491 714.356 z" fill="rgb(29,28,31)" transform="translate(0,0)"></path>
<path d="M 686.011 1082.34 C 692.54 1085.17 685.766 1087.27 691.012 1089.05 C 691.375 1089.17 692.822 1089.04 692.995 1089.18 C 697.689 1092.99 688.176 1090.7 689.044 1093.95 C 689.326 1096.73 688.084 1104.99 689.734 1106.28 C 692.326 1108.3 694.238 1104.61 695.474 1109.75 L 694.195 1109.85 C 692.082 1110.04 690.145 1110.42 688.337 1109.53 C 683.614 1108.19 686.41 1093.78 685.49 1093.13 C 683.237 1091.55 676.872 1090.33 684.833 1088.67 C 685.592 1088.51 685.706 1084.12 686.011 1082.34 z" fill="rgb(29,28,31)" transform="translate(0,0)"></path>
<path d="M 604.601 1130.85 C 606.63 1130.84 611.424 1130.1 612.616 1132.12 C 611.911 1134.57 607.489 1133.13 606.847 1135.82 C 606.465 1137.41 607.537 1139.7 609.462 1139.41 C 612.365 1138.97 613.25 1142.26 610.433 1142.58 C 610.291 1142.6 607.763 1142.62 607.601 1143.22 C 606.608 1146.89 607.152 1152.27 607.165 1156.25 C 607.105 1157.57 606.923 1159.33 605.362 1159.72 C 602.374 1158.02 605.185 1143.71 603.644 1143.28 C 593.637 1140.48 602.979 1141.26 603.717 1137.61 C 603.609 1138.15 604.403 1131.89 604.601 1130.85 z" fill="rgb(29,28,31)" transform="translate(0,0)"></path>
<path d="M 837.8 1083.23 C 838.996 1083.96 840.819 1084.72 840.68 1086.46 C 840.579 1087.8 841.161 1089.94 842.987 1089.72 C 843.516 1088.59 848.378 1091.1 846.491 1092 C 840.073 1094.42 840.308 1090.86 840.193 1098.48 C 840.032 1109.15 840.948 1105.03 847.708 1108.43 C 845.874 1109.66 843.284 1111.85 840.109 1109.77 C 833.222 1105.24 841.56 1093.54 833.348 1091.64 C 833.079 1090.82 834.02 1090.11 834.527 1090.11 C 837.65 1090.08 837.254 1085.84 837.8 1083.23 z" fill="rgb(29,28,31)" transform="translate(0,0)"></path>
<path d="M 773.211 1155.92 C 775.484 1151.33 778.105 1142.78 781.291 1139.28 C 781.958 1138.55 784.011 1139.38 782.481 1142.24 C 781.113 1145.7 776.833 1156.38 775.068 1159 C 771.078 1164.92 764.571 1141.5 764.628 1138.68 C 769.453 1140.84 771.388 1150.62 773.211 1155.92 z" fill="rgb(29,28,31)" transform="translate(0,0)"></path>
<path d="M 749.842 713.483 C 751.297 714.182 752.189 714.703 752.022 716.443 C 751.829 718.452 751.947 720.794 754.496 720.671 C 755.297 720.632 758.413 720.677 757.578 722.383 C 756.802 723.969 753.746 722.785 752.557 723.971 C 751.473 725.605 751.898 728.137 751.908 730.002 C 751.921 732.601 751.001 737.854 754.949 738.164 C 757.042 738.329 758.222 738.785 760.032 739.542 C 757.895 740.573 753.834 742.107 751.559 740.677 C 747.059 739.008 749.622 725.168 748.599 724.625 C 744.443 722.416 741.403 721.769 748.39 719.802 C 748.902 719.658 749.482 715.176 749.842 713.483 z" fill="rgb(29,28,31)" transform="translate(0,0)"></path>
<path d="M 949.027 1132.25 C 954.315 1135.92 949.369 1138.21 953.998 1139.14 C 954.96 1139.34 957.88 1138.77 956.597 1141.33 C 956.045 1142.43 952.307 1141.34 951.911 1142.99 C 951.502 1146.46 951.265 1152.73 952.176 1155.88 C 952.747 1157.85 955.945 1155.91 958.364 1158.97 C 955.733 1159.6 953.497 1160.22 950.899 1159.35 C 946.456 1157.87 949.459 1146.39 948.025 1142.96 C 947.837 1142.51 946.959 1142.12 946.509 1142.07 C 946.041 1141.96 945.572 1141.84 945.103 1141.73 C 943.627 1141.16 944.097 1139.39 945.59 1139.23 C 945.256 1139.27 947.657 1138.97 947.784 1138.67 C 948.553 1136.81 948.622 1134.34 949.027 1132.25 z" fill="rgb(29,28,31)" transform="translate(0,0)"></path>
<path d="M 863.225 1082.65 C 866.113 1085.11 864.306 1085.22 865.665 1088.29 C 866.025 1089.11 868.184 1089.2 868.989 1089.21 C 870.127 1089.14 871.661 1090.18 870.911 1091.44 C 870.122 1092.77 865.619 1091.54 865.353 1093.13 C 864.738 1096.78 864.741 1102.11 865.303 1105.77 C 865.384 1106.3 866.998 1107.06 867.482 1106.95 C 869.737 1106.87 870.456 1107.9 871.622 1109.53 C 855.461 1112.27 864.855 1100.63 861.673 1093.18 C 861.481 1092.73 852.307 1090.8 861.012 1088.88 C 861.904 1088.68 862.978 1083.38 863.225 1082.65 z" fill="rgb(29,28,31)" transform="translate(0,0)"></path>
<path d="M 659.533 1132.51 C 663.059 1135.06 660.885 1135.34 662.242 1138.89 C 662.723 1140.15 667.416 1138.5 667.709 1140.6 C 667.957 1141.99 666.312 1142.24 665.509 1142.36 C 662.971 1142.73 660.936 1142.23 661.275 1145.49 C 661.55 1148.13 660.498 1152.94 662.021 1155.43 C 663.159 1157.3 667.16 1157.41 668.963 1157.75 C 657.498 1166.62 657.502 1148.77 657.939 1143.54 C 657.974 1143.13 649.55 1141.32 657.4 1139.52 C 658.546 1139.25 659.326 1133.49 659.533 1132.51 z" fill="rgb(29,28,31)" transform="translate(0,0)"></path>
<path d="M 882.838 1088.62 C 887.862 1090.87 889.171 1098.9 891.95 1105.32 L 892.394 1104.27 C 894.293 1099.88 896.016 1093.44 898.487 1089.85 C 899.235 1088.77 901.875 1088.88 900.295 1092.22 C 897.796 1099.05 895.099 1105.82 892.209 1112.5 C 888.795 1106.01 883.823 1095.87 882.838 1088.62 z" fill="rgb(29,28,31)" transform="translate(0,0)"></path>
<path d="M 1168.92 1082.5 C 1174.19 1084.84 1167.07 1088.85 1175.06 1089.64 C 1177.83 1091.61 1174.97 1091.96 1172.88 1092.02 C 1169.66 1092.1 1171.14 1103.9 1171.53 1105.08 C 1172.04 1106.61 1176.86 1108.07 1178.12 1108.72 C 1165.92 1113.84 1167.97 1102.11 1167.76 1094 C 1167.71 1091.85 1161.99 1091.05 1165.25 1089.57 C 1168.54 1088.08 1167.88 1086.18 1168.92 1082.5 z" fill="rgb(29,28,31)" transform="translate(0,0)"></path>
<path d="M 591.994 1082.74 C 595.838 1085.49 592.132 1088.05 596.004 1088.97 C 596.697 1089.13 599.966 1088.64 598.92 1090.89 C 598.471 1091.86 594.697 1091.42 594.216 1092.57 C 593.792 1096.12 593.475 1102 594.483 1105.28 C 594.892 1106.61 597.892 1105 600.503 1109.09 C 587.794 1112.72 591.959 1100.48 590.727 1092.98 C 590.565 1091.99 587.547 1091.78 586.512 1090.76 C 585.947 1088.4 589.563 1089.41 590.289 1088.52 C 591.053 1087.59 591.711 1083.83 591.994 1082.74 z" fill="rgb(29,28,31)" transform="translate(0,0)"></path>
<path d="M 693.127 1138.7 C 694.382 1139.37 696.599 1140.82 696.642 1140.79 C 700.582 1137.59 707.976 1140.62 702.503 1142.84 C 700.038 1143.84 696.339 1141.36 696.429 1148.75 C 696.405 1150.77 697.201 1158.94 695.057 1159.52 C 694.668 1159.62 694.253 1159.55 693.925 1159.32 C 692.326 1158.17 693.076 1141.54 693.127 1138.7 z" fill="rgb(29,28,31)" transform="translate(0,0)"></path>
<path d="M 809.15 1130.44 C 814.091 1133.14 811.961 1153.93 811.565 1159.92 C 811.165 1159.84 809.178 1159.66 809.101 1158.98 C 808.198 1151.03 808.548 1138.17 809.15 1130.44 z" fill="rgb(29,28,31)" transform="translate(0,0)"></path>
<path d="M 751.207 1088.72 C 752.426 1089.37 753.446 1090.17 754.623 1090.63 C 755.303 1090.74 756.475 1090.27 756.986 1089.78 C 758.104 1088.5 764.09 1088.59 762.662 1091.22 C 761.894 1092.64 757.323 1091.34 755.558 1093.57 C 753.982 1095.56 754.093 1095.09 754.006 1097.75 C 753.982 1100.45 754.918 1109.02 752.628 1110.01 C 749.705 1109.64 751.132 1091.83 751.207 1088.72 z" fill="rgb(29,28,31)" transform="translate(0,0)"></path>
<path d="M 584.908 1138.82 C 585.84 1139.6 588.616 1142.13 585.278 1142.45 C 576.085 1143.32 578.981 1153.82 577.539 1160.92 C 573.949 1156.76 575.032 1140.52 577.007 1140.05 C 582.343 1141.63 575.301 1143.29 584.908 1138.82 z" fill="rgb(29,28,31)" transform="translate(0,0)"></path>
<path d="M 878.373 1088.26 C 878.539 1089.74 880.88 1114.83 875.578 1109.23 C 875.012 1108.63 875.31 1093.48 875.147 1090.43 L 878.373 1088.26 z" fill="rgb(29,28,31)" transform="translate(0,0)"></path>
<path d="M 1086.07 1088.76 C 1090.59 1091.6 1088.25 1105.41 1087.87 1110.68 C 1082.6 1108.23 1084.62 1093.13 1086.07 1088.76 z" fill="rgb(29,28,31)" transform="translate(0,0)"></path>
<path d="M 851.714 1089.28 C 856.526 1092.64 854.645 1105.84 853.552 1111.07 C 849.113 1107.21 850.909 1094.91 851.714 1089.28 z" fill="rgb(29,28,31)" transform="translate(0,0)"></path>
<path d="M 877.991 1086.11 C 878.473 1086.67 878.915 1087.18 879.289 1087.79 C 878.984 1087.95 878.678 1088.1 878.373 1088.26 L 875.147 1090.43 C 874.331 1086.87 874.237 1087.21 877.991 1086.11 z" fill="rgb(233,233,233)" transform="translate(0,0)"></path>
<path d="M 852.488 1081.43 C 853.528 1081.4 854.442 1082.11 854.681 1083.12 C 854.921 1084.13 854.421 1085.18 853.481 1085.62 C 852.669 1086.01 851.703 1085.86 851.042 1085.25 C 850.38 1084.64 850.156 1083.69 850.474 1082.85 C 850.792 1082.01 851.589 1081.45 852.488 1081.43 z" fill="rgb(29,28,31)" transform="translate(0,0)"></path>
<path d="M 1085.2 1080.6 L 1085.63 1080.76 C 1088.2 1081.67 1090.54 1082.29 1087 1083.97 C 1083.73 1084.18 1084.02 1083.75 1085.2 1080.6 z" fill="rgb(29,28,31)" transform="translate(0,0)"></path>
<path d="M 876.822 1083.42 C 877.13 1083.32 878.04 1082.91 878.486 1083.14 C 878.635 1083.22 878.722 1083.32 878.763 1083.49 C 878.905 1084.07 878.466 1084.87 878.271 1085.36 C 878.174 1085.61 878.085 1085.86 877.991 1086.11 C 876.881 1085.86 875.858 1085.85 875.213 1084.96 C 875.149 1084.04 876.157 1083.81 876.822 1083.42 z" fill="rgb(29,28,31)" transform="translate(0,0)"></path>
<path d="M 855.342 1090.23 C 856.056 1090.12 856.114 1089.99 856.482 1090.26 C 856.482 1090.84 856.382 1091.38 856.277 1091.97 C 855.723 1092.7 855.953 1092.51 855.582 1092.73 L 855.497 1092.67 C 855.259 1091.96 855.355 1090.96 855.342 1090.23 z" fill="rgb(233,233,233)" transform="translate(0,0)"></path>
<path d="M 1408.72 608.313 C 1393.75 615.455 1375.09 614.042 1365.51 600.488 C 1336.62 559.617 1399.43 523.972 1422.77 569.052 C 1423.41 572.987 1424.73 575.049 1425.11 579.795 C 1425.69 581.409 1426.29 583.017 1426.91 584.618 C 1425.65 590.058 1424.4 593.373 1422.25 598.449 C 1420.5 601.387 1420.67 603.19 1418.57 605.701 C 1414.04 608.512 1414.85 610.168 1411.92 612.292 L 1408.72 608.313 z" fill="rgb(233,233,233)" transform="translate(0,0)"></path>
<path d="M 1421.11 597.077 L 1422.25 598.449 C 1420.5 601.387 1420.67 603.19 1418.57 605.701 C 1414.04 608.512 1414.85 610.168 1411.92 612.292 L 1408.72 608.313 C 1413.55 605.188 1418.16 602.092 1421.11 597.077 z" fill="rgb(105,105,106)" transform="translate(0,0)"></path>
<path d="M 1425.11 579.795 C 1425.69 581.409 1426.29 583.017 1426.91 584.618 C 1425.65 590.058 1424.4 593.373 1422.25 598.449 L 1421.11 597.077 C 1424.46 587.974 1424.6 589.845 1425.11 579.795 z" fill="rgb(165,164,166)" transform="translate(0,0)"></path>
<path d="M 1383.8 579.494 C 1386.76 578.163 1390.21 578.556 1392.79 580.516 C 1395.38 582.477 1396.68 585.692 1396.19 588.898 C 1395.71 592.104 1393.51 594.788 1390.46 595.893 C 1385.98 597.517 1381.02 595.31 1379.23 590.898 C 1377.44 586.486 1379.46 581.448 1383.8 579.494 z" fill="rgb(29,28,31)" transform="translate(0,0)"></path>
<path d="M 1346.7 549.213 L 1346.9 549.54 C 1363.1 576.48 1335.18 607.283 1307.01 595.875 C 1299.36 592.739 1293.29 586.651 1290.19 578.987 C 1286.55 569.802 1286.5 561.013 1290.72 551.971 C 1294.27 544.519 1300.72 538.841 1308.56 536.252 C 1317.27 533.306 1325.51 533.739 1333.7 537.709 C 1335.18 538.925 1336.74 540.094 1338.24 541.297 C 1339.48 542.402 1339.96 542.84 1341.19 543.777 C 1343.39 545.699 1344.68 547.173 1346.7 549.213 z" fill="rgb(233,233,233)" transform="translate(0,0)"></path>
<path d="M 1330.62 562.817 C 1335.22 562.963 1338.87 562.564 1342.11 566.457 C 1343.37 568 1343.94 570.001 1343.68 571.981 C 1343.18 575.727 1341.5 577.091 1338.68 579.263 C 1326.09 578.884 1319.7 573.006 1330.62 562.817 z" fill="rgb(29,28,31)" transform="translate(0,0)"></path>
<path d="M 1341.87 633.913 C 1343.04 634.402 1351.73 639.904 1353.12 640.852 C 1361.74 646.745 1372.52 638.847 1376.89 640.019 C 1369.33 650.072 1347.35 645.459 1341.87 633.913 z" fill="rgb(233,233,233)" transform="translate(0,0)"></path>
<metadata><recraft-signature>{"signed_by": "recraft", "signature_b64": "2tVQFG1jR3fkEp7MdUlFujpiE0yFS+GfSljkQnsehFid5ivEHUflrF9xvN7dTeT24O0BBCkXZ0eDzawVzgf5BQ==", "signing_algo": "Ed25519", "generation_timestamp": 1777068834, "identifier": "fc10f435-5d71-42c0-8f6b-a8c4013a3cef"}</recraft-signature></metadata></svg>