<svg xmlns="http://www.w3.org/2000/svg" height="1024" preserveAspectRatio="none" style="display: block;" version="1.1" viewBox="0 0 2048 2048" width="1024">
<path d="M 0 0 L 2048 0 L 2048 2048 L 0 2048 L 0 0 z" fill="rgb(30,29,29)" transform="translate(0,0)"></path>
<path d="M 927.327 471.067 C 948.819 470.354 972.855 470.853 994.49 470.843 L 1115.27 470.818 L 1204.59 470.88 C 1217.11 470.896 1230.16 469.919 1242.61 470.621 C 1246.64 470.849 1250.86 471.649 1254.1 474.24 C 1257.64 477.072 1258.79 481.598 1259.1 485.919 C 1260.06 499.289 1253.39 511.17 1245.71 521.534 C 1202.88 579.345 1142.08 569.361 1118.76 597.384 C 1112.41 605.012 1109.58 615.9 1110.91 625.71 C 1113.67 646.032 1135.18 653.247 1149.44 664.02 C 1160.96 672.718 1164.28 682.168 1166.3 695.866 C 1250.29 696.911 1336.2 696.063 1420.26 696.028 L 1483.84 696.01 C 1518.54 696.009 1547.96 693.797 1574.64 720.415 C 1595.54 741.263 1600.56 761.357 1600.59 790.206 C 1600.8 954.654 1600.72 1119.11 1600.71 1283.56 L 1600.74 1432.15 C 1600.74 1453.19 1601.84 1496.58 1599 1515.49 C 1596.42 1532.88 1588.32 1548.97 1575.89 1561.4 C 1563.59 1573.79 1547.75 1582.07 1530.55 1585.09 C 1518.48 1587.13 1493 1586.51 1480.04 1586.49 L 1393.13 1586.41 L 1089.5 1586.33 L 702.803 1586.51 L 587.758 1586.57 C 542.705 1586.59 496.758 1594.22 465.218 1554.99 C 455.076 1542.36 448.901 1527.02 447.474 1510.89 C 446.226 1497.85 446.862 1477.05 446.897 1463.24 L 446.98 1383.1 L 446.887 1112.07 L 446.911 882.513 L 446.831 811.781 C 446.821 800.364 446.308 781.601 447.514 770.595 C 449.831 748.687 460.938 728.657 478.293 715.087 C 510.403 689.82 548.877 696.019 587.659 696.028 L 718.508 696.035 L 845.603 695.984 C 860.156 695.976 897.156 695.125 910.211 696.755 C 918.587 656.314 938.878 666.576 960.39 639.235 C 967.109 630.695 968.831 617.972 966.473 607.111 C 959.72 576.441 917.862 584.925 894.397 580.89 C 861.959 576.25 833.569 560.994 812.956 535.329 C 806.13 526.83 783.98 500.596 791.728 489.02 C 797.741 484.959 830.307 486.387 839.256 486.403 L 920.483 486.634 C 921.667 478.61 921.577 476.476 927.327 471.067 z" fill="rgb(249,247,247)" transform="translate(0,0)"></path>
<path d="M 1222.25 1368.5 L 1231.37 1368.29 C 1281.69 1367.38 1333.44 1368.28 1383.83 1368.2 C 1401.13 1368.18 1450.49 1367.55 1464.35 1370.6 C 1477.58 1373.56 1489.72 1380.12 1499.46 1389.56 C 1514.25 1403.9 1522.53 1423.66 1522.39 1444.26 C 1522.31 1464.22 1513.73 1482.16 1499.85 1496.24 C 1474.02 1522.43 1434.84 1517.34 1401.18 1517.2 L 1320.75 1516.98 L 1161.37 1517.14 C 1144.44 1517.16 1095.29 1518.2 1082 1515.44 C 1068.76 1512.59 1056.59 1506.07 1046.86 1496.65 C 1032.63 1482.87 1024.47 1464.99 1024.17 1445.12 C 1023.8 1425.21 1031.45 1405.98 1045.41 1391.77 C 1072.96 1364.21 1105.01 1368.67 1140.6 1368.62 L 1222.25 1368.5 z" fill="rgb(188,185,185)" transform="translate(0,0)"></path>
<path d="M 1108.58 1376.52 C 1184.72 1374.65 1265.16 1376.1 1341.58 1376.04 L 1413.59 1375.88 C 1445.14 1375.82 1469.51 1372.49 1494.36 1395.57 C 1521.29 1420.57 1521.76 1462.35 1496.51 1488.69 C 1478.81 1507.15 1462.02 1508.87 1437.87 1509.63 C 1361.58 1510.71 1282.47 1509.68 1205.95 1509.77 L 1133.8 1509.92 C 1119.07 1509.95 1103.14 1510.82 1088.64 1508.74 C 1037.17 1501.34 1013.47 1437.55 1049.23 1399.08 C 1066.39 1380.62 1084.62 1377.21 1108.58 1376.52 z" fill="rgb(249,247,247)" transform="translate(0,0)"></path>
<path d="M 1250.19 1430.12 L 1250.59 1430.15 C 1271.33 1431.47 1268.3 1454.23 1255.64 1458.36 L 1253.8 1459.03 C 1233.92 1455.32 1233.65 1434.78 1250.19 1430.12 z" fill="rgb(30,29,29)" transform="translate(0,0)"></path>
<path d="M 1248.8 1434.93 C 1256.55 1435.33 1259.41 1436.12 1259.37 1444.5 C 1259.34 1448.36 1259.12 1450.14 1256.17 1452.65 L 1255.05 1453.65 C 1249.23 1452.72 1245.23 1452.49 1244.42 1445.42 C 1243.96 1441.42 1244.98 1438.85 1247.74 1436.05 L 1248.8 1434.93 z" fill="rgb(249,247,247)" transform="translate(0,0)"></path>
<path d="M 1093.81 1419.08 C 1102.51 1418.57 1110.56 1418.33 1113.6 1428.32 C 1114.85 1432.44 1105.51 1434.05 1106.53 1426.74 C 1105.22 1423.81 1095.51 1424.4 1094.51 1425.56 C 1083.89 1437.84 1110.58 1433.59 1113.72 1442.03 C 1117.2 1451.4 1112.82 1454.82 1105.64 1458.34 C 1089.67 1460.24 1078.27 1446.93 1090.01 1446.14 C 1091.45 1446.04 1090.01 1451.52 1096.49 1453 C 1104.07 1454.74 1112.54 1448.97 1105.44 1443.19 C 1102.76 1441.15 1091.01 1441.33 1088.12 1435.97 C 1084.66 1429.53 1086.4 1423.83 1092.21 1420.14 L 1093.81 1419.08 z" fill="rgb(30,29,29)" transform="translate(0,0)"></path>
<path d="M 1438.33 1419.47 C 1441.71 1419.91 1443.33 1419.53 1445.41 1422.29 C 1457.09 1437.82 1468.74 1433.63 1449.94 1450.63 C 1448.69 1451.76 1443.96 1457.23 1442.03 1457.36 C 1431.95 1458.01 1443.4 1448.2 1445.38 1446.13 C 1445.88 1445.37 1447.08 1444.02 1446.81 1442.99 C 1446.03 1440.02 1423.74 1443.51 1420.64 1441.48 C 1419.56 1440.77 1418.99 1440.03 1418.67 1438.78 C 1419.54 1435.68 1421.8 1436.07 1424.5 1436.15 C 1433.32 1436.4 1442.18 1436.06 1451.01 1435.89 C 1444.35 1429.96 1438.12 1428.28 1438.33 1419.47 z" fill="rgb(236,157,103)" transform="translate(0,0)"></path>
<path d="M 1146.81 1431.13 C 1165.23 1429.94 1165.53 1436.11 1164.44 1456.57 C 1164.23 1460.62 1157.01 1455.94 1158.32 1455.41 C 1151.06 1458.37 1148.79 1459.46 1141.82 1456.67 C 1140.58 1453.02 1139.75 1454.18 1140.87 1446.95 C 1142.08 1439.09 1169.27 1444.68 1154.76 1435.51 C 1152.14 1433.85 1147.11 1438.71 1145.84 1438.93 C 1139.15 1440.08 1142.37 1434.93 1145.46 1432.32 L 1146.81 1431.13 z" fill="rgb(30,29,29)" transform="translate(0,0)"></path>
<path d="M 1149.21 1446.4 C 1153.85 1445.9 1162.99 1443.96 1156.58 1452.08 L 1155.71 1453.25 C 1150.4 1453.26 1141.83 1453.36 1149.21 1446.4 z" fill="rgb(249,247,247)" transform="translate(0,0)"></path>
<path d="M 1305.5 1431.14 C 1309.31 1430.92 1316.58 1430.03 1319.65 1432.71 C 1325.39 1437.9 1322.12 1446.84 1323.51 1453.41 C 1324.12 1456.31 1324.57 1457.84 1321.41 1458.2 C 1319.38 1458.72 1317.42 1454.99 1316.98 1455.36 C 1312.25 1459.28 1308.88 1459.2 1303.59 1458.15 L 1303.35 1457.85 C 1292.08 1444.35 1308.05 1441.48 1316.38 1441.58 C 1318.4 1441.6 1316.39 1434.98 1311 1435.45 C 1307.01 1435.81 1308.17 1437.71 1304.41 1438.96 C 1299.28 1437.97 1303.63 1433.07 1305.5 1431.14 z" fill="rgb(30,29,29)" transform="translate(0,0)"></path>
<path d="M 1312.74 1445.84 C 1321.78 1447.06 1315.59 1451.13 1311.01 1454.41 C 1301.64 1450.73 1305.88 1447.86 1312.74 1445.84 z" fill="rgb(249,247,247)" transform="translate(0,0)"></path>
<path d="M 1351.88 1430.4 C 1359.5 1431.44 1358.04 1430.15 1360.78 1437.97 C 1362.34 1442.4 1364.06 1447.19 1365.89 1451.52 C 1366.44 1449.72 1372.38 1424.08 1377.61 1431.69 C 1377.89 1432.11 1372.6 1446.7 1371.57 1449.76 C 1369.66 1454.8 1368.65 1461.97 1364.82 1465.74 C 1363.13 1467.41 1353.92 1468.64 1354.85 1464.41 C 1355.25 1462.57 1361.18 1462.59 1361.84 1460.07 C 1362.91 1455.99 1359.21 1450.38 1358.22 1446.45 C 1356.41 1441.28 1353.97 1435.47 1351.88 1430.4 z" fill="rgb(30,29,29)" transform="translate(0,0)"></path>
<path d="M 1277.07 1431.17 C 1303.18 1428.16 1293.4 1446.71 1288.97 1439.54 C 1280.57 1425.97 1264.19 1448.79 1284.98 1454.21 C 1286.15 1452.99 1289.66 1448.45 1290.63 1448.42 C 1302.37 1448.08 1282.18 1466.12 1273.79 1454.58 C 1268.04 1446.67 1267.19 1438.67 1275.56 1432.35 L 1277.07 1431.17 z" fill="rgb(30,29,29)" transform="translate(0,0)"></path>
<path d="M 1194.66 1423.22 C 1205.58 1425.59 1195.05 1430.91 1201.98 1431.62 C 1204.73 1431.9 1208.5 1431.3 1206.07 1436.51 C 1200.56 1438.34 1199.79 1433.19 1199.43 1442.5 C 1198.91 1456.16 1202.63 1449.18 1208.13 1455.47 C 1205.54 1458.05 1205.27 1458.74 1201.49 1457.89 C 1190.84 1455.8 1195.9 1443.4 1193.66 1437.39 C 1194.06 1438.49 1181.4 1434.28 1193.58 1430.58 C 1194.29 1430.37 1194.54 1424.16 1194.66 1423.22 z" fill="rgb(30,29,29)" transform="translate(0,0)"></path>
<path d="M 1124.56 1423.21 C 1135.79 1425.8 1121.92 1431.37 1135.92 1431.52 C 1138.73 1433.24 1135.62 1436.57 1133.49 1435.69 C 1125.98 1432.58 1129.61 1451.23 1129.68 1451.29 C 1132.64 1453.93 1135.38 1449.86 1137.7 1455.87 C 1118.84 1466.88 1124.79 1436.79 1123.53 1436.64 C 1116.59 1435.84 1114.88 1431.45 1123.18 1430.48 C 1124.02 1430.38 1124.45 1423.89 1124.56 1423.21 z" fill="rgb(30,29,29)" transform="translate(0,0)"></path>
<path d="M 1329.93 1419.18 C 1330.24 1419.26 1334.97 1420.08 1334.98 1420.66 C 1335.25 1432.97 1335.95 1446.72 1335.17 1458.99 C 1334.66 1458.84 1329.88 1457.8 1329.83 1456.99 C 1329.18 1444.79 1329.61 1431.49 1329.93 1419.18 z" fill="rgb(30,29,29)" transform="translate(0,0)"></path>
<path d="M 1169.97 1430.27 C 1177.18 1431.7 1173.01 1430.99 1175.59 1433.03 C 1175.63 1433.04 1187.45 1427.27 1187.24 1434.44 C 1187.07 1439.79 1179.15 1431.84 1175.62 1441.75 C 1175.61 1445.33 1175.63 1448.92 1175.66 1452.5 C 1175.73 1456.28 1175.49 1459.73 1170.75 1457.19 C 1169.78 1456.66 1169.95 1432.86 1169.97 1430.27 z" fill="rgb(30,29,29)" transform="translate(0,0)"></path>
<path d="M 1228.38 1419.38 C 1228.92 1419.52 1233.41 1420.31 1233.44 1421.18 C 1233.82 1433.18 1234.25 1446.72 1233.61 1458.74 C 1225.47 1456.97 1228.57 1455.03 1228.21 1445.5 C 1227.91 1437.3 1227.88 1427.56 1228.38 1419.38 z" fill="rgb(30,29,29)" transform="translate(0,0)"></path>
<path d="M 1342.51 1419.25 C 1342.7 1419.29 1347.39 1419.88 1347.42 1420.41 C 1347.95 1432.47 1348.14 1446.63 1347.45 1458.73 C 1346.48 1458.5 1343.15 1457.91 1343.05 1457.35 C 1341.84 1450.04 1342.32 1425 1342.51 1419.25 z" fill="rgb(30,29,29)" transform="translate(0,0)"></path>
<path d="M 929.135 478.333 C 986.656 476.478 1052.37 478.043 1110.6 478.027 C 1144.48 477.902 1178.36 477.967 1212.23 478.222 C 1221.34 478.312 1230.53 477.301 1239.59 477.719 C 1242.32 477.845 1245.92 478.229 1248.2 479.911 C 1250.47 481.587 1251.14 483.081 1251.53 485.847 C 1252.83 495.186 1247.81 505.269 1242.92 512.885 C 1205.59 570.913 1134.45 563.08 1111.58 594.639 C 1104.6 604.264 1102.47 616.54 1104.48 628.151 C 1108.57 651.751 1130.61 660.179 1148.09 672.22 C 1161.63 685.342 1159.34 705.86 1159.15 723.169 C 1139.02 723.672 1116.84 723.333 1096.72 723.13 C 1087.01 687.554 1056.41 698.633 1027.53 696.853 C 1002.64 695.319 985.769 696.433 978.536 723.698 C 958.321 723.811 938.106 723.785 917.892 723.621 C 917.322 685.046 915.819 678.954 950.867 658.829 C 972.462 646.429 982.168 612.038 967.027 591.382 C 957.796 578.788 941.068 576.777 926.9 574.641 C 926.617 558.182 924.595 488.479 929.135 478.333 z" fill="rgb(30,29,29)" transform="translate(0,0)"></path>
<path d="M 1058.83 515.234 C 1065.74 513.313 1073.16 515.286 1078.21 520.391 C 1083.25 525.496 1085.14 532.934 1083.15 539.829 C 1081.15 546.725 1075.57 551.999 1068.58 553.613 C 1058.09 556.033 1047.58 549.628 1044.93 539.193 C 1042.28 528.757 1048.45 518.115 1058.83 515.234 z" fill="rgb(249,247,247)" transform="translate(0,0)"></path>
<path d="M 1059.06 520.892 L 1061.65 520.9 L 1063.07 520.926 C 1072.49 521.04 1063.02 524.914 1064.01 528.489 C 1068 542.855 1076.8 527.4 1077.77 530.305 C 1079.31 534.941 1077.52 540.033 1075.52 543.664 C 1058.28 556.878 1038.48 536.098 1059.06 520.892 z" fill="rgb(30,29,29)" transform="translate(0,0)"></path>
<path d="M 996.562 515.498 C 1007.11 512.77 1017.88 519.108 1020.62 529.659 C 1023.35 540.21 1017.02 550.981 1006.47 553.722 C 995.912 556.466 985.13 550.127 982.392 539.567 C 979.655 529.007 986 518.229 996.562 515.498 z" fill="rgb(249,247,247)" transform="translate(0,0)"></path>
<path d="M 996.895 520.927 L 999.114 520.977 L 1001.15 521.048 L 1000.63 520.959 C 1010.08 521.904 997.091 525.431 1001.88 531.998 C 1008.58 541.186 1013.47 526.299 1014.96 533.96 C 1015.95 539.001 1013.65 542.475 1010.56 546.139 C 988.603 554.99 980.016 531.534 996.895 520.927 z" fill="rgb(30,29,29)" transform="translate(0,0)"></path>
<path d="M 1029.96 961.319 L 1031.11 961.257 C 1064.71 959.685 1084.44 981.262 1085.69 1013.07 C 1087.67 1063.06 1037.41 1092.34 999.919 1053.51 L 999.921 1071.5 L 999.882 1106.36 L 975.024 1106.17 L 975.154 963.611 L 1000.77 963.491 L 1000.84 979.941 C 1010.43 967.586 1014.51 964.124 1029.96 961.319 z" fill="rgb(30,29,29)" transform="translate(0,0)"></path>
<path d="M 1021.27 983.18 C 1037.43 982.036 1051.07 985.637 1057.64 1001.61 C 1065.91 1021.69 1057 1040.38 1038.11 1048.5 C 1028.04 1050.18 1010.81 1048.14 1005.72 1038.62 C 993.943 1016.61 997.735 992.861 1021.27 983.18 z" fill="rgb(249,247,247)" transform="translate(0,0)"></path>
<path d="M 904.22 961.242 C 905.111 961.183 906.003 961.136 906.895 961.099 C 937.029 959.93 957.227 980.55 959.243 1011.94 C 961.892 1053.16 925.019 1085.28 885.419 1064.54 C 881.254 1062.36 876.67 1057.43 873.124 1053.89 L 873.08 1072.5 L 873.063 1106.02 L 848.421 1105.89 L 848.811 963.679 L 873.131 963.546 C 873.147 968.768 873.478 974.346 873.693 979.592 C 882.816 967.012 888.713 963.919 904.22 961.242 z" fill="rgb(30,29,29)" transform="translate(0,0)"></path>
<path d="M 899.42 982.352 C 941.047 983.434 947.053 1037.34 908.972 1049.05 C 890.645 1049.28 877.311 1045.23 873.279 1024.48 C 869.355 1004.29 877.795 986.163 899.42 982.352 z" fill="rgb(249,247,247)" transform="translate(0,0)"></path>
<path d="M 589.461 921.349 C 619.974 918.937 647.95 930.115 662.389 958.574 C 666.018 965.724 667.56 972.626 669.565 980.361 L 642.241 980.374 C 632.27 947.923 598.049 935.709 569.56 953.5 C 547.025 967.573 544.764 1008.81 560.282 1029.32 C 567.475 1038.72 578.246 1044.71 590.025 1045.86 C 604.495 1047.42 617.357 1044.61 628.865 1035.47 C 636.877 1027.97 639.296 1021.57 642.694 1011.74 C 651.583 1011.44 660.831 1011.56 669.75 1011.55 C 666.701 1023.32 663.634 1033.61 656.473 1043.59 C 633.414 1075.85 581.127 1078.18 551.139 1055.47 C 507.243 1022.24 516.362 943.091 570.457 925.423 C 577.51 923.119 582.123 922.277 589.461 921.349 z" fill="rgb(30,29,29)" transform="translate(0,0)"></path>
<path d="M 796.874 494.236 C 835.196 492.947 880.871 494.496 919.763 494.954 C 919.882 521.668 919.86 548.382 919.696 575.096 C 894.516 575.535 872.028 571.179 849.982 558.162 C 829.631 546.147 802.491 517.523 796.874 494.236 z" fill="rgb(30,29,29)" transform="translate(0,0)"></path>
<path d="M 687.371 918.971 L 712 918.976 L 711.96 977.637 C 728.767 960.006 752.779 952.953 771.294 970.562 C 788.65 987.07 783.075 1044.6 782.979 1068.52 C 774.842 1068.43 766.705 1068.42 758.568 1068.46 L 758.386 1021.03 C 758.49 1010.5 758.89 998.804 751.701 990.333 C 747.87 985.77 742.28 983.05 736.325 982.853 C 730.344 982.728 724.577 985.08 720.39 989.354 C 708.736 1001.07 712.775 1050.27 712.8 1068.8 L 687.244 1068.75 C 687.732 1018.83 687.775 968.897 687.371 918.971 z" fill="rgb(30,29,29)" transform="translate(0,0)"></path>
<path d="M 1086.43 963.307 L 1111.62 963.158 L 1141.05 1043.3 C 1150.24 1023.84 1161.04 986.3 1169.8 963.928 C 1177.65 963.817 1185.61 963.862 1193.47 963.832 C 1184.38 987.649 1175.71 1011.63 1167.48 1035.75 C 1152.54 1075.78 1150.25 1111.84 1098.76 1105.93 L 1098.66 1083.01 C 1105.03 1083.11 1111.4 1083.12 1117.77 1083.05 C 1123.58 1079.35 1125.08 1077.42 1129.13 1071.89 C 1116.28 1035.48 1099.79 999.444 1086.43 963.307 z" fill="rgb(30,29,29)" transform="translate(0,0)"></path>
<path d="M 801.915 964.017 L 826.158 963.801 L 826.086 1068.88 L 801.483 1068.85 L 801.915 964.017 z" fill="rgb(30,29,29)" transform="translate(0,0)"></path>
<path d="M 937.991 1267.09 C 941.249 1266.97 946.843 1266.24 949.36 1268.19 C 949.388 1268.21 951.594 1269.87 952.012 1269.67 C 953.83 1268.79 953.931 1266.57 956.854 1266.78 C 957.653 1266.83 959.279 1267.08 959.616 1267.72 C 960.963 1270.26 959.262 1274.23 959.233 1276.97 L 959.168 1293.5 C 959.018 1310.88 940.524 1313.75 929.624 1302.02 C 935.246 1294.4 933.929 1299.37 941.43 1302.35 C 947.209 1304.64 954.101 1299.34 952.418 1294.15 C 951.848 1292.39 945.685 1297.57 941.506 1296.4 C 938.695 1295.61 934.293 1295.07 931.779 1291.16 C 925.478 1280.57 929.252 1272.79 937.991 1267.09 z" fill="rgb(93,90,90)" transform="translate(0,0)"></path>
<path d="M 941.892 1271.67 C 954.279 1273.82 955.926 1283.57 946.283 1291.07 C 933.035 1289.32 932.015 1278.37 941.892 1271.67 z" fill="rgb(249,247,247)" transform="translate(0,0)"></path>
<path d="M 817.244 1175.85 C 818.235 1176.03 824.015 1176.56 824.033 1177.98 C 824.141 1191.51 824.637 1205.88 823.544 1219.29 C 823.258 1222.8 816.1 1218.1 816.083 1218.09 C 807.014 1220.33 810.882 1223.64 798.61 1218.8 C 783.976 1204.34 795.853 1179.94 817.178 1193.13 C 817.106 1187.37 817.128 1181.61 817.244 1175.85 z" fill="rgb(93,90,90)" transform="translate(0,0)"></path>
<path d="M 803.654 1194.74 C 818.154 1194.76 822.017 1206.63 811.358 1215.47 C 798.03 1216.16 795.398 1203.51 802.59 1195.92 L 803.654 1194.74 z" fill="rgb(249,247,247)" transform="translate(0,0)"></path>
<path d="M 1009.59 1188.62 C 1010.58 1188.74 1015.07 1189.05 1015.4 1189.38 C 1017.21 1191.71 1016.15 1193.29 1019.89 1190.78 C 1026.05 1186.63 1036.99 1188.85 1039.61 1196.27 C 1043.66 1207.74 1041.97 1215.96 1031.13 1221.02 C 1027.14 1220.94 1023.55 1221.16 1019.99 1219.02 C 1019.16 1218.52 1018.33 1217.99 1017.48 1217.51 C 1015.37 1220.74 1018.24 1226.67 1016.39 1229.97 C 1015.92 1230.81 1010.4 1230.34 1010.36 1229.6 C 1009.54 1216.19 1009.78 1202.19 1009.59 1188.62 z" fill="rgb(93,90,90)" transform="translate(0,0)"></path>
<path d="M 1021.13 1195 L 1022.08 1194.94 C 1035.98 1193.97 1038.14 1206.74 1029.39 1215.22 C 1017.46 1214.26 1011.64 1205.3 1020.02 1196.25 L 1021.13 1195 z" fill="rgb(249,247,247)" transform="translate(0,0)"></path>
<path d="M 1110.75 1253.75 C 1111.31 1253.81 1116.72 1253.87 1116.78 1254.96 C 1117.44 1268.51 1117.49 1282.82 1116.92 1296.36 C 1116.78 1299.73 1110.17 1294.27 1108.23 1296.17 C 1104.39 1299.93 1096.89 1297.83 1092.25 1296.61 C 1081.91 1287.56 1082.66 1271.8 1096.51 1267.11 C 1103.57 1264.72 1109.01 1269.62 1110.44 1268.96 C 1111.03 1268.02 1110.75 1255.69 1110.75 1253.75 z" fill="rgb(93,90,90)" transform="translate(0,0)"></path>
<path d="M 1098.5 1272.89 C 1101.95 1271.76 1105.74 1272.59 1108.42 1275.04 C 1111.09 1277.49 1112.24 1281.19 1111.42 1284.73 C 1110.6 1288.27 1107.94 1291.09 1104.46 1292.11 C 1099.18 1293.67 1093.63 1290.7 1092 1285.44 C 1090.37 1280.18 1093.27 1274.59 1098.5 1272.89 z" fill="rgb(249,247,247)" transform="translate(0,0)"></path>
<path d="M 621.341 1254.36 C 621.657 1254.45 625.67 1255.37 625.699 1256.24 C 626.116 1269.54 625.833 1283.28 625.518 1296.62 C 625.45 1299.52 617.988 1296.47 618.933 1296.21 C 613.521 1297.7 609.999 1299.65 603.937 1297.38 C 602.819 1296.96 602.283 1296.84 601.107 1296.46 C 599.641 1294.94 597.176 1292.52 596.338 1290.37 C 590.808 1276.17 598.713 1263.94 614.472 1267.48 C 615.694 1267.76 616.999 1269.16 618.45 1269.04 C 620.619 1266.68 616.133 1259.06 621.341 1254.36 z" fill="rgb(93,90,90)" transform="translate(0,0)"></path>
<path d="M 607.999 1271.73 C 622 1273.56 623.265 1286.23 612.113 1293.29 C 598.93 1290.61 597.578 1279.03 607.999 1271.73 z" fill="rgb(249,247,247)" transform="translate(0,0)"></path>
<path d="M 1275.6 1267.21 C 1279.14 1267.63 1280.05 1267.29 1282.61 1269.67 C 1282.93 1269.97 1284.68 1268.86 1285.04 1268.57 C 1287.9 1266.27 1292.07 1266.63 1295.43 1267.3 C 1305.19 1269.42 1308.57 1279.68 1305.98 1288.51 C 1304.27 1294.33 1301.62 1295.86 1296.59 1298.58 C 1290.79 1299.2 1282.1 1295.55 1282.07 1295.57 C 1281.49 1296.68 1281.73 1303.22 1281.83 1304.55 C 1282.14 1308.4 1275.68 1307.25 1275.65 1306.45 C 1275.24 1296.47 1273.67 1276.68 1275.6 1267.21 z" fill="rgb(93,90,90)" transform="translate(0,0)"></path>
<path d="M 1286.56 1273.9 C 1291.38 1271.47 1297.25 1273.42 1299.67 1278.25 C 1302.08 1283.08 1300.11 1288.95 1295.27 1291.34 C 1290.46 1293.73 1284.62 1291.77 1282.22 1286.97 C 1279.82 1282.16 1281.76 1276.32 1286.56 1273.9 z" fill="rgb(249,247,247)" transform="translate(0,0)"></path>
<path d="M 597.921 785.045 C 609.943 784.551 603.933 784.389 611.533 787.544 C 611.157 787.588 619.574 781.723 618.959 787.932 C 618.209 795.501 621.093 812.392 616.481 817.888 C 611.425 823.914 599.525 824.541 593.674 818.271 L 592.311 816.88 C 589.468 808.313 600.317 815.675 602.571 816.793 C 607.101 819.039 614.701 815.833 612.092 809.817 C 609.774 808.35 606.019 812.033 602.003 811.73 C 588.556 810.717 585.793 794.535 596.422 786.241 L 597.921 785.045 z" fill="rgb(93,90,90)" transform="translate(0,0)"></path>
<path d="M 601.161 790.454 C 605.397 788.655 610.287 790.657 612.045 794.909 C 613.804 799.162 611.758 804.032 607.489 805.752 C 603.276 807.449 598.483 805.434 596.747 801.237 C 595.011 797.04 596.981 792.228 601.161 790.454 z" fill="rgb(249,247,247)" transform="translate(0,0)"></path>
<path d="M 632.868 785.017 C 636.204 784.932 642.701 784.103 644.258 786.367 C 644.652 786.941 645.595 787.722 646.366 787.746 C 648.518 786.071 653.307 782.493 653.387 788.96 C 653.457 794.578 655.416 814.845 651.574 818.179 C 643.397 825.271 634.193 824.574 626.404 817.108 C 628.349 811.254 629.629 815.279 635.033 816.755 C 638.48 817.697 640.671 818.222 644.582 817.027 C 647.078 816.264 647.579 811.819 646.471 809.637 C 643.455 809.083 639.899 812.501 633.816 811.478 C 630.974 811.018 628.436 809.433 626.775 807.081 C 622.433 800.903 624.473 790.418 631.219 786.114 L 632.868 785.017 z" fill="rgb(93,90,90)" transform="translate(0,0)"></path>
<path d="M 634.879 790.459 C 637.613 788.987 640.929 789.107 643.55 790.771 C 646.171 792.436 647.689 795.386 647.52 798.486 C 647.351 801.586 645.52 804.354 642.734 805.723 C 638.534 807.786 633.456 806.106 631.315 801.946 C 629.174 797.786 630.759 792.677 634.879 790.459 z" fill="rgb(249,247,247)" transform="translate(0,0)"></path>
<path d="M 1142.82 1189.7 C 1148.31 1187.52 1154.55 1188.46 1159.15 1192.16 C 1163.75 1195.86 1166.01 1201.75 1165.06 1207.58 C 1164.11 1213.4 1160.1 1218.27 1154.57 1220.32 C 1146.14 1223.44 1136.77 1219.2 1133.56 1210.81 C 1130.34 1202.42 1134.47 1193.01 1142.82 1189.7 z" fill="rgb(93,90,90)" transform="translate(0,0)"></path>
<path d="M 1145.06 1195.83 C 1148.36 1194.45 1152.16 1194.95 1154.99 1197.14 C 1157.82 1199.33 1159.25 1202.88 1158.74 1206.43 C 1158.23 1209.97 1155.85 1212.97 1152.52 1214.27 C 1147.44 1216.26 1141.72 1213.79 1139.67 1208.74 C 1137.63 1203.68 1140.03 1197.93 1145.06 1195.83 z" fill="rgb(249,247,247)" transform="translate(0,0)"></path>
<path d="M 928.733 1189.06 C 945.16 1187.93 953.855 1193.27 949.687 1212.99 C 948.909 1216.67 943.899 1218.87 940.739 1220.33 C 917.737 1223.63 910.33 1199.28 928.733 1189.06 z" fill="rgb(93,90,90)" transform="translate(0,0)"></path>
<path d="M 930.311 1195.89 C 933.543 1194.28 937.399 1194.57 940.357 1196.64 C 943.315 1198.71 944.9 1202.24 944.486 1205.83 C 944.073 1209.42 941.727 1212.49 938.375 1213.84 C 933.473 1215.8 927.892 1213.55 925.726 1208.74 C 923.561 1203.92 925.584 1198.25 930.311 1195.89 z" fill="rgb(249,247,247)" transform="translate(0,0)"></path>
<path d="M 810.438 919.176 C 816.249 917.883 822.303 919.855 826.237 924.323 C 830.171 928.791 831.361 935.046 829.342 940.647 C 827.323 946.247 822.416 950.305 816.536 951.235 C 807.826 952.614 799.595 946.825 797.947 938.162 C 796.299 929.498 801.829 921.091 810.438 919.176 z" fill="rgb(30,29,29)" transform="translate(0,0)"></path>
<path d="M 1019.87 1266.31 C 1028.6 1264.58 1037.11 1270.2 1038.93 1278.92 C 1040.76 1287.63 1035.22 1296.19 1026.52 1298.11 C 1020.82 1299.37 1014.87 1297.46 1010.96 1293.12 C 1007.05 1288.78 1005.77 1282.67 1007.61 1277.12 C 1009.45 1271.58 1014.13 1267.45 1019.87 1266.31 z" fill="rgb(93,90,90)" transform="translate(0,0)"></path>
<path d="M 1020.57 1272.8 C 1025.66 1271.42 1030.93 1274.32 1032.48 1279.36 C 1034.04 1284.4 1031.31 1289.77 1026.33 1291.49 C 1022.95 1292.65 1019.2 1291.88 1016.56 1289.48 C 1013.92 1287.08 1012.79 1283.43 1013.63 1279.95 C 1014.46 1276.48 1017.12 1273.74 1020.57 1272.8 z" fill="rgb(249,247,247)" transform="translate(0,0)"></path>
<path d="M 1247.79 1267.57 C 1253.29 1265.47 1259.49 1266.52 1263.99 1270.31 C 1268.49 1274.11 1270.57 1280.04 1269.43 1285.81 C 1268.29 1291.59 1264.11 1296.28 1258.51 1298.08 C 1250.17 1300.76 1241.21 1296.3 1238.31 1288.04 C 1235.41 1279.78 1239.61 1270.7 1247.79 1267.57 z" fill="rgb(93,90,90)" transform="translate(0,0)"></path>
<path d="M 1249.97 1273.72 C 1254.78 1271.79 1260.24 1274.04 1262.31 1278.79 C 1264.38 1283.53 1262.3 1289.06 1257.61 1291.27 C 1254.46 1292.76 1250.74 1292.42 1247.91 1290.37 C 1245.08 1288.32 1243.59 1284.9 1244.02 1281.43 C 1244.45 1277.97 1246.73 1275.01 1249.97 1273.72 z" fill="rgb(249,247,247)" transform="translate(0,0)"></path>
<path d="M 830.83 1267.7 C 836.163 1265.35 842.35 1266.05 847.021 1269.54 C 851.693 1273.02 854.125 1278.75 853.386 1284.54 C 852.648 1290.32 848.853 1295.26 843.455 1297.46 C 835.272 1300.79 825.926 1296.94 822.474 1288.8 C 819.022 1280.67 822.744 1271.27 830.83 1267.7 z" fill="rgb(93,90,90)" transform="translate(0,0)"></path>
<path d="M 833.747 1271.83 C 848.102 1272.75 850.833 1283.94 840.839 1292.95 C 826.467 1292.6 823.921 1280.76 833.747 1271.83 z" fill="rgb(249,247,247)" transform="translate(0,0)"></path>
<path d="M 767.957 1189.05 C 774.187 1189.01 783.469 1189.51 785.568 1196.37 C 789.624 1209.65 787.05 1216.54 775.269 1221.26 C 752.402 1221.04 749.185 1197.02 767.957 1189.05 z" fill="rgb(93,90,90)" transform="translate(0,0)"></path>
<path d="M 769.951 1193.82 C 783.374 1196.65 783.264 1210.25 773.29 1216.18 C 759.686 1212.86 759.249 1200.77 769.951 1193.82 z" fill="rgb(249,247,247)" transform="translate(0,0)"></path>
<path d="M 794.179 772.526 C 795.013 772.655 800.567 772.929 800.581 774.386 C 800.7 786.78 801.228 799.835 799.533 812.081 C 799.385 813.154 796.119 813.628 795.381 812.502 C 792.741 809.826 792.378 811.86 788.946 812.88 C 785.93 813.776 781.864 813.144 778.428 812.471 C 771.747 806.748 770.708 799.216 773.497 790.843 C 777.117 779.972 794.498 786.244 793.628 786.52 C 794.528 785.352 794.168 774.763 794.179 772.526 z" fill="rgb(93,90,90)" transform="translate(0,0)"></path>
<path d="M 785.065 788.568 C 795.074 791.33 797.889 799.532 790.238 807.004 L 789.068 808.176 C 774.576 807.423 775.569 795.617 785.065 788.568 z" fill="rgb(249,247,247)" transform="translate(0,0)"></path>
<path d="M 536.975 1176.23 C 542.726 1175.58 547.773 1174.72 553.771 1177.57 C 555.969 1177.59 561.531 1187.07 559.657 1188.37 C 553.224 1192.82 550.409 1183.17 548.622 1182.66 C 546.899 1181.72 540.727 1181.36 539.089 1182.52 C 526.333 1192.72 548.105 1194.18 551.961 1196.34 C 567.276 1204.89 563.672 1216.53 548.88 1221.06 C 542.269 1221.09 536.464 1221.61 531.209 1216.42 C 529.235 1214.13 527.078 1210.52 527.07 1207.46 C 527.065 1205.29 530.679 1205.36 532.016 1205.76 C 532.98 1206.05 533.719 1206.97 534.085 1207.91 C 534.975 1210.2 536.199 1212.68 538.506 1213.83 C 541.68 1215.28 546.733 1215.4 549.998 1214.05 C 552.192 1213.13 553.607 1212.16 554.541 1209.89 C 554.959 1208.88 554.803 1207.87 554.266 1206.95 C 552.242 1203.47 546.548 1202.19 542.984 1201.28 C 537.926 1199.99 533.136 1199.09 529.934 1194.53 C 528.086 1191.9 528.332 1187.41 528.951 1184.47 C 529.527 1181.7 531.619 1179.52 533.985 1178.11 C 534.982 1177.48 535.979 1176.86 536.975 1176.23 z" fill="rgb(93,90,90)" transform="translate(0,0)"></path>
<path d="M 567.23 1188.73 C 577.472 1189.57 571.358 1188.77 575.257 1191.55 C 575.753 1191.61 576.998 1191.12 577.299 1190.85 C 584.014 1184.73 592.528 1193.33 593.16 1193.47 C 595.668 1191.74 597.643 1189.02 600.983 1189.03 C 617.696 1189.12 613.564 1204.22 614.019 1215.5 C 614.231 1220.74 611.774 1221.17 607.703 1219.29 C 606.231 1218.61 607.806 1202.7 607.129 1200.47 C 605.97 1194.27 602.013 1194.87 596.942 1195.28 C 592.375 1203.42 596.294 1210.06 594.503 1218.84 C 594.201 1220.33 587.898 1221.91 587.791 1217.05 C 587.705 1213.14 589.494 1197.22 584.421 1195.55 C 569.059 1190.48 576.152 1211.84 573.939 1219.35 C 573.693 1220.19 567.551 1221.14 567.606 1217.51 C 567.751 1208 567.893 1198.22 567.23 1188.73 z" fill="rgb(93,90,90)" transform="translate(0,0)"></path>
<path d="M 957.053 1188.29 C 957.801 1188.48 958.553 1188.66 959.307 1188.82 C 963.922 1189.79 962.214 1193.05 965.069 1191.13 C 967.58 1188.47 975.972 1187.92 978.519 1190.88 C 982.923 1196 984.989 1187.31 991.99 1189.02 C 994.588 1188.52 997.688 1190.38 999.334 1191.68 C 1002.36 1194.02 1007.36 1225.35 997.435 1220.09 C 991.087 1216.72 1001.51 1195.3 989.508 1194.86 L 985.456 1194.73 C 985.17 1195.16 984.884 1195.59 984.598 1196.02 C 980.803 1199.2 984.573 1218.05 982.297 1219.31 C 969.484 1226.38 981.074 1197.49 972.415 1195.22 C 954.195 1190.45 970.913 1225.04 957.331 1219.38 C 956.118 1218.88 956.978 1209.48 956.763 1208.37 C 956.846 1202.05 956.524 1194.56 957.053 1188.29 z" fill="rgb(93,90,90)" transform="translate(0,0)"></path>
<path d="M 1491.39 791.856 C 1496.81 786.515 1505.33 776.012 1511.98 772.025 C 1512.57 771.676 1516.04 773.905 1515.54 774.516 C 1509.53 781.85 1502.25 788.709 1495.75 795.826 C 1501.73 802.385 1514.1 811.331 1514.05 819.625 C 1509.08 817.685 1497.35 805.611 1492.71 801.29 L 1491.24 799.94 C 1488.08 802.634 1471.17 818.781 1470 818.952 C 1459.04 820.552 1486.81 795.768 1486.97 795.592 C 1480.54 788.424 1473.92 782.299 1467.14 775.565 C 1466.74 775.169 1467.46 773.365 1467.62 772.969 L 1468.15 771.567 C 1475.07 773.934 1485.42 786.07 1491.39 791.856 z" fill="rgb(188,185,185)" transform="translate(0,0)"></path>
<path d="M 539.159 1266.15 C 541.724 1266.34 543.983 1266.5 546.506 1267.08 C 549.298 1267.72 551.695 1269.5 553.114 1271.99 C 555.622 1276.41 555.163 1291.29 554.694 1296.37 C 554.355 1300.05 547.325 1294.87 545.506 1295.92 C 537.655 1300.46 531.67 1298.38 526.482 1291.34 C 529.177 1268.39 554.551 1287.38 546.218 1273.78 C 542.384 1267.53 533.504 1276.84 533.901 1276.87 C 521.691 1276.2 532.628 1267.98 539.159 1266.15 z" fill="rgb(93,90,90)" transform="translate(0,0)"></path>
<path d="M 536.787 1284.24 C 543.932 1284 554.12 1282.79 544.607 1292.31 C 539.054 1292.48 528.762 1291.47 536.787 1284.24 z" fill="rgb(249,247,247)" transform="translate(0,0)"></path>
<path d="M 628.821 1189.02 C 645.683 1188.56 647.962 1192.1 647.311 1208.5 C 647.296 1218.25 649.028 1223.63 639.389 1218.33 C 637.74 1217.42 632.391 1226.33 620.661 1216.52 C 617.776 1198.25 631.342 1204.95 638.933 1200.66 C 643.218 1194.5 631.458 1191.67 626.874 1198.35 C 624.554 1201.72 614.112 1197.56 628.821 1189.02 z" fill="rgb(93,90,90)" transform="translate(0,0)"></path>
<path d="M 636.387 1205.95 C 645.728 1206.64 637.96 1214.22 631.93 1216.42 C 623.558 1209.68 627.476 1208.24 636.387 1205.95 z" fill="rgb(249,247,247)" transform="translate(0,0)"></path>
<path d="M 1132.61 1267.16 C 1137.77 1266.62 1156.04 1264.71 1153.7 1283.01 C 1153.43 1285.18 1132.7 1283.03 1131.55 1284.21 C 1127.18 1288.66 1138.04 1296.03 1145.24 1290.27 L 1146.79 1289.1 C 1149.32 1287.42 1153.5 1288.53 1152.68 1290.95 C 1149.44 1300.56 1130.65 1300.31 1126.07 1292.02 C 1120.47 1281.84 1122.69 1273.06 1132.61 1267.16 z" fill="rgb(93,90,90)" transform="translate(0,0)"></path>
<path d="M 1134.76 1271.67 C 1138.07 1271.63 1147.61 1272.07 1146.34 1277.94 C 1145.38 1278.97 1145.55 1278.82 1144.15 1279.22 C 1134.92 1279.23 1125.87 1282 1134.76 1271.67 z" fill="rgb(249,247,247)" transform="translate(0,0)"></path>
<path d="M 1199.02 1267.07 C 1207.28 1266.58 1220.11 1267.67 1219.99 1283.01 C 1219.96 1285.89 1201.41 1283.05 1197.57 1284.42 C 1196.92 1284.66 1196.4 1285.16 1196.13 1285.8 C 1194.2 1290.61 1204.65 1294.27 1210.86 1290.06 L 1212.26 1289.19 C 1212.84 1288.46 1214.33 1287.35 1215.02 1287.64 C 1225.25 1291.98 1207.31 1300.33 1200.01 1297.79 C 1190.98 1294.65 1187.04 1287.34 1189.18 1278.51 C 1190.14 1274.39 1192.73 1270.84 1196.36 1268.66 C 1196.66 1268.48 1196.97 1268.31 1197.28 1268.13 L 1199.02 1267.07 z" fill="rgb(93,90,90)" transform="translate(0,0)"></path>
<path d="M 1201.92 1271.88 C 1209.25 1272.78 1217.29 1279.06 1208.25 1278.89 C 1202.01 1278.9 1190.73 1280.93 1200.36 1273.17 L 1201.92 1271.88 z" fill="rgb(249,247,247)" transform="translate(0,0)"></path>
<path d="M 839.972 1189.02 C 849.411 1188.45 859.009 1189.33 860.154 1200.98 C 860.314 1202.79 860.491 1204.59 860.684 1206.4 C 854.802 1206.37 844.849 1205.98 838.738 1206.57 C 838.366 1206.65 837.577 1207.54 837.679 1207.9 C 840.722 1218.56 849.222 1215.17 854.6 1210.47 C 856.435 1210.01 861.052 1210.53 859.848 1212.47 C 849.971 1228.45 826.752 1220.68 830.977 1199.99 C 831.771 1196.17 834.069 1192.82 837.354 1190.71 C 838.227 1190.15 839.099 1189.58 839.972 1189.02 z" fill="rgb(93,90,90)" transform="translate(0,0)"></path>
<path d="M 842.707 1193.82 C 847.202 1194.22 852.18 1194.56 853.493 1200.06 C 852.477 1201.54 851.828 1201.49 850.022 1201.59 C 841.592 1201.75 831.845 1203.74 842.707 1193.82 z" fill="rgb(249,247,247)" transform="translate(0,0)"></path>
<path d="M 535.207 771.089 C 541.329 770.917 544.93 770.91 549.988 774.889 C 552.635 776.972 555.543 782.181 552.622 785.079 C 546.265 786.694 548.225 773.373 536.57 777.354 C 528.719 780.093 530.55 787.946 538.012 788.72 C 556.656 790.655 563.105 809.104 541.385 813.763 C 535.65 813.641 530.377 813.429 525.962 808.017 C 522.884 804.244 520.656 798.37 529.392 800.331 C 531.703 800.85 530.391 806.564 535.552 807.6 C 539.567 808.407 546.27 808.597 547.975 803.49 C 549.541 793.057 528.726 797.083 525.48 789.136 C 521.513 779.422 527.968 774.973 535.207 771.089 z" fill="rgb(93,90,90)" transform="translate(0,0)"></path>
<path d="M 1322.06 1267.08 C 1326.89 1266.83 1343.94 1265.32 1341.95 1282.6 C 1341.59 1285.73 1320.39 1282.6 1319.94 1284.19 C 1317.53 1292.73 1328.58 1295.62 1335.51 1288.98 C 1336.58 1288.31 1337.25 1288.08 1338.46 1287.88 C 1339.94 1287.63 1342.15 1288.59 1341.7 1290.41 C 1341.14 1292.66 1338.86 1294.89 1337 1296.12 C 1333.12 1298.6 1327.43 1298.94 1323.01 1297.97 C 1312.98 1295.75 1310.27 1284.73 1312.95 1275.99 C 1314.56 1270.74 1317.71 1269.5 1322.06 1267.08 z" fill="rgb(93,90,90)" transform="translate(0,0)"></path>
<path d="M 1324.78 1271.83 C 1334.59 1272.48 1339.26 1278.99 1331.25 1279 C 1323.69 1278.98 1312.63 1280.41 1324.78 1271.83 z" fill="rgb(249,247,247)" transform="translate(0,0)"></path>
<path d="M 1071.08 1189.06 C 1075.93 1188.93 1092.2 1189.45 1090.55 1205.33 C 1090.29 1207.83 1069.13 1205.62 1068.36 1206.55 C 1063.54 1212.43 1074.74 1217.99 1082.4 1212.53 L 1083.68 1211.65 C 1093.53 1206.82 1089.64 1224.33 1072 1220.29 C 1055.82 1216.58 1056.47 1197.21 1069.63 1189.9 L 1071.08 1189.06 z" fill="rgb(93,90,90)" transform="translate(0,0)"></path>
<path d="M 1071.08 1194.99 C 1074.55 1194.72 1084.37 1194.67 1083.48 1200.81 C 1082.59 1201.72 1082.37 1201.67 1081.09 1201.84 C 1071.76 1201.75 1063.01 1204.74 1071.08 1194.99 z" fill="rgb(249,247,247)" transform="translate(0,0)"></path>
<path d="M 744.744 1266.19 L 746.361 1266.3 C 762.844 1267.59 757.023 1282.58 758.288 1295.53 C 758.695 1299.68 751.079 1294.93 749.013 1296.1 C 742.767 1299.63 734.996 1298.8 731.361 1291.82 L 730.496 1290.23 C 730.644 1289.29 730.792 1288.35 730.94 1287.41 C 732.338 1277.55 745.973 1280.56 750.287 1278.25 C 752.952 1273.01 743.71 1268.45 739.398 1273.69 C 732.256 1282.36 726.805 1269.55 741 1266.88 L 744.744 1266.19 z" fill="rgb(93,90,90)" transform="translate(0,0)"></path>
<path d="M 739.916 1284.2 C 747.181 1283.86 755.501 1282.18 748.412 1291.88 C 744.56 1292.33 733.881 1292.56 739.12 1285.37 L 739.916 1284.2 z" fill="rgb(249,247,247)" transform="translate(0,0)"></path>
<path d="M 684.009 1267.08 C 694.402 1266.28 704.061 1267.6 703.601 1282.72 C 703.484 1286.58 672.362 1278.78 682.271 1288.81 C 687.716 1294.33 692.16 1292.68 696.837 1287.91 C 698.335 1287.78 700.911 1287.44 702.186 1288.5 C 702.622 1288.87 702.847 1289.42 702.788 1289.99 C 701.463 1304.02 667.756 1298.94 673.794 1278.51 C 675.959 1271.18 677.471 1270.77 684.009 1267.08 z" fill="rgb(93,90,90)" transform="translate(0,0)"></path>
<path d="M 684.643 1271.74 C 695.603 1271.26 699.988 1278.16 694.142 1278.9 C 684.239 1278.85 675.745 1281.75 684.643 1271.74 z" fill="rgb(249,247,247)" transform="translate(0,0)"></path>
<path d="M 666.643 785.134 C 677.788 784.476 684.97 783.699 686.956 797.541 C 687.243 801.955 683.947 800.394 681.859 800.792 C 677.969 801.533 660.337 796.458 666.852 805.544 C 669.255 808.895 673.934 808.789 677.4 807.379 C 686.148 800.327 687.545 806.349 683.939 809.466 C 667.846 823.377 646.574 800.782 666.643 785.134 z" fill="rgb(93,90,90)" transform="translate(0,0)"></path>
<path d="M 670.717 788.73 C 673.173 789.128 681.657 791.07 679.862 795.101 C 678.803 795.734 678.383 795.677 677.169 795.699 C 668.519 795.83 661.443 797.731 670.717 788.73 z" fill="rgb(249,247,247)" transform="translate(0,0)"></path>
<path d="M 857.189 784.135 C 871.761 784.79 871.524 788.718 871.045 802.562 C 871.138 802.618 871.894 815.429 868.443 813.153 C 859.515 807.265 858.225 819.53 847.215 810.023 L 845.941 808.953 C 846.124 798.574 847.968 797.902 859.005 796.382 C 861.964 795.975 866.791 796.23 862.933 791.075 C 862.006 789.837 859.913 789.587 858.435 789.516 C 854.786 789.31 853.897 791.585 851.569 793.549 C 850.186 794.715 845.87 790.989 847.53 788.932 C 849.928 785.96 853.789 785.046 857.189 784.135 z" fill="rgb(93,90,90)" transform="translate(0,0)"></path>
<path d="M 861.451 799.894 C 868.793 801.135 862.56 807.179 857.562 808.689 L 855.727 809.289 C 849.133 802.685 853.353 802.147 861.451 799.894 z" fill="rgb(249,247,247)" transform="translate(0,0)"></path>
<path d="M 748.939 785.107 C 764.566 784.111 765.584 786.583 768.263 800.629 C 765.242 800.543 749.247 799.941 747.511 800.558 C 744.498 801.628 747.993 812.209 760.73 805.79 C 762.856 801.316 769.363 807.28 764.758 810.394 C 752.984 818.355 736.65 810.593 740.047 795.5 C 740.842 791.853 743.081 788.683 746.252 786.714 C 746.693 786.456 747.134 786.199 747.575 785.941 L 748.939 785.107 z" fill="rgb(93,90,90)" transform="translate(0,0)"></path>
<path d="M 751.604 788.897 C 758.585 789.905 765.641 795.7 757.25 796.182 C 749.443 796.178 740.43 797.485 751.604 788.897 z" fill="rgb(249,247,247)" transform="translate(0,0)"></path>
<path d="M 1170.25 1188.84 C 1179.41 1190 1173.8 1188.93 1177.43 1192.4 C 1178.18 1192.54 1180.05 1190.63 1180.67 1190.39 C 1201.69 1182.03 1198.33 1206.91 1197.8 1219.44 C 1197.73 1221.13 1191.8 1220.62 1191.59 1220.03 C 1190.3 1216.35 1190.98 1208.01 1190.99 1203.75 C 1190.97 1202.49 1191.09 1196.4 1188.38 1195.57 C 1167.37 1189.24 1186.09 1227.27 1171.23 1219.72 C 1169.84 1219.01 1170.22 1192.08 1170.25 1188.84 z" fill="rgb(93,90,90)" transform="translate(0,0)"></path>
<path d="M 1382.5 1266.04 C 1387.21 1266.43 1396.29 1269.65 1395.77 1274.08 C 1394.79 1282.3 1385.27 1269.51 1381.13 1272.12 C 1378.88 1273.53 1378.01 1274.63 1379.08 1276.42 C 1382.45 1282.03 1394.76 1278.65 1397.04 1285.95 C 1398.9 1294.5 1392.11 1298.14 1384.75 1299.5 C 1380 1298.71 1369.63 1295.77 1370.58 1289.17 C 1376.51 1284.27 1376.93 1291.6 1379.4 1292.99 C 1382.13 1294.47 1392.41 1292.73 1389.44 1287.95 C 1387.11 1284.19 1373.82 1285.13 1372.14 1279.03 C 1369.67 1270.02 1375.51 1267.89 1382.5 1266.04 z" fill="rgb(93,90,90)" transform="translate(0,0)"></path>
<path d="M 906.282 772.258 C 906.572 772.293 911.685 772.647 911.793 773.329 C 912.836 779.967 912.226 788.157 912.316 795.078 C 915.7 791.91 920.112 786.464 924.5 785.049 C 925.369 784.768 929.763 784.481 929.884 785.974 C 929.591 786.62 920.294 794.857 918.51 796.703 C 922.031 801.766 924.496 805.017 928.754 809.42 C 933.975 813.605 928.632 813.169 924.93 812.988 C 921.437 812.816 917.238 805.394 914.585 802.552 L 912.475 800.329 C 912.448 804.033 912.868 808.926 912.203 812.465 C 911.946 813.83 906.779 813.049 906.74 812.448 C 905.945 800.186 905.748 784.63 906.282 772.258 z" fill="rgb(93,90,90)" transform="translate(0,0)"></path>
<path d="M 899.286 1266.36 C 901.224 1267.85 902.798 1270.34 904.428 1269.03 C 909.896 1264.62 920.147 1267.37 922.037 1274.5 C 923.45 1279.83 923.372 1291.57 922.578 1297.33 C 922.459 1298.19 916.858 1298.34 916.676 1297.53 C 915.45 1292.1 916.093 1284.24 915.968 1278.28 C 913.976 1274.15 911.996 1271.49 906.482 1273.03 C 898.711 1275.7 904.489 1291.06 902.029 1297.01 C 901.479 1298.34 896.151 1297.49 896.071 1296.79 C 895.066 1287.89 896.037 1278.05 895.947 1269 C 895.937 1267.98 898.674 1266.71 899.286 1266.36 z" fill="rgb(93,90,90)" transform="translate(0,0)"></path>
<path d="M 561.434 1266.33 C 568.277 1267.5 564.533 1265.91 568.375 1269.33 C 569.181 1269.52 570.84 1268.07 571.477 1267.87 C 591.757 1261.37 589.304 1283.18 588.619 1295.98 C 588.535 1297.56 582.773 1297.18 582.622 1296.68 C 581.267 1292.15 581.966 1283.98 581.945 1278.93 C 581.352 1276.61 580.75 1274.37 578.444 1273.1 C 576.698 1272.14 574.628 1271.95 572.736 1272.58 C 561.958 1276.23 575.597 1303.22 562.392 1296.6 C 561.387 1296.1 561.378 1270.97 561.434 1266.33 z" fill="rgb(93,90,90)" transform="translate(0,0)"></path>
<path d="M 732.171 1189.01 C 739.831 1188.4 746.849 1188.58 750.58 1197.39 C 751.319 1199.14 750.759 1201.05 748.663 1201.3 C 743.46 1201.92 744.661 1198.1 741.238 1195.68 C 732.362 1191.31 725.677 1200.78 728.625 1209.09 C 731.171 1216.27 736.461 1216.28 742.496 1213.89 C 744.174 1211.24 748.059 1205.9 750.12 1209.9 C 753.694 1216.59 739.525 1222.76 734.001 1221 C 715.552 1215.15 717.512 1198.55 732.171 1189.01 z" fill="rgb(93,90,90)" transform="translate(0,0)"></path>
<path d="M 895.2 1189.12 C 903.332 1188.73 909.017 1188.64 913.313 1197 C 914.391 1199.1 912.963 1199.97 911.094 1200.19 C 905.251 1200.81 905.722 1194.61 899.525 1194.74 C 890.354 1194.93 888.358 1208.58 894.938 1213.46 C 896.831 1214.85 899.206 1215.4 901.518 1215 C 902.975 1214.76 903.825 1214.16 904.634 1212.97 C 906.783 1210.43 910.842 1206.57 914.347 1210.71 C 914.629 1211.04 914.757 1211.47 914.698 1211.9 C 914.468 1213.58 910.721 1217.2 909.507 1218.05 C 895.696 1227.78 881.063 1215.5 885.187 1200.01 C 886.22 1196.07 888.819 1192.73 892.38 1190.75 C 893.387 1190.19 894.205 1189.72 895.2 1189.12 z" fill="rgb(93,90,90)" transform="translate(0,0)"></path>
<path d="M 777.315 1266.06 C 783.014 1266.39 794.83 1270.91 793.54 1274.98 C 787.848 1284.88 783.066 1264.46 772.975 1275 C 763.283 1285.14 777.884 1298.43 785.069 1290.01 C 795.003 1280.85 796.705 1292.69 786.903 1296.71 C 778.184 1300.28 768.207 1298.4 764.491 1288.87 C 762.692 1284.38 762.906 1279.33 765.079 1275.01 C 767.063 1270.98 771.107 1267.81 775.409 1266.63 L 777.315 1266.06 z" fill="rgb(93,90,90)" transform="translate(0,0)"></path>
<path d="M 706.783 796.38 C 717.875 799.558 717.385 808.501 708.472 812.828 C 695.858 818.952 681.356 800.536 696.826 805.613 C 699.226 806.4 703.421 812.072 708.055 806.384 C 710.916 802.872 698.583 800.951 697.964 800.493 C 681.267 792.773 697.632 779.37 709.593 785.455 C 713.672 787.531 716.376 795.146 709.249 793.419 C 706.328 790.248 702.699 786.944 698.097 790.684 C 696.669 791.845 698.064 793.954 699.345 794.51 C 701.655 795.673 704.259 796.014 706.783 796.38 z" fill="rgb(93,90,90)" transform="translate(0,0)"></path>
<path d="M 560.153 784.271 C 560.617 784.381 564.806 785.142 565.185 785.764 C 568.856 792.019 560.585 808.43 572.981 807.671 C 584.754 806.95 572.876 785.475 580.975 785.21 C 585.823 785.051 585.004 787.16 584.964 791.75 C 584.942 798.187 585.322 805.765 584.702 812.003 C 582.211 815.785 578.007 810.514 576.348 811.366 C 555.946 821.84 559.51 794.805 560.153 784.271 z" fill="rgb(93,90,90)" transform="translate(0,0)"></path>
<path d="M 886.131 784.165 L 887.358 784.179 C 903.198 784.213 900.523 795.739 893.104 791.851 C 890.354 790.41 884.73 787.142 883.348 793.379 C 883.011 794.898 894.733 795.972 895.415 797.137 C 904.578 804.487 901.916 811.352 888.864 814.147 C 888.182 813.96 887.499 813.777 886.815 813.597 C 884.24 812.945 872.533 808.133 879.026 804.178 C 882.072 802.323 886.843 811.625 892.431 807.741 C 893.192 807.221 893.71 806.413 893.865 805.504 C 894.79 800.035 883.403 801.255 880.553 798.912 C 872.454 792.255 878.036 786.615 886.131 784.165 z" fill="rgb(93,90,90)" transform="translate(0,0)"></path>
<path d="M 719.894 1253.78 C 721.598 1254.03 728.262 1254.14 727.47 1257.1 C 725.777 1263.42 719.961 1256.6 719.121 1263.01 C 718.13 1270.56 725.255 1265.66 727.368 1267.48 C 729.757 1269.54 727.227 1273.87 723.511 1272.86 C 723.121 1272.77 720.261 1272.69 719.832 1273.63 C 718.648 1279.84 719.385 1288.21 719.572 1294.75 C 719.355 1298.02 716.628 1297.41 713.982 1296.88 C 712.129 1296.05 713.087 1289.76 712.904 1289.17 C 711.469 1284.57 716.842 1270.39 707.761 1273.51 C 706.541 1271.09 705.365 1267.77 709.452 1267.43 C 716.132 1266.86 709.468 1261.19 719.894 1253.78 z" fill="rgb(93,90,90)" transform="translate(0,0)"></path>
<path d="M 684.372 1180.31 C 685.069 1180.47 685.768 1180.62 686.469 1180.76 C 692.149 1181.84 689.139 1183.57 690.321 1188 C 691.042 1190.7 701.77 1187.36 697.793 1195.28 C 691.867 1196.91 687.186 1189.57 690.46 1213.35 C 690.996 1217.24 697.457 1209.95 699.955 1219.75 C 676.846 1222.56 685.428 1211.19 682.496 1195.73 C 682.295 1194.66 676.687 1197.29 676.728 1193.64 C 676.809 1186.58 678.588 1190.49 682.711 1188.59 C 684.137 1187.85 684.138 1182.29 684.372 1180.31 z" fill="rgb(93,90,90)" transform="translate(0,0)"></path>
<path d="M 805.846 1258.28 C 810.882 1259.39 810.103 1259.64 809.731 1265.04 C 809.373 1270.25 817.356 1265.82 817.791 1269 C 818.714 1275.72 813.793 1272.02 810.331 1273.75 C 808.589 1274.68 809.341 1288.35 809.641 1288.98 C 812.739 1295.54 818.273 1284.7 818.76 1297.61 C 816.537 1297.74 813.911 1297.94 811.998 1297.83 C 798.414 1297.16 805.49 1281.57 802.458 1273.84 C 800.426 1272.69 797.378 1275.29 796.972 1271.53 C 796.178 1264.19 803.017 1271.03 802.86 1265.07 C 802.787 1262.3 802.95 1261.25 804.884 1259.3 L 805.846 1258.28 z" fill="rgb(93,90,90)" transform="translate(0,0)"></path>
<path d="M 1100.26 1181.26 C 1100.98 1181.38 1101.7 1181.51 1102.43 1181.63 C 1103.82 1181.69 1106.32 1182.04 1106.18 1183.83 C 1105.55 1191.64 1108.75 1188.08 1113.69 1189.66 C 1114.15 1189.81 1115.56 1192.74 1114.06 1194.15 C 1111.99 1196.09 1108.61 1194.07 1106.72 1195.96 C 1106.12 1198.39 1106.13 1211.58 1107.23 1212.97 C 1111.07 1217.83 1114.16 1210.27 1116.71 1219.77 C 1097.78 1226.62 1099.68 1206.96 1099.68 1196.15 C 1099.68 1193.73 1090.77 1197.68 1094.5 1189.83 C 1094.77 1189.25 1098.21 1189.96 1098.95 1188.73 C 1100.26 1186.92 1099.98 1183.58 1100.26 1181.26 z" fill="rgb(93,90,90)" transform="translate(0,0)"></path>
<path d="M 997.88 1253.83 C 1000.09 1254.13 1006.28 1254.17 1003.77 1258.46 C 1002.51 1260.62 997.256 1259.21 996.868 1261.77 C 995.304 1272.04 1005.21 1262.69 1003.99 1271.02 C 1003.82 1274.35 997.906 1271.95 997.561 1273.16 C 996.443 1277.09 997.026 1293.49 997.028 1296.75 C 996.369 1296.83 993.057 1297.12 992.437 1296.96 C 987.234 1295.8 994.505 1272.67 987.994 1272.97 C 984.73 1273.13 983.927 1271.45 985.4 1267.39 C 985.958 1266.62 989.12 1267.38 989.342 1266.6 C 991.511 1259.03 989.498 1258.61 997.88 1253.83 z" fill="rgb(93,90,90)" transform="translate(0,0)"></path>
<path d="M 1180.51 1267.31 C 1181.93 1267.57 1188.24 1267.74 1186.57 1269.66 C 1181.24 1275.76 1179.84 1302.31 1168.57 1296.88 C 1167.53 1296.38 1161.84 1280.49 1161.02 1278.34 C 1160.35 1276.81 1152.47 1263.91 1163.02 1267.81 C 1164.25 1268.27 1170.12 1285.61 1171.82 1289.66 C 1175 1282.16 1177.57 1274.81 1180.51 1267.31 z" fill="rgb(93,90,90)" transform="translate(0,0)"></path>
<path d="M 828.758 776.161 C 836.71 778.58 831.021 778.45 834.073 784.434 C 834.72 785.703 839.714 784.011 840.427 785.095 C 842.215 787.815 841.562 790.001 838.006 789.845 C 836.457 789.761 833.794 789.611 833.959 791.932 C 834.033 793.746 833.333 805.706 834.643 806.596 C 839.842 810.13 841.318 804.32 844.077 812.807 C 823.448 814.892 828.871 805.586 827.487 790.89 C 827.401 789.98 823.836 789.589 823.447 789.276 C 819.718 786.277 823.919 784.863 826.694 784.387 C 828.224 782.927 828.238 778.513 828.758 776.161 z" fill="rgb(93,90,90)" transform="translate(0,0)"></path>
<path d="M 723.305 777.531 C 735.56 777.569 723.904 784.232 731.71 785.596 C 732.931 785.81 738.001 783.576 737.475 788.548 C 736.379 792.633 728.766 787.925 729.005 792.975 C 729.647 806.57 725.282 806.857 738.6 808.354 C 736.834 814.53 734.201 813.606 727.492 811.952 C 719.886 810.077 724.142 792.089 722.678 791.616 C 717.341 789.894 716.266 786.164 722.437 784.985 C 722.943 784.881 723.122 779.41 723.305 777.531 z" fill="rgb(93,90,90)" transform="translate(0,0)"></path>
<path d="M 1225.52 1254.25 C 1229.08 1254.7 1232.44 1253.69 1232.47 1257.46 C 1232.57 1270.55 1232.54 1283.84 1232.44 1296.9 C 1231.04 1297.93 1226.45 1298.82 1226.32 1297.35 C 1225.07 1283.29 1225.97 1268.52 1225.52 1254.25 z" fill="rgb(93,90,90)" transform="translate(0,0)"></path>
<path d="M 1047.34 1176.26 C 1047.37 1176.26 1049.41 1176.56 1049.42 1176.54 C 1049.44 1176.51 1053.7 1176.8 1053.75 1177.3 C 1054.58 1185.89 1054.24 1214.22 1053.91 1221.17 C 1053.9 1221.16 1051.7 1220.6 1051.69 1220.6 C 1051.45 1220.61 1048.37 1219.91 1048.32 1219.55 C 1047.33 1211.47 1047.35 1182.66 1047.34 1176.26 z" fill="rgb(93,90,90)" transform="translate(0,0)"></path>
<path d="M 668.42 1188.73 C 678.098 1189.72 675.132 1196.13 667.024 1196.16 C 658.559 1196.18 663.328 1216.05 660.622 1220.07 L 659.921 1221.18 C 653.32 1218.79 654.876 1218.75 654.944 1210 C 654.968 1206.85 653.951 1192.19 655.903 1190.09 C 657.588 1188.28 660.873 1189.73 662.544 1192.36 C 663.547 1192.1 667.28 1189.45 668.42 1188.73 z" fill="rgb(93,90,90)" transform="translate(0,0)"></path>
<path d="M 859.083 1266.84 C 859.834 1266.9 860.586 1266.96 861.339 1267 C 869.126 1267.35 863.38 1272.15 872.038 1267.14 C 874.059 1266.32 877.606 1267.6 877.336 1269.93 C 876.415 1277.9 866.657 1267.82 866.03 1281.75 C 866.027 1286.05 866.596 1292.28 865.581 1296.31 C 865.206 1297.8 859.663 1297.76 859.573 1296.89 C 858.598 1287.52 858.931 1276.37 859.083 1266.84 z" fill="rgb(93,90,90)" transform="translate(0,0)"></path>
<path d="M 1361.51 1266.92 C 1370.44 1266.51 1370.21 1273.61 1364.52 1273.1 C 1360.3 1272.73 1355.61 1275.59 1355.28 1279.53 C 1354.79 1285.37 1355.18 1292.07 1355.19 1297.85 C 1354.15 1297.65 1348.4 1297.25 1348.56 1295.74 C 1349.17 1289.82 1347.86 1273.33 1349.11 1268.34 C 1350.05 1264.56 1355.5 1269.98 1355.97 1270.2 C 1356.91 1269.94 1360.23 1267.66 1361.51 1266.92 z" fill="rgb(93,90,90)" transform="translate(0,0)"></path>
<path d="M 1044.69 1266.86 C 1046.37 1267.04 1050.21 1266.76 1050.74 1268.9 C 1050.26 1272.9 1059.86 1263.85 1061.04 1266.85 C 1065.38 1277.95 1055.67 1267.37 1051.09 1280.1 C 1051.11 1283.79 1051.96 1293.22 1050.4 1296.73 C 1050.12 1297.36 1045.13 1297.24 1045.06 1296.37 C 1044.32 1286.82 1044.84 1276.6 1044.69 1266.86 z" fill="rgb(93,90,90)" transform="translate(0,0)"></path>
<path d="M 665.628 1266.58 C 677.529 1269.69 668.803 1273.54 662.625 1275.27 C 654.402 1277.57 665.062 1294.79 655.458 1299.01 C 650.294 1293.46 654.028 1278.3 653.24 1270.52 C 653.157 1269.7 655.848 1268.42 656.494 1268.08 L 656.358 1268.12 C 658.504 1268.21 658.928 1268.83 659.6 1271.25 C 661.301 1271.97 664.557 1267.67 665.628 1266.58 z" fill="rgb(93,90,90)" transform="translate(0,0)"></path>
<path d="M 881.348 1267.54 C 882.219 1267.54 888.45 1267.08 888.493 1268.52 C 888.779 1277.91 888.732 1288.39 888.657 1297.74 C 887.245 1297.63 882.359 1297.57 882.144 1296.66 C 880.964 1291.7 881.367 1272.36 881.348 1267.54 z" fill="rgb(93,90,90)" transform="translate(0,0)"></path>
<path d="M 1120.62 1188.97 C 1121.09 1189 1126.62 1189.16 1126.69 1189.67 C 1127.84 1198.16 1127.32 1212.38 1127.17 1220.65 C 1123.7 1220.5 1120.62 1221.68 1120.65 1218.03 C 1120.72 1208.52 1120.79 1198.44 1120.62 1188.97 z" fill="rgb(93,90,90)" transform="translate(0,0)"></path>
<path d="M 1122.86 1176.28 C 1124.44 1175.94 1126.07 1176.47 1127.14 1177.68 C 1128.2 1178.9 1128.52 1180.59 1127.98 1182.1 C 1127.43 1183.62 1126.11 1184.72 1124.52 1184.98 C 1122.15 1185.37 1119.9 1183.8 1119.45 1181.44 C 1119 1179.08 1120.51 1176.79 1122.86 1176.28 z" fill="rgb(93,90,90)" transform="translate(0,0)"></path>
<path d="M 881.63 1255.67 C 883.032 1253.93 885.563 1253.6 887.358 1254.94 C 889.152 1256.28 889.567 1258.79 888.297 1260.64 C 887.433 1261.89 885.953 1262.57 884.438 1262.41 C 882.924 1262.26 881.617 1261.28 881.032 1259.88 C 880.446 1258.47 880.676 1256.86 881.63 1255.67 z" fill="rgb(93,90,90)" transform="translate(0,0)"></path>
<path d="M 1031.5 346.458 C 1040.07 364.93 1033.24 366.285 1053.73 380.414 C 1036.83 389.969 1037.75 395.767 1032.82 413.886 L 1032.45 413.938 C 1028.86 411.192 1032.96 392.227 1011.63 380.72 C 1028.84 368.598 1025.94 366.536 1031.5 346.458 z" fill="rgb(236,157,103)" transform="translate(0,0)"></path>
<metadata><recraft-signature>{"signed_by": "recraft", "signature_b64": "4NuDHXtpw5cCeOBiPQm0Z4WIOnNJOLuapvqEg/NX4YqAJNZSd+gOLxsSzcQ0Dht/751KgO+fr+blWERWBMgXDw==", "signing_algo": "Ed25519", "generation_timestamp": 1777068833, "identifier": "6b147be8-4311-4910-80b6-984fbf181b48"}</recraft-signature></metadata></svg>