<svg xmlns="http://www.w3.org/2000/svg" height="1024" preserveAspectRatio="none" style="display: block;" version="1.1" viewBox="0 0 2048 2048" width="1024">
<path d="M 0 0 L 2048 0 L 2048 2048 L 0 2048 L 0 0 z" fill="rgb(27,25,27)" transform="translate(0,0)"></path>
<path d="M 498.261 751.227 C 518.551 750.248 542.174 750.726 562.83 750.698 L 683.27 750.813 L 1039.47 750.93 L 1366.84 750.749 L 1478.22 750.675 C 1499.68 750.68 1521.07 750.511 1542.59 751.174 C 1561.11 751.747 1577.76 760.632 1590.04 773.975 C 1608.43 793.966 1608.43 815.34 1607.96 840.98 C 1607.71 854.432 1607.87 868.684 1607.85 882.364 L 1607.94 1021.31 L 1607.89 1221.13 L 1607.98 1285.31 C 1608.04 1319.4 1611.44 1351.2 1581.12 1374.49 C 1570.93 1382.32 1561.85 1385.4 1549.4 1387.91 C 1537.43 1389.39 1517.41 1388.87 1504.89 1388.87 L 1429.93 1388.88 L 1178.03 1388.89 L 724.563 1388.99 L 585.169 1388.98 C 559.241 1389.03 533.098 1389.26 507.204 1388.88 C 493.876 1388.68 485.693 1385.73 474.551 1379.9 C 461.778 1372.97 444.764 1354.16 442.614 1339.05 C 438.077 1307.19 440.042 1267.94 440.078 1235.62 L 440.248 1035.93 L 440.2 891.015 C 440.184 866.272 439.614 841.072 440.472 816.355 C 441.702 780.945 465.172 759.131 498.261 751.227 z" fill="rgb(232,232,229)" transform="translate(0,0)"></path>
<path d="M 1204.76 1319.49 C 1191.27 1308.62 1181.2 1297.43 1179.31 1278.97 C 1177.82 1263.42 1182.76 1247.94 1192.98 1236.12 C 1206.16 1220.81 1220.88 1216.78 1240.44 1216.39 C 1257.4 1216.04 1274.36 1216.16 1291.32 1216.17 L 1387.67 1216.16 L 1456.79 1216.12 C 1482.05 1216.12 1506 1213.04 1526.36 1231.19 C 1537.54 1241.29 1544.24 1255.42 1544.99 1270.46 C 1545.61 1285.2 1540.62 1299.98 1530.24 1310.32 C 1514.32 1326.18 1501.88 1328.61 1480.56 1328.71 C 1427.24 1328.99 1373.97 1328.75 1320.71 1328.8 L 1265.54 1328.86 C 1242.62 1328.86 1228.96 1330.88 1207.65 1321.22 L 1204.76 1319.49 z" fill="rgb(73,71,73)" transform="translate(0,0)"></path>
<path d="M 1207.04 1317.99 C 1194.19 1309.28 1185.46 1299.02 1182.31 1283.26 C 1179.55 1268.72 1182.83 1253.68 1191.39 1241.61 C 1207.9 1218.39 1229.7 1218.4 1255.65 1218.53 C 1264.01 1218.57 1272.54 1218.51 1280.92 1218.51 L 1367 1218.6 L 1448.17 1218.72 C 1464.27 1218.75 1480.53 1218.3 1496.54 1219.84 C 1519.67 1222.05 1539.54 1243.07 1542.47 1265.8 C 1544.31 1279.71 1540.55 1293.79 1532.02 1304.93 C 1522.96 1316.79 1509.39 1324.35 1494.55 1325.83 C 1484.46 1326.85 1463.87 1326.19 1452.78 1326.17 L 1374.52 1326.16 L 1282.42 1326.14 C 1258.74 1326.15 1228.49 1329.48 1207.52 1318.53 L 1207.04 1317.99 z" fill="rgb(232,232,229)" transform="translate(0,0)"></path>
<path d="M 1349.49 1264.53 C 1354.7 1263.9 1359.46 1267.51 1360.26 1272.69 C 1361.06 1277.87 1357.59 1282.75 1352.44 1283.7 C 1348.96 1284.35 1345.41 1283.05 1343.17 1280.31 C 1340.92 1277.58 1340.35 1273.84 1341.67 1270.55 C 1342.98 1267.27 1345.98 1264.96 1349.49 1264.53 z" fill="rgb(27,25,27)" transform="translate(0,0)"></path>
<path d="M 1347.57 1267.35 C 1357.2 1268.42 1356.98 1272.41 1353.85 1280.9 C 1344.49 1280.09 1344.32 1275.29 1347.57 1267.35 z" fill="rgb(232,232,229)" transform="translate(0,0)"></path>
<path d="M 1240.95 1256.77 C 1244.59 1256.72 1255.01 1257.04 1255.11 1262.67 C 1254.36 1264.1 1254.42 1262.63 1254.17 1263.58 C 1253.43 1266.37 1240.36 1254.9 1241.66 1265.22 C 1242.03 1268.16 1253.62 1267.55 1255.3 1271.81 C 1258.04 1278.81 1254.8 1281.41 1249.09 1284 C 1244.75 1283.79 1239.88 1283.89 1237.56 1279.63 C 1237.05 1278.7 1236.19 1275.53 1238.16 1275.57 C 1240.58 1275.62 1241.52 1278.74 1243.63 1279.46 C 1245.38 1280.16 1247.44 1280.17 1249.2 1279.4 C 1251.1 1278.64 1252.85 1275.7 1251.19 1273.95 C 1247.37 1269.92 1238.58 1272.65 1237.11 1265.05 C 1236.58 1262.33 1238.15 1260.06 1239.88 1258.07 L 1240.95 1256.77 z" fill="rgb(27,25,27)" transform="translate(0,0)"></path>
<path d="M 1392.18 1264.04 C 1404.04 1266.03 1399.04 1270.41 1400.13 1282.03 C 1400.44 1285.36 1396.13 1282.3 1394 1283 C 1390.02 1284.32 1387 1284.13 1383.74 1281.51 L 1382.38 1280.47 C 1385.93 1269.93 1387.18 1275.33 1395.09 1271.46 C 1398.76 1269.66 1391.81 1266.5 1389.61 1268.48 C 1388.56 1269.43 1386.27 1269.98 1384.69 1268.56 C 1386 1266.13 1387.81 1265.35 1390.36 1264.6 L 1392.18 1264.04 z" fill="rgb(27,25,27)" transform="translate(0,0)"></path>
<path d="M 1392.2 1274.08 C 1397.51 1276.6 1395.97 1277.65 1392.02 1281.62 C 1385.66 1278.91 1386.89 1277.69 1392.2 1274.08 z" fill="rgb(232,232,229)" transform="translate(0,0)"></path>
<path d="M 1279.68 1263.99 C 1292.21 1265.55 1288.15 1267.25 1289.43 1279 C 1290.31 1287.14 1288.29 1282.14 1283.98 1283.01 C 1278.18 1284.17 1278.42 1284.04 1273.13 1281.89 C 1274.4 1270.76 1274.73 1274.9 1284.32 1271.53 C 1285.97 1270.95 1284.57 1269.01 1283.65 1268.14 L 1283.64 1268.09 C 1278.93 1268.1 1276.15 1271.28 1274.06 1269.67 L 1273.95 1268.26 C 1275.13 1266.53 1276.26 1265.58 1278.15 1264.72 L 1279.68 1263.99 z" fill="rgb(27,25,27)" transform="translate(0,0)"></path>
<path d="M 1280.98 1274.35 C 1284.38 1275.51 1286.98 1276.6 1283.17 1280.08 L 1281.85 1281.37 C 1278.21 1279.97 1275.71 1278.6 1279.89 1275.25 L 1280.98 1274.35 z" fill="rgb(232,232,229)" transform="translate(0,0)"></path>
<path d="M 1312.96 1259.57 C 1313.36 1259.78 1313.76 1259.98 1314.16 1260.18 C 1315.78 1261.4 1314.27 1264.77 1317.01 1264.93 C 1318.04 1264.99 1320.3 1264.93 1320.19 1266.5 C 1320.01 1268.87 1316.79 1267.32 1315.62 1268.66 C 1314.48 1270.79 1315.22 1275.1 1315.1 1277.52 C 1315.18 1278.15 1315.49 1279.47 1316.18 1279.74 C 1317.72 1280.33 1319.65 1280.86 1320.18 1282.6 C 1318.67 1284.14 1315.04 1283.9 1313.47 1282.95 C 1308.69 1280.07 1315.58 1266.46 1306.37 1266.63 C 1305.72 1266.92 1305.08 1267.2 1304.42 1267.46 C 1304.09 1267.59 1303.76 1267.72 1303.42 1267.85 C 1296.17 1270.36 1299.51 1277.39 1298.27 1283.02 C 1298.06 1283.96 1295.49 1284.02 1295.12 1283.42 C 1293.35 1280.51 1294.93 1274.42 1294.38 1271 C 1294.4 1269.62 1294.17 1267.34 1294.79 1266 C 1295.97 1263.44 1297.55 1265.98 1298.85 1266.45 C 1299.48 1266.68 1300.99 1265.45 1301.57 1265.06 C 1304.12 1263.32 1306.83 1266.03 1309.56 1265.1 C 1311.27 1264.53 1312.26 1261.05 1312.96 1259.57 z" fill="rgb(27,25,27)" transform="translate(0,0)"></path>
<path d="M 1430.9 1278.45 C 1431.61 1276.1 1434.56 1265.81 1435.35 1265.4 C 1443.97 1260.88 1436.48 1275.13 1435.79 1276.76 L 1435.33 1278.15 C 1434.13 1281.61 1433.04 1284.83 1431.48 1288.17 C 1430.35 1290.6 1424.02 1291.18 1423.78 1288.47 C 1424.56 1286.72 1427.9 1286.92 1428.04 1285.48 C 1428.66 1279.48 1423.31 1269.9 1421.62 1264.57 C 1428.87 1265.63 1427.15 1268.21 1429.87 1275.69 L 1430.9 1278.45 z" fill="rgb(27,25,27)" transform="translate(0,0)"></path>
<path d="M 1368.75 1263.91 L 1369.68 1263.97 C 1371.88 1264.09 1379.93 1265.04 1379.85 1268.56 C 1379.69 1275.78 1372.63 1262.99 1368.28 1268.5 C 1364.61 1273.15 1365.86 1281.33 1373.38 1280.35 C 1379.98 1275.05 1381.59 1277.8 1378.29 1281.28 C 1369.01 1291.05 1354.16 1274.5 1367.48 1264.87 L 1368.75 1263.91 z" fill="rgb(27,25,27)" transform="translate(0,0)"></path>
<path d="M 1264.18 1258.75 C 1265.2 1259.27 1266.03 1259.81 1265.97 1260.99 C 1265.81 1264.19 1268.49 1264.18 1270.67 1265.39 C 1270.87 1265.5 1271.06 1266.19 1270.99 1266.39 C 1270.39 1268.25 1267.59 1267.25 1266.43 1268.46 C 1265.86 1270.5 1266.12 1275.97 1266.29 1278.06 C 1266.4 1278.77 1266.95 1279.45 1267.59 1279.77 C 1269.28 1280.62 1270.1 1281.4 1271.18 1282.95 L 1269.82 1283.27 C 1259.62 1285.66 1262.57 1275.28 1261.89 1268.99 C 1261.7 1267.28 1255.77 1267.43 1259.97 1264.58 C 1261.84 1263.31 1263.04 1260.67 1264.18 1258.75 z" fill="rgb(27,25,27)" transform="translate(0,0)"></path>
<path d="M 1478.42 1257.88 C 1484.95 1259.57 1489.96 1266.88 1493.98 1272.31 C 1489.28 1277.04 1485.76 1280.63 1480.58 1284.9 C 1472.99 1285.44 1487.35 1273.74 1489.24 1271.72 C 1485.59 1267.63 1478.64 1261.93 1478.42 1257.88 z" fill="rgb(244,134,90)" transform="translate(0,0)"></path>
<path d="M 1333.51 1256.21 C 1333.75 1256.29 1336.94 1257.18 1336.94 1257.72 C 1337.06 1265.55 1338.33 1277.12 1336.23 1284.54 C 1335.81 1284.32 1333.4 1283.15 1333.33 1282.68 C 1332.59 1277.11 1332.79 1261.04 1333.51 1256.21 z" fill="rgb(27,25,27)" transform="translate(0,0)"></path>
<path d="M 1405.5 1256.22 C 1405.86 1256.34 1408.83 1257.24 1408.86 1257.73 C 1409.27 1265.83 1409.9 1276.92 1408.65 1284.83 C 1408.29 1284.64 1405.36 1283.27 1405.33 1282.72 C 1404.91 1274.73 1404.41 1264.08 1405.5 1256.22 z" fill="rgb(27,25,27)" transform="translate(0,0)"></path>
<path d="M 1414.74 1256.28 C 1420.98 1259.58 1419.06 1278.43 1418.05 1284.68 L 1417.66 1284.53 C 1415.37 1283.65 1414.24 1283.28 1414.35 1280.6 C 1414.7 1272.51 1413.6 1264.31 1414.74 1256.28 z" fill="rgb(27,25,27)" transform="translate(0,0)"></path>
<path d="M 1207.04 1317.99 L 1207.52 1318.53 L 1207.65 1321.22 L 1204.76 1319.49 L 1207.04 1317.99 z" fill="rgb(132,129,133)" transform="translate(0,0)"></path>
<path d="M 888.553 937.17 C 893.043 936.783 898.102 936.378 902.619 936.927 C 937.216 941.129 942.997 993.501 918.08 1012.32 C 909.849 1018.53 898.353 1020.08 888.329 1018.3 C 878.001 1016.47 873.084 1011 867.364 1002.97 L 867.19 1016.75 L 867.104 1048.3 C 861.861 1048.68 855.043 1048.63 849.651 1048.72 L 849.745 938.948 L 866.936 938.892 L 866.983 952.726 C 873.991 943.293 877.832 940.802 888.553 937.17 z" fill="rgb(27,25,27)" transform="translate(0,0)"></path>
<path d="M 886.63 952.23 C 923.687 951.851 924.021 995.322 895.704 1002.72 C 870.809 1003.37 861.339 984.387 870.79 961.974 C 873.192 956.277 880.963 953.481 886.63 952.23 z" fill="rgb(232,232,229)" transform="translate(0,0)"></path>
<path d="M 792.736 937.12 C 796.345 936.854 799.967 936.824 803.58 937.031 C 829.406 938.756 839.185 961.317 836.466 984.505 C 832.494 1018.38 791.81 1033.15 771.317 1003.47 L 771.154 1017.75 L 771.045 1047.99 L 753.483 1047.97 L 753.313 938.772 L 770.763 938.637 L 770.674 951.976 C 778.591 942.881 781.742 940.655 792.736 937.12 z" fill="rgb(27,25,27)" transform="translate(0,0)"></path>
<path d="M 789.363 952.219 C 812.523 951.471 823.767 966.069 816.652 989.808 C 814.648 996.493 807.216 999.725 801.151 1002.21 C 794.919 1002.83 785.474 1002.73 780.795 998.542 C 764.918 984.329 767.68 958.122 789.363 952.219 z" fill="rgb(232,232,229)" transform="translate(0,0)"></path>
<path d="M 553.356 904.308 C 573.147 901.755 595.963 908.312 606.963 925.614 C 611.968 933.487 613.534 939.942 615.812 948.747 L 596.7 948.786 C 595.997 946.924 595.262 945.075 594.493 943.239 C 581.942 913.411 537.913 914.068 528.17 944.063 C 516.432 980.199 544.002 1016.83 582.882 995.301 C 590.884 988.593 593.089 983.821 595.803 973.917 L 615.326 973.83 C 610.915 991.971 605.341 1005.72 586.885 1013.67 C 553.467 1028.22 512.011 1013.66 507.08 973.798 C 502.762 938.895 515.216 909.967 553.356 904.308 z" fill="rgb(27,25,27)" transform="translate(0,0)"></path>
<path d="M 628.978 905.297 L 646.93 905.11 C 646.972 919.997 646.678 934.883 646.048 949.756 C 659.117 935.924 679.292 929.774 693.391 944.165 C 705.351 956.373 701.29 999.443 701.188 1016.81 L 683.283 1016.73 C 683.544 1005.13 683.571 993.362 683.688 981.75 C 683.807 972.595 684.845 963.331 677.854 956.209 C 674.755 953.068 670.521 951.309 666.109 951.33 C 660.982 951.35 656.07 953.397 652.445 957.024 C 642.864 966.539 646.153 1001.87 646.344 1016.76 L 628.814 1016.72 C 628.645 979.577 628.7 942.436 628.978 905.297 z" fill="rgb(27,25,27)" transform="translate(0,0)"></path>
<path d="M 937.856 938.187 C 944.642 938.089 949.68 938.296 956.464 938.75 C 963.905 958.19 969.139 978.914 977.127 998.8 C 982.687 980.717 990.061 956.326 996.709 938.891 L 1016.02 938.893 C 1010.56 955.591 1001.7 977.383 995.396 994.223 C 991.775 1005.88 984.947 1027.42 977.501 1036.6 C 969.567 1046.39 958.756 1047.24 947.305 1048.16 L 947.08 1032.44 C 961.802 1031.74 963.488 1027.84 968.783 1014.98 C 959.137 1001.33 941.899 955.341 937.856 938.187 z" fill="rgb(27,25,27)" transform="translate(0,0)"></path>
<path d="M 718.019 938.822 C 723.813 938.745 729.607 938.723 735.401 938.757 C 735.984 964.238 735.616 991.391 735.658 1016.94 C 729.827 1017.13 723.762 1017.04 717.91 1017.04 L 718.019 938.822 z" fill="rgb(27,25,27)" transform="translate(0,0)"></path>
<path d="M 1481.49 804.405 C 1488.13 806.316 1505.98 826.461 1512.57 832.905 C 1516.8 828.779 1538 806.757 1541.54 806.225 C 1542.39 806.103 1543.26 806.318 1543.95 806.825 C 1544.75 807.412 1546.05 808.971 1545.75 809.496 C 1542.01 815.979 1525.83 829.993 1521.47 835.478 L 1519.03 838.604 C 1527.53 846.775 1537.06 855.913 1544.43 865.174 C 1545.36 866.352 1544.52 868.431 1544.03 869.638 L 1543.44 871.21 C 1536.84 867.901 1520.57 849.795 1513.58 843.4 C 1509.4 846.663 1484.32 870.89 1484.06 870.855 C 1471.12 869.103 1502.94 843.529 1507.29 838.984 C 1502.02 832.822 1497.16 827.597 1491.43 821.816 C 1488.09 818.442 1478.48 810.807 1480.78 805.971 L 1481.49 804.405 z" fill="rgb(192,190,189)" transform="translate(0,0)"></path>
<path d="M 722.03 903.415 C 728.365 900.797 735.624 903.792 738.27 910.115 C 740.916 916.439 737.953 923.711 731.641 926.385 C 725.29 929.075 717.963 926.089 715.301 919.727 C 712.638 913.364 715.656 906.05 722.03 903.415 z" fill="rgb(27,25,27)" transform="translate(0,0)"></path>
<path d="M 695.187 802.212 C 695.048 802.165 698.441 803.245 698.421 803.415 C 698.101 806.101 701.959 838.582 695.501 833.168 C 692.405 830.572 689.708 834.552 682.62 833.509 C 677.581 828.04 676.337 825.891 678.276 818.573 C 681.182 807.598 694.555 813.767 694.662 813.69 C 695.143 812.655 695.104 804.083 695.187 802.212 z" fill="rgb(27,25,27)" transform="translate(0,0)"></path>
<path d="M 684.909 814.618 C 695.64 815.165 699.161 823.131 691.984 829.73 L 690.786 830.894 C 679.408 830.326 678.159 822.505 684.909 814.618 z" fill="rgb(232,232,229)" transform="translate(0,0)"></path>
<path d="M 626.929 1151.11 C 631.888 1150.65 634.641 1151.04 639.498 1151.13 C 648.438 1151.28 638.632 1153.51 639.459 1156.97 C 641.039 1163.59 633.668 1165.36 628.67 1165.56 C 628.253 1165.58 627.952 1165.97 627.769 1166.32 C 628.61 1167.74 637.323 1167.26 643.471 1172.43 C 641.072 1179.43 638.854 1180.84 630.592 1180.55 C 621.005 1180.21 620.777 1171.81 624.982 1164.88 C 627.024 1161.52 619.785 1159.76 625.723 1152.63 L 626.929 1151.11 z" fill="rgb(27,25,27)" transform="translate(0,0)"></path>
<path d="M 624.978 1170.77 C 631.579 1170.52 636.74 1169.63 639.476 1176.01 C 631.02 1178.42 627.436 1179.43 624.978 1170.77 z" fill="rgb(232,232,229)" transform="translate(0,0)"></path>
<path d="M 631.236 1153.18 C 633.659 1152.77 635.996 1154.28 636.605 1156.66 C 637.215 1159.05 635.894 1161.5 633.569 1162.3 C 631.889 1162.88 630.026 1162.46 628.75 1161.22 C 627.474 1159.99 627.001 1158.14 627.526 1156.44 C 628.05 1154.74 629.484 1153.48 631.236 1153.18 z" fill="rgb(232,232,229)" transform="translate(0,0)"></path>
<path d="M 959.177 1097.75 C 960.446 1097.47 960.596 1097.37 961.816 1097.81 C 962.466 1098.91 962.167 1099.61 961.257 1100.6 C 956.94 1105.31 960.782 1110.76 950.988 1112.04 C 950.068 1112.16 947.087 1112.4 947.348 1113.92 C 951.428 1116.52 968.815 1112.64 958.78 1127.17 C 954.478 1127.48 937.874 1129.21 941.768 1119.03 C 942.388 1117.52 945.322 1111.46 944.758 1110.17 C 939.247 1097.6 952 1098.06 959.177 1097.75 z" fill="rgb(27,25,27)" transform="translate(0,0)"></path>
<path d="M 948.586 1101.29 C 949.919 1100.21 951.739 1099.98 953.301 1100.67 C 954.864 1101.37 955.906 1102.88 956.001 1104.59 C 956.095 1106.3 955.227 1107.91 953.751 1108.78 C 951.69 1109.99 949.046 1109.4 947.689 1107.43 C 946.333 1105.46 946.724 1102.78 948.586 1101.29 z" fill="rgb(232,232,229)" transform="translate(0,0)"></path>
<path d="M 945.288 1117.93 C 949.555 1118.13 957.452 1117.54 957.806 1122.65 L 957.909 1123.86 C 950.017 1124.63 945.371 1126.4 945.288 1117.93 z" fill="rgb(232,232,229)" transform="translate(0,0)"></path>
<path d="M 556.2 812.165 C 559.121 812.207 575.117 810.993 569.871 814.769 C 564.745 821.745 573.037 823.203 560.496 826.766 C 546.469 830.75 567.705 826.813 570.933 835.041 L 571.635 836.594 C 566.072 842.614 561.02 843.907 552.413 840.132 C 546.345 837.471 554.891 834.117 552.685 831.265 C 550.316 828.203 551.731 827.714 553.598 825.641 C 552.688 819.12 550.881 818.364 556.2 812.165 z" fill="rgb(27,25,27)" transform="translate(0,0)"></path>
<path d="M 558.228 815.399 C 559.684 814.504 561.516 814.49 562.986 815.362 C 564.455 816.235 565.321 817.849 565.233 819.556 C 565.145 821.263 564.119 822.781 562.567 823.498 C 560.356 824.52 557.731 823.641 556.58 821.494 C 555.429 819.346 556.152 816.674 558.228 815.399 z" fill="rgb(232,232,229)" transform="translate(0,0)"></path>
<path d="M 554.82 832.962 C 561.317 832.967 568.367 830.749 565.74 838.703 C 559.511 838.877 553.49 840.389 554.82 832.962 z" fill="rgb(232,232,229)" transform="translate(0,0)"></path>
<path d="M 1018.88 1166.6 L 1019.34 1165.49 C 1019.79 1164.43 1029.75 1133.23 1033.06 1143.95 C 1033.86 1146.55 1033.43 1171 1032.12 1172.62 L 1031.14 1172.68 C 1028.34 1170.43 1029.69 1152.53 1029.72 1148.45 C 1026.89 1155.19 1023.38 1164.97 1020.46 1171.26 C 1017.25 1178.18 1011.5 1157.8 1010.31 1155.2 C 1007.74 1160.2 1010.26 1165.23 1008.22 1173.33 C 1000.74 1171.35 1006.43 1159.76 1004.73 1152.34 C 1003.91 1148.74 1003.84 1143.07 1008.4 1142.7 C 1009.98 1144.44 1017.28 1162.99 1018.88 1166.6 z" fill="rgb(27,25,27)" transform="translate(0,0)"></path>
<path d="M 1008.22 1173.33 C 1008.17 1170.82 1007.56 1153.48 1008.68 1152.48 C 1009.95 1152.48 1010.04 1154.14 1010.31 1155.2 C 1007.74 1160.2 1010.26 1165.23 1008.22 1173.33 z" fill="rgb(192,190,189)" transform="translate(0,0)"></path>
<path d="M 579.215 812.046 C 584.416 812.312 589.337 812.64 594.258 812.716 C 596.447 814.966 589.923 814.869 590.684 817.429 C 594.101 828.927 578.386 825.197 579.179 829.018 C 581.276 830.499 586.804 829.588 592.971 833.512 C 593.126 843.061 588.348 841.573 579.494 841.734 C 572.441 841.862 573.76 832.362 575.659 827.997 C 579.039 820.226 569.16 819.85 579.215 812.046 z" fill="rgb(27,25,27)" transform="translate(0,0)"></path>
<path d="M 580.124 815.517 C 581.572 814.525 583.452 814.421 585 815.249 C 586.548 816.077 587.505 817.699 587.483 819.454 C 587.461 821.209 586.462 822.806 584.894 823.594 C 582.684 824.705 579.992 823.914 578.735 821.784 C 577.478 819.655 578.085 816.916 580.124 815.517 z" fill="rgb(232,232,229)" transform="translate(0,0)"></path>
<path d="M 576.845 832.713 C 582.87 832.915 590.314 830.815 588.775 838.467 C 583.529 838.909 577.501 841.003 577.036 834.608 L 576.845 832.713 z" fill="rgb(232,232,229)" transform="translate(0,0)"></path>
<path d="M 760.79 1150.55 C 769.366 1155.73 766.511 1148.14 773.973 1151.15 C 785.002 1155.6 782.519 1168.08 773.033 1173.2 C 768.994 1172.37 767.352 1170.87 764.736 1170.24 C 763.129 1171.08 764.947 1176.8 764.038 1178.49 C 764.01 1179.57 761.161 1179.68 760.98 1178.97 C 759.667 1173.84 760.361 1154.58 760.79 1150.55 z" fill="rgb(27,25,27)" transform="translate(0,0)"></path>
<path d="M 767.077 1153.79 C 778.776 1153.58 779.104 1160.64 774.463 1169.66 L 773.968 1169.62 C 762.751 1168.99 760.664 1162.46 767.077 1153.79 z" fill="rgb(232,232,229)" transform="translate(0,0)"></path>
<path d="M 566.535 1150.54 C 575.49 1156.94 566.836 1150.89 577.956 1150.73 C 584.684 1150.63 587.29 1158.42 586.064 1164.02 C 585.017 1168.8 582.902 1170.29 579.012 1173.14 C 577.716 1173.06 574.151 1172.98 573.029 1172.18 C 565.083 1166.43 572.844 1183.71 566.149 1179 C 565.044 1178.23 566.039 1153.17 566.535 1150.54 z" fill="rgb(27,25,27)" transform="translate(0,0)"></path>
<path d="M 573.684 1154.69 C 576.274 1153.86 579.107 1154.53 581.053 1156.43 C 582.999 1158.32 583.741 1161.14 582.984 1163.75 C 582.226 1166.36 580.091 1168.34 577.432 1168.9 C 573.597 1169.7 569.804 1167.36 568.804 1163.57 C 567.805 1159.78 569.951 1155.88 573.684 1154.69 z" fill="rgb(232,232,229)" transform="translate(0,0)"></path>
<path d="M 741.678 1151.65 C 745.423 1150.22 749.654 1150.96 752.688 1153.58 C 755.721 1156.21 757.063 1160.29 756.18 1164.2 C 755.296 1168.11 752.33 1171.22 748.464 1172.28 C 742.874 1173.82 737.059 1170.71 735.248 1165.2 C 733.436 1159.69 736.266 1153.73 741.678 1151.65 z" fill="rgb(27,25,27)" transform="translate(0,0)"></path>
<path d="M 742.748 1153.6 C 754.051 1154.43 755.473 1162.71 748.31 1169.96 C 737.261 1168.52 735.998 1161.74 742.748 1153.6 z" fill="rgb(232,232,229)" transform="translate(0,0)"></path>
<path d="M 616.316 1097.85 C 622.141 1096.83 627.715 1100.65 628.862 1106.45 C 630.009 1112.25 626.307 1117.91 620.532 1119.18 C 616.685 1120.02 612.682 1118.72 610.067 1115.78 C 607.453 1112.83 606.637 1108.7 607.934 1104.98 C 609.23 1101.26 612.437 1098.54 616.316 1097.85 z" fill="rgb(27,25,27)" transform="translate(0,0)"></path>
<path d="M 616.629 1099.64 C 626.998 1103.04 628.118 1111.34 619.322 1117.24 C 608.907 1114.08 609.168 1106.21 616.629 1099.64 z" fill="rgb(232,232,229)" transform="translate(0,0)"></path>
<path d="M 935.277 1151.85 C 940.795 1149.72 947.001 1152.4 949.228 1157.88 C 951.456 1163.36 948.882 1169.62 943.443 1171.94 C 939.838 1173.48 935.682 1172.96 932.574 1170.57 C 929.465 1168.18 927.888 1164.3 928.448 1160.42 C 929.009 1156.54 931.619 1153.26 935.277 1151.85 z" fill="rgb(27,25,27)" transform="translate(0,0)"></path>
<path d="M 935.98 1153.79 C 946.928 1154.37 948.188 1160.87 942.813 1169.59 C 930.794 1170.72 930.204 1161.94 935.98 1153.79 z" fill="rgb(232,232,229)" transform="translate(0,0)"></path>
<path d="M 531.569 1097.88 C 539.561 1097.96 545.154 1098.32 545.755 1108.01 C 546.034 1112.5 545.127 1115.9 541.463 1118.62 L 540.084 1119.68 C 535.838 1119.82 531.792 1119.99 528.65 1116.61 C 526.467 1114.3 525.339 1111.18 525.535 1108 C 525.83 1103.01 528.111 1100.9 531.569 1097.88 z" fill="rgb(27,25,27)" transform="translate(0,0)"></path>
<path d="M 533.062 1100.65 C 543.903 1101.89 544.315 1109.62 538.67 1117.61 C 527.73 1115.17 526.303 1108.89 533.062 1100.65 z" fill="rgb(232,232,229)" transform="translate(0,0)"></path>
<path d="M 684.76 1151.82 C 688.505 1150.89 692.458 1152.06 695.093 1154.88 C 697.727 1157.7 698.631 1161.72 697.456 1165.4 C 696.281 1169.07 693.21 1171.82 689.43 1172.59 C 683.753 1173.74 678.199 1170.14 676.928 1164.49 C 675.658 1158.84 679.138 1153.21 684.76 1151.82 z" fill="rgb(27,25,27)" transform="translate(0,0)"></path>
<path d="M 685.9 1153.43 C 695.457 1156.74 696.411 1163.47 689.241 1170.44 C 679.529 1168.47 677.621 1160.47 684.53 1154.62 L 685.9 1153.43 z" fill="rgb(232,232,229)" transform="translate(0,0)"></path>
<path d="M 708.279 1088.13 C 708.245 1088.11 710.243 1088.94 710.174 1088.88 C 716.326 1094.68 718.023 1107.45 721.888 1115.01 C 724.683 1120.48 718.764 1120.42 717.864 1116.02 C 717.352 1113.53 716.986 1112.22 714.924 1111.02 C 711.856 1111.04 707.165 1110.76 704.324 1111.32 C 703.074 1111.57 702.572 1119.96 699.448 1119.2 C 696.702 1118.54 699.458 1113.08 699.945 1111.52 C 702.391 1103.64 705.512 1095.9 708.279 1088.13 z" fill="rgb(27,25,27)" transform="translate(0,0)"></path>
<path d="M 709.356 1094.65 C 711.574 1096.97 716.136 1105.26 712.723 1108.42 C 701.892 1106.98 705.171 1106.86 709.356 1094.65 z" fill="rgb(232,232,229)" transform="translate(0,0)"></path>
<path d="M 524.637 1140.23 C 531.15 1144.47 525.684 1159.02 527.312 1166.47 C 527.773 1168.58 527.435 1173.9 523.942 1171.81 C 522.771 1171.11 523.403 1160.11 523.415 1158.59 C 518.392 1158.55 513.369 1158.57 508.346 1158.66 C 508.321 1164.52 508.513 1167.72 507.611 1173.57 C 500.121 1168.72 505.874 1160.78 504.207 1152.37 C 504.003 1151.35 503.598 1141.52 506.623 1141.93 C 509.283 1142.28 508.162 1152.99 508.17 1155.04 L 523.877 1155.12 C 523.901 1149.62 523.617 1145.65 524.637 1140.23 z" fill="rgb(27,25,27)" transform="translate(0,0)"></path>
<path d="M 538.176 1151.05 C 546.009 1150.66 551.632 1150.51 551.89 1162.12 C 551.963 1165.41 538.432 1161.87 537.091 1163.71 C 534.111 1167.79 541.754 1169.7 544.498 1170.1 C 546.882 1168.5 548.657 1166.21 551.322 1168.31 C 550.34 1180.34 519.12 1169 536.958 1152.23 L 538.176 1151.05 z" fill="rgb(27,25,27)" transform="translate(0,0)"></path>
<path d="M 540.01 1153.52 C 543.132 1154.03 550.123 1155.4 546.74 1160.13 C 537.745 1160.04 533.78 1161.91 540.01 1153.52 z" fill="rgb(232,232,229)" transform="translate(0,0)"></path>
<path d="M 1046.27 1150.07 C 1052.03 1150.81 1056.11 1151.34 1056.05 1157.99 C 1056.01 1162.33 1056.11 1166.71 1056.59 1171.01 C 1056.74 1172.36 1054.82 1172.54 1054.01 1171.89 C 1051.36 1169.85 1048.75 1172.59 1045.97 1172.88 C 1042.14 1173.27 1040.07 1170.9 1037.56 1168.38 C 1040.18 1159.3 1041.83 1160.86 1050.99 1158.95 C 1054.27 1157.23 1051.22 1153.73 1048.33 1153.26 C 1044.18 1152.59 1041.38 1159.21 1038.74 1155.95 C 1038.17 1152.17 1043.71 1150.87 1046.27 1150.07 z" fill="rgb(27,25,27)" transform="translate(0,0)"></path>
<path d="M 1045.42 1161.73 C 1053.46 1162.31 1055.3 1164.14 1048.11 1170.2 C 1041.03 1168.45 1040.12 1167.3 1045.42 1161.73 z" fill="rgb(232,232,229)" transform="translate(0,0)"></path>
<path d="M 810.597 1150.34 C 819.506 1154.75 817.553 1147.02 826.03 1153.52 C 826.544 1153.92 832.175 1149.3 835.027 1150.73 C 837.094 1150.62 837.972 1152.46 838.889 1153 C 841.238 1154.36 840.973 1177.61 837.565 1172.08 C 833.842 1166.04 842.73 1150.37 828.007 1155.17 C 826.923 1159.74 828.7 1174.79 823.766 1172.13 C 822.248 1169.17 826.924 1148.92 815.997 1155.12 C 812 1157.48 814.975 1169.98 813.572 1171.59 C 808.272 1177.67 810.459 1152.39 810.597 1150.34 z" fill="rgb(27,25,27)" transform="translate(0,0)"></path>
<path d="M 851.458 1097.2 C 852.138 1097.54 852.817 1097.87 853.497 1098.2 C 856.675 1099.86 860.952 1094.71 864.535 1098.52 C 868.523 1102.76 874.144 1092.31 879.022 1100.01 C 881.506 1103.94 879.81 1113.48 879.906 1118.05 C 879.921 1118.76 878.143 1119.41 877.594 1118.83 C 875.213 1115.3 877.651 1108.11 876.355 1103.96 C 874.926 1099.38 871.228 1100.99 867.849 1102.23 C 867.063 1107.71 867.31 1112.55 867.081 1117.99 C 867.042 1118.92 865.375 1119.3 864.856 1118.79 C 862.241 1116.2 865.856 1102.48 861.976 1101.26 C 849.796 1097.17 856.37 1115.5 853.838 1118.41 C 848.763 1124.23 851.094 1099.07 851.458 1097.2 z" fill="rgb(27,25,27)" transform="translate(0,0)"></path>
<path d="M 660.608 811.961 C 664.085 811.768 676.618 810.82 673.708 823.545 C 672.155 824.721 663.305 824.109 662.52 824.046 C 654.206 823.378 661.476 834.915 667.508 829.753 C 682.129 820.644 666.544 842.098 657.382 831.331 C 651.827 824.804 654.564 817.444 660.608 811.961 z" fill="rgb(27,25,27)" transform="translate(0,0)"></path>
<path d="M 662.127 814.565 C 666.347 814.865 675.23 818.282 668.127 821.206 C 658.711 820.973 655.672 822.791 662.127 814.565 z" fill="rgb(232,232,229)" transform="translate(0,0)"></path>
<path d="M 881.776 1149.95 C 889.309 1150.89 892.618 1152.09 893.272 1160.56 C 893.446 1162.82 891.818 1163.04 890.029 1163.07 C 886.469 1163.12 882.473 1162.59 878.974 1163.14 C 877.465 1163.5 877.742 1165.4 878.217 1166.42 C 880.922 1172.25 885.459 1169.61 889.755 1167.5 C 891.336 1166.7 892.105 1167.4 891.633 1168.9 C 889.889 1174.45 877.816 1174.16 875.796 1169.01 C 872.457 1160.48 873.525 1154.11 881.776 1149.95 z" fill="rgb(27,25,27)" transform="translate(0,0)"></path>
<path d="M 881.865 1152.33 C 885.408 1153.21 893.277 1157.15 887.027 1160.22 C 881.243 1159.94 874.266 1161.27 880.687 1153.77 L 881.865 1152.33 z" fill="rgb(232,232,229)" transform="translate(0,0)"></path>
<path d="M 663.095 1097.03 C 677.549 1099.57 672.29 1105.55 672.744 1118.94 C 672.84 1121.79 670.278 1116.18 667.58 1118.07 C 663.196 1121.14 659.061 1119.28 655.044 1116.91 C 655.804 1098.38 678.513 1111.29 665.528 1100.46 C 663.904 1099.1 659.19 1103.29 657.292 1103.17 L 656.292 1102.12 L 656.215 1102.38 C 657.67 1098.77 659.572 1098.28 663.095 1097.03 z" fill="rgb(27,25,27)" transform="translate(0,0)"></path>
<path d="M 662.324 1108.77 C 667.801 1109.15 673.88 1109.69 666.185 1116.03 L 664.869 1117.15 C 663.173 1116.72 660.995 1116.55 659.725 1115.16 C 659.194 1114.59 658.936 1113.82 659.016 1113.05 C 659.184 1111.29 661.104 1109.88 662.324 1108.77 z" fill="rgb(232,232,229)" transform="translate(0,0)"></path>
<path d="M 833.791 1096.88 C 841.786 1097.56 844.959 1098.63 846.152 1107.61 C 846.734 1111.99 830.738 1107.71 830.269 1110.48 C 829.613 1114.34 834.054 1117.63 838.535 1115.78 C 839.199 1115.44 839.859 1115.08 840.514 1114.72 C 841.231 1114.32 845.659 1112.17 844.882 1114.82 C 843.214 1120.49 830.417 1121.18 828.147 1115.43 C 824.882 1107.16 826.166 1101.34 833.791 1096.88 z" fill="rgb(27,25,27)" transform="translate(0,0)"></path>
<path d="M 833.737 1099.68 L 835.137 1099.93 C 839.182 1100.6 846.468 1105.26 839.895 1106.78 C 831.496 1106.67 826.922 1108.02 833.737 1099.68 z" fill="rgb(232,232,229)" transform="translate(0,0)"></path>
<path d="M 1004.65 1097.84 C 1009.07 1097.87 1019.21 1098.28 1018.88 1108.67 C 1018.8 1111.13 1004.61 1109.15 1003.47 1109.97 C 999.663 1112.73 1006.42 1118.34 1011.38 1116.29 C 1011.46 1116.23 1017.66 1111.05 1017.07 1114.37 C 1015.91 1120.89 1004.55 1121.44 1001.35 1116.67 C 995.984 1108.66 998.376 1103.29 1004.65 1097.84 z" fill="rgb(27,25,27)" transform="translate(0,0)"></path>
<path d="M 1004.98 1100.77 C 1008.19 1100.72 1018.8 1102.48 1013.84 1107.06 C 1005.38 1106.98 999.36 1109.35 1004.98 1100.77 z" fill="rgb(232,232,229)" transform="translate(0,0)"></path>
<path d="M 735.713 810.845 C 750.812 812.673 746.477 818.821 746.482 833.081 C 746.482 834.988 743.198 832.12 743.396 832.051 C 737.399 834.148 735.502 836.553 729.827 831.093 L 728.395 829.788 C 729.014 828.302 729.563 826.601 730.404 825.341 C 733.222 821.116 738.184 821.98 742.085 820.163 C 743.704 819.409 743.183 817.179 741.896 816.104 C 740.756 815.152 739.573 814.183 737.895 814.279 C 735.412 813.595 731.914 819.262 731.194 818.777 C 727.158 816.062 734.769 811.441 735.713 810.845 z" fill="rgb(27,25,27)" transform="translate(0,0)"></path>
<path d="M 741.742 823.121 C 747.016 827.154 740.002 830.45 736.468 831.383 L 734.654 831.907 C 731.109 824.729 734.783 824.767 741.742 823.121 z" fill="rgb(232,232,229)" transform="translate(0,0)"></path>
<path d="M 602.82 811.928 C 609.584 812.038 615.162 812.186 615.889 821.651 C 616.264 826.53 595.033 819.76 600.666 828.214 C 602.554 831.049 606.403 832.214 609.385 829.842 C 616.096 825.675 615.763 829.972 613.664 831.647 C 601.635 841.246 588.027 823.631 601.301 813.167 L 602.82 811.928 z" fill="rgb(27,25,27)" transform="translate(0,0)"></path>
<path d="M 602.932 814.693 C 606.103 814.819 614.791 815.588 610.724 820.948 C 605.952 820.899 597.094 822.846 601.986 816.157 L 602.932 814.693 z" fill="rgb(232,232,229)" transform="translate(0,0)"></path>
<path d="M 509.985 802.958 C 514.209 803.032 520.007 803.121 521.823 807.135 C 524.528 813.857 519.302 809.984 516.547 807.494 C 513.499 804.739 504.568 808.317 507.233 813.044 C 509.785 817.57 521.686 816.244 523.405 822.723 C 525.404 830.257 521.394 832.202 515.472 834.154 L 513.982 834.025 C 509.427 833.675 504.656 832.763 503.124 827.473 C 502.823 826.432 503.508 824.469 504.903 824.958 C 506.769 825.687 507.197 828.911 509.117 829.708 C 512.07 830.934 518.42 831.059 519.827 827.388 C 521.544 823.222 516.739 820.973 513.425 820.284 C 508.769 819.315 502.231 816.981 503.042 811.021 C 503.596 806.942 506.812 805.068 509.985 802.958 z" fill="rgb(27,25,27)" transform="translate(0,0)"></path>
<path d="M 901.798 1097.94 C 904.336 1097.9 917.518 1097.34 915.263 1108.59 C 914.983 1109.99 902.367 1108.64 900.915 1109.24 C 896.25 1111.2 902.693 1118.49 908.379 1115.76 C 919.635 1109.04 913.602 1120.72 905.617 1119.49 C 892.843 1117.52 892.429 1105.84 901.798 1097.94 z" fill="rgb(27,25,27)" transform="translate(0,0)"></path>
<path d="M 902.038 1100.88 C 904.887 1100.84 914.025 1100.71 910.728 1106.4 C 902.925 1106.47 896.485 1108.9 902.038 1100.88 z" fill="rgb(232,232,229)" transform="translate(0,0)"></path>
<path d="M 1028.8 1097.83 L 1030.18 1097.91 L 1032.02 1097.98 C 1034.78 1098.11 1037.24 1098.75 1038.95 1101.03 C 1049.05 1114.53 1027.14 1107.27 1025.75 1110.26 C 1023.81 1114.42 1030.36 1119.22 1036.38 1115.71 L 1037.67 1114.98 C 1040.53 1111.37 1041.28 1115.85 1038.02 1117.85 C 1023.97 1126.52 1014.63 1106.51 1028.8 1097.83 z" fill="rgb(27,25,27)" transform="translate(0,0)"></path>
<path d="M 1027.99 1100.84 C 1031.18 1100.82 1036.25 1100.38 1037.47 1104.5 C 1037.18 1105.83 1036.83 1106 1035.72 1106.73 C 1028.08 1106.75 1022.73 1108.75 1027.99 1100.84 z" fill="rgb(232,232,229)" transform="translate(0,0)"></path>
<path d="M 774.111 802.5 C 779.133 804.947 776.971 816.791 777.003 822.67 C 779.078 820.488 786.274 810.696 789.31 812.539 C 790.35 814.394 784.12 819.634 782.841 820.927 C 784.979 824.425 786.765 827.075 789.192 830.368 C 794.292 837.161 784.636 834.17 782.393 826.609 C 776.502 820.117 777.179 831.933 777.126 832.019 C 770.318 843.178 773.346 805.042 774.111 802.5 z" fill="rgb(27,25,27)" transform="translate(0,0)"></path>
<path d="M 906.835 1150.41 C 914.067 1152.06 915.094 1161.84 917.741 1168.91 C 918.422 1166.73 922.929 1152.44 923.738 1151.8 C 929.393 1147.34 923.231 1163.24 923.14 1163.51 L 922.566 1165.27 C 921.023 1169.43 919.656 1175.38 916.565 1178.56 C 915.272 1179.88 910.042 1181.07 909.096 1179.4 C 907.432 1176.45 914.841 1177.07 915.546 1174.2 C 916.378 1170.82 912.875 1166.58 911.95 1163.34 C 909.878 1158.65 908.266 1155.57 906.835 1150.41 z" fill="rgb(27,25,27)" transform="translate(0,0)"></path>
<path d="M 502.66 1088.59 C 508.427 1089.93 511.254 1098.11 514.5 1103.37 C 516.941 1098.66 519.508 1090.96 523.787 1089.16 L 524.803 1089.51 L 524.869 1089.48 C 525.859 1091.72 522.281 1096.66 521.082 1098.74 C 519.224 1102.08 517.582 1104.16 516.897 1108 C 516.411 1110.71 518.209 1118.81 514.795 1119.32 C 511.634 1118.14 512.97 1110.31 512.982 1107.42 C 510.171 1103.51 503.891 1094.8 503.018 1090.26 L 502.66 1088.59 z" fill="rgb(27,25,27)" transform="translate(0,0)"></path>
<path d="M 768.283 1097.7 C 774.456 1099.74 775.553 1108.54 778.259 1114.88 C 779.658 1111.3 783.462 1099.46 785.69 1098.3 C 790.252 1095.91 782.752 1112.41 782.766 1112.38 L 782.078 1114.19 C 781.1 1116.44 780.177 1118.72 779.31 1121.01 C 775.217 1132.02 763.914 1126.82 774.963 1122.01 C 778.773 1120.36 769.056 1104.42 768.283 1097.7 z" fill="rgb(27,25,27)" transform="translate(0,0)"></path>
<path d="M 954.77 1150.43 C 959.361 1153.79 956.275 1159.07 957.117 1164.51 C 957.55 1167.31 957.774 1170.37 961.507 1169.92 C 972.033 1168.63 965.151 1158.12 968.477 1151.76 C 971.162 1148.32 971.255 1155.53 971.251 1155.75 C 971.232 1158.66 972.19 1171.91 969.998 1172.93 C 968.155 1172.61 968.017 1170.4 966.017 1171.46 C 949.306 1180.3 953.07 1156.14 954.77 1150.43 z" fill="rgb(27,25,27)" transform="translate(0,0)"></path>
<path d="M 529.661 811.239 C 530.056 811.469 531.398 812.12 531.595 812.337 C 534.527 815.811 531.527 823.01 533.039 827.522 C 534.086 831.059 537.323 831.259 540.396 829.792 C 545.995 827.702 541.5 816.607 543.692 813.33 C 545.668 810.374 546.874 813.503 546.893 815.75 C 546.89 818.683 547.805 832.534 545.896 833.809 C 544.139 833.896 543.522 831.038 541.804 832.404 C 538.83 834.768 532.884 834.639 530.762 831.155 C 528.09 826.77 528.858 816.181 529.661 811.239 z" fill="rgb(27,25,27)" transform="translate(0,0)"></path>
<path d="M 623.215 812.073 C 628.084 811.975 634.628 810.823 636.083 817.113 C 633.71 818.587 625.889 811.423 623.767 816.991 C 621.803 822.144 649.54 822.93 631.498 834.256 C 628.03 833.997 620.454 833.553 619.709 828.896 C 620.001 828.112 620.033 827.967 620.735 827.423 C 621.627 827.341 628.141 832.906 630.785 830.694 C 641.439 821.784 609.918 827.8 623.215 812.073 z" fill="rgb(27,25,27)" transform="translate(0,0)"></path>
<path d="M 655.592 1150.48 C 660.712 1153.04 661.299 1158.47 664 1164.57 L 665.473 1167.91 C 672.024 1150.6 679.093 1142.04 669.5 1167.44 C 668.074 1171.15 666.108 1178.59 662.012 1179.94 C 661.159 1180.22 657.174 1179.75 657.473 1178.48 C 657.916 1176.59 662.273 1177.23 663.191 1174.71 C 665.128 1171.36 662.462 1169.62 661.176 1166.42 C 658.37 1160.88 656.6 1156.67 655.592 1150.48 z" fill="rgb(27,25,27)" transform="translate(0,0)"></path>
<path d="M 565.414 1096.36 C 570.675 1100.64 567.032 1109.94 568.053 1116.51 C 568.771 1121.13 564.837 1117.77 563.136 1118.36 C 549.109 1123.26 550.252 1112.73 550.147 1102.97 C 550.31 1101.08 550.106 1097.85 552.868 1098.04 C 556.335 1100.41 550.457 1115.24 557.256 1116.56 C 562.344 1117.55 564.688 1114.33 564.419 1109.52 C 564.194 1105.48 564.503 1100.33 565.414 1096.36 z" fill="rgb(27,25,27)" transform="translate(0,0)"></path>
<path d="M 600.589 1150.56 C 601.137 1150.74 601.681 1150.94 602.221 1151.15 C 607.718 1153.31 612.121 1147.53 616.58 1153.37 C 618.506 1155.89 618.564 1168.03 617.798 1170.49 C 617.503 1171.42 616.88 1172.22 616.045 1172.73 L 614.892 1171.99 C 614.447 1169.97 614.6 1160.27 614.594 1157.76 C 613.33 1154.9 612.517 1153.38 609.003 1153.82 C 600.017 1154.96 606.501 1168.09 603.07 1172.56 C 598.353 1172.51 600.467 1154.51 600.589 1150.56 z" fill="rgb(27,25,27)" transform="translate(0,0)"></path>
<path d="M 797.091 1096.93 C 810.463 1098.15 807.648 1104.72 804.014 1101.98 C 797.247 1096.89 790.273 1104.55 797.995 1105.92 C 807.495 1107.61 813.393 1113.24 802.799 1119.47 C 787.306 1118.39 790.215 1111.68 794.405 1114.13 C 803.565 1119.5 809.406 1112.22 798.419 1109.28 C 787.158 1106.26 789.552 1101.25 797.091 1096.93 z" fill="rgb(27,25,27)" transform="translate(0,0)"></path>
<path d="M 986.509 1097.18 C 988.773 1097.73 992.355 1097.86 993.35 1100.86 C 993.851 1102.37 995.585 1122.37 991.397 1119.33 C 989.58 1118.02 991.192 1106.6 990.501 1104.02 C 989.736 1101.15 988.346 1100.87 985.674 1099.4 C 974.695 1107.8 982.96 1109.46 979.416 1119.24 L 977.914 1119.46 C 976.208 1117.64 976.51 1114.58 976.541 1112.02 C 976.818 1107.64 976.352 1104.16 976.64 1099.75 C 976.843 1096.64 981.769 1100.12 983.285 1098.41 C 983.495 1098.18 986.862 1097.06 986.509 1097.18 z" fill="rgb(27,25,27)" transform="translate(0,0)"></path>
<path d="M 718.215 1150.77 C 721.244 1153.85 720.423 1171.24 719.001 1172.09 C 717.019 1172.12 717.038 1170.43 714.65 1171.42 C 703.316 1176.14 702.47 1167.46 702.1 1159.89 C 702.249 1157.58 702.09 1154.71 702.833 1152.55 C 703.09 1151.81 704.746 1151.34 705.084 1151.96 C 706.972 1155.66 705.226 1161.25 706.017 1165.52 C 706.613 1168.75 709.522 1170.25 712.503 1169.04 C 719.71 1166.1 714.225 1158.69 718.215 1150.77 z" fill="rgb(27,25,27)" transform="translate(0,0)"></path>
<path d="M 919.927 1097.62 C 930.457 1100.71 939.071 1091.54 937.959 1110.72 C 937.83 1112.95 938.834 1118.18 936.19 1119.34 L 935.06 1118.8 C 934.346 1116.78 934.6 1107.06 934.605 1104.46 C 933.451 1101.14 931.841 1100.2 928.017 1100.83 C 920.028 1102.12 925.929 1115.09 922.549 1119.42 C 918.351 1119.8 919.98 1100.95 919.927 1097.62 z" fill="rgb(27,25,27)" transform="translate(0,0)"></path>
<path d="M 755.283 812.015 L 756.877 812.006 C 759.03 811.976 770.195 813.25 765.94 817.561 C 764.092 818.001 760.754 813.35 757.308 815.187 C 756.269 815.299 755.32 818.425 756.2 818.842 C 762.956 822.046 772.216 822.029 765.897 832.354 C 766.035 832.127 764.382 834.206 764.639 833.892 C 761 834.078 756.158 834.946 752.96 832.495 C 751.931 831.707 751.558 829.699 752.682 828.858 C 754.981 829.286 762.32 833.729 763.905 828.508 C 764.145 827.743 764.063 826.913 763.678 826.21 C 761.304 821.868 744.649 824.528 755.283 812.015 z" fill="rgb(27,25,27)" transform="translate(0,0)"></path>
<path d="M 751.328 1097.99 C 754.739 1097.68 764.772 1097.03 763.835 1103.43 C 761.116 1104.79 756.48 1098.34 753.296 1101.18 C 744.97 1108.62 775.975 1106.38 761.647 1118.68 L 760.395 1119.79 C 743.152 1119.89 748.181 1110.96 751.065 1114.45 C 755.738 1120.1 762.548 1115.25 761.277 1112.97 C 758.203 1107.46 741.902 1111.03 751.328 1097.99 z" fill="rgb(27,25,27)" transform="translate(0,0)"></path>
<path d="M 641.142 1097.07 C 642.772 1097.24 654.397 1098.8 649.891 1104.49 C 649.779 1104.63 648.505 1103.73 648.271 1103.44 C 645.579 1100.04 640.775 1099.56 637.666 1102.68 C 634.62 1105.56 634.444 1112.15 637.933 1115.11 C 639.805 1116.7 642.156 1116.61 644.434 1116.56 C 645.963 1115.3 648.843 1111.91 650.942 1113.2 C 652.294 1118.35 641.817 1121.21 638.409 1119.16 C 627.359 1112.51 630.648 1101.61 641.142 1097.07 z" fill="rgb(27,25,27)" transform="translate(0,0)"></path>
<path d="M 1066.08 1151.11 L 1067.33 1151.01 C 1071.27 1150.66 1079.79 1150.32 1078.83 1156.46 C 1078.12 1160.98 1070.77 1147.81 1065.73 1156.83 C 1063.02 1161.67 1064.27 1167.29 1069.35 1169.75 L 1070.95 1170.55 C 1072.48 1169.78 1079.56 1163.64 1079.06 1167.15 C 1077.63 1177.16 1059.65 1173.63 1060.96 1162 C 1061.69 1155.42 1060.68 1156.67 1066.08 1151.11 z" fill="rgb(27,25,27)" transform="translate(0,0)"></path>
<path d="M 854.835 1151.44 C 860.819 1150.36 865.29 1150.78 871.346 1150.83 C 866.583 1158.85 864.86 1161.51 859.063 1169.14 C 863.012 1169.22 870.801 1167.27 870.608 1172.14 C 868.453 1172.24 854.542 1174.05 854.368 1171.43 C 854.062 1166.8 865.731 1158.36 864.94 1154.49 C 862.599 1152.64 859.406 1155.8 854.835 1151.44 z" fill="rgb(27,25,27)" transform="translate(0,0)"></path>
<path d="M 788.292 1143.46 C 788.768 1143.72 789.822 1144.16 790.11 1144.49 C 792.536 1147.26 788.482 1151.14 794.488 1151.15 C 796.784 1151.15 796.298 1154.37 793.997 1154.11 C 793.648 1154.08 791.788 1154.15 791.462 1154.75 C 790.582 1158 790.766 1163.76 791.307 1166.94 C 791.512 1168.14 795.269 1168.07 797.371 1171.04 C 783.173 1176.98 788.72 1160.78 786.907 1154.97 C 786.834 1154.74 778.426 1151.77 786.429 1150.68 C 786.803 1150.63 787.983 1144.46 788.292 1143.46 z" fill="rgb(27,25,27)" transform="translate(0,0)"></path>
<path d="M 717.754 805.47 C 719.002 806.128 720.332 806.881 720.166 808.453 C 719.99 810.114 720.387 812.424 722.507 812.204 C 723.712 812.079 726.712 812.453 725.407 814.351 C 724.501 815.67 721.58 814.319 720.937 815.992 C 720.255 819.762 720.244 825.355 721.186 829.027 C 721.342 829.634 726.685 832.011 727.814 832.709 C 710.565 838.654 720.778 820.702 715.401 815.288 C 714.716 814.597 712.956 815.445 712.923 813.472 C 715.338 809.496 715.587 816.396 717.754 805.47 z" fill="rgb(27,25,27)" transform="translate(0,0)"></path>
<path d="M 644.638 807.359 C 648.849 806.936 644.796 811.463 648.983 812.163 C 649.214 812.202 650.663 812.474 650.757 812.554 C 654.024 815.326 648.545 814.837 647.429 815.691 C 646.32 819.382 646.916 824.671 647.181 828.521 C 647.272 829.855 651.361 831.633 652.688 832.635 C 640.002 837.312 644.194 824.166 642.99 816.539 C 642.787 815.172 635.636 814.379 640.565 812.309 C 643.944 810.89 642.78 811.12 644.638 807.359 z" fill="rgb(27,25,27)" transform="translate(0,0)"></path>
<path d="M 816.075 1091.5 C 819.02 1093.89 817.377 1093.79 818.944 1096.98 C 819.793 1098.71 823.639 1096.77 822.902 1100.07 C 820.565 1102.67 816.518 1098.14 818.665 1113.48 C 819.175 1117.12 823.152 1114.22 822.432 1119.66 C 809.41 1117.92 817.301 1111.51 814.513 1101.45 C 814.306 1100.71 811.84 1101.03 810.702 1100.16 C 810.561 1099.83 810.301 1099.03 810.653 1098.87 C 816.169 1096.37 813.918 1098.4 816.075 1091.5 z" fill="rgb(27,25,27)" transform="translate(0,0)"></path>
<path d="M 679.16 1088.12 C 679.827 1088.32 682.323 1089.01 682.39 1089.41 C 683.295 1094.91 682.801 1115.13 682.644 1119.71 C 682.209 1119.57 679.497 1118.84 679.429 1118.46 C 678.36 1112.43 678.968 1093.29 679.16 1088.12 z" fill="rgb(27,25,27)" transform="translate(0,0)"></path>
<path d="M 600.002 1088.1 C 600.194 1088.17 602.726 1088.89 602.757 1089.24 C 603.563 1098.76 603.355 1110.17 602.917 1119.79 C 603.484 1120.02 600.42 1118.9 600.338 1118.57 C 599.016 1113.16 599.769 1092.54 600.002 1088.1 z" fill="rgb(27,25,27)" transform="translate(0,0)"></path>
<path d="M 977.214 1151.07 C 985.434 1155.1 982.376 1148.58 987.338 1151.59 C 989.074 1156.21 980.634 1152.64 980.709 1162.75 C 980.702 1164 981.064 1171.52 980.21 1172.23 C 974.943 1176.57 977.115 1153.84 977.214 1151.07 z" fill="rgb(27,25,27)" transform="translate(0,0)"></path>
<path d="M 727.919 1089.15 C 728.371 1089.33 730.554 1090.14 730.6 1090.41 C 731.576 1096.25 731.067 1114.98 730.951 1119.83 C 725.354 1117.52 727.802 1114.64 727.511 1108.31 C 727.235 1102.27 727.541 1095.19 727.919 1089.15 z" fill="rgb(27,25,27)" transform="translate(0,0)"></path>
<path d="M 574.702 1097.33 C 578.087 1099.67 577.007 1102.94 579.588 1100.63 C 581.635 1098.8 583.069 1096.54 585.86 1098.29 C 586.163 1100.95 581.2 1101.88 578.754 1105.2 L 577.895 1106.4 C 577.844 1109.42 578.416 1117.24 576.734 1119.28 L 575.676 1119.36 C 572.962 1117.05 574.137 1101.06 574.702 1097.33 z" fill="rgb(27,25,27)" transform="translate(0,0)"></path>
<path d="M 557.912 1141.6 C 562.217 1145.01 560.445 1167.48 559.528 1173.13 C 559.227 1172.88 557.422 1171.53 557.346 1170.86 C 556.61 1164.41 556.016 1147.17 557.912 1141.6 z" fill="rgb(27,25,27)" transform="translate(0,0)"></path>
<path d="M 1045.85 1097.57 C 1047.74 1098.84 1048.15 1099.98 1049.14 1100.78 C 1050.95 1102.21 1053.33 1096.91 1056.28 1098.39 C 1058.15 1101.51 1049.81 1101.69 1049.12 1107.75 C 1049.14 1110.49 1049.53 1118.47 1048.65 1119.34 C 1044.33 1123.61 1045.46 1100.33 1045.85 1097.57 z" fill="rgb(27,25,27)" transform="translate(0,0)"></path>
<path d="M 591.576 1150.21 C 591.909 1150.38 594.426 1151.57 594.484 1152 C 595.25 1157.72 595.025 1167.52 594.579 1173.07 C 594.173 1172.9 591.237 1171.88 591.2 1171.32 C 590.775 1164.84 590.558 1156.58 591.576 1150.21 z" fill="rgb(27,25,27)" transform="translate(0,0)"></path>
<path d="M 801.254 1150.42 C 801.718 1150.6 803.986 1151.36 804.198 1151.86 C 805.407 1154.7 804.677 1169.45 804.596 1172.55 C 803.988 1172.47 801.356 1172.21 801.203 1171.67 C 800.187 1168.06 801.033 1153.12 801.254 1150.42 z" fill="rgb(27,25,27)" transform="translate(0,0)"></path>
<path d="M 846.199 1150.27 C 845.61 1150.04 848.63 1151.15 848.73 1151.45 C 849.77 1154.59 849.201 1170.08 849.168 1172.97 C 848.641 1172.76 846.415 1171.96 846.269 1171.62 C 844.851 1168.34 845.927 1152.97 846.199 1150.27 z" fill="rgb(27,25,27)" transform="translate(0,0)"></path>
<path d="M 967.111 1097.29 C 972.544 1099.72 970.132 1113.76 969.812 1119.75 C 964.205 1117.63 966.743 1102.88 967.111 1097.29 z" fill="rgb(27,25,27)" transform="translate(0,0)"></path>
<path d="M 591.466 1141.58 C 592.819 1140.98 594.399 1141.58 595.027 1142.91 C 595.656 1144.25 595.105 1145.85 593.786 1146.51 C 592.9 1146.96 591.842 1146.89 591.022 1146.33 C 590.203 1145.77 589.752 1144.81 589.844 1143.82 C 589.936 1142.83 590.557 1141.97 591.466 1141.58 z" fill="rgb(27,25,27)" transform="translate(0,0)"></path>
<path d="M 801.553 1142.74 C 802.8 1142.3 804.18 1142.85 804.775 1144.03 C 805.371 1145.21 804.996 1146.65 803.9 1147.39 C 803.056 1147.96 801.958 1147.99 801.083 1147.47 C 800.208 1146.95 799.714 1145.97 799.814 1144.96 C 799.915 1143.94 800.593 1143.08 801.553 1142.74 z" fill="rgb(27,25,27)" transform="translate(0,0)"></path>
<path d="M 1085.05 1168.59 C 1085.62 1167.76 1086.64 1167.35 1087.62 1167.57 C 1088.6 1167.79 1089.35 1168.58 1089.52 1169.57 C 1089.68 1170.57 1089.23 1171.56 1088.37 1172.08 C 1087.37 1172.68 1086.1 1172.51 1085.3 1171.67 C 1084.5 1170.83 1084.4 1169.54 1085.05 1168.59 z" fill="rgb(27,25,27)" transform="translate(0,0)"></path>
<path d="M 1058.59 1115.58 C 1059.29 1115.03 1060.25 1114.92 1061.06 1115.29 C 1061.87 1115.65 1062.42 1116.44 1062.47 1117.33 C 1062.53 1118.22 1062.08 1119.07 1061.32 1119.54 C 1060.23 1120.2 1058.81 1119.9 1058.08 1118.85 C 1057.36 1117.8 1057.58 1116.36 1058.59 1115.58 z" fill="rgb(27,25,27)" transform="translate(0,0)"></path>
<path d="M 966.431 1089.6 C 967.129 1088.7 968.38 1088.43 969.387 1088.97 C 970.394 1089.51 970.861 1090.7 970.49 1091.79 C 970.189 1092.66 969.4 1093.28 968.478 1093.36 C 967.555 1093.43 966.674 1092.96 966.231 1092.15 C 965.787 1091.33 965.866 1090.34 966.431 1089.6 z" fill="rgb(27,25,27)" transform="translate(0,0)"></path>
<path d="M 845.957 1143.52 C 846.795 1142.68 848.139 1142.65 849.018 1143.44 C 849.897 1144.23 850.004 1145.57 849.263 1146.49 C 848.745 1147.14 847.915 1147.44 847.105 1147.28 C 846.294 1147.13 845.637 1146.54 845.397 1145.75 C 845.156 1144.96 845.372 1144.1 845.957 1143.52 z" fill="rgb(27,25,27)" transform="translate(0,0)"></path>
<path d="M 1431.69 448.263 C 1486.17 459.902 1529.98 519.378 1521.41 575.14 C 1520.37 581.911 1518.22 591.571 1524.16 595.823 C 1534.43 595.715 1539.29 571.364 1540.62 563.505 C 1548.11 576.305 1551.11 588.615 1551.34 603.489 C 1551.85 630.472 1541.45 656.518 1522.49 675.722 C 1499.36 699.173 1469.18 708.761 1436.9 708.928 C 1394.15 705.122 1354.21 686.132 1339.86 642.551 C 1331.91 618.383 1336.86 584.845 1356.58 567.547 C 1370.16 555.643 1393.07 555.231 1401.05 536.38 C 1408.58 519.905 1407.03 508.336 1401.72 492.252 C 1419.28 504.387 1422.36 511.244 1428.62 530.659 C 1444.58 504.091 1449.31 475.189 1431.69 448.263 z" fill="rgb(244,134,90)" transform="translate(0,0)"></path>
<path d="M 1452.85 552.83 C 1453.72 553.84 1454.03 553.947 1454.39 555.14 C 1460.27 574.798 1475.6 590.016 1480.87 609.952 C 1481.85 613.65 1480.12 618.066 1482.01 621.709 L 1484.05 621.252 C 1488.36 616.861 1490.47 609.54 1492 603.709 C 1494.56 607.6 1496.68 611.29 1498.57 615.544 C 1504.15 627.899 1504.31 642.023 1499.01 654.5 C 1484.61 688.702 1440.91 698.65 1408.6 685.294 C 1369.33 665.533 1363.27 631.696 1388.85 597.425 C 1393.54 606.552 1396.83 614.065 1403.61 621.756 C 1405.15 599.876 1411.05 592.31 1426.82 578.147 C 1430.88 584.148 1434.56 590.895 1439.71 595.851 C 1436.08 573.595 1438.96 569.93 1452.85 552.83 z" fill="rgb(248,166,100)" transform="translate(0,0)"></path>
<path d="M 1454.77 623.207 C 1457.37 623.06 1461.95 622.624 1464.43 623.311 C 1468.35 624.409 1471.64 627.074 1473.53 630.676 C 1478.99 641.014 1474.57 651.742 1464.61 657.132 C 1453.29 657.202 1445.67 656.236 1443.03 642.506 L 1442.09 637.685 C 1445.97 629.322 1446.32 627.448 1454.77 623.207 z" fill="rgb(232,232,229)" transform="translate(0,0)"></path>
<path d="M 1455.68 627.407 C 1459.17 626.584 1462.7 625.681 1466.13 627.728 C 1468.64 629.216 1470.43 631.656 1471.11 634.49 C 1472.72 641.251 1467.53 643.51 1467.49 644.599 C 1467.71 644.903 1467.55 644.734 1468.01 645.103 C 1469.15 645.015 1469.87 644.936 1470.97 645.03 L 1471.29 645.47 C 1470.17 650.709 1460.94 655.118 1456.02 652.742 C 1442.39 646.168 1449.04 641.028 1449.12 634.989 C 1449.79 630.211 1451.43 629.546 1455.68 627.407 z" fill="rgb(27,25,27)" transform="translate(0,0)"></path>
<path d="M 1449.12 634.989 C 1449.79 630.211 1451.43 629.546 1455.68 627.407 L 1455.99 628.808 C 1461.72 635.641 1456.51 638.286 1450.25 635.38 L 1449.12 634.989 z" fill="rgb(232,232,229)" transform="translate(0,0)"></path>
<path d="M 1449.12 634.989 C 1449.79 630.211 1451.43 629.546 1455.68 627.407 L 1455.99 628.808 C 1451.9 631.102 1452.42 631.211 1450.25 635.38 L 1449.12 634.989 z" fill="rgb(132,129,133)" transform="translate(0,0)"></path>
<path d="M 1416.27 623.016 C 1439.1 624.483 1439.47 652.668 1422.74 655.953 L 1421.05 656.342 C 1397.33 654.67 1395.52 631.986 1416.27 623.016 z" fill="rgb(232,232,229)" transform="translate(0,0)"></path>
<path d="M 1417.02 626.119 C 1422.17 627.087 1430.52 629.147 1422.71 632.707 C 1421.24 633.378 1419.96 636.232 1421.98 637.064 C 1425.95 638.706 1430.4 632.739 1430.72 641.041 C 1430.7 645.638 1428.33 648.488 1425 651.459 C 1400.7 657.323 1400.12 630.835 1417.02 626.119 z" fill="rgb(27,25,27)" transform="translate(0,0)"></path>
<path d="M 1451.57 659.257 C 1453.17 666.031 1444.55 672.147 1439.1 667.853 C 1438.16 667.112 1437.98 666.056 1437.03 666.308 C 1435.55 668.604 1437.64 668.87 1433.63 668.967 C 1433.08 668.038 1429.32 663.033 1431.99 662.53 C 1432.99 662.343 1434.67 663.808 1435.41 664.279 C 1438.46 666.206 1443.15 665.67 1446.47 665.111 C 1448.79 664.72 1450.56 660.955 1451.57 659.257 z" fill="rgb(69,27,20)" transform="translate(0,0)"></path>
<path d="M 1433.91 625.519 C 1438.06 626.01 1441.79 627.148 1439.59 632.882 C 1439.35 633.076 1439.52 632.99 1438.96 633.051 C 1434.38 633.341 1434.39 630.343 1433.91 625.519 z" fill="rgb(244,134,90)" transform="translate(0,0)"></path>
<metadata><recraft-signature>{"signed_by": "recraft", "signature_b64": "jC1NXzyrKdz1eVCGINPW0uTF9jZUtxqFfgmIlw32gIihwrS2Yu1HpCTlXAz8r6C9CK55F9JdGW5SDmeJabEuBQ==", "signing_algo": "Ed25519", "generation_timestamp": 1777068833, "identifier": "5a856749-f07a-46e8-9052-a77c9384797e"}</recraft-signature></metadata></svg>