<svg xmlns="http://www.w3.org/2000/svg" height="1024" preserveAspectRatio="none" style="display: block;" version="1.1" viewBox="0 0 2048 2048" width="1024">
<path d="M 0 0 L 2048 0 L 2048 2048 L 0 2048 L 0 0 z" fill="rgb(24,22,28)" transform="translate(0,0)"></path>
<path d="M 569.587 422.519 L 577.218 422.289 C 640.614 420.61 709.813 422.113 773.945 422.035 L 1198.38 422.088 L 1424.15 422.073 L 1486.41 422.767 C 1528.61 422.949 1560.38 420.224 1593.23 451.772 C 1607.89 465.719 1618.39 483.459 1623.56 503.018 C 1627.92 519.606 1627.13 542.627 1627.51 560.314 C 1628.66 613.696 1626.97 666.366 1627.75 719.859 C 1628.19 799.034 1628.21 878.211 1627.83 957.387 L 1627.99 1313.03 L 1627.91 1464.44 C 1627.72 1512.14 1634.15 1556.64 1596.78 1593.65 C 1560.97 1629.11 1525.61 1625.28 1479.33 1625.38 C 1472.58 1625.74 1465.83 1625.96 1459.08 1626.03 C 1380.19 1626.36 1301.31 1626.29 1222.42 1625.82 L 825.507 1625.98 L 598.751 1625.58 C 582.328 1625.31 565.902 1625.2 549.477 1625.26 C 537.331 1625.26 522.995 1625.76 511.02 1624.13 C 468.828 1618.41 431.49 1584.04 422.475 1542.42 C 419.369 1528.07 420.114 1510.76 420.002 1495.97 L 419.858 1430.17 C 420.23 1353.42 420.209 1276.67 419.793 1199.91 L 420.022 698.001 C 419.79 654.327 419.816 610.652 420.098 566.978 C 420.585 521.272 416.088 489.818 451.016 454.944 C 487.656 418.361 522.073 422.749 569.587 422.519 z" fill="rgb(49,51,58)" transform="translate(0,0)"></path>
<path d="M 1195.03 518.42 C 1213.5 519.497 1235.5 519.022 1254.25 518.882 C 1264.47 526.531 1274.77 534.052 1285.17 541.445 C 1289.62 544.563 1301.35 552.222 1304.98 555.474 C 1308.06 581.37 1311.52 613.03 1316.08 638.69 C 1330.64 641.271 1344.04 648.476 1352.86 660.612 C 1359.65 670.055 1362.3 681.866 1360.18 693.307 C 1359.71 695.847 1359.21 697.797 1358.47 700.255 C 1395.7 714.091 1418.14 743.15 1418.7 783.749 C 1419.21 819.881 1418.75 856.153 1418.76 892.302 L 1418.87 1108.93 L 1419.05 1217.83 C 1419.12 1256.3 1424.77 1294.84 1395.03 1324.28 C 1375.07 1344.04 1357.5 1351.43 1329.43 1351.55 C 1279.65 1351.76 1229.93 1351.64 1180.17 1351.67 L 897.133 1351.65 L 771.304 1351.45 C 748.862 1351.49 721.75 1352.41 699.791 1350.25 C 685.385 1348.83 665.275 1338.47 655.102 1327.98 C 634.659 1306.89 629.65 1287.91 629.442 1259.75 L 629.623 918.832 L 629.534 828.459 C 629.31 790.073 623.975 751.76 653.495 722.071 C 665.888 709.767 681.751 701.552 698.951 698.531 C 712.004 696.208 732.451 697.014 746.403 697.069 L 811.8 697.124 L 1065.22 697.256 C 1063.29 661.152 1087.58 649.942 1119.19 651.143 C 1125.57 623.277 1134.09 584.037 1138.85 555.984 C 1149.55 548.975 1160.16 541.834 1170.68 534.565 C 1178.05 529.407 1187.12 522.147 1195.03 518.42 z" fill="rgb(238,237,234)" transform="translate(0,0)"></path>
<path d="M 1195.03 518.42 C 1213.5 519.497 1235.5 519.022 1254.25 518.882 C 1264.47 526.531 1274.77 534.052 1285.17 541.445 C 1289.62 544.563 1301.35 552.222 1304.98 555.474 C 1308.06 581.37 1311.52 613.03 1316.08 638.69 C 1330.64 641.271 1344.04 648.476 1352.86 660.612 C 1359.65 670.055 1362.3 681.866 1360.18 693.307 C 1359.71 695.847 1359.21 697.797 1358.47 700.255 C 1351.91 698.261 1341.11 698.312 1334.25 698.323 C 1318.69 721.433 1290.74 716.161 1266.38 713.648 C 1259.97 712.986 1255.73 703.54 1252.8 698.337 C 1240.83 697.156 1223.52 697.693 1211.07 697.726 C 1189.34 697.709 1167.6 697.842 1145.86 698.124 C 1135.34 717.883 1125.72 715.75 1104.94 716.282 C 1086.26 716.761 1073.28 716.523 1065.22 697.256 C 1063.29 661.152 1087.58 649.942 1119.19 651.143 C 1125.57 623.277 1134.09 584.037 1138.85 555.984 C 1149.55 548.975 1160.16 541.834 1170.68 534.565 C 1178.05 529.407 1187.12 522.147 1195.03 518.42 z" fill="rgb(24,22,28)" transform="translate(0,0)"></path>
<path d="M 1196.8 528.18 C 1207.28 527.997 1247.83 524.839 1254.26 530.638 C 1267.53 539.786 1283.94 551.839 1297.32 560.201 C 1298.04 566.153 1302.52 596.08 1300.47 599.444 L 1300.25 600.33 C 1303.89 604.286 1305.75 632.354 1307.48 640.804 C 1273.41 646.086 1258.85 651.422 1253.82 689.026 C 1245.04 689.045 1185.04 689.681 1179.82 688.401 C 1178.84 685.721 1178.72 685.451 1178.32 682.646 C 1177.3 686.12 1178.28 686.096 1177.71 688.521 L 1177.27 688.757 C 1176.14 688.004 1176.17 673.454 1175.92 670.897 L 1175.34 671.71 L 1175.07 688.866 C 1165.79 688.847 1156.6 688.922 1147.32 688.539 C 1147.26 684.017 1147.07 679.498 1146.73 674.988 C 1144.87 668.09 1143.44 666.047 1138.4 660.981 C 1134.73 658.354 1132.1 656.724 1128.08 654.621 C 1129.38 647.827 1130.47 640.826 1131.89 634.064 C 1132.03 632.57 1132.09 631.653 1132.34 630.2 C 1136.45 614.724 1139.44 595.988 1142.79 579.985 L 1143.76 575.486 C 1144.88 570.087 1145.66 565.653 1147.5 560.46 C 1156.74 553.265 1185.84 534.366 1196.8 528.18 z" fill="rgb(236,147,90)" transform="translate(0,0)"></path>
<path d="M 1254.26 530.638 C 1267.53 539.786 1283.94 551.839 1297.32 560.201 C 1298.04 566.153 1302.52 596.08 1300.47 599.444 L 1300.25 600.33 C 1303.89 604.286 1305.75 632.354 1307.48 640.804 C 1273.41 646.086 1258.85 651.422 1253.82 689.026 C 1245.04 689.045 1185.04 689.681 1179.82 688.401 C 1178.84 685.721 1178.72 685.451 1178.32 682.646 C 1179.57 677.901 1179.3 675.04 1178.8 670.055 L 1179.12 669.353 C 1182.58 669.49 1187.24 666.992 1190.13 665.359 C 1210.5 653.845 1210.7 628.4 1222.14 611.627 C 1229.34 601.078 1247.2 593.007 1254.71 581.057 C 1255.08 565.734 1255.48 545.701 1254.26 530.638 z" fill="rgb(174,89,64)" transform="translate(0,0)"></path>
<path d="M 1300.25 600.33 C 1286.54 601.511 1271.48 602.535 1257.8 601.002 C 1257.1 600.924 1257.33 599.93 1257.65 599.85 C 1264.68 598.095 1295.21 598.906 1300.47 599.444 L 1300.25 600.33 z" fill="rgb(28,15,16)" transform="translate(0,0)"></path>
<path d="M 1147.5 560.46 C 1156.74 553.265 1185.84 534.366 1196.8 528.18 C 1196.83 530.938 1197.12 540.61 1195.13 542.088 C 1184.57 549.943 1168.66 560.448 1156.94 565.409 C 1155.3 571.749 1154.52 579.846 1153.23 586.512 L 1151.82 593.988 C 1149.48 606.03 1147.38 618.446 1144.5 630.316 C 1140.29 630.279 1136.59 630.478 1132.34 630.2 C 1136.45 614.724 1139.44 595.988 1142.79 579.985 L 1143.76 575.486 C 1144.88 570.087 1145.66 565.653 1147.5 560.46 z" fill="rgb(238,237,234)" transform="translate(0,0)"></path>
<path d="M 1146.73 674.988 C 1157.27 674.977 1164.96 674.076 1175.34 671.71 L 1175.07 688.866 C 1165.79 688.847 1156.6 688.922 1147.32 688.539 C 1147.26 684.017 1147.07 679.498 1146.73 674.988 z" fill="rgb(174,89,64)" transform="translate(0,0)"></path>
<path d="M 1133.16 633.708 C 1146.65 634.822 1143.23 631.631 1141.25 647.022 C 1140.64 651.765 1139.39 656.335 1138.4 660.981 C 1134.73 658.354 1132.1 656.724 1128.08 654.621 C 1129.38 647.827 1130.47 640.826 1131.89 634.064 L 1133.16 633.708 z" fill="rgb(238,237,234)" transform="translate(0,0)"></path>
<path d="M 1132.34 630.2 C 1136.59 630.478 1140.29 630.279 1144.5 630.316 C 1147.24 630.308 1153.26 629.842 1155.83 630.673 C 1156.75 630.969 1156.18 632.602 1154.99 632.792 C 1148.68 633.802 1139.19 632.301 1133.16 633.708 L 1131.89 634.064 C 1132.03 632.57 1132.09 631.653 1132.34 630.2 z" fill="rgb(70,31,29)" transform="translate(0,0)"></path>
<path d="M 1176.51 662.211 C 1178.43 665.748 1177.61 666.085 1178.8 670.055 C 1179.3 675.04 1179.57 677.901 1178.32 682.646 C 1177.3 686.12 1178.28 686.096 1177.71 688.521 L 1177.27 688.757 C 1176.14 688.004 1176.17 673.454 1175.92 670.897 C 1175.95 667.396 1176.11 665.673 1176.51 662.211 z" fill="rgb(28,15,16)" transform="translate(0,0)"></path>
<path d="M 1176.51 662.211 C 1176.68 661.264 1176.85 659.086 1177.68 658.478 C 1179.46 658.26 1179.03 667.78 1179.12 669.353 L 1178.8 670.055 C 1177.61 666.085 1178.43 665.748 1176.51 662.211 z" fill="rgb(113,62,41)" transform="translate(0,0)"></path>
<path d="M 1172.24 578.893 C 1185.85 578.553 1189.62 588.629 1179.34 597.193 L 1177.57 597.542 C 1168.37 599.32 1163.41 587.917 1171.03 580.176 L 1172.24 578.893 z" fill="rgb(24,22,28)" transform="translate(0,0)"></path>
<path d="M 1216.46 580.509 C 1220.85 578.486 1226.06 580.386 1228.12 584.766 C 1230.18 589.146 1228.32 594.368 1223.96 596.462 C 1219.54 598.581 1214.25 596.697 1212.17 592.266 C 1210.08 587.836 1212.01 582.557 1216.46 580.509 z" fill="rgb(24,22,28)" transform="translate(0,0)"></path>
<path d="M 1290.01 652.19 C 1292.97 651.731 1297.45 650.414 1300.47 649.701 C 1313.69 646.578 1322.9 647.997 1334.39 655.305 C 1348.31 664.16 1350.74 673.659 1353.16 688.845 C 1346.54 689.196 1340.03 689.614 1333.4 689.791 C 1333.44 684.68 1333.58 679.57 1333.81 674.464 C 1334.02 670.294 1330.39 670.138 1330.11 671.635 C 1327.76 684.265 1329.3 700.889 1313.57 705.526 C 1308.11 706.985 1275.24 707.957 1268.66 704.557 C 1265.68 703.015 1264.06 700.356 1263.02 697.073 C 1262.76 672.531 1266.01 662.165 1290.01 652.19 z" fill="rgb(174,89,64)" transform="translate(0,0)"></path>
<path d="M 1290.01 652.19 C 1297.86 675.441 1284.85 690.541 1263.02 697.073 C 1262.76 672.531 1266.01 662.165 1290.01 652.19 z" fill="rgb(236,147,90)" transform="translate(0,0)"></path>
<path d="M 1111.94 660.168 L 1117.51 660.971 C 1121.21 661.523 1124.66 663.296 1127.96 664.956 C 1145.84 679.509 1143.51 703.73 1119 706.585 C 1107.46 707.928 1095.28 706.489 1083.84 706.225 L 1082.88 705.457 C 1079.11 702.478 1078.44 701.518 1076.32 697.14 C 1068.78 671.67 1088.96 659.342 1111.94 660.168 z" fill="rgb(236,147,90)" transform="translate(0,0)"></path>
<path d="M 1127.96 664.956 C 1145.84 679.509 1143.51 703.73 1119 706.585 C 1107.46 707.928 1095.28 706.489 1083.84 706.225 C 1092.54 698.221 1095.93 695.896 1106.45 690.452 C 1117.96 684.491 1124.95 677.603 1127.96 664.956 z" fill="rgb(174,89,64)" transform="translate(0,0)"></path>
<path d="M 1076.32 697.14 C 1068.78 671.67 1088.96 659.342 1111.94 660.168 C 1100.35 666.244 1088.17 666.073 1080.16 680.588 C 1077.03 686.254 1077.66 690.92 1076.32 697.14 z" fill="rgb(238,237,234)" transform="translate(0,0)"></path>
<path d="M 1054.84 1190.33 C 1069.09 1189.43 1090.58 1190.01 1105.32 1189.99 L 1199.18 1189.94 L 1275.43 1189.95 C 1294.32 1189.96 1324.13 1187.25 1340.02 1196.84 C 1352.91 1204.66 1362.04 1217.4 1365.3 1232.12 C 1371.59 1261.8 1351.45 1287.45 1322.25 1293.05 C 1268.56 1294.62 1208.39 1293.25 1154.34 1293.26 L 1090.54 1293.27 C 1070.82 1293.29 1047.56 1296.08 1030.77 1284.41 C 1019.33 1276.62 1011.52 1264.54 1009.11 1250.92 C 1006.78 1237.04 1010 1222.8 1018.07 1211.28 C 1027.22 1198.49 1039.83 1192.6 1054.84 1190.33 z" fill="rgb(240,110,54)" transform="translate(0,0)"></path>
<path d="M 1093.81 1240.55 C 1096.61 1233.48 1104.41 1232.72 1108.86 1239.02 C 1109.93 1240.53 1110.43 1253.6 1109.21 1255.35 C 1106.27 1255.63 1105.38 1253.46 1102 1255.15 C 1099.64 1256.34 1095.93 1255.12 1093.54 1254.44 C 1093.01 1254.49 1092.48 1254.54 1091.95 1254.59 C 1091.5 1254.03 1091.06 1253.46 1090.62 1252.89 C 1091.5 1250.82 1091.79 1250.03 1092.47 1247.87 L 1093.44 1245.87 C 1093.76 1243.68 1093.8 1242.76 1093.81 1240.55 z" fill="rgb(238,237,234)" transform="translate(0,0)"></path>
<path d="M 1093.81 1240.55 L 1095.24 1240.63 C 1097.32 1240.71 1102.86 1236.45 1104.8 1241.31 C 1104.93 1241.63 1104.58 1242.35 1104.27 1242.52 C 1098.72 1244.1 1099.29 1242.36 1093.44 1245.87 C 1093.76 1243.68 1093.8 1242.76 1093.81 1240.55 z" fill="rgb(236,147,90)" transform="translate(0,0)"></path>
<path d="M 1090.62 1252.89 C 1091.5 1250.82 1091.79 1250.03 1092.47 1247.87 C 1092.82 1250.06 1093.17 1252.25 1093.54 1254.44 C 1093.01 1254.49 1092.48 1254.54 1091.95 1254.59 C 1091.5 1254.03 1091.06 1253.46 1090.62 1252.89 z" fill="rgb(236,147,90)" transform="translate(0,0)"></path>
<path d="M 1096.84 1247.09 C 1102.31 1246.85 1105.71 1244.99 1104.33 1251.06 L 1102.83 1251.37 C 1099.81 1252.04 1097.31 1252.68 1097 1248.77 L 1096.84 1247.09 z" fill="rgb(240,110,54)" transform="translate(0,0)"></path>
<path d="M 1168.37 1235.5 C 1173.52 1233.73 1179.15 1236.38 1181.07 1241.47 C 1182.99 1246.57 1180.5 1252.27 1175.47 1254.34 C 1172.07 1255.73 1168.19 1255.17 1165.33 1252.87 C 1162.47 1250.57 1161.09 1246.9 1161.72 1243.29 C 1162.35 1239.67 1164.9 1236.69 1168.37 1235.5 z" fill="rgb(238,237,234)" transform="translate(0,0)"></path>
<path d="M 1169.21 1239.53 C 1171.16 1238.64 1173.44 1238.9 1175.16 1240.18 C 1176.88 1241.47 1177.75 1243.59 1177.45 1245.71 C 1177.15 1247.84 1175.71 1249.63 1173.71 1250.39 C 1170.74 1251.51 1167.42 1250.07 1166.2 1247.14 C 1164.99 1244.2 1166.32 1240.84 1169.21 1239.53 z" fill="rgb(240,110,54)" transform="translate(0,0)"></path>
<path d="M 1061.61 1226.98 C 1077.72 1226.88 1076.85 1236.56 1069.73 1233.22 C 1068.1 1232.46 1061.52 1228.07 1061.31 1235.01 C 1061.19 1238.94 1075.5 1238.33 1075.36 1245.45 C 1075.77 1254.5 1069.93 1255.76 1062.74 1256.09 C 1060.11 1254.4 1052.88 1248.18 1056.08 1244.81 C 1061.27 1245.24 1060.85 1249.17 1063.64 1250.85 C 1064.79 1251.55 1066.19 1251.7 1067.47 1251.27 C 1072.15 1249.68 1071.52 1244.54 1066.44 1243.23 C 1055.34 1240.36 1052.81 1234.42 1061.61 1226.98 z" fill="rgb(238,237,234)" transform="translate(0,0)"></path>
<path d="M 1209.11 1242.45 C 1205.44 1233.85 1223.28 1232.2 1223.3 1240.99 C 1223.31 1245 1223.57 1249.94 1223.86 1254.07 C 1223.97 1255.69 1212.26 1255.53 1211.85 1255.45 C 1205.97 1254.28 1206.24 1249.59 1208.26 1244.93 C 1208.56 1244.11 1208.84 1243.28 1209.11 1242.45 z" fill="rgb(238,237,234)" transform="translate(0,0)"></path>
<path d="M 1209.11 1242.45 L 1210.76 1241.36 C 1213.27 1239.61 1216.74 1237.04 1218.72 1241.04 C 1218.82 1241.24 1219.13 1242.19 1218.76 1242.44 C 1216.3 1243.25 1210.83 1244.18 1208.26 1244.93 C 1208.56 1244.11 1208.84 1243.28 1209.11 1242.45 z" fill="rgb(236,147,90)" transform="translate(0,0)"></path>
<path d="M 1210.98 1247.15 C 1217.21 1246.48 1219.71 1244.82 1218.6 1251.65 C 1213.22 1251.95 1211.79 1252.95 1210.98 1247.15 z" fill="rgb(240,110,54)" transform="translate(0,0)"></path>
<path d="M 1246.54 1235.36 C 1252.31 1237.35 1252.56 1243.1 1254.95 1248.82 C 1254.89 1248.97 1261.09 1231.87 1263.02 1236.65 C 1263.77 1238.5 1258.9 1249.7 1257.73 1252.76 C 1256.32 1256.56 1255.77 1260.89 1253.6 1264.37 C 1253.1 1265.12 1251.2 1265.37 1250.84 1264.47 C 1249.88 1262.1 1252.1 1256.1 1252.72 1253.71 C 1249.62 1246.83 1247.29 1242.73 1246.54 1235.36 z" fill="rgb(238,237,234)" transform="translate(0,0)"></path>
<path d="M 1304.3 1225.58 C 1312.7 1226.17 1317.72 1234.64 1322.71 1241.23 C 1318.38 1245.6 1313.92 1249.85 1309.33 1253.95 C 1296.33 1260.94 1315.52 1240.95 1315.83 1240.57 C 1311.2 1235.27 1307.78 1231.73 1304.3 1225.58 z" fill="rgb(238,237,234)" transform="translate(0,0)"></path>
<path d="M 1190.8 1234.8 C 1195.6 1235.06 1199.93 1234.98 1202.68 1240.12 C 1203.13 1240.97 1202.35 1241.83 1201.48 1241.95 C 1198.96 1242.28 1197.89 1240.56 1195.87 1239.38 C 1189.69 1236.89 1188.33 1244.6 1190 1248.51 C 1190.66 1250.07 1191.97 1251.26 1193.58 1251.79 C 1194.8 1252.19 1195.37 1251.73 1196.43 1251.16 C 1207.22 1243.48 1202.87 1255.21 1195.02 1255.44 C 1192.31 1255.54 1189.69 1254.5 1187.78 1252.58 C 1181.68 1246.4 1185.62 1239.46 1190.8 1234.8 z" fill="rgb(238,237,234)" transform="translate(0,0)"></path>
<path d="M 1091.95 1254.59 C 1079.16 1258.73 1081.06 1250.51 1080.57 1241.37 C 1080.18 1240.32 1074.08 1239.34 1078 1237.07 C 1082.06 1234.72 1078.26 1229.25 1083.9 1229.73 C 1085.32 1231.46 1085.61 1233.26 1086.16 1235.37 C 1090.97 1238.1 1092.19 1239.2 1084.99 1240.4 C 1085.19 1248.82 1082.66 1250.91 1090.62 1252.89 C 1091.06 1253.46 1091.5 1254.03 1091.95 1254.59 z" fill="rgb(238,237,234)" transform="translate(0,0)"></path>
<path d="M 1086.16 1235.37 C 1090.97 1238.1 1092.19 1239.2 1084.99 1240.4 C 1085.34 1238.71 1085.73 1237.04 1086.16 1235.37 z" fill="rgb(238,237,234)" transform="translate(0,0)"></path>
<path d="M 1132.41 1228.57 C 1138.36 1229 1132.11 1234.25 1137 1235.01 C 1138.4 1235.23 1139.61 1234.99 1139.86 1236.65 C 1138.56 1238.56 1135.12 1237.27 1134.92 1240.39 C 1134.44 1247.88 1134.84 1248.01 1139.47 1253.32 C 1131.16 1260.22 1130.29 1243.83 1130.55 1239.63 C 1130.58 1239.14 1126.36 1236.84 1127.93 1235.97 C 1132.18 1233.64 1130.85 1233.85 1132.41 1228.57 z" fill="rgb(238,237,234)" transform="translate(0,0)"></path>
<path d="M 1238.41 1226.23 C 1238.99 1226.42 1242.11 1227.27 1242.21 1227.92 C 1243.38 1235.14 1242.86 1248.83 1242.26 1255.76 L 1241.79 1255.63 C 1241.72 1255.61 1238.59 1254.86 1238.51 1254.37 C 1237.58 1248.49 1237.84 1231.27 1238.41 1226.23 z" fill="rgb(238,237,234)" transform="translate(0,0)"></path>
<path d="M 1114.69 1234.37 C 1115.66 1234.84 1118.41 1236.6 1119.02 1236.8 C 1120.89 1237.03 1121.43 1234.57 1123.5 1234.9 C 1129.46 1235.85 1123.03 1239.25 1121.06 1240.23 C 1119.54 1240.98 1119.07 1243.08 1119.01 1244.75 C 1118.97 1246.43 1119.07 1253.14 1118.56 1253.73 C 1111.82 1261.51 1114.51 1236.6 1114.69 1234.37 z" fill="rgb(238,237,234)" transform="translate(0,0)"></path>
<path d="M 1229.03 1226.17 C 1235.14 1228.53 1232.56 1230.22 1232.92 1237.48 C 1233.21 1243.21 1232.92 1249.8 1232.69 1255.53 L 1231.54 1255.29 C 1231.17 1255.21 1229.37 1254.87 1229.27 1254.53 C 1228.06 1250.3 1228.87 1229.63 1229.03 1226.17 z" fill="rgb(238,237,234)" transform="translate(0,0)"></path>
<path d="M 1153.19 1226.13 C 1153.61 1226.27 1156.51 1227.14 1156.62 1227.52 C 1157.93 1231.89 1157.04 1251.93 1156.72 1255.4 C 1156.73 1255.41 1154.39 1254.79 1154.15 1254.38 C 1152.29 1251.24 1153.14 1229.48 1153.19 1226.13 z" fill="rgb(238,237,234)" transform="translate(0,0)"></path>
<path d="M 929.991 906.234 C 949.956 904.972 960.591 917.384 955.705 937.419 C 952.309 951.342 934.775 958.554 923.38 949.368 C 922.387 948.567 919.733 946.176 918.677 945.756 C 917.712 946.663 918.212 948.612 918.286 949.75 C 918.316 956.47 918.962 966.003 917.705 972.527 C 917.587 973.139 909.949 973.531 910.13 971.979 C 911.485 960.384 907.366 916.346 910.22 908.278 C 911.579 907.127 915.89 906.934 917.487 907.87 C 918.389 908.399 917.417 911.039 918.685 911.899 C 918.694 911.9 928.013 906.968 929.991 906.234 z" fill="rgb(24,22,28)" transform="translate(0,0)"></path>
<path d="M 931.034 913.129 C 953.107 913.55 953.878 938.526 936.298 945.551 C 913.192 942.839 911.875 920.454 931.034 913.129 z" fill="rgb(238,237,234)" transform="translate(0,0)"></path>
<path d="M 870.966 906.255 C 888.246 905.618 900.656 913.439 898.891 932.496 C 898.279 938.616 895.308 944.257 890.608 948.223 C 885.166 952.744 878.87 953.724 871.983 953.089 C 868.428 952.738 865.166 950.78 862.933 948.017 C 862.586 947.588 860.552 944.389 859.432 945.654 C 858.969 946.177 859.185 948.206 859.184 948.75 C 859.175 955.867 859.787 964.85 858.494 971.61 C 858.284 972.704 852.204 972.243 852.157 971.367 C 851.545 959.85 851.973 948.038 851.418 936.497 C 851.201 931.972 850.608 911.327 851.588 907.77 C 853.013 906.547 857.692 906.877 859.278 907.694 C 860.439 908.291 859.602 912.732 860.502 913.673 C 860.383 913.685 864.881 908.017 870.966 906.255 z" fill="rgb(24,22,28)" transform="translate(0,0)"></path>
<path d="M 867.849 914.273 C 870.662 913.969 873.169 913.572 876.002 913.573 C 892.118 913.574 896.247 934.906 884.096 943.544 L 882.638 944.626 C 853.625 951.026 857.293 919.581 866.512 914.977 L 867.849 914.273 z" fill="rgb(238,237,234)" transform="translate(0,0)"></path>
<path d="M 733.068 886.148 C 748.421 885.416 759.75 890.397 765.43 906.11 C 766.46 908.96 758.617 910.985 757.405 906.842 C 754.808 897.966 745.444 892.68 736.501 893.251 C 713.47 894.768 708.392 928.901 724.912 941.533 C 730.652 945.912 737.733 945.451 744.562 944.586 C 748.69 942.443 751.331 941.418 754.409 937.683 C 755.749 936.609 757.38 930.749 758.99 930.491 C 768.972 928.895 763.126 938.039 761.844 940.416 C 755.851 951.525 741.175 955.039 729.899 952.395 C 704.081 946.341 699.244 909.954 717.235 893.258 C 721.884 888.935 727.056 887.443 733.068 886.148 z" fill="rgb(24,22,28)" transform="translate(0,0)"></path>
<path d="M 776.236 886.781 C 777.829 886.834 784.01 886.596 784.225 887.632 C 785.167 892.183 784.553 908.337 784.424 912.583 C 793.262 906.689 801.639 902.685 811.752 910.267 C 814.8 912.553 817.248 918.18 817.041 921.986 C 816.54 931.178 818.207 942.252 816.419 951.031 C 816.314 951.542 809.715 951.942 809.557 950.958 C 808.419 943.883 809.076 934.067 809.059 926.75 C 808.974 917.341 806.135 912.926 795.482 913.937 C 778.118 916.121 786.423 940.708 783.058 951.408 C 782.945 951.768 776.317 954.107 776.354 948.993 L 776.236 886.781 z" fill="rgb(24,22,28)" transform="translate(0,0)"></path>
<path d="M 960.911 907 C 962.219 907.011 967.845 906.883 968.079 907.23 C 971.605 912.469 980.454 934.04 982.984 938.922 L 983.806 940.484 C 988.207 929.684 993.214 917.985 998.706 907.753 C 999.145 906.935 1005.99 907.135 1005.77 907.961 C 1003.29 917.183 998.087 927.13 994.159 936.014 L 993.5 937.539 C 988.066 949.212 983.877 961.768 978.152 973.205 C 977.666 974.176 970.746 972.878 970.786 972.914 C 969.218 971.524 972.237 966.637 972.992 964.999 C 975.105 960.416 977.405 955.787 979.554 951.157 C 975.185 942.108 961.133 914.997 960.911 907 z" fill="rgb(24,22,28)" transform="translate(0,0)"></path>
<path d="M 776.408 766.078 C 777.188 766.131 788.58 766.778 788.783 767.046 C 788.688 766.087 783.911 776.285 784.161 776.616 C 786.357 779.529 765.753 780.662 776.115 782.797 L 775.934 782.799 C 783.814 783.959 783.563 781.325 788.74 789.139 C 782.795 801.429 767.782 795.64 770.754 787.463 C 773.064 781.105 769.765 783.824 771.084 780.009 C 773.708 772.427 767.066 772.921 776.408 766.078 z" fill="rgb(24,22,28)" transform="translate(0,0)"></path>
<path d="M 774.915 784.877 C 779.422 785.384 786.819 785.527 783.781 792.095 L 783.221 793.362 C 776.88 793.152 769.342 793.478 774.915 784.877 z" fill="rgb(238,237,234)" transform="translate(0,0)"></path>
<path d="M 776.78 768.14 C 779.283 767.782 779.428 767.968 782.107 768.374 C 788.717 780.039 765.785 779.736 776.78 768.14 z" fill="rgb(238,237,234)" transform="translate(0,0)"></path>
<path d="M 776.78 768.14 C 779.283 767.782 779.428 767.968 782.107 768.374 C 780.554 768.343 778.209 768.391 776.78 768.14 z" fill="rgb(88,90,88)" transform="translate(0,0)"></path>
<path d="M 836.032 1027.13 C 837.052 1027.25 844.11 1027.93 844.583 1028.25 C 846.38 1032.49 839.915 1044.89 833.426 1042.21 C 833.098 1042.07 831.031 1042.88 831.359 1043.7 C 835.895 1047.17 838.721 1040.56 846.378 1051.55 C 841.639 1055.78 840.504 1056.2 834.02 1056 C 822.47 1055.65 829.222 1045.62 828.67 1039.52 C 827.924 1031.29 828.657 1030.55 836.032 1027.13 z" fill="rgb(24,22,28)" transform="translate(0,0)"></path>
<path d="M 834.684 1029.41 C 843.165 1031.01 842.904 1033.94 837.022 1040.36 C 828.554 1038.99 829.411 1035.25 834.684 1029.41 z" fill="rgb(238,237,234)" transform="translate(0,0)"></path>
<path d="M 842.594 1050.65 C 834.068 1059.81 821.428 1044.96 838.026 1046.95 L 839.923 1047.15 C 841.42 1048.37 841.535 1048.94 842.594 1050.65 z" fill="rgb(238,237,234)" transform="translate(0,0)"></path>
<path d="M 1032.79 1018.45 C 1033.2 1018.74 1033.6 1019.04 1034 1019.34 C 1035.9 1021.72 1035.45 1046.82 1034.98 1047.69 C 1033.09 1048.43 1033.1 1046.33 1031.43 1045.74 C 1026.11 1048.23 1026.59 1048.42 1020.58 1047.44 C 1015.1 1041.45 1012.81 1034.71 1020.42 1028.78 C 1024.53 1025.57 1028.56 1029.22 1031.43 1029.29 C 1032.35 1028.2 1032.36 1021.15 1032.79 1018.45 z" fill="rgb(24,22,28)" transform="translate(0,0)"></path>
<path d="M 1022.52 1030.66 C 1026.31 1029.02 1030.71 1030.75 1032.34 1034.54 C 1033.97 1038.33 1032.21 1042.72 1028.42 1044.34 C 1024.65 1045.95 1020.28 1044.2 1018.66 1040.44 C 1017.04 1036.67 1018.77 1032.3 1022.52 1030.66 z" fill="rgb(238,237,234)" transform="translate(0,0)"></path>
<path d="M 881.423 758.242 C 882.512 758.539 883.713 758.656 884.623 759.366 C 884.765 762.459 885.744 785.699 883.426 786.209 C 882.477 785.686 881.554 784.507 881.61 784.472 C 877.926 786.784 873.486 786.915 870.699 786.551 C 866.277 782.252 863.824 778.872 865.916 772.507 C 866.636 770.271 868.244 768.43 870.363 767.415 C 876.244 764.65 877.17 768.045 880.889 767.947 C 881.453 766.765 881.282 760.28 881.423 758.242 z" fill="rgb(24,22,28)" transform="translate(0,0)"></path>
<path d="M 872.523 769.739 C 876.255 768.382 880.381 770.298 881.752 774.024 C 883.123 777.751 881.222 781.884 877.5 783.269 C 873.759 784.66 869.6 782.747 868.222 779.001 C 866.845 775.255 868.773 771.103 872.523 769.739 z" fill="rgb(238,237,234)" transform="translate(0,0)"></path>
<path d="M 755.131 766.868 C 756.769 766.882 768.609 766.869 768.782 768.113 C 768.545 768.624 767.959 769.088 767.553 769.15 C 762.528 770.147 766.023 775.401 762.725 778.76 C 759.887 781.653 752.877 777.948 753.329 780.613 C 753.686 782.711 755.475 783.36 757.501 783.16 C 761.247 782.79 763.664 784.141 766.725 786.134 C 765.263 795.293 761.89 798.493 750.908 794.132 C 748.888 793.33 747.768 788.286 749.73 786.742 C 752.59 784.491 751.253 784.263 750.276 781.586 C 749.804 780.494 751.833 779.035 751.823 778.856 C 751.49 772.969 749.074 773.191 753.957 768.135 L 755.131 766.868 z" fill="rgb(24,22,28)" transform="translate(0,0)"></path>
<path d="M 751.967 785.98 C 760.864 785.311 763.067 783.896 762.848 792.868 C 755.138 793.321 752.048 794.38 751.967 785.98 z" fill="rgb(238,237,234)" transform="translate(0,0)"></path>
<path d="M 755.741 769.643 C 757.84 768.427 760.526 769.135 761.753 771.227 C 762.979 773.319 762.285 776.009 760.2 777.247 C 758.099 778.494 755.384 777.793 754.149 775.686 C 752.913 773.578 753.627 770.867 755.741 769.643 z" fill="rgb(238,237,234)" transform="translate(0,0)"></path>
<path d="M 707.033 1019.49 C 721.503 1018.92 732.424 1021.89 719.216 1036.04 C 720.044 1037.85 727.887 1051.28 720.598 1046.61 C 719.485 1044.14 716.859 1037.51 714.477 1036.56 C 706.704 1033.32 711.382 1045.16 709.514 1047.05 C 704.926 1051.69 706.816 1023.27 707.033 1019.49 z" fill="rgb(24,22,28)" transform="translate(0,0)"></path>
<path d="M 710.25 1021.18 C 713.371 1020.57 713.185 1020.48 716.109 1021.23 C 720.883 1023.38 724.166 1027.89 720.273 1030.77 C 706.472 1040.96 709.874 1025.11 710.25 1021.18 z" fill="rgb(238,237,234)" transform="translate(0,0)"></path>
<path d="M 710.25 1021.18 C 713.371 1020.57 713.185 1020.48 716.109 1021.23 C 713.432 1021.45 712.79 1021.66 710.25 1021.18 z" fill="rgb(49,51,58)" transform="translate(0,0)"></path>
<path d="M 829.238 907.224 C 830.16 907.247 836.597 906.95 836.656 908.302 C 837.266 922.076 837.117 938.67 836.99 952.294 C 835.19 952.142 829.775 952.099 829.681 951.188 C 828.842 943.129 829.086 914.018 829.238 907.224 z" fill="rgb(24,22,28)" transform="translate(0,0)"></path>
<path d="M 1001.38 1027.93 C 1006.61 1027.13 1011.56 1030.58 1012.64 1035.77 C 1013.71 1040.96 1010.53 1046.08 1005.41 1047.42 C 1001.84 1048.36 998.052 1047.25 995.553 1044.54 C 993.055 1041.83 992.255 1037.97 993.474 1034.49 C 994.693 1031.01 997.732 1028.49 1001.38 1027.93 z" fill="rgb(24,22,28)" transform="translate(0,0)"></path>
<path d="M 1000.46 1030.82 C 1004.05 1029.59 1007.99 1031.33 1009.5 1034.83 C 1011 1038.32 1009.56 1042.38 1006.2 1044.15 C 1003.77 1045.42 1000.85 1045.23 998.613 1043.65 C 996.38 1042.07 995.22 1039.38 995.608 1036.67 C 995.997 1033.96 997.869 1031.7 1000.46 1030.82 z" fill="rgb(238,237,234)" transform="translate(0,0)"></path>
<path d="M 1019.89 1096.02 C 1018.02 1110.73 995.551 1097.51 1004.85 1085.41 C 1011.92 1076.2 1020.29 1081.74 1021.62 1092.91 C 1021.01 1093.95 1020.46 1094.97 1019.89 1096.02 z" fill="rgb(24,22,28)" transform="translate(0,0)"></path>
<path d="M 1019.89 1096.02 C 1016.23 1097.55 1013.71 1100.91 1009.22 1098.74 C 1007.74 1098.02 1005.05 1093.91 1006.36 1093.3 C 1008.69 1092.19 1018.96 1092.9 1021.62 1092.91 C 1021.01 1093.95 1020.46 1094.97 1019.89 1096.02 z" fill="rgb(238,237,234)" transform="translate(0,0)"></path>
<path d="M 1009 1083.84 C 1012.19 1084.02 1020.66 1085.1 1016.85 1090.27 C 1015.29 1090.25 1008.1 1090.49 1006.94 1089.87 C 1006.59 1089.69 1006.35 1089.36 1006.28 1088.98 C 1006.01 1087.59 1007.26 1086.24 1008.02 1085.24 L 1009 1083.84 z" fill="rgb(238,237,234)" transform="translate(0,0)"></path>
<path d="M 800.807 1072.3 C 801.223 1072.42 804.675 1073.23 804.831 1073.64 C 807.46 1080.68 809.627 1089.74 812.678 1097.03 C 813.242 1097.14 814.71 1103.23 811.922 1101.72 C 808.608 1099.94 811.2 1094.64 806.249 1093.94 C 803.915 1093.97 798.09 1093.72 796.301 1094.33 C 794.098 1095.08 794.717 1101.59 791.485 1101.81 C 788.954 1100.11 799.407 1075.98 800.807 1072.3 z" fill="rgb(24,22,28)" transform="translate(0,0)"></path>
<path d="M 801.864 1078.62 C 803.809 1079.87 809.843 1090.74 804.963 1091.89 C 793.782 1091.12 796.45 1090.79 801.864 1078.62 z" fill="rgb(238,237,234)" transform="translate(0,0)"></path>
<path d="M 842.877 1080.87 C 844.489 1081.03 850.716 1081.6 852.066 1083.15 C 854.34 1085.75 852.563 1097.31 853.672 1101.28 C 853.687 1101.33 853.341 1101.83 853.052 1101.85 C 850.442 1102.01 850.168 1098.86 846.977 1101.07 C 844.31 1102.93 841.234 1102.59 838.694 1100.69 C 837.99 1100.21 837.286 1099.73 836.582 1099.25 C 839.04 1082.35 854.028 1095.54 848.667 1084.77 C 846.544 1080.5 839.469 1087.7 839.159 1087.74 C 835.367 1086.2 842.159 1081.45 842.877 1080.87 z" fill="rgb(24,22,28)" transform="translate(0,0)"></path>
<path d="M 845.316 1091.5 C 853.816 1093.17 849.499 1096.57 844.681 1100.37 C 839.176 1098.14 837.46 1095.32 843.892 1092.25 L 845.316 1091.5 z" fill="rgb(238,237,234)" transform="translate(0,0)"></path>
<path d="M 1093.05 1026.83 C 1105.39 1028.38 1102.15 1031.57 1102.73 1042.51 C 1102.77 1043.18 1103.15 1046.39 1102.53 1047.19 C 1102.35 1047.42 1102.08 1047.56 1101.78 1047.57 C 1102.02 1047.56 1098.42 1043.89 1092.48 1047.59 C 1090.62 1048.74 1086.88 1045.47 1084.9 1043.52 C 1088.69 1031.81 1092.69 1039.85 1099.58 1034.43 C 1100.18 1033.96 1099.09 1030.51 1096.48 1029.92 C 1091.45 1028.79 1089.68 1034.35 1086.56 1033.42 C 1085.57 1030.78 1091.4 1027.82 1093.05 1026.83 z" fill="rgb(24,22,28)" transform="translate(0,0)"></path>
<path d="M 1091.91 1037.82 C 1099.63 1038.36 1101.99 1037.55 1096 1045.14 C 1090.15 1044.87 1085.23 1043.36 1091.91 1037.82 z" fill="rgb(238,237,234)" transform="translate(0,0)"></path>
<path d="M 795.27 766.964 C 800.499 766.637 807.72 766.33 808.105 776.135 C 808.258 780.026 793.737 776.668 793.078 778.757 C 791.468 783.856 798.359 784.702 801.688 784.875 L 803.25 783.456 C 806.768 780.217 807.999 781.702 807.48 782.578 C 800.805 793.84 779.655 783.476 795.27 766.964 z" fill="rgb(24,22,28)" transform="translate(0,0)"></path>
<path d="M 796.883 768.496 C 801.408 769.181 809.129 773.915 802.785 775.571 C 794.654 775.461 788.639 777.262 796.883 768.496 z" fill="rgb(238,237,234)" transform="translate(0,0)"></path>
<path d="M 919.081 1026.87 C 932.115 1028.43 928.836 1034.84 928.706 1046.92 C 928.7 1047.1 928.067 1047.82 927.864 1047.71 C 921.658 1044.2 919.835 1052.72 912.878 1045 L 911.561 1043.6 C 912.176 1042.38 912.751 1041.36 913.522 1039.93 C 915.876 1035.55 924.367 1037.84 925.931 1034.65 C 926.693 1033.1 923.878 1030.3 921.937 1029.88 C 918.208 1029.09 916.093 1035.45 913.534 1033.54 C 912.386 1030.71 917.462 1028.02 919.081 1026.87 z" fill="rgb(24,22,28)" transform="translate(0,0)"></path>
<path d="M 917.762 1038.87 C 924.678 1039.17 928.873 1038.16 923.093 1045.9 L 921.766 1045.82 C 917.411 1045.6 914.012 1044.71 917.127 1039.9 L 917.762 1038.87 z" fill="rgb(238,237,234)" transform="translate(0,0)"></path>
<path d="M 1048.27 1026.85 C 1053.49 1027.73 1058.65 1029.71 1058.44 1036.57 C 1058.31 1040.75 1037.22 1035.06 1043.74 1042.74 L 1043.68 1042.74 C 1046.88 1047.06 1050.47 1045.47 1054.75 1043.88 C 1056.43 1039.78 1058.75 1043.91 1055.88 1045.77 C 1042.44 1054.5 1031.38 1036.56 1048.27 1026.85 z" fill="rgb(24,22,28)" transform="translate(0,0)"></path>
<path d="M 1046.93 1029.53 C 1050.92 1029.9 1060.02 1033.41 1053.1 1036.12 C 1044.47 1035.93 1039.76 1037.47 1046.93 1029.53 z" fill="rgb(238,237,234)" transform="translate(0,0)"></path>
<path d="M 943.644 1080.83 L 945.082 1080.93 C 956.78 1081.67 953.639 1086.48 954.332 1096.5 C 954.39 1097.33 954.807 1101.27 953.525 1101.73 C 952.532 1101.58 951.619 1100.38 951.374 1100.42 C 944.346 1101.61 945.037 1104.36 938.149 1099.11 C 939.468 1083.74 949.812 1093.51 951.629 1087.67 C 949.199 1078.3 940.945 1087.24 939.439 1086.95 C 938.13 1085.3 942.679 1081.7 943.644 1080.83 z" fill="rgb(24,22,28)" transform="translate(0,0)"></path>
<path d="M 944.208 1092.29 C 952.329 1092.36 954.162 1093.12 947.194 1100.17 C 942.181 1098.85 937.199 1095.81 944.208 1092.29 z" fill="rgb(238,237,234)" transform="translate(0,0)"></path>
<path d="M 848.691 767.034 L 849.637 766.975 C 852.357 766.786 863.613 765.884 861.845 776.025 C 861.456 778.26 850.199 776.822 848.432 777.457 C 844.149 778.997 849.881 786.593 855.343 783.439 C 855.968 782.985 860.113 779.228 860.591 781.021 C 861.352 783.877 856.453 786.795 853.999 786.992 C 848.94 787.398 843.7 783.274 843.658 778.005 C 843.559 773.611 844.313 771.323 847.394 768.33 L 848.691 767.034 z" fill="rgb(24,22,28)" transform="translate(0,0)"></path>
<path d="M 850.942 768.503 C 853.633 768.978 863.38 772.374 856.983 775.005 C 848.541 774.981 843.05 776.575 850.942 768.503 z" fill="rgb(238,237,234)" transform="translate(0,0)"></path>
<path d="M 886.863 1027.62 C 891.624 1026.84 890.91 1029.09 893.43 1030.38 C 894.129 1030.74 897.443 1027.62 900.014 1027.43 C 905.635 1027.03 908.071 1030.08 907.96 1035.5 C 907.76 1038.79 908.562 1044.08 907.315 1047.28 C 907.226 1047.51 906.772 1047.84 906.514 1047.76 C 903.215 1047.1 906.388 1035.08 904.538 1032.46 C 903.569 1031.08 902.286 1030.5 900.958 1030.27 C 899.633 1030.05 898.28 1030.42 897.251 1031.29 C 895.416 1032.82 895.072 1034.45 895.033 1036.75 C 895.031 1039.07 895.936 1046.74 893.526 1047.93 C 889.867 1046.8 896.452 1023.58 883.601 1031.69 C 879.342 1034.38 884.154 1048.01 880.032 1047.74 C 878.148 1045.88 878.314 1028.86 880.001 1027.73 C 881.097 1027.74 881.611 1028.66 882.539 1029.15 C 883.703 1029.12 885.822 1028.05 886.863 1027.62 z" fill="rgb(24,22,28)" transform="translate(0,0)"></path>
<path d="M 917.401 767.001 C 920.933 766.87 928.407 765.797 929.615 770.973 C 930.191 773.439 930.537 784.592 929.512 786.508 L 929.291 786.535 C 923.16 782.317 925.884 788.569 914.658 785.669 C 913.124 774.155 916.943 776.098 925.581 774.656 C 928.17 774.224 927.541 769.89 923.482 769.202 C 918.278 768.32 917.893 773.563 915.017 771.868 C 914.275 771.158 916.808 767.854 917.401 767.001 z" fill="rgb(24,22,28)" transform="translate(0,0)"></path>
<path d="M 920.024 776.914 C 928.224 777.31 929.942 777.439 922.89 784.615 C 917.157 783.543 913.994 781.672 920.024 776.914 z" fill="rgb(238,237,234)" transform="translate(0,0)"></path>
<path d="M 705.173 1080.66 L 706.071 1081.16 C 708.722 1082.64 711.038 1093.41 712.085 1097.09 C 714.659 1091.03 716.549 1084.68 718.999 1078.37 C 719.488 1079.67 720.032 1081.02 720.452 1082.34 C 722.108 1087.53 723.645 1092.76 725.063 1098.03 L 725.551 1096.74 C 725.532 1096.79 731.27 1075.27 732.86 1082.85 C 726.6 1105.19 725.988 1109.45 718.811 1085.45 C 717.821 1088.46 714.707 1099.21 713.72 1100.76 C 710.209 1106.26 705.376 1082.23 705.173 1080.66 z" fill="rgb(24,22,28)" transform="translate(0,0)"></path>
<path d="M 951.413 1022.54 C 953.678 1024.56 952.462 1024.44 953.48 1027.3 C 953.746 1028.05 957.313 1028.08 958.271 1028.64 C 958.846 1028.79 959.303 1030.05 958.597 1030.39 C 956.766 1031.28 952.564 1029.45 952.861 1033.03 C 953.147 1036.5 952.382 1040.37 953.27 1043.78 C 953.403 1044.29 954.49 1044.87 955.024 1044.87 C 956.971 1044.57 959.315 1046.43 956.521 1047.51 C 955.545 1047.89 953.502 1047.81 952.47 1047.2 C 947.959 1044.52 950.982 1036.62 949.802 1032.5 C 949.414 1031.14 946.561 1029.94 945.317 1029.55 C 944.685 1029.85 944.049 1030.15 943.409 1030.44 C 933.101 1035 940.079 1040.62 937.368 1046.74 C 934.346 1053.57 933.161 1029.2 935.529 1027.6 C 936.372 1027.78 936.729 1028.16 937.141 1029.02 C 939.345 1033.59 941.209 1025.84 944.353 1027.45 C 948.311 1029.47 949.523 1027.23 950.77 1024.02 L 951.413 1022.54 z" fill="rgb(24,22,28)" transform="translate(0,0)"></path>
<path d="M 711.565 757.92 C 711.854 757.963 714.841 758.407 714.768 758.437 C 717.573 757.293 724.588 764.151 720.79 765.779 C 719.377 765.543 716.728 759.411 711.989 761.029 C 709.968 761.719 706.893 764.194 708.209 766.478 C 711.067 771.44 720.702 770.201 722.933 776.465 C 724.79 782.793 721.527 786.186 715.578 787.281 L 713.676 787.655 C 713.018 787.438 699.447 782.458 704.75 779.123 C 706.85 779.447 708.142 782.119 710.473 783.488 C 714.674 786.848 723.359 782.496 720.525 777.664 C 717.639 772.742 693.228 768.451 711.565 757.92 z" fill="rgb(24,22,28)" transform="translate(0,0)"></path>
<path d="M 760.057 1072.38 C 766.186 1075.61 760.536 1079.08 763.494 1083.5 C 764.004 1083.34 764.496 1083.13 764.989 1082.93 C 766.664 1082.24 768.158 1081.56 770.002 1081.57 C 772.214 1081.58 774.287 1082.61 775.772 1084.23 C 778.504 1087.21 777.577 1093.38 777.571 1097.01 C 777.57 1097.52 777.588 1098.03 777.586 1098.54 C 777.583 1099.53 777.307 1100.92 776.434 1101.53 C 775.954 1101.87 775.968 1101.7 775.33 1101.51 C 774.255 1099.15 774.7 1091.71 774.714 1088.63 C 772.455 1084.34 769.683 1083.16 765.318 1085.35 C 759.991 1088.01 765.38 1100.29 761.673 1101.99 C 758.538 1099.86 759.747 1076.65 760.057 1072.38 z" fill="rgb(24,22,28)" transform="translate(0,0)"></path>
<path d="M 1328.99 782.769 C 1330.88 779.996 1352.67 758.351 1354.48 757.595 L 1355.02 758.117 C 1354.47 761.122 1333.27 780.737 1329.72 784.086 C 1333.27 787.383 1355.71 808.843 1356.17 811.298 C 1354.83 812.891 1349.11 806.22 1348.37 805.378 C 1342.59 798.812 1333.95 792.293 1328.92 785.29 C 1329.22 784.005 1329.23 784.05 1328.99 782.769 z" fill="rgb(141,139,139)" transform="translate(0,0)"></path>
<path d="M 954.701 757.297 C 959.151 760.345 957.286 770.298 957.43 776.076 C 958.093 775.383 965.955 765.826 968.263 767.575 C 968.787 767.972 967.442 769.358 966.947 769.822 L 960.757 775.735 C 963.282 778.522 965.783 781.331 968.258 784.162 C 968.77 784.708 970.254 786.19 969.364 786.625 C 965.438 788.542 962.061 778.877 958.988 778.301 C 957.691 777.914 957.155 781.93 957.331 782.022 C 958.6 782.69 955.315 788.817 955.062 785.748 C 954.359 777.227 953.747 765.79 954.701 757.297 z" fill="rgb(24,22,28)" transform="translate(0,0)"></path>
<path d="M 1127.21 1018.48 C 1131.79 1021.4 1129.82 1031.12 1129.92 1036.8 C 1130.61 1036.02 1138.65 1025.66 1140.22 1028.56 C 1140.07 1029.77 1134.88 1034.79 1133.65 1036.12 C 1135.81 1039.21 1137.64 1041.45 1139.94 1044.4 C 1140.32 1044.77 1142.52 1046.86 1141.02 1047.1 C 1137.26 1047.72 1134.35 1039.97 1131.46 1039.08 C 1129 1038.33 1130.13 1045.12 1129.47 1046.35 C 1128.75 1047.68 1127.36 1046.99 1127.34 1046.72 C 1126.6 1037.75 1126.68 1027.56 1127.21 1018.48 z" fill="rgb(24,22,28)" transform="translate(0,0)"></path>
<path d="M 760.583 1026.89 C 762.377 1027.24 764.285 1027.58 765.949 1028.57 C 767.035 1028.65 769.063 1032.74 768.813 1033.47 C 768.38 1034.91 770.811 1051.29 766.435 1047.62 C 764.979 1046.39 767.033 1035.05 765.403 1032.54 C 763.703 1029.93 761.28 1029.92 758.798 1029.39 C 758.268 1029.92 757.729 1030.44 757.182 1030.94 C 751.681 1036.07 756.422 1044.96 754.214 1047.61 C 749.769 1052.96 751.039 1028.9 752.479 1027.75 C 756.109 1027.94 751.452 1031.85 760.583 1026.89 z" fill="rgb(24,22,28)" transform="translate(0,0)"></path>
<path d="M 908.51 1080.9 C 911.958 1080.82 920.284 1080.16 919.726 1086.34 C 917.757 1087.88 915.769 1082.7 912.52 1083.08 C 911.341 1082.56 907.336 1085.23 908.079 1086.48 C 910.975 1091.35 929.835 1090.84 916.85 1102.34 C 914.034 1102.12 903.363 1101.43 905.436 1095.79 C 907.489 1094.02 910.221 1100.87 914.461 1099.32 C 915.833 1099.7 918.691 1096.43 917.873 1095.46 C 913.057 1089.73 898.58 1092.86 908.51 1080.9 z" fill="rgb(24,22,28)" transform="translate(0,0)"></path>
<path d="M 967.849 1081.45 C 971.458 1080.64 976.245 1080.94 976.784 1085.97 C 976.907 1087.69 977.599 1100.44 976.317 1101.09 C 971.466 1103.55 976.843 1088.11 971.906 1083.87 L 971.214 1083.28 L 970.202 1082.4 L 969.157 1083.01 C 962.04 1087.09 962.222 1088.03 962.757 1096.55 C 963.051 1101.24 961.479 1104.39 959.978 1099.01 C 959.533 1097.42 959.708 1082.62 960.478 1081.69 C 963.776 1081.49 959.515 1084.66 967.849 1081.45 z" fill="rgb(24,22,28)" transform="translate(0,0)"></path>
<path d="M 728.148 766.363 C 734.151 769.815 727.997 777.773 731.932 783.007 C 732.536 783.827 733.454 784.358 734.466 784.474 C 744.903 785.708 741.26 771.495 742.473 768.224 C 743.78 764.7 744.964 768.062 744.928 770.75 C 744.942 775.179 745.655 783.169 744.486 787.148 C 742.832 789.287 742.227 783.988 740.604 784.969 C 725.081 794.357 727.829 773.547 728.148 766.363 z" fill="rgb(24,22,28)" transform="translate(0,0)"></path>
<path d="M 863.825 1026.69 C 865.071 1026.9 876.218 1028.74 872.364 1033.1 C 871.841 1033.69 869.577 1031.22 868.528 1030.53 C 866.496 1029.2 862.873 1029.24 861.964 1032.11 C 862.029 1036.99 871.711 1036.39 873.66 1040.23 C 876.482 1045.79 871.339 1047.53 867.04 1049.34 C 866.095 1048.97 855.315 1044.74 859.673 1042.17 C 861.575 1042.2 862.904 1045.58 865.489 1045.97 C 867.259 1046.23 871.808 1045.31 871.515 1042.93 C 871.001 1038.77 862.767 1039.41 860.461 1036.04 C 858.118 1033.15 858.862 1030.85 861.561 1028.5 C 862.315 1027.89 863.07 1027.29 863.825 1026.69 z" fill="rgb(24,22,28)" transform="translate(0,0)"></path>
<path d="M 862.794 1080.66 C 865.397 1080.97 871.85 1081.51 872.047 1085.39 C 870.331 1086.98 866.071 1082.15 862.541 1084.59 C 861.386 1084.3 860.524 1087.95 861.194 1088.12 C 867.786 1089.79 882.422 1094.82 867.077 1102.84 C 855.487 1099.89 856.654 1095.04 860.719 1097.2 C 862.553 1100.78 871.614 1099.99 870.269 1095.4 C 868.728 1090.12 848.745 1094.03 862.794 1080.66 z" fill="rgb(24,22,28)" transform="translate(0,0)"></path>
<path d="M 773.736 1027.44 C 782.068 1032.83 784.262 1022.27 790.787 1031.53 C 791.257 1032.19 791.967 1047.12 789.518 1047.74 L 789.477 1047.67 L 789.011 1047.99 C 787.575 1045.11 788.179 1037.38 788.203 1033.86 C 787.043 1029.98 784.295 1029.72 780.352 1030.83 C 773.035 1032.9 780.08 1049.66 774.501 1047.6 C 773.848 1047.36 773.76 1029.84 773.736 1027.44 z" fill="rgb(24,22,28)" transform="translate(0,0)"></path>
<path d="M 814.638 1026.93 C 826.133 1028.9 822.427 1033.86 823.047 1043.48 C 823.115 1044.55 823.234 1048.51 821.02 1047.65 C 816.747 1041.96 826.145 1035.54 815.042 1029.23 C 814.848 1029.32 812.477 1030.61 812.358 1030.58 C 805.912 1029.39 810.979 1058.74 806.002 1043.5 C 806.158 1043.98 803.956 1023.02 808.904 1029.14 C 809.676 1030.1 813.8 1027.39 814.638 1026.93 z" fill="rgb(24,22,28)" transform="translate(0,0)"></path>
<path d="M 729.319 1027.57 C 734.784 1031.69 728.341 1044.55 735.021 1045.76 C 747.569 1048.04 740.789 1029.51 744.133 1027.96 C 745.584 1028.35 745.654 1029.51 745.779 1030.8 C 745.786 1033.73 747.043 1048.15 744.494 1048.23 C 743.253 1047.48 742.343 1045.4 740.563 1047.02 C 737.09 1050.19 730.777 1048.75 729.497 1044.23 C 728.254 1039.83 728.913 1032.08 729.319 1027.57 z" fill="rgb(24,22,28)" transform="translate(0,0)"></path>
<path d="M 817.743 765.812 C 818.581 765.979 829.362 768.402 825.431 771.659 C 824.544 771.715 822.174 769.908 821.945 769.601 C 820.965 767.824 814.785 769.652 815.174 770.862 C 816.8 775.926 839.398 779.427 819.517 788.195 C 817.629 786.96 811.046 783.685 812.368 780.756 C 813.908 779.617 822.741 789.825 823.975 781.352 C 824.519 777.614 801.757 775.004 817.743 765.812 z" fill="rgb(24,22,28)" transform="translate(0,0)"></path>
<path d="M 883.534 1079.34 C 886.031 1080.3 890.961 1083.19 890.794 1086.28 C 888.716 1087.77 883.369 1078.99 880.471 1085.56 C 878.41 1090.23 890.169 1089.98 891.799 1094.53 C 893.694 1099.82 888.612 1101.43 884.401 1103.2 C 872.867 1097.41 877.974 1093.6 879.588 1096.35 C 883.551 1103.09 890.455 1097.97 889.185 1096.02 C 885.098 1089.73 868.461 1091.77 883.534 1079.34 z" fill="rgb(24,22,28)" transform="translate(0,0)"></path>
<path d="M 988.015 1080.91 C 990.115 1080.98 1000 1080.92 998.614 1087.23 C 997.811 1088.2 996.175 1087.1 995.964 1086.53 C 994.86 1083.56 989.237 1082.86 987.4 1084.88 C 980.922 1091.98 983.115 1098.28 993.208 1099.57 C 1003.84 1089.1 999.427 1102.69 989.504 1102.03 C 987.288 1101.89 985.226 1100.85 983.79 1099.15 C 979.656 1094.24 980.586 1086.56 985.726 1082.65 L 988.015 1080.91 z" fill="rgb(24,22,28)" transform="translate(0,0)"></path>
<path d="M 937.232 766.896 C 939.971 766.873 942.256 766.578 944.987 767.213 C 946.035 766.862 950.436 771.856 947.656 771.796 C 945.042 770.943 939.514 765.896 937.851 772.029 C 937.029 775.059 958.066 776.81 946.703 786.308 C 947.054 786.015 944.115 788.042 944.693 787.654 C 941.502 787.081 933.525 785.858 935.164 780.859 C 935.793 778.938 939.856 785.607 942.957 784.784 C 944.429 785.312 947.838 781.943 946.965 780.84 C 942.468 775.16 929.753 778.041 937.232 766.896 z" fill="rgb(24,22,28)" transform="translate(0,0)"></path>
<path d="M 979.868 1027.1 C 993.149 1029.76 989.823 1035.88 986.589 1032.81 C 975.248 1022.06 967.162 1045.69 982.663 1045.58 L 984.327 1045.6 C 992.223 1036.26 990.378 1045.15 986.432 1046.85 C 972.356 1052.9 963.416 1034.43 979.868 1027.1 z" fill="rgb(24,22,28)" transform="translate(0,0)"></path>
<path d="M 1112.74 1026.8 C 1113.43 1027 1124.61 1030.57 1120.53 1032.98 C 1120.01 1032.96 1118.73 1032.67 1118.46 1032.14 C 1116.85 1029.03 1111.07 1029.07 1110.2 1032.25 C 1110.36 1036.4 1120.28 1036.46 1121.68 1039.64 C 1124.06 1045.05 1118.96 1046.78 1114.98 1048.66 C 1107.32 1045.63 1103.9 1039.06 1111.9 1044.4 C 1115.75 1046.97 1120.62 1042.94 1119.12 1041.43 C 1114.97 1037.27 1098.82 1035.31 1112.74 1026.8 z" fill="rgb(24,22,28)" transform="translate(0,0)"></path>
<path d="M 1148.86 1045.2 C 1158.35 1045 1158.96 1040.23 1151.55 1038.69 C 1136.81 1035.65 1146.54 1024.44 1154.98 1028.2 C 1156.53 1028.88 1160.5 1032.04 1157.77 1033.7 C 1157.13 1033.6 1155.35 1031.93 1155.01 1031.51 C 1151.37 1027.04 1142.3 1033.02 1150.01 1035.79 C 1152.11 1036.54 1157.88 1036.84 1158.62 1039.25 C 1161.36 1048.2 1153.04 1048.27 1147.94 1047.09 L 1148.86 1045.2 z" fill="rgb(24,22,28)" transform="translate(0,0)"></path>
<path d="M 830.84 886.362 C 833.998 885.268 837.446 886.928 838.562 890.077 C 839.678 893.226 838.044 896.686 834.903 897.825 C 831.729 898.976 828.226 897.322 827.098 894.14 C 825.97 890.958 827.65 887.466 830.84 886.362 z" fill="rgb(24,22,28)" transform="translate(0,0)"></path>
<path d="M 1075.44 1022.62 C 1078.22 1025.19 1076.01 1027.68 1079.49 1027.86 C 1080.82 1027.94 1083.85 1027.6 1083.49 1029.77 C 1081.98 1031.63 1077.22 1029.82 1077.16 1031.54 C 1076.73 1042.57 1074.66 1043.24 1084 1046.01 C 1081.93 1047.47 1079.86 1048.47 1077.29 1047.15 C 1071.8 1044.34 1074.58 1036.05 1073.62 1031.31 C 1073.44 1030.44 1070.93 1030.23 1070.52 1029.23 C 1074.16 1025.33 1073 1028.41 1075.44 1022.62 z" fill="rgb(24,22,28)" transform="translate(0,0)"></path>
<path d="M 749.28 1074.71 C 749.542 1075 749.805 1075.28 750.067 1075.57 C 751.676 1077.79 748.316 1081.03 752.5 1081.79 C 760.575 1083.24 750.535 1084.38 750.463 1085.06 C 750.161 1087.92 750.068 1094.47 750.433 1097.57 C 750.569 1098.72 754.061 1099.14 754.588 1100.13 C 754.877 1100.53 755.166 1100.94 755.454 1101.34 C 753.625 1101.61 751.548 1102.11 749.801 1101.47 C 745.044 1099.02 748.655 1089.65 746.967 1085.59 C 746.454 1084.35 744.352 1084.45 743.602 1083.71 C 742.992 1083.02 743.711 1082 744.479 1081.95 C 745.586 1081.89 746.715 1081.15 746.892 1080.07 C 747.239 1077.97 748.184 1076.49 749.28 1074.71 z" fill="rgb(24,22,28)" transform="translate(0,0)"></path>
<path d="M 834.086 760.619 C 836.638 763.161 835.73 766.266 836.351 766.363 C 844.725 767.676 843.219 769.227 836.295 770.279 C 836.683 770.22 831.427 782.101 840.409 784.613 L 842.323 785.296 C 840.688 786.642 838.377 787.806 836.272 786.63 C 830.529 783.356 833.902 775.772 832.642 770.632 C 832.356 769.466 829.561 769.718 828.859 768.023 C 829.665 765.511 832.73 768.382 833.014 765.023 C 833.175 763.123 833.471 762.525 834.086 760.619 z" fill="rgb(24,22,28)" transform="translate(0,0)"></path>
<path d="M 928.072 1075.47 C 929.108 1077.33 929.53 1078.65 930.258 1080.66 C 931.068 1081.31 933.039 1081.16 933.797 1081.37 C 935.755 1081.98 934.739 1084.12 932.981 1084 C 932.405 1083.96 929.579 1084.16 929.513 1085.09 C 929.263 1088.77 928.659 1094.01 929.552 1097.56 C 929.935 1099.08 934.523 1099.82 935.729 1100.26 L 936.727 1100.64 C 922.494 1105.84 928.087 1094.04 926.316 1085.43 C 926.107 1084.41 918.828 1082.49 925.444 1081.21 C 926.323 1081.04 927.701 1076.39 928.072 1075.47 z" fill="rgb(24,22,28)" transform="translate(0,0)"></path>
<path d="M 904.193 760.682 C 906.732 763.503 904.802 763.57 906.049 766.749 C 906.214 767.17 908.618 767.151 908.986 767.16 C 911.278 767.212 911.435 769.376 908.985 769.605 C 908.593 769.642 905.774 770 905.589 770.686 C 904.747 773.815 905.079 778.182 905.435 781.436 C 905.933 784.286 908.333 783.349 910.228 784.473 C 910.767 784.823 911.306 785.172 911.845 785.521 C 899.365 789.68 903.883 779.605 902.454 771.181 C 902.273 770.119 899.607 769.752 898.746 768.462 C 898.73 767.656 899.185 767.04 899.995 767.123 C 903.53 767.487 902.789 764.189 904.193 760.682 z" fill="rgb(24,22,28)" transform="translate(0,0)"></path>
<path d="M 1320.16 774.942 C 1323.4 777.964 1325.49 780.034 1328.99 782.769 C 1329.23 784.05 1329.22 784.005 1328.92 785.29 C 1324.15 789.026 1320.26 793.2 1315.99 797.432 C 1314.38 799.034 1302.86 811.421 1301.2 810.279 C 1301.18 809.108 1324.33 786.913 1327.13 784.016 C 1324.27 781.051 1321.99 778.744 1318.98 775.923 L 1320.16 774.942 z" fill="rgb(88,90,88)" transform="translate(0,0)"></path>
<path d="M 818.688 1072.38 C 822.939 1075.43 821.28 1097.66 820.428 1102.57 C 816.446 1098.95 818.046 1077.69 818.688 1072.38 z" fill="rgb(24,22,28)" transform="translate(0,0)"></path>
<path d="M 897.578 1080.4 C 901.919 1083.83 900.318 1097.63 899.12 1102.44 C 895.31 1099.44 896.93 1085.17 897.578 1080.4 z" fill="rgb(24,22,28)" transform="translate(0,0)"></path>
<path d="M 797.569 1027.38 C 801.894 1030.48 800.27 1043.85 799.231 1048.48 C 795.386 1045.14 796.985 1032.26 797.569 1027.38 z" fill="rgb(24,22,28)" transform="translate(0,0)"></path>
<path d="M 737.862 1080.56 C 741.255 1083.9 739.728 1096.88 738.845 1101.33 C 735.463 1098.31 736.711 1084.86 737.862 1080.56 z" fill="rgb(24,22,28)" transform="translate(0,0)"></path>
<path d="M 1318.98 775.923 C 1316.82 773.861 1300.12 758.239 1300.58 757.17 C 1303.09 755.439 1317.19 772.217 1320.16 774.942 L 1318.98 775.923 z" fill="rgb(141,139,139)" transform="translate(0,0)"></path>
<path d="M 898.4 1073.31 C 899.494 1073.22 900.494 1073.93 900.759 1075 C 901.025 1076.06 900.477 1077.16 899.468 1077.6 C 898.655 1077.94 897.713 1077.78 897.066 1077.18 C 896.419 1076.57 896.188 1075.65 896.476 1074.81 C 896.765 1073.97 897.519 1073.39 898.4 1073.31 z" fill="rgb(24,22,28)" transform="translate(0,0)"></path>
<path d="M 1146.76 1046.58 C 1145.2 1044.82 1141.13 1039.94 1146.82 1042.06 C 1147.54 1042.95 1148.25 1044.2 1148.86 1045.2 L 1147.94 1047.09 L 1146.76 1046.58 z" fill="rgb(24,22,28)" transform="translate(0,0)"></path>
<path d="M 1146.82 1042.06 C 1147.54 1042.95 1148.25 1044.2 1148.86 1045.2 L 1147.94 1047.09 L 1146.76 1046.58 L 1146.82 1042.06 z" fill="rgb(49,51,58)" transform="translate(0,0)"></path>
<path d="M 736.649 1071.55 L 738.069 1072.29 C 739.912 1073.24 740.107 1073.71 738.886 1075.35 C 735.463 1076.43 736.338 1074.76 736.649 1071.55 z" fill="rgb(24,22,28)" transform="translate(0,0)"></path>
<path d="M 797.524 1020.5 C 797.837 1020.34 798.768 1019.74 799.286 1019.9 C 799.403 1019.93 799.486 1020.01 799.521 1020.13 C 799.666 1020.62 798.866 1021.51 798.714 1021.72 C 798.004 1021.98 797.123 1022.61 796.455 1022.13 C 796.51 1021.45 797.077 1021.01 797.524 1020.5 z" fill="rgb(24,22,28)" transform="translate(0,0)"></path>
<path d="M 602.286 240.361 L 652.95 240.311 L 653.067 345.875 C 662.393 348.875 671.696 351.942 680.977 355.077 L 681.108 415.538 L 650.5 415.443 L 573.512 415.715 C 573.014 395.312 573.2 374.273 573.132 353.821 C 583.378 351.258 592.731 348.525 602.826 345.507 L 602.286 240.361 z" fill="rgb(240,110,54)" transform="translate(0,0)"></path>
<path d="M 866.779 240.152 L 917.009 240.432 L 917.074 346.243 C 924.292 347.707 938.073 352.465 945.576 354.808 L 945.752 415.409 L 918.25 415.408 L 838.029 415.509 L 838.035 353.695 C 847.546 350.724 857.107 347.918 866.715 345.279 L 866.779 240.152 z" fill="rgb(240,110,54)" transform="translate(0,0)"></path>
<path d="M 573.388 1632.41 C 609.324 1632.79 645.282 1632.26 681.285 1632.82 L 681.232 1692.46 C 671.224 1696.36 663.156 1698.85 652.922 1701.93 L 652.966 1779.5 L 652.861 1807.74 L 602.584 1807.72 C 601.34 1774 602.937 1737.61 602.002 1703.08 C 593.207 1699.36 582.778 1695.6 573.752 1692.12 C 573.41 1672.22 573.289 1652.31 573.388 1632.41 z" fill="rgb(240,110,54)" transform="translate(0,0)"></path>
<path d="M 749.605 240.483 L 784.94 240.358 L 785.04 345.525 L 813.11 354.753 L 813.28 415.559 C 799.422 415.314 785.185 415.418 771.293 415.352 L 705.52 415.506 C 705.137 395.449 705.479 373.895 705.476 353.745 L 734.913 345.412 L 735.017 240.734 L 749.605 240.483 z" fill="rgb(240,110,54)" transform="translate(0,0)"></path>
<path d="M 706.013 1632.55 L 813.918 1632.79 L 813.272 1693.36 C 803.989 1696.66 794.419 1699.39 784.975 1702.22 L 785.028 1778.5 L 785 1807.6 L 734.87 1807.53 C 734.318 1772.84 734.714 1737.05 734.655 1702.27 C 725.213 1699.44 715.508 1695.99 706.144 1692.82 C 705.896 1672.9 706.053 1652.5 706.013 1632.55 z" fill="rgb(240,110,54)" transform="translate(0,0)"></path>
<path d="M 838.216 1632.81 L 946.067 1633.08 L 946.06 1692.6 C 935.735 1696.31 927.716 1699.05 917.064 1701.99 L 917.014 1778.5 L 916.939 1807.32 L 866.853 1807.3 L 866.668 1702.74 C 857.706 1699.95 847.696 1696.2 838.737 1693.09 L 838.216 1632.81 z" fill="rgb(240,110,54)" transform="translate(0,0)"></path>
<path d="M 999.214 240.035 L 1049.01 240.047 L 1049.14 346.061 C 1058.36 349.28 1067.99 352.199 1077.32 355.157 L 1077.4 415.343 L 1048.5 415.37 L 970.612 415.378 C 970.229 395.425 970.59 373.91 970.603 353.859 C 979.745 351.685 990.081 348.157 999.149 345.3 L 999.214 240.035 z" fill="rgb(240,110,54)" transform="translate(0,0)"></path>
<path d="M 1367.23 1632.83 C 1401.51 1631.97 1439.62 1632.89 1474.2 1632.97 L 1473.96 1693.25 C 1464.79 1696.71 1454.94 1699.89 1445.62 1703.06 C 1444.86 1726.61 1445.47 1753.61 1445.48 1777.43 L 1445.34 1807.84 L 1395.48 1807.76 C 1394.96 1772.98 1395.16 1737.65 1395.05 1702.83 L 1367.29 1692.17 C 1367.15 1672.39 1367.14 1652.61 1367.23 1632.83 z" fill="rgb(240,110,54)" transform="translate(0,0)"></path>
<path d="M 1131.12 239.935 C 1147.41 239.616 1164.66 239.898 1181.02 239.89 L 1180.99 345.986 C 1191.03 349.137 1199.22 351.755 1209.02 355.735 L 1209.06 415.445 L 1181.5 415.455 L 1102.9 415.37 L 1102.97 354.558 L 1131.13 345.051 L 1131.12 239.935 z" fill="rgb(240,110,54)" transform="translate(0,0)"></path>
<path d="M 1263.29 240.012 L 1313.13 240.114 L 1313.07 345.561 C 1322.44 348.191 1331.81 351.547 1341.04 354.699 L 1341.13 415.323 L 1310.5 415.33 L 1235.3 415.577 C 1234.92 395.731 1235.26 374.446 1235.26 354.5 L 1263.38 345.1 C 1263.76 310.227 1263.34 274.934 1263.29 240.012 z" fill="rgb(240,110,54)" transform="translate(0,0)"></path>
<path d="M 970.592 1632.86 L 1077.6 1632.93 L 1077.11 1693.5 C 1068.48 1696.19 1057.69 1699.91 1048.97 1701.43 L 1048.95 1780.5 L 1048.9 1807.88 L 999.238 1807.74 C 998.928 1772.79 999.308 1737.06 999.4 1702.08 C 989.799 1699.01 980.161 1696.05 970.489 1693.2 L 970.592 1632.86 z" fill="rgb(240,110,54)" transform="translate(0,0)"></path>
<path d="M 1103.44 1632.63 L 1209.33 1632.84 L 1209.11 1693.61 C 1200.29 1696.59 1190.09 1699.2 1181.04 1701.72 L 1181.03 1778.5 L 1180.97 1807.28 C 1164.38 1807.45 1147.78 1807.42 1131.19 1807.16 L 1131.11 1702.5 C 1121.98 1699.63 1112.83 1696.84 1103.65 1694.13 L 1103.44 1632.63 z" fill="rgb(240,110,54)" transform="translate(0,0)"></path>
<path d="M 1395.09 239.965 C 1411.73 239.974 1428.38 240.249 1445.01 240.793 C 1444.94 275.824 1445.11 310.854 1445.49 345.883 C 1455.37 348.772 1464.21 352.397 1473.75 356.161 L 1473.56 415.074 L 1447.08 415.178 L 1367.23 415.197 C 1367.16 395.028 1367.27 374.859 1367.55 354.692 C 1376.46 351.48 1386.25 348.449 1395.3 345.455 L 1395.09 239.965 z" fill="rgb(240,110,54)" transform="translate(0,0)"></path>
<path d="M 1235.18 1632.74 L 1340.93 1632.95 L 1340.77 1693.91 L 1312.97 1702.27 L 1313.11 1778.5 L 1313.04 1807.19 C 1296.85 1807.53 1279.99 1807.36 1263.74 1807.43 L 1263.25 1702.32 C 1253.94 1699.18 1244.6 1696.13 1235.24 1693.16 L 1235.18 1632.74 z" fill="rgb(240,110,54)" transform="translate(0,0)"></path>
<path d="M 360.861 1102.08 L 412.927 1102 L 412.867 1209.8 L 359.945 1209.52 C 356.888 1200.37 353.878 1191.21 350.914 1182.04 L 323.5 1182.01 L 242.956 1181.95 C 242.126 1165.84 242.57 1145.86 242.487 1129.46 C 277.42 1128.58 315.039 1129.21 350.186 1129.14 C 353.491 1120.02 357.05 1111 360.861 1102.08 z" fill="rgb(240,110,54)" transform="translate(0,0)"></path>
<path d="M 1634.7 836.053 L 1686.37 836.027 C 1689.96 843.772 1693.82 854.934 1696.91 863.131 C 1732.8 864.048 1769.86 863.806 1805.84 864.008 C 1805.88 881.283 1805.83 898.558 1805.69 915.832 L 1778.5 915.936 C 1751.37 915.865 1724.23 915.947 1697.1 916.182 L 1687.06 943.253 C 1669.92 943.746 1651.81 943.572 1634.59 943.684 L 1634.7 836.053 z" fill="rgb(240,110,54)" transform="translate(0,0)"></path>
<path d="M 1634.68 969.047 L 1687.51 969.197 C 1691.1 978.85 1693.83 987.488 1696.83 997.282 C 1732.57 998.094 1770.02 997.207 1805.96 997.384 L 1805.8 1049.39 L 1779.5 1049.4 C 1751.92 1049.53 1724.34 1049.41 1696.76 1049.05 C 1694.29 1058.05 1690.42 1067.98 1687.19 1076.85 L 1634.68 1076.94 L 1634.68 969.047 z" fill="rgb(240,110,54)" transform="translate(0,0)"></path>
<path d="M 1634.74 1101.97 L 1687 1101.71 C 1690.63 1110.85 1693.95 1120.11 1696.93 1129.48 C 1729.18 1131.13 1772.74 1129.58 1805.9 1129.7 L 1805.8 1181.76 L 1778.99 1181.88 L 1696.89 1182.01 C 1693.83 1191.03 1690.58 1199.98 1687.14 1208.86 L 1634.53 1208.99 L 1634.74 1101.97 z" fill="rgb(240,110,54)" transform="translate(0,0)"></path>
<path d="M 1634.34 1235.08 L 1686.71 1235.09 C 1690.45 1243.84 1693.74 1253.39 1697.62 1262.53 C 1732.56 1263.54 1770.59 1262.41 1805.87 1262.31 L 1805.92 1314.31 L 1779.19 1314.36 L 1697.75 1314.32 L 1686.92 1342.33 L 1634.2 1342.5 L 1634.34 1235.08 z" fill="rgb(240,110,54)" transform="translate(0,0)"></path>
<path d="M 400.591 835.524 L 412.993 835.332 L 412.951 943.718 L 360.331 943.863 L 350.469 915.749 L 282.5 915.907 L 242.874 915.884 L 242.876 863.84 C 276.247 863.696 317.199 864.954 349.835 863.357 L 360.315 835.83 L 400.591 835.524 z" fill="rgb(240,110,54)" transform="translate(0,0)"></path>
<path d="M 359.582 969.215 L 412.956 969.128 L 412.966 1076.3 C 395.259 1076.53 377.549 1076.53 359.842 1076.29 C 357.294 1068.28 353.141 1057.95 350.174 1049.85 C 341.113 1049.57 331.861 1049.5 322.78 1049.33 L 242.644 1049.09 L 242.7 996.99 L 350.41 996.801 L 359.582 969.215 z" fill="rgb(240,110,54)" transform="translate(0,0)"></path>
<path d="M 1634.16 570.708 C 1651.5 570.337 1669.66 570.675 1687.05 570.749 C 1689.85 579.35 1693.85 589.373 1697.03 597.977 C 1732.75 598.992 1770.04 598.382 1805.99 598.912 L 1806 650.184 L 1778.59 650.158 L 1696.76 650.283 C 1693.24 659.431 1689.89 668.643 1686.71 677.915 L 1634.55 677.808 L 1634.16 570.708 z" fill="rgb(240,110,54)" transform="translate(0,0)"></path>
<path d="M 1634.34 1367.8 L 1687.57 1367.7 C 1690.59 1376.77 1693.45 1385.89 1696.17 1395.06 C 1732.06 1395.7 1769.92 1395.06 1805.96 1395.04 L 1805.95 1446.75 L 1776.5 1446.78 L 1697.05 1446.78 C 1693.76 1456.08 1690.19 1465.52 1686.78 1474.8 L 1634.49 1474.54 L 1634.34 1367.8 z" fill="rgb(240,110,54)" transform="translate(0,0)"></path>
<path d="M 360.563 1367.06 L 413.04 1367.5 L 413.01 1474.93 L 359.896 1474.78 C 356.731 1465.57 353.681 1456.33 350.748 1447.05 L 322.795 1446.98 L 242.733 1446.51 C 242.304 1429.79 242.68 1411.76 242.734 1394.94 C 278.406 1394.58 314.684 1394.94 350.406 1394.95 C 353.847 1385.67 357.233 1376.37 360.563 1367.06 z" fill="rgb(240,110,54)" transform="translate(0,0)"></path>
<path d="M 360.069 570.085 L 412.997 570.24 L 412.956 678.364 L 359.904 678.063 C 357.17 668.831 353.958 659.337 351.101 650.056 L 321.75 650.075 L 242.737 650.041 C 242.409 633.143 242.517 615.781 242.42 598.843 C 278.288 598.434 314.414 599.168 350.255 598.341 C 353.692 589.304 356.91 579.289 360.069 570.085 z" fill="rgb(240,110,54)" transform="translate(0,0)"></path>
<path d="M 360.851 703.024 L 412.941 703.157 L 412.852 810.922 L 359.341 810.718 L 350.031 783.163 L 322.5 783.279 L 242.905 783.64 L 242.914 732.125 L 350.016 731.918 L 360.851 703.024 z" fill="rgb(240,110,54)" transform="translate(0,0)"></path>
<path d="M 1634.24 703.14 L 1686.17 703.194 C 1690.56 712.901 1693.4 721.862 1696.71 731.923 L 1805.54 731.855 C 1805.81 748.932 1805.62 766.541 1805.65 783.661 L 1780.75 783.495 L 1696.59 783.362 C 1693.03 792.205 1689.63 801.489 1686.23 810.423 L 1634.56 810.437 C 1634.66 774.671 1634.56 738.905 1634.24 703.14 z" fill="rgb(240,110,54)" transform="translate(0,0)"></path>
<path d="M 360.592 1234.82 C 377.726 1235.2 395.751 1234.98 412.956 1235.04 L 412.97 1342.09 C 396.094 1342.14 376.555 1342.44 359.909 1341.5 C 356.594 1333.51 353.082 1322.6 350.117 1314.26 L 322.552 1314.21 L 242.42 1314.06 C 242.144 1297.04 242.351 1279.47 242.332 1262.4 L 350.296 1262.76 L 360.592 1234.82 z" fill="rgb(240,110,54)" transform="translate(0,0)"></path>
<metadata><recraft-signature>{"signed_by": "recraft", "signature_b64": "97Kclk5lrg4O+gwIesJhkYB8tQ94d1ODu551ePqZnG5gHdOMJtF3il0QVN1aKztL+wGC/6s0gxLFIY3K1nD2DA==", "signing_algo": "Ed25519", "generation_timestamp": 1777069147, "identifier": "495bb81b-e46a-4d6f-84fc-dc55242fa275"}</recraft-signature></metadata></svg>